<?xml version="1.0" encoding="UTF-8"?>
<svg xmlns="http://www.w3.org/2000/svg" version="1.1" viewBox="67.19 924.79 55.82 55.55">
  <path fill="none" stroke="#d0e8e4" stroke-width="2.00" stroke-linecap="butt" vector-effect="non-scaling-stroke" d="M 83.23,942.53 Q 81.94,946.42 82.15,950.0 Q 82.75,960.4 82.85,963.6"/>
  <path fill="none" stroke="#898b8d" stroke-width="2.00" stroke-linecap="butt" vector-effect="non-scaling-stroke" d="M 82.85,963.6 Q 82.57,964.29 82.79,964.69 Q 83.03,965.13 83.75,965.01 Q 84.49,964.88 84.9,964.42"/>
  <path fill="none" stroke="#d0e8e4" stroke-width="2.00" stroke-linecap="butt" vector-effect="non-scaling-stroke" d="M 84.9,964.42 Q 94.05,965.66 103.0,965.11 C 104.03,965.05 104.88,964.53 105.91,964.41"/>
  <path fill="none" stroke="#898b8d" stroke-width="2.00" stroke-linecap="butt" vector-effect="non-scaling-stroke" d="M 105.91,964.41 L 106.61,964.42 A 0.53,0.53 0.0 0,0 107.15,963.84 Q 107.09,963.22 106.47,962.62"/>
  <path fill="none" stroke="#d0e8e4" stroke-width="2.00" stroke-linecap="butt" vector-effect="non-scaling-stroke" d="M 106.47,962.62 L 107.01,962.33 A 0.95,0.92 78.3 0,0 107.49,961.58 Q 108.18,952.5 106.66,943.19"/>
  <path fill="none" stroke="#898b8d" stroke-width="2.00" stroke-linecap="butt" vector-effect="non-scaling-stroke" d="M 106.66,943.19 L 114.1,935.53 A 0.43,0.43 0.0 0,1 114.84,935.83 L 114.84,939.23 A 0.62,0.61 -90.0 0,0 115.45,939.85 L 115.79,939.85 A 1.08,1.08 0.0 0,0 116.87,938.77 L 116.87,932.0 A 0.61,0.61 0.0 0,0 116.26,931.39 L 108.75,931.37 A 0.92,0.91 -88.4 0,0 107.83,932.25 L 107.82,932.29 A 0.84,0.83 -0.0 0,0 108.66,933.12 L 113.52,933.09 A 0.47,0.47 0.0 0,1 113.84,933.9 L 104.76,942.46"/>
  <path fill="none" stroke="#d0e8e4" stroke-width="2.00" stroke-linecap="butt" vector-effect="non-scaling-stroke" d="M 104.76,942.46 C 102.0,940.68 100.29,941.05 97.3,941.13 Q 91.7,941.28 85.85,942.19"/>
  <path fill="none" stroke="#898b8d" stroke-width="2.00" stroke-linecap="butt" vector-effect="non-scaling-stroke" d="M 85.85,942.19 L 81.6,938.91 A 1.3,1.29 -79.8 0,1 81.16,938.27 C 80.68,936.7 79.21,935.66 76.95,933.7 A 0.34,0.34 0.0 0,1 77.17,933.11 L 83.07,933.11 A 0.79,0.78 -90.0 0,0 83.85,932.32 L 83.85,931.94 A 1.16,1.15 -0.0 0,0 82.69,930.79 L 73.86,930.79 A 0.65,0.64 -0.0 0,0 73.21,931.43 L 73.21,940.28 A 0.75,0.75 0.0 0,0 73.96,941.03 L 74.25,941.03 A 1.01,1.0 0.0 0,0 75.26,940.03 L 75.26,935.17 A 0.42,0.42 0.0 0,1 76.03,934.93 Q 77.92,937.63 80.21,938.69 A 2.65,2.6 85.0 0,1 81.24,939.57 L 83.23,942.53"/>
  <path fill="none" stroke="#627c7a" stroke-width="2.00" stroke-linecap="butt" vector-effect="non-scaling-stroke" d="M 85.85,942.19 Q 89.87,946.21 92.59,949.5 A 0.85,0.84 -13.0 0,1 91.74,950.86 Q 91.36,950.76 90.93,950.32 Q 87.32,946.54 83.23,942.53"/>
  <path fill="none" stroke="#627c7a" stroke-width="2.00" stroke-linecap="butt" vector-effect="non-scaling-stroke" d="M 106.47,962.62 L 98.9,955.13 A 0.72,0.71 -52.0 0,0 97.8,955.27 L 97.77,955.31 A 1.19,1.19 0.0 0,0 97.85,956.71 Q 101.37,961.06 105.91,964.41"/>
  <path fill="none" stroke="#627c7a" stroke-width="2.00" stroke-linecap="butt" vector-effect="non-scaling-stroke" d="M 84.9,964.42 Q 88.7,960.3 92.21,957.22 A 1.01,1.0 -54.2 0,0 91.94,955.54 Q 91.26,955.26 90.52,956.03 Q 86.84,959.89 82.85,963.6"/>
  <path fill="none" stroke="#627c7a" stroke-width="2.00" stroke-linecap="butt" vector-effect="non-scaling-stroke" d="M 106.66,943.19 L 98.79,950.47 A 0.69,0.68 -44.7 0,1 97.86,950.47 L 97.67,950.28 A 0.41,0.4 -46.5 0,1 97.66,949.7 L 104.76,942.46"/>
  <path fill="none" stroke="#898b8d" stroke-width="2.00" stroke-linecap="butt" vector-effect="non-scaling-stroke" d="M 101.5015,932.1305 A 0.88,0.88 0.0 0,0 100.6354,931.2368 L 90.8766,931.0835 A 0.88,0.88 0.0 0,0 89.9829,931.9495 L 89.9785,932.2295 A 0.88,0.88 0.0 0,0 90.8446,933.1232 L 100.6034,933.2765 A 0.88,0.88 0.0 0,0 101.4971,932.4105 L 101.5015,932.1305"/>
  <path fill="none" stroke="#898b8d" stroke-width="2.00" stroke-linecap="butt" vector-effect="non-scaling-stroke" d="M 116.9234,946.9247 A 0.89,0.89 0.0 0,0 116.0287,946.0393 L 115.7487,946.0408 A 0.89,0.89 0.0 0,0 114.8634,946.9355 L 114.9166,957.0953 A 0.89,0.89 0.0 0,0 115.8113,957.9807 L 116.0913,957.9792 A 0.89,0.89 0.0 0,0 116.9766,957.0845 L 116.9234,946.9247"/>
  <path fill="none" stroke="#898b8d" stroke-width="2.00" stroke-linecap="butt" vector-effect="non-scaling-stroke" d="M 75.19,947.62 A 0.85,0.85 0.0 0,0 74.34,946.77 L 74.04,946.77 A 0.85,0.85 0.0 0,0 73.19,947.62 L 73.19,957.58 A 0.85,0.85 0.0 0,0 74.04,958.43 L 74.34,958.43 A 0.85,0.85 0.0 0,0 75.19,957.58 L 75.19,947.62"/>
  <path fill="none" stroke="#898b8d" stroke-width="2.00" stroke-linecap="butt" vector-effect="non-scaling-stroke" d="M 108.42,965.88 Q 107.68,966.64 113.05,971.73 A 0.27,0.26 66.3 0,1 112.88,972.19 L 107.43,972.31 A 1.04,1.04 0.0 0,0 106.41,973.31 L 106.41,973.35 A 0.96,0.96 0.0 0,0 107.38,974.34 Q 111.86,974.33 116.55,974.27 Q 116.7,974.27 116.86,974.11 Q 117.01,973.95 117.01,973.8 Q 116.95,969.11 116.84,964.63 A 0.96,0.96 0.0 0,0 115.83,963.68 L 115.79,963.69 A 1.04,1.04 0.0 0,0 114.82,964.73 L 114.84,970.18 A 0.27,0.26 22.3 0,1 114.38,970.37 Q 109.15,965.13 108.42,965.88"/>
  <path fill="none" stroke="#898b8d" stroke-width="2.00" stroke-linecap="butt" vector-effect="non-scaling-stroke" d="M 75.34,971.43 L 75.34,966.17 A 0.91,0.91 0.0 0,0 74.43,965.26 L 73.99,965.26 A 0.76,0.75 0.0 0,0 73.23,966.01 L 73.23,973.71 A 0.53,0.52 0.0 0,0 73.76,974.23 L 82.48,974.23 A 0.73,0.73 0.0 0,0 83.21,973.53 L 83.23,973.11 A 0.7,0.7 0.0 0,0 82.53,972.38 L 77.87,972.38 A 0.47,0.47 0.0 0,1 77.51,971.62 L 80.7,967.71 A 0.42,0.42 0.0 0,0 80.15,967.09 Q 77.03,968.98 75.61,971.5 A 0.14,0.14 0.0 0,1 75.34,971.43"/>
  <path fill="none" stroke="#898b8d" stroke-width="2.00" stroke-linecap="butt" vector-effect="non-scaling-stroke" d="M 100.6397,973.0597 A 0.71,0.71 0.0 0,0 99.9284,972.351 L 89.5684,972.369 A 0.71,0.71 0.0 0,0 88.8597,973.0803 L 88.8603,973.4603 A 0.71,0.71 0.0 0,0 89.5716,974.169 L 99.9316,974.151 A 0.71,0.71 0.0 0,0 100.6403,973.4397 L 100.6397,973.0597"/>
  <path fill="#f7f7f7" d="M 83.23,942.53 Q 81.94,946.42 82.15,950.0 Q 82.75,960.4 82.85,963.6 Q 82.57,964.29 82.79,964.69 Q 83.03,965.13 83.75,965.01 Q 84.49,964.88 84.9,964.42 Q 94.05,965.66 103.0,965.11 C 104.03,965.05 104.88,964.53 105.91,964.41 L 106.61,964.42 A 0.53,0.53 0.0 0,0 107.15,963.84 Q 107.09,963.22 106.47,962.62 L 107.01,962.33 A 0.95,0.92 78.3 0,0 107.49,961.58 Q 108.18,952.5 106.66,943.19 L 114.1,935.53 A 0.43,0.43 0.0 0,1 114.84,935.83 L 114.84,939.23 A 0.62,0.61 -90.0 0,0 115.45,939.85 L 115.79,939.85 A 1.08,1.08 0.0 0,0 116.87,938.77 L 116.87,932.0 A 0.61,0.61 0.0 0,0 116.26,931.39 L 108.75,931.37 A 0.92,0.91 -88.4 0,0 107.83,932.25 L 107.82,932.29 A 0.84,0.83 -0.0 0,0 108.66,933.12 L 113.52,933.09 A 0.47,0.47 0.0 0,1 113.84,933.9 L 104.76,942.46 C 102.0,940.68 100.29,941.05 97.3,941.13 Q 91.7,941.28 85.85,942.19 L 81.6,938.91 A 1.3,1.29 -79.8 0,1 81.16,938.27 C 80.68,936.7 79.21,935.66 76.95,933.7 A 0.34,0.34 0.0 0,1 77.17,933.11 L 83.07,933.11 A 0.79,0.78 -90.0 0,0 83.85,932.32 L 83.85,931.94 A 1.16,1.15 -0.0 0,0 82.69,930.79 L 73.86,930.79 A 0.65,0.64 -0.0 0,0 73.21,931.43 L 73.21,940.28 A 0.75,0.75 0.0 0,0 73.96,941.03 L 74.25,941.03 A 1.01,1.0 0.0 0,0 75.26,940.03 L 75.26,935.17 A 0.42,0.42 0.0 0,1 76.03,934.93 Q 77.92,937.63 80.21,938.69 A 2.65,2.6 85.0 0,1 81.24,939.57 L 83.23,942.53 M 101.5015,932.1305 A 0.88,0.88 0.0 0,0 100.6354,931.2368 L 90.8766,931.0835 A 0.88,0.88 0.0 0,0 89.9829,931.9495 L 89.9785,932.2295 A 0.88,0.88 0.0 0,0 90.8446,933.1232 L 100.6034,933.2765 A 0.88,0.88 0.0 0,0 101.4971,932.4105 L 101.5015,932.1305 M 116.9234,946.9247 A 0.89,0.89 0.0 0,0 116.0287,946.0393 L 115.7487,946.0408 A 0.89,0.89 0.0 0,0 114.8634,946.9355 L 114.9166,957.0953 A 0.89,0.89 0.0 0,0 115.8113,957.9807 L 116.0913,957.9792 A 0.89,0.89 0.0 0,0 116.9766,957.0845 L 116.9234,946.9247 M 75.19,947.62 A 0.85,0.85 0.0 0,0 74.34,946.77 L 74.04,946.77 A 0.85,0.85 0.0 0,0 73.19,947.62 L 73.19,957.58 A 0.85,0.85 0.0 0,0 74.04,958.43 L 74.34,958.43 A 0.85,0.85 0.0 0,0 75.19,957.58 L 75.19,947.62 M 108.42,965.88 Q 107.68,966.64 113.05,971.73 A 0.27,0.26 66.3 0,1 112.88,972.19 L 107.43,972.31 A 1.04,1.04 0.0 0,0 106.41,973.31 L 106.41,973.35 A 0.96,0.96 0.0 0,0 107.38,974.34 Q 111.86,974.33 116.55,974.27 Q 116.7,974.27 116.86,974.11 Q 117.01,973.95 117.01,973.8 Q 116.95,969.11 116.84,964.63 A 0.96,0.96 0.0 0,0 115.83,963.68 L 115.79,963.69 A 1.04,1.04 0.0 0,0 114.82,964.73 L 114.84,970.18 A 0.27,0.26 22.3 0,1 114.38,970.37 Q 109.15,965.13 108.42,965.88 M 75.34,971.43 L 75.34,966.17 A 0.91,0.91 0.0 0,0 74.43,965.26 L 73.99,965.26 A 0.76,0.75 0.0 0,0 73.23,966.01 L 73.23,973.71 A 0.53,0.52 0.0 0,0 73.76,974.23 L 82.48,974.23 A 0.73,0.73 0.0 0,0 83.21,973.53 L 83.23,973.11 A 0.7,0.7 0.0 0,0 82.53,972.38 L 77.87,972.38 A 0.47,0.47 0.0 0,1 77.51,971.62 L 80.7,967.71 A 0.42,0.42 0.0 0,0 80.15,967.09 Q 77.03,968.98 75.61,971.5 A 0.14,0.14 0.0 0,1 75.34,971.43 M 100.6397,973.0597 A 0.71,0.71 0.0 0,0 99.9284,972.351 L 89.5684,972.369 A 0.71,0.71 0.0 0,0 88.8597,973.0803 L 88.8603,973.4603 A 0.71,0.71 0.0 0,0 89.5716,974.169 L 99.9316,974.151 A 0.71,0.71 0.0 0,0 100.6403,973.4397 L 100.6397,973.0597"/>
  <path fill="#1b1f23" d="M 85.85,942.19 Q 89.87,946.21 92.59,949.5 A 0.85,0.84 -13.0 0,1 91.74,950.86 Q 91.36,950.76 90.93,950.32 Q 87.32,946.54 83.23,942.53 L 81.24,939.57 A 2.65,2.6 85.0 0,0 80.21,938.69 Q 77.92,937.63 76.03,934.93 A 0.42,0.42 0.0 0,0 75.26,935.17 L 75.26,940.03 A 1.01,1.0 0.0 0,1 74.25,941.03 L 73.96,941.03 A 0.75,0.75 0.0 0,1 73.21,940.28 L 73.21,931.43 A 0.65,0.64 0.0 0,1 73.86,930.79 L 82.69,930.79 A 1.16,1.15 -0.0 0,1 83.85,931.94 L 83.85,932.32 A 0.79,0.78 -90.0 0,1 83.07,933.11 L 77.17,933.11 A 0.34,0.34 0.0 0,0 76.95,933.7 C 79.21,935.66 80.68,936.7 81.16,938.27 A 1.3,1.29 -79.8 0,0 81.6,938.91 L 85.85,942.19"/>
  <path fill="#1b1f23" d="M 106.66,943.19 L 98.79,950.47 A 0.69,0.68 -44.7 0,1 97.86,950.47 L 97.67,950.28 A 0.41,0.4 -46.5 0,1 97.66,949.7 L 104.76,942.46 L 113.84,933.9 A 0.47,0.47 0.0 0,0 113.52,933.09 L 108.66,933.12 A 0.84,0.83 -0.0 0,1 107.82,932.29 L 107.83,932.25 A 0.92,0.91 -88.4 0,1 108.75,931.37 L 116.26,931.39 A 0.61,0.61 0.0 0,1 116.87,932.0 L 116.87,938.77 A 1.08,1.08 0.0 0,1 115.79,939.85 L 115.45,939.85 A 0.62,0.61 -90.0 0,1 114.84,939.23 L 114.84,935.83 A 0.43,0.43 0.0 0,0 114.1,935.53 L 106.66,943.19"/>
  <path fill="#a8d8d0" d="M 104.76,942.46 L 97.66,949.7 A 0.41,0.4 -46.5 0,0 97.67,950.28 L 97.86,950.47 A 0.69,0.68 -44.7 0,0 98.79,950.47 L 106.66,943.19 Q 108.18,952.5 107.49,961.58 A 0.95,0.92 78.3 0,1 107.01,962.33 L 106.47,962.62 L 98.9,955.13 A 0.72,0.71 -52.0 0,0 97.8,955.27 L 97.77,955.31 A 1.19,1.19 0.0 0,0 97.85,956.71 Q 101.37,961.06 105.91,964.41 C 104.88,964.53 104.03,965.05 103.0,965.11 Q 94.05,965.66 84.9,964.42 Q 88.7,960.3 92.21,957.22 A 1.01,1.0 -54.2 0,0 91.94,955.54 Q 91.26,955.26 90.52,956.03 Q 86.84,959.89 82.85,963.6 Q 82.75,960.4 82.15,950.0 Q 81.94,946.42 83.23,942.53 Q 87.32,946.54 90.93,950.32 Q 91.36,950.76 91.74,950.86 A 0.85,0.84 -13.0 0,0 92.59,949.5 Q 89.87,946.21 85.85,942.19 Q 91.7,941.28 97.3,941.13 C 100.29,941.05 102.0,940.68 104.76,942.46"/>
  <path fill="#1b1f23" d="M 106.47,962.62 Q 107.09,963.22 107.15,963.84 A 0.53,0.53 0.0 0,1 106.61,964.42 L 105.91,964.41 Q 101.37,961.06 97.85,956.71 A 1.19,1.19 0.0 0,1 97.77,955.31 L 97.8,955.27 A 0.72,0.71 -52.0 0,1 98.9,955.13 L 106.47,962.62"/>
  <path fill="#1b1f23" d="M 84.9,964.42 Q 84.49,964.88 83.75,965.01 Q 83.03,965.13 82.79,964.69 Q 82.57,964.29 82.85,963.6 Q 86.84,959.89 90.52,956.03 Q 91.26,955.26 91.94,955.54 A 1.01,1.0 -54.2 0,1 92.21,957.22 Q 88.7,960.3 84.9,964.42"/>
  <path fill="#1b1f23" d="M 116.86,974.11 Q 116.7,974.27 116.55,974.27 Q 111.86,974.33 107.38,974.34 A 0.96,0.96 0.0 0,1 106.41,973.35 L 106.41,973.31 A 1.04,1.04 0.0 0,1 107.43,972.31 L 112.88,972.19 A 0.27,0.26 66.3 0,0 113.05,971.73 Q 107.68,966.64 108.42,965.88 Q 109.15,965.13 114.38,970.37 A 0.27,0.26 22.3 0,0 114.84,970.18 L 114.82,964.73 A 1.04,1.04 0.0 0,1 115.79,963.69 L 115.83,963.68 A 0.96,0.96 0.0 0,1 116.84,964.63 Q 116.95,969.11 117.01,973.8 Q 117.01,973.95 116.86,974.11"/>
  <path fill="#1b1f23" d="M 75.61,971.5 Q 77.03,968.98 80.15,967.09 A 0.42,0.42 0.0 0,1 80.7,967.71 L 77.51,971.62 A 0.47,0.47 0.0 0,0 77.87,972.38 L 82.53,972.38 A 0.7,0.7 0.0 0,1 83.23,973.11 L 83.21,973.53 A 0.73,0.73 0.0 0,1 82.48,974.23 L 73.76,974.23 A 0.53,0.52 0.0 0,1 73.23,973.71 L 73.23,966.01 A 0.76,0.75 -0.0 0,1 73.99,965.26 L 74.43,965.26 A 0.91,0.91 0.0 0,1 75.34,966.17 L 75.34,971.43 A 0.14,0.14 0.0 0,0 75.61,971.5"/>
</svg>
