<?xml version="1.0" encoding="UTF-8"?>
<svg xmlns="http://www.w3.org/2000/svg" version="1.1" viewBox="848.65 362.57 56.57 69.59">
  <path fill="none" stroke="#898b8d" stroke-width="2.00" stroke-linecap="butt" vector-effect="non-scaling-stroke" d="M 891.55,378.49 Q 891.73,375.88 891.22,375.07 Q 888.38,370.64 884.45,373.25 A 0.47,0.47 0.0 0,1 883.72,372.94 C 882.66,366.92 875.17,367.33 873.8,372.89 A 0.57,0.56 19.1 0,1 873.01,373.27 Q 872.92,373.22 872.26,372.75 C 870.42,371.41 867.61,372.86 866.49,374.44 Q 865.49,375.84 865.55,379.13 Q 865.8,393.02 865.51,398.69 A 0.35,0.35 0.0 0,1 864.86,398.84 C 863.83,396.99 862.84,395.06 860.71,394.55 C 856.19,393.47 853.41,397.46 855.2,401.57 Q 858.78,409.79 861.92,415.59 C 864.67,420.67 868.42,425.41 874.46,425.96 A 0.58,0.57 -79.6 0,0 875.06,425.54 L 875.14,425.26 A 0.82,0.82 0.0 0,0 874.57,424.26 L 872.43,423.68 A 4.31,4.16 69.2 0,1 871.18,423.09 Q 865.58,419.13 863.17,414.07 Q 861.81,411.23 856.64,399.78 C 855.42,397.07 859.01,395.8 860.96,396.66 A 2.29,2.26 86.8 0,1 862.0,397.6 L 866.37,405.17 A 0.69,0.69 0.0 0,0 867.66,404.82 L 867.66,377.15 A 2.83,2.83 0.0 0,1 870.49,374.32 L 870.93,374.32 A 2.63,2.63 0.0 0,1 873.56,376.95 L 873.56,394.71 A 0.94,0.94 0.0 0,0 874.5,395.65 L 874.76,395.65 A 0.81,0.8 -90.0 0,0 875.56,394.84 L 875.56,373.77 A 3.06,3.05 88.1 0,1 878.41,370.72 L 878.86,370.69 A 2.6,2.6 0.0 0,1 881.62,373.28 L 881.62,394.85 A 0.91,0.91 0.0 0,0 882.52,395.76 L 882.86,395.77 A 0.84,0.84 0.0 0,0 883.71,394.93 L 883.71,377.65 A 3.27,3.27 0.0 0,1 886.42,374.43 L 886.85,374.36 A 2.34,2.34 0.0 0,1 889.59,376.66 L 889.59,395.21 A 1.03,1.01 -82.7 0,0 890.34,396.2 L 890.72,396.31 A 0.73,0.73 0.0 0,0 891.64,395.6 L 891.64,382.76 A 2.46,2.46 0.0 0,1 894.2,380.3 L 894.49,380.31 A 2.69,2.69 0.0 0,1 897.11,383.0 Q 897.1,407.15 897.11,407.35 C 897.43,415.77 894.71,421.57 886.93,424.42 A 0.75,0.75 0.0 0,0 886.56,425.52 L 886.58,425.55 A 1.3,1.29 66.9 0,0 887.98,426.12 C 892.83,424.97 896.54,420.35 898.23,415.91 Q 899.24,413.24 899.22,407.12 Q 899.14,387.19 899.22,382.16 A 3.07,2.99 36.7 0,0 899.07,381.22 C 898.38,379.19 895.5,377.04 893.21,378.45 Q 892.42,378.93 892.12,378.99 A 0.48,0.48 0.0 0,1 891.55,378.49"/>
  <path fill="#f7f7f7" d="M 891.55,378.49 Q 891.73,375.88 891.22,375.07 Q 888.38,370.64 884.45,373.25 A 0.47,0.47 0.0 0,1 883.72,372.94 C 882.66,366.92 875.17,367.33 873.8,372.89 A 0.57,0.56 19.1 0,1 873.01,373.27 Q 872.92,373.22 872.26,372.75 C 870.42,371.41 867.61,372.86 866.49,374.44 Q 865.49,375.84 865.55,379.13 Q 865.8,393.02 865.51,398.69 A 0.35,0.35 0.0 0,1 864.86,398.84 C 863.83,396.99 862.84,395.06 860.71,394.55 C 856.19,393.47 853.41,397.46 855.2,401.57 Q 858.78,409.79 861.92,415.59 C 864.67,420.67 868.42,425.41 874.46,425.96 A 0.58,0.57 -79.6 0,0 875.06,425.54 L 875.14,425.26 A 0.82,0.82 0.0 0,0 874.57,424.26 L 872.43,423.68 A 4.31,4.16 69.2 0,1 871.18,423.09 Q 865.58,419.13 863.17,414.07 Q 861.81,411.23 856.64,399.78 C 855.42,397.07 859.01,395.8 860.96,396.66 A 2.29,2.26 86.8 0,1 862.0,397.6 L 866.37,405.17 A 0.69,0.69 0.0 0,0 867.66,404.82 L 867.66,377.15 A 2.83,2.83 0.0 0,1 870.49,374.32 L 870.93,374.32 A 2.63,2.63 0.0 0,1 873.56,376.95 L 873.56,394.71 A 0.94,0.94 0.0 0,0 874.5,395.65 L 874.76,395.65 A 0.81,0.8 -90.0 0,0 875.56,394.84 L 875.56,373.77 A 3.06,3.05 88.1 0,1 878.41,370.72 L 878.86,370.69 A 2.6,2.6 0.0 0,1 881.62,373.28 L 881.62,394.85 A 0.91,0.91 0.0 0,0 882.52,395.76 L 882.86,395.77 A 0.84,0.84 0.0 0,0 883.71,394.93 L 883.71,377.65 A 3.27,3.27 0.0 0,1 886.42,374.43 L 886.85,374.36 A 2.34,2.34 0.0 0,1 889.59,376.66 L 889.59,395.21 A 1.03,1.01 -82.7 0,0 890.34,396.2 L 890.72,396.31 A 0.73,0.73 0.0 0,0 891.64,395.6 L 891.64,382.76 A 2.46,2.46 0.0 0,1 894.2,380.3 L 894.49,380.31 A 2.69,2.69 0.0 0,1 897.11,383.0 Q 897.1,407.15 897.11,407.35 C 897.43,415.77 894.71,421.57 886.93,424.42 A 0.75,0.75 0.0 0,0 886.56,425.52 L 886.58,425.55 A 1.3,1.29 66.9 0,0 887.98,426.12 C 892.83,424.97 896.54,420.35 898.23,415.91 Q 899.24,413.24 899.22,407.12 Q 899.14,387.19 899.22,382.16 A 3.07,2.99 36.7 0,0 899.07,381.22 C 898.38,379.19 895.5,377.04 893.21,378.45 Q 892.42,378.93 892.12,378.99 A 0.48,0.48 0.0 0,1 891.55,378.49"/>
  <path fill="#1b1f23" d="M 892.12,378.99 Q 892.42,378.93 893.21,378.45 C 895.5,377.04 898.38,379.19 899.07,381.22 A 3.07,2.99 36.7 0,1 899.22,382.16 Q 899.14,387.19 899.22,407.12 Q 899.24,413.24 898.23,415.91 C 896.54,420.35 892.83,424.97 887.98,426.12 A 1.3,1.29 66.9 0,1 886.58,425.55 L 886.56,425.52 A 0.75,0.75 0.0 0,1 886.93,424.42 C 894.71,421.57 897.43,415.77 897.11,407.35 Q 897.1,407.15 897.11,383.0 A 2.69,2.69 0.0 0,0 894.49,380.31 L 894.2,380.3 A 2.46,2.46 0.0 0,0 891.64,382.76 L 891.64,395.6 A 0.73,0.73 0.0 0,1 890.72,396.31 L 890.34,396.2 A 1.03,1.01 -82.7 0,1 889.59,395.21 L 889.59,376.66 A 2.34,2.34 0.0 0,0 886.85,374.36 L 886.42,374.43 A 3.27,3.27 0.0 0,0 883.71,377.65 L 883.71,394.93 A 0.84,0.84 0.0 0,1 882.86,395.77 L 882.52,395.76 A 0.91,0.91 0.0 0,1 881.62,394.85 L 881.62,373.28 A 2.6,2.6 0.0 0,0 878.86,370.69 L 878.41,370.72 A 3.06,3.05 88.1 0,0 875.56,373.77 L 875.56,394.84 A 0.81,0.8 90.0 0,1 874.76,395.65 L 874.5,395.65 A 0.94,0.94 0.0 0,1 873.56,394.71 L 873.56,376.95 A 2.63,2.63 0.0 0,0 870.93,374.32 L 870.49,374.32 A 2.83,2.83 0.0 0,0 867.66,377.15 L 867.66,404.82 A 0.69,0.69 0.0 0,1 866.37,405.17 L 862.0,397.6 A 2.29,2.26 86.8 0,0 860.96,396.66 C 859.01,395.8 855.42,397.07 856.64,399.78 Q 861.81,411.23 863.17,414.07 Q 865.58,419.13 871.18,423.09 A 4.31,4.16 69.2 0,0 872.43,423.68 L 874.57,424.26 A 0.82,0.82 0.0 0,1 875.14,425.26 L 875.06,425.54 A 0.58,0.57 -79.6 0,1 874.46,425.96 C 868.42,425.41 864.67,420.67 861.92,415.59 Q 858.78,409.79 855.2,401.57 C 853.41,397.46 856.19,393.47 860.71,394.55 C 862.84,395.06 863.83,396.99 864.86,398.84 A 0.35,0.35 0.0 0,0 865.51,398.69 Q 865.8,393.02 865.55,379.13 Q 865.49,375.84 866.49,374.44 C 867.61,372.86 870.42,371.41 872.26,372.75 Q 872.92,373.22 873.01,373.27 A 0.57,0.56 19.1 0,0 873.8,372.89 C 875.17,367.33 882.66,366.92 883.72,372.94 A 0.47,0.47 0.0 0,0 884.45,373.25 Q 888.38,370.64 891.22,375.07 Q 891.73,375.88 891.55,378.49 A 0.48,0.48 0.0 0,0 892.12,378.99"/>
</svg>
