<?xml version="1.0" encoding="UTF-8"?>
<svg xmlns="http://www.w3.org/2000/svg" version="1.1" viewBox="946.36 368.53 64.59 63.66">
  <path fill="none" stroke="#898b8d" stroke-width="2.00" stroke-linecap="butt" vector-effect="non-scaling-stroke" d="M 957.75,380.31 C 949.99,388.3 950.73,401.04 959.17,408.29 C 966.4,414.5 976.53,414.2 983.96,408.15 A 0.73,0.72 47.8 0,1 984.92,408.2 Q 992.47,415.74 1003.02,425.81 Q 1003.45,426.23 1003.77,426.19 Q 1004.01,426.17 1004.48,425.69 Q 1004.93,425.22 1004.95,424.99 Q 1004.97,424.66 1004.54,424.24 Q 994.17,413.99 986.41,406.66 A 0.73,0.72 40.5 0,1 986.34,405.7 C 992.17,398.1 992.17,387.97 985.76,380.92 C 978.27,372.7 965.51,372.33 957.75,380.31"/>
  <path fill="none" stroke="#898b8d" stroke-width="2.00" stroke-linecap="butt" vector-effect="non-scaling-stroke" d="M 988.7759,392.535 A 17.28,17.01 -3.6 0,0 970.4619,376.6436 A 17.28,17.01 -3.6 0,0 954.2841,394.705 A 17.28,17.01 -3.6 0,0 972.5981,410.5964 A 17.28,17.01 -3.6 0,0 988.7759,392.535"/>
  <path fill="none" stroke="#898b8d" stroke-width="2.00" stroke-linecap="butt" vector-effect="non-scaling-stroke" d="M 970.28,392.38 Q 970.15,392.51 970.13,392.52 Q 969.95,392.61 969.93,392.61 C 966.45,392.59 963.22,392.4 962.65,392.92 Q 962.39,393.17 962.39,393.59 Q 962.39,394.0 962.66,394.25 C 963.22,394.77 966.45,394.57 969.93,394.55 Q 969.95,394.55 970.13,394.63 Q 970.15,394.64 970.28,394.77 Q 970.41,394.9 970.42,394.92 Q 970.51,395.1 970.51,395.12 C 970.49,398.6 970.3,401.83 970.82,402.4 Q 971.07,402.67 971.48,402.66 Q 971.9,402.66 972.15,402.4 C 972.67,401.83 972.47,398.6 972.44,395.12 Q 972.44,395.1 972.53,394.92 Q 972.54,394.9 972.67,394.77 Q 972.8,394.64 972.82,394.63 Q 973.0,394.54 973.02,394.54 C 976.5,394.56 979.73,394.75 980.3,394.23 Q 980.56,393.98 980.56,393.57 Q 980.56,393.15 980.29,392.9 C 979.73,392.38 976.5,392.58 973.02,392.61 Q 973.0,392.61 972.82,392.52 Q 972.8,392.51 972.67,392.38 Q 972.54,392.25 972.53,392.23 Q 972.44,392.05 972.44,392.03 C 972.46,388.55 972.65,385.32 972.13,384.76 Q 971.88,384.49 971.47,384.49 Q 971.05,384.49 970.8,384.76 C 970.28,385.32 970.48,388.55 970.51,392.03 Q 970.51,392.05 970.42,392.23 Q 970.41,392.25 970.28,392.38"/>
  <path fill="#f7f7f7" d="M 957.75,380.31 C 949.99,388.3 950.73,401.04 959.17,408.29 C 966.4,414.5 976.53,414.2 983.96,408.15 A 0.73,0.72 47.8 0,1 984.92,408.2 Q 992.47,415.74 1003.02,425.81 Q 1003.45,426.23 1003.77,426.19 Q 1004.01,426.17 1004.48,425.69 Q 1004.93,425.22 1004.95,424.99 Q 1004.97,424.66 1004.54,424.24 Q 994.17,413.99 986.41,406.66 A 0.73,0.72 40.5 0,1 986.34,405.7 C 992.17,398.1 992.17,387.97 985.76,380.92 C 978.27,372.7 965.51,372.33 957.75,380.31"/>
  <path fill="#1b1f23" d="M 1004.48,425.69 Q 1004.01,426.17 1003.77,426.19 Q 1003.45,426.23 1003.02,425.81 Q 992.47,415.74 984.92,408.2 A 0.73,0.72 47.8 0,0 983.96,408.15 C 976.53,414.2 966.4,414.5 959.17,408.29 C 950.73,401.04 949.99,388.3 957.75,380.31 C 965.51,372.33 978.27,372.7 985.76,380.92 C 992.17,387.97 992.17,398.1 986.34,405.7 A 0.73,0.72 40.5 0,0 986.41,406.66 Q 994.17,413.99 1004.54,424.24 Q 1004.97,424.66 1004.95,424.99 Q 1004.93,425.22 1004.48,425.69 M 988.7759,392.535 A 17.28,17.01 -3.6 0,0 970.4619,376.6436 A 17.28,17.01 -3.6 0,0 954.2841,394.705 A 17.28,17.01 -3.6 0,0 972.5981,410.5964 A 17.28,17.01 -3.6 0,0 988.7759,392.535"/>
  <path fill="#f7f7f7" d="M 988.7759,392.535 A 17.28,17.01 -3.6 0,1 972.5981,410.5964 A 17.28,17.01 -3.6 0,1 954.2841,394.705 A 17.28,17.01 -3.6 0,1 970.4619,376.6436 A 17.28,17.01 -3.6 0,1 988.7759,392.535 M 970.28,392.38 Q 970.15,392.51 970.13,392.52 Q 969.95,392.61 969.93,392.61 C 966.45,392.59 963.22,392.4 962.65,392.92 Q 962.39,393.17 962.39,393.59 Q 962.39,394.0 962.66,394.25 C 963.22,394.77 966.45,394.57 969.93,394.55 Q 969.95,394.55 970.13,394.63 Q 970.15,394.64 970.28,394.77 Q 970.41,394.9 970.42,394.92 Q 970.51,395.1 970.51,395.12 C 970.49,398.6 970.3,401.83 970.82,402.4 Q 971.07,402.67 971.48,402.66 Q 971.9,402.66 972.15,402.4 C 972.67,401.83 972.47,398.6 972.44,395.12 Q 972.44,395.1 972.53,394.92 Q 972.54,394.9 972.67,394.77 Q 972.8,394.64 972.82,394.63 Q 973.0,394.54 973.02,394.54 C 976.5,394.56 979.73,394.75 980.3,394.23 Q 980.56,393.98 980.56,393.57 Q 980.56,393.15 980.29,392.9 C 979.73,392.38 976.5,392.58 973.02,392.61 Q 973.0,392.61 972.82,392.52 Q 972.8,392.51 972.67,392.38 Q 972.54,392.25 972.53,392.23 Q 972.44,392.05 972.44,392.03 C 972.46,388.55 972.65,385.32 972.13,384.76 Q 971.88,384.49 971.47,384.49 Q 971.05,384.49 970.8,384.76 C 970.28,385.32 970.48,388.55 970.51,392.03 Q 970.51,392.05 970.42,392.23 Q 970.41,392.25 970.28,392.38"/>
  <rect x="962.39" y="392.38" width="18.17" height="2.39" rx="1.19" ry="1.19" fill="#1b1f23"/>
</svg>
