<?xml version="1.0" encoding="UTF-8"?>
<svg xmlns="http://www.w3.org/2000/svg" version="1.1" viewBox="732.83 564.72 58.62 57.68">
  <path fill="none" stroke="#898b8d" stroke-width="2.00" stroke-linecap="butt" vector-effect="non-scaling-stroke" d="M 785.4483,593.8448 A 23.31,22.84 0.7 0,0 762.419,570.7217 A 23.31,22.84 0.7 0,0 738.8317,593.2752 A 23.31,22.84 0.7 0,0 761.861,616.3983 A 23.31,22.84 0.7 0,0 785.4483,593.8448"/>
  <path fill="none" stroke="#627c7a" stroke-width="2.00" stroke-linecap="butt" vector-effect="non-scaling-stroke" d="M 783.4583,592.8645 A 21.28,20.81 -1.9 0,0 761.5,572.7714 A 21.28,20.81 -1.9 0,0 740.9217,594.2755 A 21.28,20.81 -1.9 0,0 762.88,614.3686 A 21.28,20.81 -1.9 0,0 783.4583,592.8645"/>
  <path fill="none" stroke="#5db7aa" stroke-width="2.00" stroke-linecap="butt" vector-effect="non-scaling-stroke" d="M 752.0,593.89 Q 752.0,594.21 752.25,594.43 Q 752.51,594.67 752.8,594.68 Q 755.58,594.72 760.07,594.69 A 0.97,0.96 -0.3 0,1 761.04,595.64 Q 761.1,599.5 761.27,603.49 Q 761.31,604.35 762.34,604.35 Q 763.37,604.34 763.4,603.48 Q 763.53,599.49 763.55,595.63 A 0.97,0.96 -0.3 0,1 764.51,594.67 Q 769.0,594.65 771.78,594.59 Q 772.07,594.57 772.33,594.34 Q 772.57,594.11 772.57,593.79 Q 772.57,593.48 772.32,593.25 Q 772.06,593.02 771.77,593.01 Q 768.99,592.97 764.5,593.0 A 0.97,0.96 -0.3 0,1 763.53,592.05 Q 763.47,588.19 763.3,584.2 Q 763.26,583.33 762.23,583.34 Q 761.21,583.34 761.18,584.21 Q 761.04,588.2 761.02,592.06 A 0.97,0.96 -0.3 0,1 760.06,593.02 Q 755.57,593.03 752.79,593.1 Q 752.5,593.11 752.24,593.35 Q 752.0,593.58 752.0,593.89"/>
  <path fill="#f7f7f7" d="M 785.4483,593.8448 A 23.31,22.84 0.7 0,0 762.419,570.7217 A 23.31,22.84 0.7 0,0 738.8317,593.2752 A 23.31,22.84 0.7 0,0 761.861,616.3983 A 23.31,22.84 0.7 0,0 785.4483,593.8448"/>
  <path fill="#1b1f23" d="M 785.4483,593.8448 A 23.31,22.84 0.7 0,1 761.861,616.3983 A 23.31,22.84 0.7 0,1 738.8317,593.2752 A 23.31,22.84 0.7 0,1 762.419,570.7217 A 23.31,22.84 0.7 0,1 785.4483,593.8448 M 783.4583,592.8645 A 21.28,20.81 -1.9 0,0 761.5,572.7714 A 21.28,20.81 -1.9 0,0 740.9217,594.2755 A 21.28,20.81 -1.9 0,0 762.88,614.3686 A 21.28,20.81 -1.9 0,0 783.4583,592.8645"/>
  <path fill="#a8d8d0" d="M 783.4583,592.8645 A 21.28,20.81 -1.9 0,1 762.88,614.3686 A 21.28,20.81 -1.9 0,1 740.9217,594.2755 A 21.28,20.81 -1.9 0,1 761.5,572.7714 A 21.28,20.81 -1.9 0,1 783.4583,592.8645 M 752.0,593.89 Q 752.0,594.21 752.25,594.43 Q 752.51,594.67 752.8,594.68 Q 755.58,594.72 760.07,594.69 A 0.97,0.96 -0.3 0,1 761.04,595.64 Q 761.1,599.5 761.27,603.49 Q 761.31,604.35 762.34,604.35 Q 763.37,604.34 763.4,603.48 Q 763.53,599.49 763.55,595.63 A 0.97,0.96 -0.3 0,1 764.51,594.67 Q 769.0,594.65 771.78,594.59 Q 772.07,594.57 772.33,594.34 Q 772.57,594.11 772.57,593.79 Q 772.57,593.48 772.32,593.25 Q 772.06,593.02 771.77,593.01 Q 768.99,592.97 764.5,593.0 A 0.97,0.96 -0.3 0,1 763.53,592.05 Q 763.47,588.19 763.3,584.2 Q 763.26,583.33 762.23,583.34 Q 761.21,583.34 761.18,584.21 Q 761.04,588.2 761.02,592.06 A 0.97,0.96 -0.3 0,1 760.06,593.02 Q 755.57,593.03 752.79,593.1 Q 752.5,593.11 752.24,593.35 Q 752.0,593.58 752.0,593.89"/>
  <path fill="#129684" d="M 762.23,583.34 Q 763.26,583.33 763.3,584.2 Q 763.47,588.19 763.53,592.05 A 0.97,0.96 -0.3 0,0 764.5,593.0 Q 768.99,592.97 771.77,593.01 Q 772.06,593.02 772.32,593.25 Q 772.57,593.48 772.57,593.79 Q 772.57,594.11 772.33,594.34 Q 772.07,594.57 771.78,594.59 Q 769.0,594.65 764.51,594.67 A 0.97,0.96 -0.3 0,0 763.55,595.63 Q 763.53,599.49 763.4,603.48 Q 763.37,604.34 762.34,604.35 Q 761.31,604.35 761.27,603.49 Q 761.1,599.5 761.04,595.64 A 0.97,0.96 -0.3 0,0 760.07,594.69 Q 755.58,594.72 752.8,594.68 Q 752.51,594.67 752.25,594.43 Q 752.0,594.21 752.0,593.89 Q 752.0,593.58 752.24,593.35 Q 752.5,593.11 752.79,593.1 Q 755.57,593.03 760.06,593.02 A 0.97,0.96 -0.3 0,0 761.02,592.06 Q 761.04,588.2 761.18,584.21 Q 761.21,583.34 762.23,583.34"/>
</svg>
