<?xml version="1.0" encoding="UTF-8"?>
<svg xmlns="http://www.w3.org/2000/svg" version="1.1" viewBox="62.43 743.65 67.55 60.04">
  <path fill="none" stroke="#898b8d" stroke-width="2.00" stroke-linecap="butt" vector-effect="non-scaling-stroke" d="M 93.01,749.78 A 0.98,0.98 0.0 0,0 92.03,749.78 L 69.03,763.06 A 0.98,0.98 0.0 0,0 69.03,764.76 L 91.99,778.02 A 0.98,0.98 0.0 0,0 92.97,778.02 L 115.97,764.74 A 0.98,0.98 0.0 0,0 115.97,763.04 L 93.01,749.78"/>
  <path fill="none" stroke="#898b8d" stroke-width="2.00" stroke-linecap="butt" vector-effect="non-scaling-stroke" d="M 76.23,778.57 A 0.74,0.73 -55.0 0,1 77.17,778.4 Q 82.73,781.62 91.42,786.09 C 93.31,787.06 96.44,785.43 96.76,783.41 A 0.78,0.78 0.0 0,0 95.6,782.62 L 93.04,784.1 A 0.93,0.91 -44.4 0,1 92.13,784.1 Q 85.52,780.35 75.3,774.97 Q 73.39,773.97 71.95,772.4 A 1.78,1.76 53.7 0,0 69.77,772.06 L 69.15,772.42 A 0.84,0.83 -45.1 0,0 69.15,773.87 L 75.04,777.28 A 0.28,0.28 0.0 0,1 75.04,777.77 L 68.77,781.39 A 0.68,0.68 0.0 0,0 68.77,782.57 L 91.45,795.66 A 1.87,1.85 44.7 0,0 93.3,795.66 L 97.28,793.37 A 0.83,0.83 0.0 0,0 97.59,792.27 L 97.43,791.96 A 0.96,0.96 0.0 0,0 96.1,791.57 L 93.07,793.32 A 1.5,1.48 44.7 0,1 91.58,793.32 L 72.01,782.02 A 0.2,0.19 48.7 0,1 72.03,781.67 Q 74.67,780.53 76.23,778.57"/>
  <path fill="none" stroke="#898b8d" stroke-width="2.00" stroke-linecap="butt" vector-effect="non-scaling-stroke" d="M 123.9766,786.3703 A 11.45,11.04 -1.4 0,0 112.2603,775.6133 A 11.45,11.04 -1.4 0,0 101.0834,786.9297 A 11.45,11.04 -1.4 0,0 112.7997,797.6867 A 11.45,11.04 -1.4 0,0 123.9766,786.3703"/>
  <path fill="none" stroke="#898b8d" stroke-width="2.00" stroke-linecap="butt" vector-effect="non-scaling-stroke" d="M 112.71,764.16 A 0.31,0.31 0.0 0,0 112.71,763.62 L 92.58,752.0 A 0.31,0.31 0.0 0,0 92.28,752.0 L 72.09,763.65 A 0.31,0.31 0.0 0,0 72.09,764.19 L 92.22,775.81 A 0.31,0.31 0.0 0,0 92.52,775.81 L 112.71,764.16"/>
  <path fill="none" stroke="#326b64" stroke-width="2.00" stroke-linecap="butt" vector-effect="non-scaling-stroke" d="M 122.1906,785.359 A 9.66,9.25 -7.8 0,0 111.3646,777.5056 A 9.66,9.25 -7.8 0,0 103.0494,787.981 A 9.66,9.25 -7.8 0,0 113.8754,795.8344 A 9.66,9.25 -7.8 0,0 122.1906,785.359"/>
  <path fill="none" stroke="#326b64" stroke-width="2.00" stroke-linecap="butt" vector-effect="non-scaling-stroke" d="M 114.08,785.74 A 0.53,0.53 0.0 0,1 113.61,785.27 L 113.17,781.21 A 0.5300000000000011,0.5300000000000011 0.0 0,0 112.11,781.21 L 111.72,785.28 A 0.53,0.53 0.0 0,1 111.25,785.75 L 107.19,786.19 A 0.53,0.53 0.0 0,0 107.19,787.25 L 111.26,787.64 A 0.53,0.53 0.0 0,1 111.73,788.11 L 112.17,792.17 A 0.5300000000000011,0.5300000000000011 0.0 0,0 113.23,792.17 L 113.62,788.1 A 0.53,0.53 0.0 0,1 114.09,787.63 L 118.15,787.19 A 0.5300000000000296,0.5300000000000296 0.0 0,0 118.15,786.13 L 114.08,785.74"/>
  <path fill="#f7f7f7" d="M 93.01,749.78 A 0.98,0.98 0.0 0,0 92.03,749.78 L 69.03,763.06 A 0.98,0.98 0.0 0,0 69.03,764.76 L 91.99,778.02 A 0.98,0.98 0.0 0,0 92.97,778.02 L 115.97,764.74 A 0.98,0.98 0.0 0,0 115.97,763.04 L 93.01,749.78 M 76.23,778.57 A 0.74,0.73 -55.0 0,1 77.17,778.4 Q 82.73,781.62 91.42,786.09 C 93.31,787.06 96.44,785.43 96.76,783.41 A 0.78,0.78 0.0 0,0 95.6,782.62 L 93.04,784.1 A 0.93,0.91 -44.4 0,1 92.13,784.1 Q 85.52,780.35 75.3,774.97 Q 73.39,773.97 71.95,772.4 A 1.78,1.76 53.7 0,0 69.77,772.06 L 69.15,772.42 A 0.84,0.83 -45.1 0,0 69.15,773.87 L 75.04,777.28 A 0.28,0.28 0.0 0,1 75.04,777.77 L 68.77,781.39 A 0.68,0.68 0.0 0,0 68.77,782.57 L 91.45,795.66 A 1.87,1.85 44.7 0,0 93.3,795.66 L 97.28,793.37 A 0.83,0.83 0.0 0,0 97.59,792.27 L 97.43,791.96 A 0.96,0.96 0.0 0,0 96.1,791.57 L 93.07,793.32 A 1.5,1.48 44.7 0,1 91.58,793.32 L 72.01,782.02 A 0.2,0.19 48.7 0,1 72.03,781.67 Q 74.67,780.53 76.23,778.57 M 123.9766,786.3703 A 11.45,11.04 -1.4 0,0 112.2603,775.6133 A 11.45,11.04 -1.4 0,0 101.0834,786.9297 A 11.45,11.04 -1.4 0,0 112.7997,797.6867 A 11.45,11.04 -1.4 0,0 123.9766,786.3703"/>
  <path fill="#1b1f23" d="M 93.01,749.78 L 115.97,763.04 A 0.98,0.98 0.0 0,1 115.97,764.74 L 92.97,778.02 A 0.98,0.98 0.0 0,1 91.99,778.02 L 69.03,764.76 A 0.98,0.98 0.0 0,1 69.03,763.06 L 92.03,749.78 A 0.98,0.98 0.0 0,1 93.01,749.78 M 112.71,764.16 A 0.31,0.31 0.0 0,0 112.71,763.62 L 92.58,752.0 A 0.31,0.31 0.0 0,0 92.28,752.0 L 72.09,763.65 A 0.31,0.31 0.0 0,0 72.09,764.19 L 92.22,775.81 A 0.31,0.31 0.0 0,0 92.52,775.81 L 112.71,764.16"/>
  <path fill="#f7f7f7" d="M 112.71,764.16 L 92.52,775.81 A 0.31,0.31 0.0 0,1 92.22,775.81 L 72.09,764.19 A 0.31,0.31 0.0 0,1 72.09,763.65 L 92.28,752.0 A 0.31,0.31 0.0 0,1 92.58,752.0 L 112.71,763.62 A 0.31,0.31 0.0 0,1 112.71,764.16"/>
  <path fill="#1b1f23" d="M 76.23,778.57 Q 74.67,780.53 72.03,781.67 A 0.2,0.19 48.7 0,0 72.01,782.02 L 91.58,793.32 A 1.5,1.48 44.7 0,0 93.07,793.32 L 96.1,791.57 A 0.96,0.96 0.0 0,1 97.43,791.96 L 97.59,792.27 A 0.83,0.83 0.0 0,1 97.28,793.37 L 93.3,795.66 A 1.87,1.85 44.7 0,1 91.45,795.66 L 68.77,782.57 A 0.68,0.68 0.0 0,1 68.77,781.39 L 75.04,777.77 A 0.28,0.28 0.0 0,0 75.04,777.28 L 69.15,773.87 A 0.84,0.83 -45.1 0,1 69.15,772.42 L 69.77,772.06 A 1.78,1.76 53.7 0,1 71.95,772.4 Q 73.39,773.97 75.3,774.97 Q 85.52,780.35 92.13,784.1 A 0.93,0.91 -44.4 0,0 93.04,784.1 L 95.6,782.62 A 0.78,0.78 0.0 0,1 96.76,783.41 C 96.44,785.43 93.31,787.06 91.42,786.09 Q 82.73,781.62 77.17,778.4 A 0.74,0.73 -55.0 0,0 76.23,778.57"/>
  <path fill="#1b1f23" d="M 123.9766,786.3703 A 11.45,11.04 -1.4 0,1 112.7997,797.6867 A 11.45,11.04 -1.4 0,1 101.0834,786.9297 A 11.45,11.04 -1.4 0,1 112.2603,775.6133 A 11.45,11.04 -1.4 0,1 123.9766,786.3703 M 122.1906,785.359 A 9.66,9.25 -7.8 0,0 111.3646,777.5056 A 9.66,9.25 -7.8 0,0 103.0494,787.981 A 9.66,9.25 -7.8 0,0 113.8754,795.8344 A 9.66,9.25 -7.8 0,0 122.1906,785.359"/>
  <path fill="#49b7a4" d="M 122.1906,785.359 A 9.66,9.25 -7.8 0,1 113.8754,795.8344 A 9.66,9.25 -7.8 0,1 103.0494,787.981 A 9.66,9.25 -7.8 0,1 111.3646,777.5056 A 9.66,9.25 -7.8 0,1 122.1906,785.359 M 114.08,785.74 A 0.53,0.53 0.0 0,1 113.61,785.27 L 113.17,781.21 A 0.5300000000000011,0.5300000000000011 0.0 0,0 112.11,781.21 L 111.72,785.28 A 0.53,0.53 0.0 0,1 111.25,785.75 L 107.19,786.19 A 0.53,0.53 0.0 0,0 107.19,787.25 L 111.26,787.64 A 0.53,0.53 0.0 0,1 111.73,788.11 L 112.17,792.17 A 0.5300000000000011,0.5300000000000011 0.0 0,0 113.23,792.17 L 113.62,788.1 A 0.53,0.53 0.0 0,1 114.09,787.63 L 118.15,787.19 A 0.5300000000000296,0.5300000000000296 0.0 0,0 118.15,786.13 L 114.08,785.74"/>
  <path fill="#1b1f23" d="M 114.08,785.74 L 118.15,786.13 A 0.5300000000000296,0.5300000000000296 0.0 0,1 118.15,787.19 L 114.09,787.63 A 0.53,0.53 0.0 0,0 113.62,788.1 L 113.23,792.17 A 0.5300000000000011,0.5300000000000011 0.0 0,1 112.17,792.17 L 111.73,788.11 A 0.53,0.53 0.0 0,0 111.26,787.64 L 107.19,787.25 A 0.53,0.53 0.0 0,1 107.19,786.19 L 111.25,785.75 A 0.53,0.53 0.0 0,0 111.72,785.28 L 112.11,781.21 A 0.5300000000000011,0.5300000000000011 0.0 0,1 113.17,781.21 L 113.61,785.27 A 0.53,0.53 0.0 0,0 114.08,785.74"/>
</svg>
