<?xml version="1.0" encoding="UTF-8"?>
<svg xmlns="http://www.w3.org/2000/svg" version="1.1" viewBox="465.85 923.94 44.80 56.57">
  <path fill="none" stroke="#898b8d" stroke-width="2.00" stroke-linecap="butt" vector-effect="non-scaling-stroke" d="M 488.24,963.38 Q 488.64,963.38 488.79,963.49 Q 495.45,968.61 502.78,974.26 A 1.19,1.17 41.3 0,0 504.34,974.17 Q 504.6,973.9 504.6,973.45 Q 504.65,956.2 504.65,931.1 A 1.11,1.1 0.9 0,0 503.57,930.0 Q 501.81,929.95 488.27,929.94 Q 474.72,929.93 472.96,929.97 A 1.11,1.1 -0.8 0,0 471.88,931.07 Q 471.84,956.17 471.86,973.42 Q 471.86,973.87 472.12,974.14 A 1.19,1.17 -41.2 0,0 473.68,974.24 Q 481.02,968.6 487.69,963.49 Q 487.84,963.38 488.24,963.38"/>
  <path fill="none" stroke="#898b8d" stroke-width="2.00" stroke-linecap="butt" vector-effect="non-scaling-stroke" d="M 487.92,960.83 A 0.49,0.49 0.0 0,1 488.52,960.83 L 501.81,971.03 A 0.49,0.49 0.0 0,0 502.6,970.64 L 502.6,932.35 A 0.49,0.49 0.0 0,0 502.11,931.86 L 474.52,931.86 A 0.49,0.49 0.0 0,0 474.03,932.35 L 474.03,970.44 A 0.49,0.49 0.0 0,0 474.82,970.83 L 487.92,960.83"/>
  <path fill="#f7f7f7" d="M 488.24,963.38 Q 488.64,963.38 488.79,963.49 Q 495.45,968.61 502.78,974.26 A 1.19,1.17 41.3 0,0 504.34,974.17 Q 504.6,973.9 504.6,973.45 Q 504.65,956.2 504.65,931.1 A 1.11,1.1 0.9 0,0 503.57,930.0 Q 501.81,929.95 488.27,929.94 Q 474.72,929.93 472.96,929.97 A 1.11,1.1 -0.8 0,0 471.88,931.07 Q 471.84,956.17 471.86,973.42 Q 471.86,973.87 472.12,974.14 A 1.19,1.17 -41.2 0,0 473.68,974.24 Q 481.02,968.6 487.69,963.49 Q 487.84,963.38 488.24,963.38"/>
  <path fill="#1b1f23" d="M 488.27,929.94 Q 501.81,929.95 503.57,930.0 A 1.11,1.1 0.9 0,1 504.65,931.1 Q 504.65,956.2 504.6,973.45 Q 504.6,973.9 504.34,974.17 A 1.19,1.17 41.3 0,1 502.78,974.26 Q 495.45,968.61 488.79,963.49 Q 488.64,963.38 488.24,963.38 Q 487.84,963.38 487.69,963.49 Q 481.02,968.6 473.68,974.24 A 1.19,1.17 -41.2 0,1 472.12,974.14 Q 471.86,973.87 471.86,973.42 Q 471.84,956.17 471.88,931.07 A 1.11,1.1 -0.8 0,1 472.96,929.97 Q 474.72,929.93 488.27,929.94 M 487.92,960.83 A 0.49,0.49 0.0 0,1 488.52,960.83 L 501.81,971.03 A 0.49,0.49 0.0 0,0 502.6,970.64 L 502.6,932.35 A 0.49,0.49 0.0 0,0 502.11,931.86 L 474.52,931.86 A 0.49,0.49 0.0 0,0 474.03,932.35 L 474.03,970.44 A 0.49,0.49 0.0 0,0 474.82,970.83 L 487.92,960.83"/>
  <path fill="#f7f7f7" d="M 487.92,960.83 L 474.82,970.83 A 0.49,0.49 0.0 0,1 474.03,970.44 L 474.03,932.35 A 0.49,0.49 0.0 0,1 474.52,931.86 L 502.11,931.86 A 0.49,0.49 0.0 0,1 502.6,932.35 L 502.6,970.64 A 0.49,0.49 0.0 0,1 501.81,971.03 L 488.52,960.83 A 0.49,0.49 0.0 0,0 487.92,960.83"/>
</svg>
