<?xml version="1.0" encoding="UTF-8"?>
<svg xmlns="http://www.w3.org/2000/svg" version="1.1" viewBox="587.92 564.74 58.45 57.52">
  <path fill="none" stroke="#898b8d" stroke-width="2.00" stroke-linecap="butt" vector-effect="non-scaling-stroke" d="M 594.0932,590.5885 A 23.23,22.75 -172.8 0,0 614.2887,616.0706 A 23.23,22.75 -172.8 0,0 640.1868,596.4115 A 23.23,22.75 -172.8 0,0 619.9913,570.9294 A 23.23,22.75 -172.8 0,0 594.0932,590.5885"/>
  <path fill="none" stroke="#627c7a" stroke-width="2.00" stroke-linecap="butt" vector-effect="non-scaling-stroke" d="M 596.1537,591.6308 A 21.14,20.71 -174.9 0,0 615.369,614.138 A 21.14,20.71 -174.9 0,0 638.2663,595.3892 A 21.14,20.71 -174.9 0,0 619.051,572.882 A 21.14,20.71 -174.9 0,0 596.1537,591.6308"/>
  <path fill="#f7f7f7" d="M 594.0932,590.5885 A 23.23,22.75 -172.8 0,0 614.2887,616.0706 A 23.23,22.75 -172.8 0,0 640.1868,596.4115 A 23.23,22.75 -172.8 0,0 619.9913,570.9294 A 23.23,22.75 -172.8 0,0 594.0932,590.5885"/>
  <path fill="#1b1f23" d="M 594.0932,590.5885 A 23.23,22.75 -172.8 0,1 619.9913,570.9294 A 23.23,22.75 -172.8 0,1 640.1868,596.4115 A 23.23,22.75 -172.8 0,1 614.2887,616.0706 A 23.23,22.75 -172.8 0,1 594.0932,590.5885 M 596.1537,591.6308 A 21.14,20.71 -174.9 0,0 615.369,614.138 A 21.14,20.71 -174.9 0,0 638.2663,595.3892 A 21.14,20.71 -174.9 0,0 619.051,572.882 A 21.14,20.71 -174.9 0,0 596.1537,591.6308"/>
</svg>
