<?xml version="1.0" encoding="UTF-8"?>
<svg xmlns="http://www.w3.org/2000/svg" version="1.1" viewBox="993.44 563.73 54.73 58.59">
  <path fill="none" stroke="#898b8d" stroke-width="2.00" stroke-linecap="butt" vector-effect="non-scaling-stroke" d="M 1020.81,616.32 Q 1032.73,616.32 1033.55,616.28 A 2.37,2.36 -89.7 0,0 1035.8,614.05 L 1037.71,581.23 A 0.54,0.54 0.0 0,1 1038.22,580.71 L 1040.37,580.58 A 1.73,1.72 -0.0 0,0 1042.0,578.96 L 1042.17,575.86 A 1.41,1.4 -88.3 0,0 1040.77,574.37 L 1029.41,574.37 A 0.81,0.81 0.0 0,1 1028.6,573.53 Q 1028.71,569.97 1027.4,569.88 A 0.25,0.17 48.9 0,1 1027.3,569.85 Q 1027.05,569.73 1020.8,569.73 Q 1014.56,569.74 1014.31,569.86 A 0.25,0.17 -48.9 0,1 1014.2,569.88 Q 1012.89,569.97 1013.0,573.53 A 0.81,0.81 0.0 0,1 1012.19,574.37 L 1000.83,574.38 A 1.41,1.4 88.2 0,0 999.44,575.87 L 999.61,578.97 A 1.73,1.72 -0.0 0,0 1001.24,580.59 L 1003.39,580.72 A 0.54,0.54 0.0 0,1 1003.9,581.24 L 1005.82,614.06 A 2.37,2.36 89.7 0,0 1008.07,616.29 Q 1008.89,616.33 1020.81,616.32"/>
  <path fill="none" stroke="#898b8d" stroke-width="2.00" stroke-linecap="butt" vector-effect="non-scaling-stroke" d="M 1026.8691,572.3995 A 0.93,0.93 0.0 0,0 1025.9375,571.4711 L 1015.7575,571.4889 A 0.93,0.93 0.0 0,0 1014.8291,572.4205 L 1014.8309,573.4605 A 0.93,0.93 0.0 0,0 1015.7625,574.3889 L 1025.9425,574.3711 A 0.93,0.93 0.0 0,0 1026.8709,573.4395 L 1026.8691,572.3995"/>
  <path fill="none" stroke="#898b8d" stroke-width="2.00" stroke-linecap="butt" vector-effect="non-scaling-stroke" d="M 1040.5905,577.2843 A 0.94,0.94 0.0 0,0 1039.6521,576.3427 L 1002.2322,576.2773 A 0.94,0.94 0.0 0,0 1001.2906,577.2157 L 1001.2895,577.8157 A 0.94,0.94 0.0 0,0 1002.2279,578.7573 L 1039.6478,578.8227 A 0.94,0.94 0.0 0,0 1040.5894,577.8843 L 1040.5905,577.2843"/>
  <path fill="none" stroke="#898b8d" stroke-width="2.00" stroke-linecap="butt" vector-effect="non-scaling-stroke" d="M 1006.62,580.61 A 0.76,0.76 0.0 0,0 1005.86,581.41 L 1007.77,613.67 A 0.76,0.76 0.0 0,0 1008.53,614.39 L 1033.03,614.39 A 0.76,0.76 0.0 0,0 1033.79,613.67 L 1035.65,581.41 A 0.76,0.76 0.0 0,0 1034.89,580.61 L 1006.62,580.61"/>
  <path fill="none" stroke="#898b8d" stroke-width="2.00" stroke-linecap="butt" vector-effect="non-scaling-stroke" d="M 1014.3473,586.7225 A 0.88,0.88 0.0 0,0 1013.4596,585.8502 L 1013.3996,585.8507 A 0.88,0.88 0.0 0,0 1012.5274,586.7383 L 1012.7127,607.9775 A 0.88,0.88 0.0 0,0 1013.6004,608.8498 L 1013.6604,608.8493 A 0.88,0.88 0.0 0,0 1014.5326,607.9617 L 1014.3473,586.7225"/>
  <path fill="none" stroke="#898b8d" stroke-width="2.00" stroke-linecap="butt" vector-effect="non-scaling-stroke" d="M 1021.7774,586.6236 A 0.91,0.91 0.0 0,0 1020.8706,585.7104 L 1020.6706,585.7097 A 0.91,0.91 0.0 0,0 1019.7574,586.6165 L 1019.6826,608.0564 A 0.91,0.91 0.0 0,0 1020.5894,608.9696 L 1020.7894,608.9703 A 0.91,0.91 0.0 0,0 1021.7026,608.0635 L 1021.7774,586.6236"/>
  <path fill="none" stroke="#898b8d" stroke-width="2.00" stroke-linecap="butt" vector-effect="non-scaling-stroke" d="M 1029.1974,586.5935 A 0.77,0.77 0.0 0,0 1028.4301,585.8208 L 1027.9901,585.8193 A 0.77,0.77 0.0 0,0 1027.2174,586.5866 L 1027.1426,608.0265 A 0.77,0.77 0.0 0,0 1027.9099,608.7992 L 1028.3499,608.8007 A 0.77,0.77 0.0 0,0 1029.1226,608.0334 L 1029.1974,586.5935"/>
  <path fill="#f7f7f7" d="M 1020.81,616.32 Q 1032.73,616.32 1033.55,616.28 A 2.37,2.36 -89.7 0,0 1035.8,614.05 L 1037.71,581.23 A 0.54,0.54 0.0 0,1 1038.22,580.71 L 1040.37,580.58 A 1.73,1.72 -0.0 0,0 1042.0,578.96 L 1042.17,575.86 A 1.41,1.4 -88.3 0,0 1040.77,574.37 L 1029.41,574.37 A 0.81,0.81 0.0 0,1 1028.6,573.53 Q 1028.71,569.97 1027.4,569.88 A 0.25,0.17 48.9 0,1 1027.3,569.85 Q 1027.05,569.73 1020.8,569.73 Q 1014.56,569.74 1014.31,569.86 A 0.25,0.17 -48.9 0,1 1014.2,569.88 Q 1012.89,569.97 1013.0,573.53 A 0.81,0.81 0.0 0,1 1012.19,574.37 L 1000.83,574.38 A 1.41,1.4 88.2 0,0 999.44,575.87 L 999.61,578.97 A 1.73,1.72 -0.0 0,0 1001.24,580.59 L 1003.39,580.72 A 0.54,0.54 0.0 0,1 1003.9,581.24 L 1005.82,614.06 A 2.37,2.36 89.7 0,0 1008.07,616.29 Q 1008.89,616.33 1020.81,616.32"/>
  <path fill="#1b1f23" d="M 1020.8,569.73 Q 1027.05,569.73 1027.3,569.85 A 0.25,0.17 48.9 0,0 1027.4,569.88 Q 1028.71,569.97 1028.6,573.53 A 0.81,0.81 0.0 0,0 1029.41,574.37 L 1040.77,574.37 A 1.41,1.4 -88.3 0,1 1042.17,575.86 L 1042.0,578.96 A 1.73,1.72 -0.0 0,1 1040.37,580.58 L 1038.22,580.71 A 0.54,0.54 0.0 0,0 1037.71,581.23 L 1035.8,614.05 A 2.37,2.36 -89.7 0,1 1033.55,616.28 Q 1032.73,616.32 1020.81,616.32 Q 1008.89,616.33 1008.07,616.29 A 2.37,2.36 89.7 0,1 1005.82,614.06 L 1003.9,581.24 A 0.54,0.54 0.0 0,0 1003.39,580.72 L 1001.24,580.59 A 1.73,1.72 -0.0 0,1 999.61,578.97 L 999.44,575.87 A 1.41,1.4 88.2 0,1 1000.83,574.38 L 1012.19,574.37 A 0.81,0.81 0.0 0,0 1013.0,573.53 Q 1012.89,569.97 1014.2,569.88 A 0.25,0.17 -48.9 0,0 1014.31,569.86 Q 1014.56,569.74 1020.8,569.73 M 1026.8691,572.3995 A 0.93,0.93 0.0 0,0 1025.9375,571.4711 L 1015.7575,571.4889 A 0.93,0.93 0.0 0,0 1014.8291,572.4205 L 1014.8309,573.4605 A 0.93,0.93 0.0 0,0 1015.7625,574.3889 L 1025.9425,574.3711 A 0.93,0.93 0.0 0,0 1026.8709,573.4395 L 1026.8691,572.3995 M 1040.5905,577.2843 A 0.94,0.94 0.0 0,0 1039.6521,576.3427 L 1002.2322,576.2773 A 0.94,0.94 0.0 0,0 1001.2906,577.2157 L 1001.2895,577.8157 A 0.94,0.94 0.0 0,0 1002.2279,578.7573 L 1039.6478,578.8227 A 0.94,0.94 0.0 0,0 1040.5894,577.8843 L 1040.5905,577.2843 M 1006.62,580.61 A 0.76,0.76 0.0 0,0 1005.86,581.41 L 1007.77,613.67 A 0.76,0.76 0.0 0,0 1008.53,614.39 L 1033.03,614.39 A 0.76,0.76 0.0 0,0 1033.79,613.67 L 1035.65,581.41 A 0.76,0.76 0.0 0,0 1034.89,580.61 L 1006.62,580.61"/>
  <path fill="#f7f7f7" d="M 1006.62,580.61 L 1034.89,580.61 A 0.76,0.76 0.0 0,1 1035.65,581.41 L 1033.79,613.67 A 0.76,0.76 0.0 0,1 1033.03,614.39 L 1008.53,614.39 A 0.76,0.76 0.0 0,1 1007.77,613.67 L 1005.86,581.41 A 0.76,0.76 0.0 0,1 1006.62,580.61 M 1014.3473,586.7225 A 0.88,0.88 0.0 0,0 1013.4596,585.8502 L 1013.3996,585.8507 A 0.88,0.88 0.0 0,0 1012.5274,586.7383 L 1012.7127,607.9775 A 0.88,0.88 0.0 0,0 1013.6004,608.8498 L 1013.6604,608.8493 A 0.88,0.88 0.0 0,0 1014.5326,607.9617 L 1014.3473,586.7225 M 1021.7774,586.6236 A 0.91,0.91 0.0 0,0 1020.8706,585.7104 L 1020.6706,585.7097 A 0.91,0.91 0.0 0,0 1019.7574,586.6165 L 1019.6826,608.0564 A 0.91,0.91 0.0 0,0 1020.5894,608.9696 L 1020.7894,608.9703 A 0.91,0.91 0.0 0,0 1021.7026,608.0635 L 1021.7774,586.6236 M 1029.1974,586.5935 A 0.77,0.77 0.0 0,0 1028.4301,585.8208 L 1027.9901,585.8193 A 0.77,0.77 0.0 0,0 1027.2174,586.5866 L 1027.1426,608.0265 A 0.77,0.77 0.0 0,0 1027.9099,608.7992 L 1028.3499,608.8007 A 0.77,0.77 0.0 0,0 1029.1226,608.0334 L 1029.1974,586.5935"/>
</svg>
