<?xml version="1.0" encoding="UTF-8"?>
<svg xmlns="http://www.w3.org/2000/svg" version="1.1" viewBox="862.22 563.71 57.86 57.88">
  <path fill="none" stroke="#898b8d" stroke-width="2.00" stroke-linecap="butt" vector-effect="non-scaling-stroke" d="M 868.35,615.46 Q 868.56,615.67 869.18,615.53 Q 874.95,614.24 882.6,612.31 A 5.31,5.27 15.2 0,0 885.11,610.88 Q 898.23,597.51 912.92,582.96 C 916.11,579.8 911.98,576.94 909.41,574.38 C 906.85,571.81 903.98,567.68 900.83,570.87 Q 886.28,585.57 872.92,598.69 A 5.31,5.27 74.8 0,0 871.49,601.2 Q 869.56,608.85 868.27,614.63 Q 868.13,615.24 868.35,615.46"/>
  <path fill="none" stroke="#627c7a" stroke-width="2.00" stroke-linecap="butt" vector-effect="non-scaling-stroke" d="M 911.6826,581.0232 A 1.14,1.14 0.0 0,0 911.6601,579.4111 L 904.0895,572.0491 A 1.14,1.14 0.0 0,0 902.4774,572.0716 L 898.0574,576.6168 A 1.14,1.14 0.0 0,0 898.0799,578.2289 L 905.6505,585.5909 A 1.14,1.14 0.0 0,0 907.2626,585.5684 L 911.6826,581.0232"/>
  <path fill="none" stroke="#898b8d" stroke-width="2.00" stroke-linecap="butt" vector-effect="non-scaling-stroke" d="M 871.47,612.35 Q 871.78,612.67 872.6,612.48 Q 876.92,611.49 881.55,610.21 A 5.4,5.27 14.0 0,0 883.88,608.85 L 904.57,588.15 A 0.53,0.53 0.0 0,0 904.59,587.42 Q 902.5,585.09 900.56,583.16 Q 898.63,581.23 896.29,579.14 A 0.53,0.53 0.0 0,0 895.56,579.17 L 874.93,599.93 A 5.4,5.27 75.8 0,0 873.57,602.26 Q 872.31,606.89 871.33,611.22 Q 871.15,612.03 871.47,612.35"/>
  <path fill="#f7f7f7" d="M 868.35,615.46 Q 868.56,615.67 869.18,615.53 Q 874.95,614.24 882.6,612.31 A 5.31,5.27 15.2 0,0 885.11,610.88 Q 898.23,597.51 912.92,582.96 C 916.11,579.8 911.98,576.94 909.41,574.38 C 906.85,571.81 903.98,567.68 900.83,570.87 Q 886.28,585.57 872.92,598.69 A 5.31,5.27 74.8 0,0 871.49,601.2 Q 869.56,608.85 868.27,614.63 Q 868.13,615.24 868.35,615.46"/>
  <path fill="#1b1f23" d="M 909.41,574.38 C 911.98,576.94 916.11,579.8 912.92,582.96 Q 898.23,597.51 885.11,610.88 A 5.31,5.27 15.2 0,1 882.6,612.31 Q 874.95,614.24 869.18,615.53 Q 868.56,615.67 868.35,615.46 Q 868.13,615.24 868.27,614.63 Q 869.56,608.85 871.49,601.2 A 5.31,5.27 74.8 0,1 872.92,598.69 Q 886.28,585.57 900.83,570.87 C 903.98,567.68 906.85,571.81 909.41,574.38 M 911.6826,581.0232 A 1.14,1.14 0.0 0,0 911.6601,579.4111 L 904.0895,572.0491 A 1.14,1.14 0.0 0,0 902.4774,572.0716 L 898.0574,576.6168 A 1.14,1.14 0.0 0,0 898.0799,578.2289 L 905.6505,585.5909 A 1.14,1.14 0.0 0,0 907.2626,585.5684 L 911.6826,581.0232 M 871.47,612.35 Q 871.78,612.67 872.6,612.48 Q 876.92,611.49 881.55,610.21 A 5.4,5.27 14.0 0,0 883.88,608.85 L 904.57,588.15 A 0.53,0.53 0.0 0,0 904.59,587.42 Q 902.5,585.09 900.56,583.16 Q 898.63,581.23 896.29,579.14 A 0.53,0.53 0.0 0,0 895.56,579.17 L 874.93,599.93 A 5.4,5.27 75.8 0,0 873.57,602.26 Q 872.31,606.89 871.33,611.22 Q 871.15,612.03 871.47,612.35"/>
  <path fill="#f7f7f7" d="M 900.56,583.16 Q 902.5,585.09 904.59,587.42 A 0.53,0.53 0.0 0,1 904.57,588.15 L 883.88,608.85 A 5.4,5.27 14.0 0,1 881.55,610.21 Q 876.92,611.49 872.6,612.48 Q 871.78,612.67 871.47,612.35 Q 871.15,612.03 871.33,611.22 Q 872.31,606.89 873.57,602.26 A 5.4,5.27 75.8 0,1 874.93,599.93 L 895.56,579.17 A 0.53,0.53 0.0 0,1 896.29,579.14 Q 898.63,581.23 900.56,583.16"/>
</svg>
