<?xml version="1.0" encoding="UTF-8"?>
<svg xmlns="http://www.w3.org/2000/svg" version="1.1" viewBox="1125.65 923.62 54.83 55.46">
  <path fill="none" stroke="#898b8d" stroke-width="2.00" stroke-linecap="butt" vector-effect="non-scaling-stroke" d="M 1172.31,933.65 L 1172.31,941.8 A 0.82,0.82 0.0 0,0 1173.13,942.62 L 1173.55,942.62 A 0.93,0.92 0.0 0,0 1174.48,941.7 L 1174.48,930.55 A 0.93,0.93 0.0 0,0 1173.54,929.62 L 1161.52,929.72 A 1.0,0.99 1.5 0,0 1160.53,930.65 L 1160.53,930.68 A 0.86,0.86 0.0 0,0 1161.39,931.57 L 1169.92,931.57 A 0.32,0.31 -67.4 0,1 1170.14,932.11 L 1151.18,951.06 A 1.14,1.13 55.9 0,1 1149.33,950.7 Q 1147.85,947.2 1148.76,943.17 A 0.49,0.49 0.0 0,0 1148.08,942.61 L 1148.06,942.62 A 2.21,2.2 -2.1 0,0 1146.9,943.86 C 1144.54,950.38 1148.35,954.89 1154.2,956.85 A 1.06,1.06 0.0 0,0 1155.52,956.25 L 1155.73,955.75 A 1.15,1.15 0.0 0,0 1154.73,954.17 L 1153.22,954.08 A 0.93,0.93 0.0 0,1 1152.62,952.49 L 1171.71,933.4 A 0.35,0.35 0.0 0,1 1172.31,933.65"/>
  <path fill="none" stroke="#898b8d" stroke-width="2.00" stroke-linecap="butt" vector-effect="non-scaling-stroke" d="M 1173.11,950.07 A 1.15,1.15 0.0 0,0 1172.14,951.19 Q 1172.04,960.05 1172.14,968.62 Q 1172.16,970.85 1169.87,970.85 Q 1153.21,970.84 1135.97,970.88 Q 1133.64,970.89 1133.64,968.42 Q 1133.66,944.82 1133.55,937.08 A 2.21,2.18 -28.9 0,1 1133.92,935.83 Q 1135.92,932.87 1138.33,932.6 Q 1140.0,932.41 1147.48,932.69 A 0.73,0.72 0.8 0,0 1148.23,931.97 L 1148.23,931.68 A 0.98,0.97 1.2 0,0 1147.29,930.71 Q 1146.11,930.67 1140.47,930.58 C 1136.2,930.51 1134.72,931.54 1132.38,934.47 Q 1131.68,935.35 1131.68,938.0 Q 1131.7,957.6 1131.65,966.51 C 1131.63,969.85 1132.34,972.88 1136.11,972.89 Q 1153.72,972.95 1163.76,973.08 Q 1165.22,973.1 1168.68,972.92 C 1171.38,972.78 1173.67,971.92 1174.09,969.22 Q 1174.45,966.84 1174.17,950.92 A 0.88,0.88 0.0 0,0 1173.16,950.07 L 1173.11,950.07"/>
  <path fill="#f7f7f7" d="M 1172.31,933.65 L 1172.31,941.8 A 0.82,0.82 0.0 0,0 1173.13,942.62 L 1173.55,942.62 A 0.93,0.92 0.0 0,0 1174.48,941.7 L 1174.48,930.55 A 0.93,0.93 0.0 0,0 1173.54,929.62 L 1161.52,929.72 A 1.0,0.99 1.5 0,0 1160.53,930.65 L 1160.53,930.68 A 0.86,0.86 0.0 0,0 1161.39,931.57 L 1169.92,931.57 A 0.32,0.31 -67.4 0,1 1170.14,932.11 L 1151.18,951.06 A 1.14,1.13 55.9 0,1 1149.33,950.7 Q 1147.85,947.2 1148.76,943.17 A 0.49,0.49 0.0 0,0 1148.08,942.61 L 1148.06,942.62 A 2.21,2.2 -2.1 0,0 1146.9,943.86 C 1144.54,950.38 1148.35,954.89 1154.2,956.85 A 1.06,1.06 0.0 0,0 1155.52,956.25 L 1155.73,955.75 A 1.15,1.15 0.0 0,0 1154.73,954.17 L 1153.22,954.08 A 0.93,0.93 0.0 0,1 1152.62,952.49 L 1171.71,933.4 A 0.35,0.35 0.0 0,1 1172.31,933.65 M 1173.11,950.07 A 1.15,1.15 0.0 0,0 1172.14,951.19 Q 1172.04,960.05 1172.14,968.62 Q 1172.16,970.85 1169.87,970.85 Q 1153.21,970.84 1135.97,970.88 Q 1133.64,970.89 1133.64,968.42 Q 1133.66,944.82 1133.55,937.08 A 2.21,2.18 -28.9 0,1 1133.92,935.83 Q 1135.92,932.87 1138.33,932.6 Q 1140.0,932.41 1147.48,932.69 A 0.73,0.72 0.8 0,0 1148.23,931.97 L 1148.23,931.68 A 0.98,0.97 1.2 0,0 1147.29,930.71 Q 1146.11,930.67 1140.47,930.58 C 1136.2,930.51 1134.72,931.54 1132.38,934.47 Q 1131.68,935.35 1131.68,938.0 Q 1131.7,957.6 1131.65,966.51 C 1131.63,969.85 1132.34,972.88 1136.11,972.89 Q 1153.72,972.95 1163.76,973.08 Q 1165.22,973.1 1168.68,972.92 C 1171.38,972.78 1173.67,971.92 1174.09,969.22 Q 1174.45,966.84 1174.17,950.92 A 0.88,0.88 0.0 0,0 1173.16,950.07 L 1173.11,950.07"/>
  <path fill="#1b1f23" d="M 1171.71,933.4 L 1152.62,952.49 A 0.93,0.93 0.0 0,0 1153.22,954.08 L 1154.73,954.17 A 1.15,1.15 0.0 0,1 1155.73,955.75 L 1155.52,956.25 A 1.06,1.06 0.0 0,1 1154.2,956.85 C 1148.35,954.89 1144.54,950.38 1146.9,943.86 A 2.21,2.2 -2.1 0,1 1148.06,942.62 L 1148.08,942.61 A 0.49,0.49 0.0 0,1 1148.76,943.17 Q 1147.85,947.2 1149.33,950.7 A 1.14,1.13 55.9 0,0 1151.18,951.06 L 1170.14,932.11 A 0.32,0.31 -67.4 0,0 1169.92,931.57 L 1161.39,931.57 A 0.86,0.86 0.0 0,1 1160.53,930.68 L 1160.53,930.65 A 1.0,0.99 1.5 0,1 1161.52,929.72 L 1173.54,929.62 A 0.93,0.93 0.0 0,1 1174.48,930.55 L 1174.48,941.7 A 0.93,0.92 0.0 0,1 1173.55,942.62 L 1173.13,942.62 A 0.82,0.82 0.0 0,1 1172.31,941.8 L 1172.31,933.65 A 0.35,0.35 0.0 0,0 1171.71,933.4"/>
  <path fill="#1b1f23" d="M 1173.11,950.07 L 1173.16,950.07 A 0.88,0.88 0.0 0,1 1174.17,950.92 Q 1174.45,966.84 1174.09,969.22 C 1173.67,971.92 1171.38,972.78 1168.68,972.92 Q 1165.22,973.1 1163.76,973.08 Q 1153.72,972.95 1136.11,972.89 C 1132.34,972.88 1131.63,969.85 1131.65,966.51 Q 1131.7,957.6 1131.68,938.0 Q 1131.68,935.35 1132.38,934.47 C 1134.72,931.54 1136.2,930.51 1140.47,930.58 Q 1146.11,930.67 1147.29,930.71 A 0.98,0.97 1.2 0,1 1148.23,931.68 L 1148.23,931.97 A 0.73,0.72 0.8 0,1 1147.48,932.69 Q 1140.0,932.41 1138.33,932.6 Q 1135.92,932.87 1133.92,935.83 A 2.21,2.18 -28.9 0,0 1133.55,937.08 Q 1133.66,944.82 1133.64,968.42 Q 1133.64,970.89 1135.97,970.88 Q 1153.21,970.84 1169.87,970.85 Q 1172.16,970.85 1172.14,968.62 Q 1172.04,960.05 1172.14,951.19 A 1.15,1.15 0.0 0,1 1173.11,950.07"/>
</svg>
