<?xml version="1.0" encoding="UTF-8"?>
<svg xmlns="http://www.w3.org/2000/svg" version="1.1" viewBox="375.97 360.69 78.63 77.15">
  <path fill="none" stroke="#898b8d" stroke-width="2.00" stroke-linecap="butt" vector-effect="non-scaling-stroke" d="M 398.9335,368.7541 A 1.99,1.99 0.0 0,0 396.9539,366.7537 L 384.1141,366.6865 A 1.99,1.99 0.0 0,0 382.1137,368.6661 L 382.0465,381.5059 A 1.99,1.99 0.0 0,0 384.0261,383.5063 L 396.8659,383.5735 A 1.99,1.99 0.0 0,0 398.8663,381.5939 L 398.9335,368.7541"/>
  <path fill="none" stroke="#898b8d" stroke-width="2.00" stroke-linecap="butt" vector-effect="non-scaling-stroke" d="M 423.7228,368.5994 A 1.85,1.85 0.0 0,0 421.8793,366.7429 L 408.7594,366.6972 A 1.85,1.85 0.0 0,0 406.9029,368.5407 L 406.8572,381.6606 A 1.85,1.85 0.0 0,0 408.7007,383.5171 L 421.8206,383.5628 A 1.85,1.85 0.0 0,0 423.6771,381.7193 L 423.7228,368.5994"/>
  <path fill="none" stroke="#898b8d" stroke-width="2.00" stroke-linecap="butt" vector-effect="non-scaling-stroke" d="M 448.5355,368.4963 A 1.79,1.79 0.0 0,0 446.7361,366.7157 L 433.5963,366.7845 A 1.79,1.79 0.0 0,0 431.8157,368.5839 L 431.8845,381.7237 A 1.79,1.79 0.0 0,0 433.6839,383.5043 L 446.8237,383.4355 A 1.79,1.79 0.0 0,0 448.6043,381.6361 L 448.5355,368.4963"/>
  <path fill="none" stroke="#898b8d" stroke-width="2.00" stroke-linecap="butt" vector-effect="non-scaling-stroke" d="M 399.01,393.27 A 2.14,2.14 0.0 0,0 396.87,391.13 L 384.11,391.13 A 2.14,2.14 0.0 0,0 381.97,393.27 L 381.97,405.35 A 2.14,2.14 0.0 0,0 384.11,407.49 L 396.87,407.49 A 2.14,2.14 0.0 0,0 399.01,405.35 L 399.01,393.27"/>
  <path fill="none" stroke="#898b8d" stroke-width="2.00" stroke-linecap="butt" vector-effect="non-scaling-stroke" d="M 448.4991,393.0156 A 2.0,2.0 0.0 0,0 446.4956,391.0191 L 433.9756,391.0409 A 2.0,2.0 0.0 0,0 431.9791,393.0444 L 432.0009,405.5644 A 2.0,2.0 0.0 0,0 434.0044,407.5609 L 446.5244,407.5391 A 2.0,2.0 0.0 0,0 448.5209,405.5356 L 448.4991,393.0156"/>
  <path fill="none" stroke="#898b8d" stroke-width="2.00" stroke-linecap="butt" vector-effect="non-scaling-stroke" d="M 423.6683,393.2563 A 2.04,2.04 0.0 0,0 421.6176,391.227 L 408.9778,391.2932 A 2.04,2.04 0.0 0,0 406.9485,393.3439 L 407.0117,405.4237 A 2.04,2.04 0.0 0,0 409.0624,407.453 L 421.7022,407.3868 A 2.04,2.04 0.0 0,0 423.7315,405.3361 L 423.6683,393.2563"/>
  <path fill="none" stroke="#898b8d" stroke-width="2.00" stroke-linecap="butt" vector-effect="non-scaling-stroke" d="M 398.8891,417.2255 A 2.08,2.08 0.0 0,0 396.8055,415.1491 L 384.3255,415.1709 A 2.08,2.08 0.0 0,0 382.2491,417.2545 L 382.2709,429.7345 A 2.08,2.08 0.0 0,0 384.3545,431.8109 L 396.8345,431.7891 A 2.08,2.08 0.0 0,0 398.9109,429.7055 L 398.8891,417.2255"/>
  <path fill="none" stroke="#898b8d" stroke-width="2.00" stroke-linecap="butt" vector-effect="non-scaling-stroke" d="M 423.5772,417.1564 A 2.1,2.1 0.0 0,0 421.4662,415.0674 L 408.9664,415.1328 A 2.1,2.1 0.0 0,0 406.8774,417.2438 L 406.9428,429.7436 A 2.1,2.1 0.0 0,0 409.0538,431.8326 L 421.5536,431.7672 A 2.1,2.1 0.0 0,0 423.6426,429.6562 L 423.5772,417.1564"/>
  <path fill="none" stroke="#898b8d" stroke-width="2.00" stroke-linecap="butt" vector-effect="non-scaling-stroke" d="M 448.58,417.17 A 2.05,2.05 0.0 0,0 446.53,415.12 L 433.91,415.12 A 2.05,2.05 0.0 0,0 431.86,417.17 L 431.86,429.79 A 2.05,2.05 0.0 0,0 433.91,431.84 L 446.53,431.84 A 2.05,2.05 0.0 0,0 448.58,429.79 L 448.58,417.17"/>
  <path fill="none" stroke="#627c7a" stroke-width="2.00" stroke-linecap="butt" vector-effect="non-scaling-stroke" d="M 397.0092,369.6023 A 0.87,0.87 0.0 0,0 396.1422,368.7293 L 385.1223,368.6908 A 0.87,0.87 0.0 0,0 384.2493,369.5578 L 384.2108,380.5777 A 0.87,0.87 0.0 0,0 385.0778,381.4507 L 396.0977,381.4892 A 0.87,0.87 0.0 0,0 396.9707,380.6222 L 397.0092,369.6023"/>
  <path fill="none" stroke="#627c7a" stroke-width="2.00" stroke-linecap="butt" vector-effect="non-scaling-stroke" d="M 421.5397,369.4111 A 0.75,0.75 0.0 0,0 420.7911,368.6598 L 409.6111,368.6403 A 0.75,0.75 0.0 0,0 408.8598,369.3889 L 408.8403,380.5689 A 0.75,0.75 0.0 0,0 409.5889,381.3202 L 420.7689,381.3397 A 0.75,0.75 0.0 0,0 421.5202,380.5911 L 421.5397,369.4111"/>
  <path fill="none" stroke="#627c7a" stroke-width="2.00" stroke-linecap="butt" vector-effect="non-scaling-stroke" d="M 446.6396,369.5912 A 0.9,0.9 0.0 0,0 445.7412,368.6896 L 434.7412,368.6704 A 0.9,0.9 0.0 0,0 433.8396,369.5688 L 433.8204,380.5688 A 0.9,0.9 0.0 0,0 434.7188,381.4704 L 445.7188,381.4896 A 0.9,0.9 0.0 0,0 446.6204,380.5912 L 446.6396,369.5912"/>
  <path fill="none" stroke="#627c7a" stroke-width="2.00" stroke-linecap="butt" vector-effect="non-scaling-stroke" d="M 396.7311,393.8385 A 0.79,0.79 0.0 0,0 395.9384,393.0512 L 385.1585,393.0889 A 0.79,0.79 0.0 0,0 384.3712,393.8816 L 384.4089,404.6615 A 0.79,0.79 0.0 0,0 385.2016,405.4488 L 395.9815,405.4111 A 0.79,0.79 0.0 0,0 396.7688,404.6184 L 396.7311,393.8385"/>
  <path fill="none" stroke="#627c7a" stroke-width="2.00" stroke-linecap="butt" vector-effect="non-scaling-stroke" d="M 446.4995,393.8409 A 0.84,0.84 0.0 0,0 445.6609,392.9995 L 434.8209,392.9805 A 0.84,0.84 0.0 0,0 433.9795,393.8191 L 433.9605,404.6591 A 0.84,0.84 0.0 0,0 434.7991,405.5005 L 445.6391,405.5195 A 0.84,0.84 0.0 0,0 446.4805,404.6809 L 446.4995,393.8409"/>
  <path fill="none" stroke="#627c7a" stroke-width="2.00" stroke-linecap="butt" vector-effect="non-scaling-stroke" d="M 421.5697,393.671 A 0.73,0.73 0.0 0,0 420.841,392.9397 L 409.741,392.9203 A 0.73,0.73 0.0 0,0 409.0097,393.649 L 408.9903,404.749 A 0.73,0.73 0.0 0,0 409.719,405.4803 L 420.819,405.4997 A 0.73,0.73 0.0 0,0 421.5503,404.771 L 421.5697,393.671"/>
  <path fill="none" stroke="#627c7a" stroke-width="2.00" stroke-linecap="butt" vector-effect="non-scaling-stroke" d="M 396.8804,417.869 A 0.83,0.83 0.0 0,0 396.049,417.0404 L 385.069,417.0596 A 0.83,0.83 0.0 0,0 384.2404,417.891 L 384.2596,428.871 A 0.83,0.83 0.0 0,0 385.091,429.6996 L 396.071,429.6804 A 0.83,0.83 0.0 0,0 396.8996,428.849 L 396.8804,417.869"/>
  <path fill="none" stroke="#326b64" stroke-width="2.00" stroke-linecap="butt" vector-effect="non-scaling-stroke" d="M 421.66,417.92 A 0.78,0.78 0.0 0,0 420.88,417.14 L 409.86,417.14 A 0.78,0.78 0.0 0,0 409.08,417.92 L 409.08,428.94 A 0.78,0.78 0.0 0,0 409.86,429.72 L 420.88,429.72 A 0.78,0.78 0.0 0,0 421.66,428.94 L 421.66,417.92"/>
  <path fill="none" stroke="#627c7a" stroke-width="2.00" stroke-linecap="butt" vector-effect="non-scaling-stroke" d="M 446.55,417.91 A 0.85,0.85 0.0 0,0 445.7,417.06 L 434.7,417.06 A 0.85,0.85 0.0 0,0 433.85,417.91 L 433.85,428.91 A 0.85,0.85 0.0 0,0 434.7,429.76 L 445.7,429.76 A 0.85,0.85 0.0 0,0 446.55,428.91 L 446.55,417.91"/>
  <path fill="#f7f7f7" d="M 398.9335,368.7541 A 1.99,1.99 0.0 0,0 396.9539,366.7537 L 384.1141,366.6865 A 1.99,1.99 0.0 0,0 382.1137,368.6661 L 382.0465,381.5059 A 1.99,1.99 0.0 0,0 384.0261,383.5063 L 396.8659,383.5735 A 1.99,1.99 0.0 0,0 398.8663,381.5939 L 398.9335,368.7541 M 423.7228,368.5994 A 1.85,1.85 0.0 0,0 421.8793,366.7429 L 408.7594,366.6972 A 1.85,1.85 0.0 0,0 406.9029,368.5407 L 406.8572,381.6606 A 1.85,1.85 0.0 0,0 408.7007,383.5171 L 421.8206,383.5628 A 1.85,1.85 0.0 0,0 423.6771,381.7193 L 423.7228,368.5994 M 448.5355,368.4963 A 1.79,1.79 0.0 0,0 446.7361,366.7157 L 433.5963,366.7845 A 1.79,1.79 0.0 0,0 431.8157,368.5839 L 431.8845,381.7237 A 1.79,1.79 0.0 0,0 433.6839,383.5043 L 446.8237,383.4355 A 1.79,1.79 0.0 0,0 448.6043,381.6361 L 448.5355,368.4963 M 399.01,393.27 A 2.14,2.14 0.0 0,0 396.87,391.13 L 384.11,391.13 A 2.14,2.14 0.0 0,0 381.97,393.27 L 381.97,405.35 A 2.14,2.14 0.0 0,0 384.11,407.49 L 396.87,407.49 A 2.14,2.14 0.0 0,0 399.01,405.35 L 399.01,393.27 M 448.4991,393.0156 A 2.0,2.0 0.0 0,0 446.4956,391.0191 L 433.9756,391.0409 A 2.0,2.0 0.0 0,0 431.9791,393.0444 L 432.0009,405.5644 A 2.0,2.0 0.0 0,0 434.0044,407.5609 L 446.5244,407.5391 A 2.0,2.0 0.0 0,0 448.5209,405.5356 L 448.4991,393.0156 M 423.6683,393.2563 A 2.04,2.04 0.0 0,0 421.6176,391.227 L 408.9778,391.2932 A 2.04,2.04 0.0 0,0 406.9485,393.3439 L 407.0117,405.4237 A 2.04,2.04 0.0 0,0 409.0624,407.453 L 421.7022,407.3868 A 2.04,2.04 0.0 0,0 423.7315,405.3361 L 423.6683,393.2563 M 398.8891,417.2255 A 2.08,2.08 0.0 0,0 396.8055,415.1491 L 384.3255,415.1709 A 2.08,2.08 0.0 0,0 382.2491,417.2545 L 382.2709,429.7345 A 2.08,2.08 0.0 0,0 384.3545,431.8109 L 396.8345,431.7891 A 2.08,2.08 0.0 0,0 398.9109,429.7055 L 398.8891,417.2255 M 423.5772,417.1564 A 2.1,2.1 0.0 0,0 421.4662,415.0674 L 408.9664,415.1328 A 2.1,2.1 0.0 0,0 406.8774,417.2438 L 406.9428,429.7436 A 2.1,2.1 0.0 0,0 409.0538,431.8326 L 421.5536,431.7672 A 2.1,2.1 0.0 0,0 423.6426,429.6562 L 423.5772,417.1564 M 448.58,417.17 A 2.05,2.05 0.0 0,0 446.53,415.12 L 433.91,415.12 A 2.05,2.05 0.0 0,0 431.86,417.17 L 431.86,429.79 A 2.05,2.05 0.0 0,0 433.91,431.84 L 446.53,431.84 A 2.05,2.05 0.0 0,0 448.58,429.79 L 448.58,417.17"/>
  <path fill="#1b1f23" d="M 398.8663,381.5939 A 1.99,1.99 0.0 0,1 396.8659,383.5735 L 384.0261,383.5063 A 1.99,1.99 0.0 0,1 382.0465,381.5059 L 382.1137,368.6661 A 1.99,1.99 0.0 0,1 384.1141,366.6865 L 396.9539,366.7537 A 1.99,1.99 0.0 0,1 398.9335,368.7541 L 398.8663,381.5939 M 397.0092,369.6023 A 0.87,0.87 0.0 0,0 396.1422,368.7293 L 385.1223,368.6908 A 0.87,0.87 0.0 0,0 384.2493,369.5578 L 384.2108,380.5777 A 0.87,0.87 0.0 0,0 385.0778,381.4507 L 396.0977,381.4892 A 0.87,0.87 0.0 0,0 396.9707,380.6222 L 397.0092,369.6023"/>
  <path fill="#1b1f23" d="M 423.6771,381.7193 A 1.85,1.85 0.0 0,1 421.8206,383.5628 L 408.7007,383.5171 A 1.85,1.85 0.0 0,1 406.8572,381.6606 L 406.9029,368.5407 A 1.85,1.85 0.0 0,1 408.7594,366.6972 L 421.8793,366.7429 A 1.85,1.85 0.0 0,1 423.7228,368.5994 L 423.6771,381.7193 M 421.5397,369.4111 A 0.75,0.75 0.0 0,0 420.7911,368.6598 L 409.6111,368.6403 A 0.75,0.75 0.0 0,0 408.8598,369.3889 L 408.8403,380.5689 A 0.75,0.75 0.0 0,0 409.5889,381.3202 L 420.7689,381.3397 A 0.75,0.75 0.0 0,0 421.5202,380.5911 L 421.5397,369.4111"/>
  <path fill="#1b1f23" d="M 448.6043,381.6361 A 1.79,1.79 0.0 0,1 446.8237,383.4355 L 433.6839,383.5043 A 1.79,1.79 0.0 0,1 431.8845,381.7237 L 431.8157,368.5839 A 1.79,1.79 0.0 0,1 433.5963,366.7845 L 446.7361,366.7157 A 1.79,1.79 0.0 0,1 448.5355,368.4963 L 448.6043,381.6361 M 446.6396,369.5912 A 0.9,0.9 0.0 0,0 445.7412,368.6896 L 434.7412,368.6704 A 0.9,0.9 0.0 0,0 433.8396,369.5688 L 433.8204,380.5688 A 0.9,0.9 0.0 0,0 434.7188,381.4704 L 445.7188,381.4896 A 0.9,0.9 0.0 0,0 446.6204,380.5912 L 446.6396,369.5912"/>
  <path fill="#1b1f23" d="M 399.01,405.35 A 2.14,2.14 0.0 0,1 396.87,407.49 L 384.11,407.49 A 2.14,2.14 0.0 0,1 381.97,405.35 L 381.97,393.27 A 2.14,2.14 0.0 0,1 384.11,391.13 L 396.87,391.13 A 2.14,2.14 0.0 0,1 399.01,393.27 L 399.01,405.35 M 396.7311,393.8385 A 0.79,0.79 0.0 0,0 395.9384,393.0512 L 385.1585,393.0889 A 0.79,0.79 0.0 0,0 384.3712,393.8816 L 384.4089,404.6615 A 0.79,0.79 0.0 0,0 385.2016,405.4488 L 395.9815,405.4111 A 0.79,0.79 0.0 0,0 396.7688,404.6184 L 396.7311,393.8385"/>
  <path fill="#1b1f23" d="M 448.5209,405.5356 A 2.0,2.0 0.0 0,1 446.5244,407.5391 L 434.0044,407.5609 A 2.0,2.0 0.0 0,1 432.0009,405.5644 L 431.9791,393.0444 A 2.0,2.0 0.0 0,1 433.9756,391.0409 L 446.4956,391.0191 A 2.0,2.0 0.0 0,1 448.4991,393.0156 L 448.5209,405.5356 M 446.4995,393.8409 A 0.84,0.84 0.0 0,0 445.6609,392.9995 L 434.8209,392.9805 A 0.84,0.84 0.0 0,0 433.9795,393.8191 L 433.9605,404.6591 A 0.84,0.84 0.0 0,0 434.7991,405.5005 L 445.6391,405.5195 A 0.84,0.84 0.0 0,0 446.4805,404.6809 L 446.4995,393.8409"/>
  <path fill="#1b1f23" d="M 423.7315,405.3361 A 2.04,2.04 0.0 0,1 421.7022,407.3868 L 409.0624,407.453 A 2.04,2.04 0.0 0,1 407.0117,405.4237 L 406.9485,393.3439 A 2.04,2.04 0.0 0,1 408.9778,391.2932 L 421.6176,391.227 A 2.04,2.04 0.0 0,1 423.6683,393.2563 L 423.7315,405.3361 M 421.5697,393.671 A 0.73,0.73 0.0 0,0 420.841,392.9397 L 409.741,392.9203 A 0.73,0.73 0.0 0,0 409.0097,393.649 L 408.9903,404.749 A 0.73,0.73 0.0 0,0 409.719,405.4803 L 420.819,405.4997 A 0.73,0.73 0.0 0,0 421.5503,404.771 L 421.5697,393.671"/>
  <path fill="#1b1f23" d="M 398.9109,429.7055 A 2.08,2.08 0.0 0,1 396.8345,431.7891 L 384.3545,431.8109 A 2.08,2.08 0.0 0,1 382.2709,429.7345 L 382.2491,417.2545 A 2.08,2.08 0.0 0,1 384.3255,415.1709 L 396.8055,415.1491 A 2.08,2.08 0.0 0,1 398.8891,417.2255 L 398.9109,429.7055 M 396.8804,417.869 A 0.83,0.83 0.0 0,0 396.049,417.0404 L 385.069,417.0596 A 0.83,0.83 0.0 0,0 384.2404,417.891 L 384.2596,428.871 A 0.83,0.83 0.0 0,0 385.091,429.6996 L 396.071,429.6804 A 0.83,0.83 0.0 0,0 396.8996,428.849 L 396.8804,417.869"/>
  <path fill="#1b1f23" d="M 423.6426,429.6562 A 2.1,2.1 0.0 0,1 421.5536,431.7672 L 409.0538,431.8326 A 2.1,2.1 0.0 0,1 406.9428,429.7436 L 406.8774,417.2438 A 2.1,2.1 0.0 0,1 408.9664,415.1328 L 421.4662,415.0674 A 2.1,2.1 0.0 0,1 423.5772,417.1564 L 423.6426,429.6562 M 421.66,417.92 A 0.78,0.78 0.0 0,0 420.88,417.14 L 409.86,417.14 A 0.78,0.78 0.0 0,0 409.08,417.92 L 409.08,428.94 A 0.78,0.78 0.0 0,0 409.86,429.72 L 420.88,429.72 A 0.78,0.78 0.0 0,0 421.66,428.94 L 421.66,417.92"/>
  <path fill="#1b1f23" d="M 448.58,429.79 A 2.05,2.05 0.0 0,1 446.53,431.84 L 433.91,431.84 A 2.05,2.05 0.0 0,1 431.86,429.79 L 431.86,417.17 A 2.05,2.05 0.0 0,1 433.91,415.12 L 446.53,415.12 A 2.05,2.05 0.0 0,1 448.58,417.17 L 448.58,429.79 M 446.55,417.91 A 0.85,0.85 0.0 0,0 445.7,417.06 L 434.7,417.06 A 0.85,0.85 0.0 0,0 433.85,417.91 L 433.85,428.91 A 0.85,0.85 0.0 0,0 434.7,429.76 L 445.7,429.76 A 0.85,0.85 0.0 0,0 446.55,428.91 L 446.55,417.91"/>
</svg>
