<?xml version="1.0" encoding="UTF-8"?>
<svg xmlns="http://www.w3.org/2000/svg" version="1.1" viewBox="225.75 363.76 85.02 74.83">
  <path fill="none" stroke="#d0e8e4" stroke-width="2.00" stroke-linecap="butt" vector-effect="non-scaling-stroke" d="M 251.74,403.25 Q 248.46,405.58 244.65,405.25"/>
  <path fill="none" stroke="#898b8d" stroke-width="2.00" stroke-linecap="butt" vector-effect="non-scaling-stroke" d="M 244.65,405.25 Q 243.06,404.11 242.17,404.64 Q 236.66,407.92 232.3,410.78 A 0.89,0.89 0.0 0,0 232.34,412.29 L 266.77,432.17 A 3.14,3.12 -44.8 0,0 269.88,432.17 L 304.33,412.28 A 0.88,0.88 0.0 0,0 304.36,410.78 Q 300.18,408.1 295.27,405.17 Q 293.93,404.37 292.92,406.34"/>
  <path fill="none" stroke="#d0e8e4" stroke-width="2.00" stroke-linecap="butt" vector-effect="non-scaling-stroke" d="M 292.92,406.34 Q 291.42,405.69 288.67,406.08 A 1.41,1.4 -34.2 0,1 287.77,405.91 Q 286.0,404.9 285.96,402.54"/>
  <path fill="none" stroke="#898b8d" stroke-width="2.00" stroke-linecap="butt" vector-effect="non-scaling-stroke" d="M 285.96,402.54 Q 294.89,397.2 304.08,391.89 Q 304.57,391.6 304.63,391.29 Q 304.79,390.5 304.1,390.1 Q 287.74,380.64 268.86,369.95 A 1.49,1.48 -45.2 0,0 267.38,369.96 L 232.2,390.26 A 0.9,0.9 0.0 0,0 232.2,391.82 L 251.74,403.25"/>
  <path fill="none" stroke="#627c7a" stroke-width="2.00" stroke-linecap="butt" vector-effect="non-scaling-stroke" d="M 285.96,402.54 L 269.48,411.94 A 2.49,2.49 0.0 0,1 267.02,411.94 L 251.74,403.25"/>
  <path fill="none" stroke="#627c7a" stroke-width="2.00" stroke-linecap="butt" vector-effect="non-scaling-stroke" d="M 292.92,406.34 Q 296.41,409.35 300.71,411.01 A 0.51,0.5 -49.1 0,1 300.77,411.92 L 269.35,430.06 A 1.8,1.8 0.0 0,1 267.55,430.06 L 236.35,412.05 A 0.48,0.48 0.0 0,1 236.31,411.25 L 244.65,405.25"/>
  <path fill="none" stroke="#898b8d" stroke-width="2.00" stroke-linecap="butt" vector-effect="non-scaling-stroke" d="M 300.99,391.27 A 0.33,0.33 0.0 0,0 300.98,390.69 L 268.51,371.95 A 0.33,0.33 0.0 0,0 268.18,371.95 L 235.58,390.76 A 0.33,0.33 0.0 0,0 235.59,391.34 L 268.06,410.08 A 0.33,0.33 0.0 0,0 268.39,410.08 L 300.99,391.27"/>
  <path fill="#f7f7f7" d="M 251.74,403.25 Q 248.46,405.58 244.65,405.25 Q 243.06,404.11 242.17,404.64 Q 236.66,407.92 232.3,410.78 A 0.89,0.89 0.0 0,0 232.34,412.29 L 266.77,432.17 A 3.14,3.12 -44.8 0,0 269.88,432.17 L 304.33,412.28 A 0.88,0.88 0.0 0,0 304.36,410.78 Q 300.18,408.1 295.27,405.17 Q 293.93,404.37 292.92,406.34 Q 291.42,405.69 288.67,406.08 A 1.41,1.4 -34.2 0,1 287.77,405.91 Q 286.0,404.9 285.96,402.54 Q 294.89,397.2 304.08,391.89 Q 304.57,391.6 304.63,391.29 Q 304.79,390.5 304.1,390.1 Q 287.74,380.64 268.86,369.95 A 1.49,1.48 -45.2 0,0 267.38,369.96 L 232.2,390.26 A 0.9,0.9 0.0 0,0 232.2,391.82 L 251.74,403.25"/>
  <path fill="#1b1f23" d="M 285.96,402.54 L 269.48,411.94 A 2.49,2.49 0.0 0,1 267.02,411.94 L 251.74,403.25 L 232.2,391.82 A 0.9,0.9 0.0 0,1 232.2,390.26 L 267.38,369.96 A 1.49,1.48 -45.2 0,1 268.86,369.95 Q 287.74,380.64 304.1,390.1 Q 304.79,390.5 304.63,391.29 Q 304.57,391.6 304.08,391.89 Q 294.89,397.2 285.96,402.54 M 300.99,391.27 A 0.33,0.33 0.0 0,0 300.98,390.69 L 268.51,371.95 A 0.33,0.33 0.0 0,0 268.18,371.95 L 235.58,390.76 A 0.33,0.33 0.0 0,0 235.59,391.34 L 268.06,410.08 A 0.33,0.33 0.0 0,0 268.39,410.08 L 300.99,391.27"/>
  <path fill="#f7f7f7" d="M 300.99,391.27 L 268.39,410.08 A 0.33,0.33 0.0 0,1 268.06,410.08 L 235.59,391.34 A 0.33,0.33 0.0 0,1 235.58,390.76 L 268.18,371.95 A 0.33,0.33 0.0 0,1 268.51,371.95 L 300.98,390.69 A 0.33,0.33 0.0 0,1 300.99,391.27"/>
  <path fill="#a8d8d0" d="M 285.96,402.54 Q 286.0,404.9 287.77,405.91 A 1.41,1.4 -34.2 0,0 288.67,406.08 Q 291.42,405.69 292.92,406.34 Q 296.41,409.35 300.71,411.01 A 0.51,0.5 -49.1 0,1 300.77,411.92 L 269.35,430.06 A 1.8,1.8 0.0 0,1 267.55,430.06 L 236.35,412.05 A 0.48,0.48 0.0 0,1 236.31,411.25 L 244.65,405.25 Q 248.46,405.58 251.74,403.25 L 267.02,411.94 A 2.49,2.49 0.0 0,0 269.48,411.94 L 285.96,402.54"/>
  <path fill="#1b1f23" d="M 244.65,405.25 L 236.31,411.25 A 0.48,0.48 0.0 0,0 236.35,412.05 L 267.55,430.06 A 1.8,1.8 0.0 0,0 269.35,430.06 L 300.77,411.92 A 0.51,0.5 -49.1 0,0 300.71,411.01 Q 296.41,409.35 292.92,406.34 Q 293.93,404.37 295.27,405.17 Q 300.18,408.1 304.36,410.78 A 0.88,0.88 0.0 0,1 304.33,412.28 L 269.88,432.17 A 3.14,3.12 -44.8 0,1 266.77,432.17 L 232.34,412.29 A 0.89,0.89 0.0 0,1 232.3,410.78 Q 236.66,407.92 242.17,404.64 Q 243.06,404.11 244.65,405.25"/>
</svg>
