<?xml version="1.0" encoding="UTF-8"?>
<svg xmlns="http://www.w3.org/2000/svg" version="1.1" viewBox="515.17 366.51 87.42 63.43">
  <path fill="none" stroke="#d0e8e4" stroke-width="2.00" stroke-linecap="butt" vector-effect="non-scaling-stroke" d="M 582.24,402.08 L 561.06,402.19 A 1.39,1.39 0.0 0,0 559.77,403.06 L 553.26,418.9 A 1.01,1.0 -66.0 0,0 553.75,420.18 Q 554.07,420.32 553.93,421.53"/>
  <path fill="none" stroke="#898b8d" stroke-width="2.00" stroke-linecap="butt" vector-effect="non-scaling-stroke" d="M 553.93,421.53 L 550.54,421.59 A 0.44,0.44 0.0 0,1 550.13,420.98 L 555.41,407.68 A 5.27,4.94 76.9 0,1 556.15,406.4 Q 558.0,404.05 557.98,400.46 A 0.39,0.39 0.0 0,0 557.34,400.16 Q 555.62,401.52 554.93,403.69 Q 553.46,408.28 550.86,412.87 A 2.42,2.22 -78.4 0,0 550.72,413.18 L 547.83,421.04 A 0.87,0.87 0.0 0,1 546.99,421.6 L 544.71,421.53"/>
  <path fill="none" stroke="#d0e8e4" stroke-width="2.00" stroke-linecap="butt" vector-effect="non-scaling-stroke" d="M 544.71,421.53 C 543.98,419.25 545.98,417.72 547.87,416.05 A 2.43,2.36 82.8 0,0 548.44,415.29 C 549.78,412.56 552.99,407.78 553.04,403.01 A 0.97,0.97 0.0 0,0 552.06,402.02 L 531.94,402.22"/>
  <path fill="none" stroke="#898b8d" stroke-width="2.00" stroke-linecap="butt" vector-effect="non-scaling-stroke" d="M 531.94,402.22 Q 531.46,400.24 530.0,401.2 A 0.67,0.65 85.7 0,0 529.75,401.5 L 521.27,422.15 A 1.3,1.3 0.0 0,0 522.47,423.94 L 575.42,423.94 A 0.59,0.59 0.0 0,0 575.96,423.58 L 596.54,373.48 A 0.7,0.7 0.0 0,0 595.9,372.51 L 542.54,372.51 A 1.03,1.03 0.0 0,0 541.59,373.15 L 531.84,396.88 A 0.86,0.86 0.0 0,0 532.64,398.06 L 583.67,398.06 A 0.67,0.67 0.0 0,1 584.23,399.1 L 582.24,402.08"/>
  <path fill="none" stroke="#627c7a" stroke-width="2.00" stroke-linecap="butt" vector-effect="non-scaling-stroke" d="M 531.94,402.22 L 524.18,420.96 A 0.54,0.53 -79.1 0,0 524.68,421.7 L 544.71,421.53"/>
  <path fill="none" stroke="#627c7a" stroke-width="2.00" stroke-linecap="butt" vector-effect="non-scaling-stroke" d="M 553.93,421.53 L 560.31,421.45"/>
  <path fill="none" stroke="#898b8d" stroke-width="2.00" stroke-linecap="butt" vector-effect="non-scaling-stroke" d="M 560.31,421.45 L 573.41,421.59 A 0.98,0.98 0.0 0,0 574.21,421.2 Q 574.81,420.4 575.08,419.26"/>
  <path fill="none" stroke="#627c7a" stroke-width="2.00" stroke-linecap="butt" vector-effect="non-scaling-stroke" d="M 575.08,419.26 L 582.24,402.08"/>
  <path fill="none" stroke="#d0e8e4" stroke-width="2.00" stroke-linecap="butt" vector-effect="non-scaling-stroke" d="M 575.08,419.26 L 562.38,419.13 A 1.12,1.1 20.6 0,0 561.55,419.5 Q 560.79,420.34 560.31,421.45"/>
  <path fill="none" stroke="#898b8d" stroke-width="2.00" stroke-linecap="butt" vector-effect="non-scaling-stroke" d="M 570.67,374.71 Q 570.44,374.76 570.26,374.81 A 1.08,1.06 3.7 0,0 569.6,375.38 Q 563.38,388.88 562.57,390.77 Q 561.45,393.36 561.07,395.84 A 0.57,0.57 0.0 0,0 561.85,396.45 L 564.17,395.5"/>
  <path fill="none" stroke="#627c7a" stroke-width="2.00" stroke-linecap="butt" vector-effect="non-scaling-stroke" d="M 564.17,395.5 L 578.53,395.42"/>
  <path fill="none" stroke="#898b8d" stroke-width="2.00" stroke-linecap="butt" vector-effect="non-scaling-stroke" d="M 578.53,395.42 L 584.07,395.79 A 1.06,1.03 -67.0 0,0 584.91,395.44 Q 585.67,394.58 586.13,392.87"/>
  <path fill="none" stroke="#627c7a" stroke-width="2.00" stroke-linecap="butt" vector-effect="non-scaling-stroke" d="M 586.13,392.87 L 593.9,375.14 A 0.53,0.53 0.0 0,0 593.41,374.4 L 570.67,374.71"/>
  <path fill="none" stroke="#d0e8e4" stroke-width="2.00" stroke-linecap="butt" vector-effect="non-scaling-stroke" d="M 586.13,392.87 Q 585.36,392.51 584.14,393.05 Q 583.13,393.5 582.21,393.54 Q 579.25,393.68 578.53,395.42"/>
  <path fill="none" stroke="#d0e8e4" stroke-width="2.00" stroke-linecap="butt" vector-effect="non-scaling-stroke" d="M 564.17,395.5 L 564.31,392.66 A 1.43,1.39 62.6 0,1 564.5,392.03 Q 569.3,384.17 570.67,374.71"/>
  <path fill="none" stroke="#898b8d" stroke-width="2.00" stroke-linecap="butt" vector-effect="non-scaling-stroke" d="M 550.73,395.6 L 557.6,395.58 A 0.84,0.83 13.1 0,0 558.35,395.12 L 560.52,390.96"/>
  <path fill="none" stroke="#627c7a" stroke-width="2.00" stroke-linecap="butt" vector-effect="non-scaling-stroke" d="M 560.52,390.96 L 563.9,381.97"/>
  <path fill="none" stroke="#898b8d" stroke-width="2.00" stroke-linecap="butt" vector-effect="non-scaling-stroke" d="M 563.9,381.97 L 566.75,375.5 A 0.51,0.51 0.0 0,0 566.44,374.81 Q 565.67,374.55 564.49,374.64"/>
  <path fill="none" stroke="#627c7a" stroke-width="2.00" stroke-linecap="butt" vector-effect="non-scaling-stroke" d="M 564.49,374.64 L 543.71,374.73 A 0.66,0.64 10.2 0,0 543.12,375.13 L 534.86,395.23 A 0.28,0.28 0.0 0,0 535.12,395.62 L 550.73,395.6"/>
  <path fill="none" stroke="#d0e8e4" stroke-width="2.00" stroke-linecap="butt" vector-effect="non-scaling-stroke" d="M 564.49,374.64 Q 564.68,377.72 563.66,380.54 Q 563.05,382.23 563.9,381.97"/>
  <path fill="none" stroke="#d0e8e4" stroke-width="2.00" stroke-linecap="butt" vector-effect="non-scaling-stroke" d="M 560.52,390.96 L 556.96,393.44 A 1.44,1.4 -63.4 0,1 556.21,393.7 Q 553.53,393.85 550.9,394.34 Q 550.39,394.43 550.39,394.85 Q 550.39,395.21 550.73,395.6"/>
  <path fill="#f7f7f7" d="M 582.24,402.08 L 561.06,402.19 A 1.39,1.39 0.0 0,0 559.77,403.06 L 553.26,418.9 A 1.01,1.0 -66.0 0,0 553.75,420.18 Q 554.07,420.32 553.93,421.53 L 550.54,421.59 A 0.44,0.44 0.0 0,1 550.13,420.98 L 555.41,407.68 A 5.27,4.94 76.9 0,1 556.15,406.4 Q 558.0,404.05 557.98,400.46 A 0.39,0.39 0.0 0,0 557.34,400.16 Q 555.62,401.52 554.93,403.69 Q 553.46,408.28 550.86,412.87 A 2.42,2.22 -78.4 0,0 550.72,413.18 L 547.83,421.04 A 0.87,0.87 0.0 0,1 546.99,421.6 L 544.71,421.53 C 543.98,419.25 545.98,417.72 547.87,416.05 A 2.43,2.36 82.8 0,0 548.44,415.29 C 549.78,412.56 552.99,407.78 553.04,403.01 A 0.97,0.97 0.0 0,0 552.06,402.02 L 531.94,402.22 Q 531.46,400.24 530.0,401.2 A 0.67,0.65 85.7 0,0 529.75,401.5 L 521.27,422.15 A 1.3,1.3 0.0 0,0 522.47,423.94 L 575.42,423.94 A 0.59,0.59 0.0 0,0 575.96,423.58 L 596.54,373.48 A 0.7,0.7 0.0 0,0 595.9,372.51 L 542.54,372.51 A 1.03,1.03 0.0 0,0 541.59,373.15 L 531.84,396.88 A 0.86,0.86 0.0 0,0 532.64,398.06 L 583.67,398.06 A 0.67,0.67 0.0 0,1 584.23,399.1 L 582.24,402.08"/>
  <path fill="#1b1f23" d="M 531.94,402.22 L 524.18,420.96 A 0.54,0.53 -79.1 0,0 524.68,421.7 L 544.71,421.53 L 546.99,421.6 A 0.87,0.87 0.0 0,0 547.83,421.04 L 550.72,413.18 A 2.42,2.22 -78.4 0,1 550.86,412.87 Q 553.46,408.28 554.93,403.69 Q 555.62,401.52 557.34,400.16 A 0.39,0.39 0.0 0,1 557.98,400.46 Q 558.0,404.05 556.15,406.4 A 5.27,4.94 76.9 0,0 555.41,407.68 L 550.13,420.98 A 0.44,0.44 0.0 0,0 550.54,421.59 L 553.93,421.53 L 560.31,421.45 L 573.41,421.59 A 0.98,0.98 0.0 0,0 574.21,421.2 Q 574.81,420.4 575.08,419.26 L 582.24,402.08 L 584.23,399.1 A 0.67,0.67 0.0 0,0 583.67,398.06 L 532.64,398.06 A 0.86,0.86 0.0 0,1 531.84,396.88 L 541.59,373.15 A 1.03,1.03 0.0 0,1 542.54,372.51 L 595.9,372.51 A 0.7,0.7 0.0 0,1 596.54,373.48 L 575.96,423.58 A 0.59,0.59 0.0 0,1 575.42,423.94 L 522.47,423.94 A 1.3,1.3 0.0 0,1 521.27,422.15 L 529.75,401.5 A 0.67,0.65 85.7 0,1 530.0,401.2 Q 531.46,400.24 531.94,402.22 M 570.67,374.71 Q 570.44,374.76 570.26,374.81 A 1.08,1.06 3.7 0,0 569.6,375.38 Q 563.38,388.88 562.57,390.77 Q 561.45,393.36 561.07,395.84 A 0.57,0.57 0.0 0,0 561.85,396.45 L 564.17,395.5 L 578.53,395.42 L 584.07,395.79 A 1.06,1.03 -67.0 0,0 584.91,395.44 Q 585.67,394.58 586.13,392.87 L 593.9,375.14 A 0.53,0.53 0.0 0,0 593.41,374.4 L 570.67,374.71 M 550.73,395.6 L 557.6,395.58 A 0.84,0.83 13.1 0,0 558.35,395.12 L 560.52,390.96 L 563.9,381.97 L 566.75,375.5 A 0.51,0.51 0.0 0,0 566.44,374.81 Q 565.67,374.55 564.49,374.64 L 543.71,374.73 A 0.66,0.64 10.2 0,0 543.12,375.13 L 534.86,395.23 A 0.28,0.28 0.0 0,0 535.12,395.62 L 550.73,395.6"/>
  <path fill="#a8d8d0" d="M 586.13,392.87 Q 585.36,392.51 584.14,393.05 Q 583.13,393.5 582.21,393.54 Q 579.25,393.68 578.53,395.42 L 564.17,395.5 L 564.31,392.66 A 1.43,1.39 62.6 0,1 564.5,392.03 Q 569.3,384.17 570.67,374.71 L 593.41,374.4 A 0.53,0.53 0.0 0,1 593.9,375.14 L 586.13,392.87"/>
  <path fill="#a8d8d0" d="M 564.49,374.64 Q 564.68,377.72 563.66,380.54 Q 563.05,382.23 563.9,381.97 L 560.52,390.96 L 556.96,393.44 A 1.44,1.4 -63.4 0,1 556.21,393.7 Q 553.53,393.85 550.9,394.34 Q 550.39,394.43 550.39,394.85 Q 550.39,395.21 550.73,395.6 L 535.12,395.62 A 0.28,0.28 0.0 0,1 534.86,395.23 L 543.12,375.13 A 0.66,0.64 10.2 0,1 543.71,374.73 L 564.49,374.64"/>
  <path fill="#f7f7f7" d="M 563.9,381.97 Q 563.05,382.23 563.66,380.54 Q 564.68,377.72 564.49,374.64 Q 565.67,374.55 566.44,374.81 A 0.51,0.51 0.0 0,1 566.75,375.5 L 563.9,381.97"/>
  <path fill="#f7f7f7" d="M 570.67,374.71 Q 569.3,384.17 564.5,392.03 A 1.43,1.39 62.6 0,0 564.31,392.66 L 564.17,395.5 L 561.85,396.45 A 0.57,0.57 0.0 0,1 561.07,395.84 Q 561.45,393.36 562.57,390.77 Q 563.38,388.88 569.6,375.38 A 1.08,1.06 3.7 0,1 570.26,374.81 Q 570.44,374.76 570.67,374.71"/>
  <path fill="#f7f7f7" d="M 560.52,390.96 L 558.35,395.12 A 0.84,0.83 13.1 0,1 557.6,395.58 L 550.73,395.6 Q 550.39,395.21 550.39,394.85 Q 550.39,394.43 550.9,394.34 Q 553.53,393.85 556.21,393.7 A 1.44,1.4 -63.4 0,0 556.96,393.44 L 560.52,390.96"/>
  <path fill="#f7f7f7" d="M 586.13,392.87 Q 585.67,394.58 584.91,395.44 A 1.06,1.03 -67.0 0,1 584.07,395.79 L 578.53,395.42 Q 579.25,393.68 582.21,393.54 Q 583.13,393.5 584.14,393.05 Q 585.36,392.51 586.13,392.87"/>
  <path fill="#a8d8d0" d="M 582.24,402.08 L 575.08,419.26 L 562.38,419.13 A 1.12,1.1 20.6 0,0 561.55,419.5 Q 560.79,420.34 560.31,421.45 L 553.93,421.53 Q 554.07,420.32 553.75,420.18 A 1.01,1.0 -66.0 0,1 553.26,418.9 L 559.77,403.06 A 1.39,1.39 0.0 0,1 561.06,402.19 L 582.24,402.08"/>
  <path fill="#a8d8d0" d="M 544.71,421.53 L 524.68,421.7 A 0.54,0.53 -79.1 0,1 524.18,420.96 L 531.94,402.22 L 552.06,402.02 A 0.97,0.97 0.0 0,1 553.04,403.01 C 552.99,407.78 549.78,412.56 548.44,415.29 A 2.43,2.36 82.8 0,1 547.87,416.05 C 545.98,417.72 543.98,419.25 544.71,421.53"/>
  <path fill="#f7f7f7" d="M 575.08,419.26 Q 574.81,420.4 574.21,421.2 A 0.98,0.98 0.0 0,1 573.41,421.59 L 560.31,421.45 Q 560.79,420.34 561.55,419.5 A 1.12,1.1 20.6 0,1 562.38,419.13 L 575.08,419.26"/>
</svg>
