<?xml version="1.0" encoding="UTF-8"?>
<svg xmlns="http://www.w3.org/2000/svg" version="1.1" viewBox="658.14 358.11 82.44 80.32">
  <path fill="none" stroke="#898b8d" stroke-width="2.00" stroke-linecap="butt" vector-effect="non-scaling-stroke" d="M 701.26,412.85 Q 701.88,412.85 702.56,411.75 Q 712.17,396.16 712.52,395.52 Q 717.14,387.19 717.64,384.39 Q 720.17,370.25 707.27,364.97 Q 705.25,364.14 701.74,364.11 Q 698.23,364.07 696.19,364.85 Q 683.18,369.85 685.4,384.04 Q 685.84,386.85 690.28,395.28 Q 690.62,395.93 699.89,411.72 Q 700.54,412.84 701.26,412.85"/>
  <path fill="none" stroke="#898b8d" stroke-width="2.00" stroke-linecap="butt" vector-effect="non-scaling-stroke" d="M 732.15,428.85 L 718.0,422.07 A 2.43,2.41 42.7 0,0 715.77,422.15 L 701.83,430.2 A 1.57,1.57 0.0 0,1 700.36,430.26 L 683.69,422.28 A 2.05,2.03 -44.0 0,0 681.97,422.26 L 666.96,429.03 A 0.48,0.48 0.0 0,1 666.29,428.59 L 666.29,389.29 A 1.16,1.15 -12.4 0,1 666.97,388.24 L 678.76,382.98 A 1.54,1.53 76.4 0,0 679.67,381.49 L 679.67,381.45 A 0.82,0.82 0.0 0,0 678.52,380.8 L 664.91,386.93 A 1.31,1.3 -12.3 0,0 664.14,388.12 L 664.14,431.15 A 0.96,0.96 0.0 0,0 665.49,432.02 L 682.62,424.3 A 1.18,1.17 45.3 0,1 683.58,424.31 L 700.13,432.24 A 1.89,1.88 -45.8 0,0 701.82,432.21 L 716.91,424.23 A 0.98,0.94 43.3 0,1 717.77,424.22 L 733.65,431.82 A 0.65,0.65 0.0 0,0 734.58,431.23 L 734.58,387.61 A 1.13,1.13 0.0 0,0 733.94,386.59 L 724.43,382.03 A 0.74,0.73 11.2 0,0 723.38,382.73 L 723.4,383.08 A 1.1,1.1 0.0 0,0 724.04,384.03 L 731.97,387.83 A 1.07,1.06 -77.2 0,1 732.57,388.79 L 732.57,428.58 A 0.3,0.29 -77.4 0,1 732.15,428.85"/>
  <path fill="none" stroke="#898b8d" stroke-width="2.00" stroke-linecap="butt" vector-effect="non-scaling-stroke" d="M 682.58,412.85 L 683.9,412.85 A 0.43,0.43 0.0 0,0 684.33,412.41 L 684.23,398.44 A 3.46,0.53 89.6 0,0 683.68,394.99 L 682.56,394.99 A 3.46,0.53 89.6 0,0 682.05,398.46 L 682.15,412.43 A 0.43,0.43 0.0 0,0 682.58,412.85"/>
  <path fill="none" stroke="#898b8d" stroke-width="2.00" stroke-linecap="butt" vector-effect="non-scaling-stroke" d="M 716.34,413.01 L 717.88,413.03 A 0.28,0.28 0.0 0,0 718.16,412.75 L 718.25,402.43 A 2.96,0.91 -89.5 0,0 717.37,399.46 L 717.09,399.46 A 2.96,0.91 -89.5 0,0 716.15,402.41 L 716.06,412.73 A 0.28,0.28 0.0 0,0 716.34,413.01"/>
  <path fill="none" stroke="#326b64" stroke-width="2.00" stroke-linecap="butt" vector-effect="non-scaling-stroke" d="M 701.16,408.83 Q 701.79,408.84 702.39,407.87 Q 710.82,394.23 711.13,393.67 Q 715.19,386.38 715.63,383.93 Q 717.86,371.55 706.57,366.91 Q 704.8,366.18 701.73,366.14 Q 698.65,366.11 696.86,366.79 Q 685.46,371.15 687.39,383.58 Q 687.77,386.04 691.65,393.43 Q 691.94,394.0 700.04,407.84 Q 700.62,408.83 701.16,408.83"/>
  <path fill="none" stroke="#326b64" stroke-width="2.00" stroke-linecap="butt" vector-effect="non-scaling-stroke" d="M 708.5429,379.9796 A 7.03,6.72 -4.0 0,0 701.0612,373.7664 A 7.03,6.72 -4.0 0,0 694.5171,380.9604 A 7.03,6.72 -4.0 0,0 701.9988,387.1736 A 7.03,6.72 -4.0 0,0 708.5429,379.9796"/>
  <path fill="none" stroke="#898b8d" stroke-width="2.00" stroke-linecap="butt" vector-effect="non-scaling-stroke" d="M 706.21,380.44 A 4.69,4.69 0.0 0,0 701.52,375.75 A 4.69,4.69 0.0 0,0 696.83,380.44 A 4.69,4.69 0.0 0,0 701.52,385.13 A 4.69,4.69 0.0 0,0 706.21,380.44"/>
  <path fill="#f7f7f7" d="M 701.26,412.85 Q 701.88,412.85 702.56,411.75 Q 712.17,396.16 712.52,395.52 Q 717.14,387.19 717.64,384.39 Q 720.17,370.25 707.27,364.97 Q 705.25,364.14 701.74,364.11 Q 698.23,364.07 696.19,364.85 Q 683.18,369.85 685.4,384.04 Q 685.84,386.85 690.28,395.28 Q 690.62,395.93 699.89,411.72 Q 700.54,412.84 701.26,412.85 M 732.15,428.85 L 718.0,422.07 A 2.43,2.41 42.7 0,0 715.77,422.15 L 701.83,430.2 A 1.57,1.57 0.0 0,1 700.36,430.26 L 683.69,422.28 A 2.05,2.03 -44.0 0,0 681.97,422.26 L 666.96,429.03 A 0.48,0.48 0.0 0,1 666.29,428.59 L 666.29,389.29 A 1.16,1.15 -12.4 0,1 666.97,388.24 L 678.76,382.98 A 1.54,1.53 76.4 0,0 679.67,381.49 L 679.67,381.45 A 0.82,0.82 0.0 0,0 678.52,380.8 L 664.91,386.93 A 1.31,1.3 -12.3 0,0 664.14,388.12 L 664.14,431.15 A 0.96,0.96 0.0 0,0 665.49,432.02 L 682.62,424.3 A 1.18,1.17 45.3 0,1 683.58,424.31 L 700.13,432.24 A 1.89,1.88 -45.8 0,0 701.82,432.21 L 716.91,424.23 A 0.98,0.94 43.3 0,1 717.77,424.22 L 733.65,431.82 A 0.65,0.65 0.0 0,0 734.58,431.23 L 734.58,387.61 A 1.13,1.13 0.0 0,0 733.94,386.59 L 724.43,382.03 A 0.74,0.73 11.2 0,0 723.38,382.73 L 723.4,383.08 A 1.1,1.1 0.0 0,0 724.04,384.03 L 731.97,387.83 A 1.07,1.06 -77.2 0,1 732.57,388.79 L 732.57,428.58 A 0.3,0.29 -77.4 0,1 732.15,428.85 M 682.58,412.85 L 683.9,412.85 A 0.43,0.43 0.0 0,0 684.33,412.41 L 684.23,398.44 A 3.46,0.53 89.6 0,0 683.68,394.99 L 682.56,394.99 A 3.46,0.53 89.6 0,0 682.05,398.46 L 682.15,412.43 A 0.43,0.43 0.0 0,0 682.58,412.85 M 716.34,413.01 L 717.88,413.03 A 0.28,0.28 0.0 0,0 718.16,412.75 L 718.25,402.43 A 2.96,0.91 -89.5 0,0 717.37,399.46 L 717.09,399.46 A 2.96,0.91 -89.5 0,0 716.15,402.41 L 716.06,412.73 A 0.28,0.28 0.0 0,0 716.34,413.01"/>
  <path fill="#1b1f23" d="M 701.74,364.11 Q 705.25,364.14 707.27,364.97 Q 720.17,370.25 717.64,384.39 Q 717.14,387.19 712.52,395.52 Q 712.17,396.16 702.56,411.75 Q 701.88,412.85 701.26,412.85 Q 700.54,412.84 699.89,411.72 Q 690.62,395.93 690.28,395.28 Q 685.84,386.85 685.4,384.04 Q 683.18,369.85 696.19,364.85 Q 698.23,364.07 701.74,364.11 M 701.16,408.83 Q 701.79,408.84 702.39,407.87 Q 710.82,394.23 711.13,393.67 Q 715.19,386.38 715.63,383.93 Q 717.86,371.55 706.57,366.91 Q 704.8,366.18 701.73,366.14 Q 698.65,366.11 696.86,366.79 Q 685.46,371.15 687.39,383.58 Q 687.77,386.04 691.65,393.43 Q 691.94,394.0 700.04,407.84 Q 700.62,408.83 701.16,408.83"/>
  <path fill="#49b7a4" d="M 701.16,408.83 Q 700.62,408.83 700.04,407.84 Q 691.94,394.0 691.65,393.43 Q 687.77,386.04 687.39,383.58 Q 685.46,371.15 696.86,366.79 Q 698.65,366.11 701.73,366.14 Q 704.8,366.18 706.57,366.91 Q 717.86,371.55 715.63,383.93 Q 715.19,386.38 711.13,393.67 Q 710.82,394.23 702.39,407.87 Q 701.79,408.84 701.16,408.83 M 708.5429,379.9796 A 7.03,6.72 -4.0 0,0 701.0612,373.7664 A 7.03,6.72 -4.0 0,0 694.5171,380.9604 A 7.03,6.72 -4.0 0,0 701.9988,387.1736 A 7.03,6.72 -4.0 0,0 708.5429,379.9796"/>
  <path fill="#1b1f23" d="M 708.5429,379.9796 A 7.03,6.72 -4.0 0,1 701.9988,387.1736 A 7.03,6.72 -4.0 0,1 694.5171,380.9604 A 7.03,6.72 -4.0 0,1 701.0612,373.7664 A 7.03,6.72 -4.0 0,1 708.5429,379.9796 M 706.21,380.44 A 4.69,4.69 0.0 0,0 701.52,375.75 A 4.69,4.69 0.0 0,0 696.83,380.44 A 4.69,4.69 0.0 0,0 701.52,385.13 A 4.69,4.69 0.0 0,0 706.21,380.44"/>
  <path fill="#1b1f23" d="M 732.15,428.85 A 0.3,0.29 -77.4 0,0 732.57,428.58 L 732.57,388.79 A 1.07,1.06 -77.2 0,0 731.97,387.83 L 724.04,384.03 A 1.1,1.1 0.0 0,1 723.4,383.08 L 723.38,382.73 A 0.74,0.73 11.2 0,1 724.43,382.03 L 733.94,386.59 A 1.13,1.13 0.0 0,1 734.58,387.61 L 734.58,431.23 A 0.65,0.65 0.0 0,1 733.65,431.82 L 717.77,424.22 A 0.98,0.94 43.3 0,0 716.91,424.23 L 701.82,432.21 A 1.89,1.88 -45.8 0,1 700.13,432.24 L 683.58,424.31 A 1.18,1.17 45.3 0,0 682.62,424.3 L 665.49,432.02 A 0.96,0.96 0.0 0,1 664.14,431.15 L 664.14,388.12 A 1.31,1.3 -12.3 0,1 664.91,386.93 L 678.52,380.8 A 0.82,0.82 0.0 0,1 679.67,381.45 L 679.67,381.49 A 1.54,1.53 76.4 0,1 678.76,382.98 L 666.97,388.24 A 1.16,1.15 -12.4 0,0 666.29,389.29 L 666.29,428.59 A 0.48,0.48 0.0 0,0 666.96,429.03 L 681.97,422.26 A 2.05,2.03 -44.0 0,1 683.69,422.28 L 700.36,430.26 A 1.57,1.57 0.0 0,0 701.83,430.2 L 715.77,422.15 A 2.43,2.41 42.7 0,1 718.0,422.07 L 732.15,428.85"/>
  <path fill="#1b1f23" d="M 682.58,412.85 A 0.43,0.43 0.0 0,1 682.15,412.43 L 682.05,398.46 A 3.46,0.53 89.6 0,1 682.56,394.99 L 683.68,394.99 A 3.46,0.53 89.6 0,1 684.23,398.44 L 684.33,412.41 A 0.43,0.43 0.0 0,1 683.9,412.85 L 682.58,412.85"/>
  <path fill="#1b1f23" d="M 716.34,413.01 A 0.28,0.28 0.0 0,1 716.06,412.73 L 716.15,402.41 A 2.96,0.91 -89.5 0,1 717.09,399.46 L 717.37,399.46 A 2.96,0.91 -89.5 0,1 718.25,402.43 L 718.16,412.75 A 0.28,0.28 0.0 0,1 717.88,413.03 L 716.34,413.01"/>
</svg>
