<?xml version="1.0" encoding="UTF-8"?>
<svg xmlns="http://www.w3.org/2000/svg" version="1.1" viewBox="60.83 358.82 98.90 79.68">
  <path fill="none" stroke="#898b8d" stroke-width="2.00" stroke-linecap="butt" vector-effect="non-scaling-stroke" d="M 153.73,370.83 A 6.01,6.01 0.0 0,0 147.72,364.82 L 72.84,364.82 A 6.01,6.01 0.0 0,0 66.83,370.83 L 66.83,426.49 A 6.01,6.01 0.0 0,0 72.84,432.5 L 147.72,432.5 A 6.01,6.01 0.0 0,0 153.73,426.49 L 153.73,370.83"/>
  <path fill="none" stroke="#898b8d" stroke-width="2.00" stroke-linecap="butt" vector-effect="non-scaling-stroke" d="M 151.57,371.11 A 3.99,3.99 0.0 0,0 147.58,367.12 L 73.1,367.12 A 3.99,3.99 0.0 0,0 69.11,371.11 L 69.11,426.25 A 3.99,3.99 0.0 0,0 73.1,430.24 L 147.58,430.24 A 3.99,3.99 0.0 0,0 151.57,426.25 L 151.57,371.11"/>
  <path fill="none" stroke="#898b8d" stroke-width="2.00" stroke-linecap="butt" vector-effect="non-scaling-stroke" d="M 96.2648,374.6432 A 1.17,1.17 0.0 0,0 95.0726,373.4959 L 81.0752,373.7646 A 1.17,1.17 0.0 0,0 79.9279,374.9569 L 79.9352,375.3368 A 1.17,1.17 0.0 0,0 81.1274,376.4841 L 95.1248,376.2154 A 1.17,1.17 0.0 0,0 96.2721,375.0231 L 96.2648,374.6432"/>
  <path fill="none" stroke="#898b8d" stroke-width="2.00" stroke-linecap="butt" vector-effect="non-scaling-stroke" d="M 139.6,383.49 A 7.27,7.27 0.0 0,0 132.33,376.22 A 7.27,7.27 0.0 0,0 125.06,383.49 A 7.27,7.27 0.0 0,0 132.33,390.76 A 7.27,7.27 0.0 0,0 139.6,383.49"/>
  <path fill="none" stroke="#898b8d" stroke-width="2.00" stroke-linecap="butt" vector-effect="non-scaling-stroke" d="M 96.42,394.7 L 102.52,405.27 A 0.75,0.75 0.0 0,0 103.69,405.44 L 104.06,405.09 A 1.47,1.46 53.4 0,0 104.32,403.3 L 96.51,389.78 A 0.76,0.76 0.0 0,0 95.19,389.78 L 91.11,396.84 A 1.22,1.2 30.1 0,0 91.56,398.49 L 91.99,398.74 A 1.13,1.13 0.0 0,0 93.53,398.33 L 95.62,394.7 A 0.46,0.46 0.0 0,1 96.42,394.7"/>
  <path fill="none" stroke="#97a4a3" stroke-width="2.00" stroke-linecap="butt" vector-effect="non-scaling-stroke" d="M 111.8,418.95 L 110.59,417.69"/>
  <path fill="none" stroke="#a0d7ce" stroke-width="2.00" stroke-linecap="butt" vector-effect="non-scaling-stroke" d="M 110.59,417.69 Q 109.94,415.49 108.72,414.41"/>
  <path fill="none" stroke="#97a4a3" stroke-width="2.00" stroke-linecap="butt" vector-effect="non-scaling-stroke" d="M 108.72,414.41 Q 107.59,410.91 105.61,408.87"/>
  <path fill="none" stroke="#a0d7ce" stroke-width="2.00" stroke-linecap="butt" vector-effect="non-scaling-stroke" d="M 105.61,408.87 C 102.42,408.56 101.66,409.95 99.41,411.24 A 2.61,2.58 -64.8 0,1 98.51,411.57 C 94.22,412.35 90.35,414.22 85.57,411.97"/>
  <path fill="none" stroke="#97a4a3" stroke-width="2.00" stroke-linecap="butt" vector-effect="non-scaling-stroke" d="M 85.57,411.97 L 80.64,421.34"/>
  <path fill="none" stroke="#85c7be" stroke-width="2.00" stroke-linecap="butt" vector-effect="non-scaling-stroke" d="M 80.64,421.34 L 79.66,423.57 A 0.7,0.7 0.0 0,0 80.31,424.55 C 84.88,424.52 89.78,424.07 93.91,424.11 Q 116.9,424.33 137.25,424.38 Q 137.82,424.38 138.26,423.86"/>
  <path fill="none" stroke="#898b8d" stroke-width="2.00" stroke-linecap="butt" vector-effect="non-scaling-stroke" d="M 138.26,423.86 Q 134.24,417.1 132.32,414.94 Q 132.0,414.58 129.79,412.69 A 0.57,0.21 69.7 0,1 129.73,412.62 L 124.6,405.52 A 0.83,0.83 0.0 0,0 123.29,405.47 L 111.8,418.95"/>
  <path fill="none" stroke="#175b54" stroke-width="2.00" stroke-linecap="butt" vector-effect="non-scaling-stroke" d="M 138.26,423.86 Q 136.08,424.14 135.74,423.43"/>
  <path fill="none" stroke="#326b64" stroke-width="2.00" stroke-linecap="butt" vector-effect="non-scaling-stroke" d="M 135.74,423.43 Q 135.92,423.27 135.89,422.92 A 0.62,0.57 20.8 0,0 135.7,422.54 Q 132.6,419.67 130.79,415.91 A 1.33,1.32 -3.2 0,0 130.02,415.23 L 127.08,414.26"/>
  <path fill="none" stroke="#898b8d" stroke-width="2.00" stroke-linecap="butt" vector-effect="non-scaling-stroke" d="M 127.08,414.26 L 128.0,413.63 A 0.63,0.63 0.0 0,0 128.13,412.73 L 124.66,408.17 A 1.12,1.12 0.0 0,0 122.96,408.08 L 118.63,412.61"/>
  <path fill="none" stroke="#326b64" stroke-width="2.00" stroke-linecap="butt" vector-effect="non-scaling-stroke" d="M 118.63,412.61 Q 116.06,415.15 113.97,418.69 Q 113.22,419.96 111.78,419.97"/>
  <path fill="none" stroke="#293839" stroke-width="2.00" stroke-linecap="butt" vector-effect="non-scaling-stroke" d="M 111.78,419.97 L 111.49,419.38 A 0.28,0.27 59.3 0,1 111.57,419.05 Q 111.66,418.98 111.8,418.95"/>
  <path fill="none" stroke="#408479" stroke-width="2.00" stroke-linecap="butt" vector-effect="non-scaling-stroke" d="M 105.61,408.87 Q 104.55,408.93 104.06,409.28 A 0.34,0.34 0.0 0,0 104.24,409.9 L 104.71,409.93 A 1.03,1.03 0.0 0,1 105.61,410.56 Q 106.76,413.32 108.72,414.41"/>
  <path fill="none" stroke="#408479" stroke-width="2.00" stroke-linecap="butt" vector-effect="non-scaling-stroke" d="M 110.59,417.69 Q 110.28,419.33 111.78,419.97"/>
  <path fill="none" stroke="#2ea794" stroke-width="2.00" stroke-linecap="butt" vector-effect="non-scaling-stroke" d="M 135.74,423.43 C 126.3,423.71 115.27,422.59 107.65,422.66 Q 96.8,422.76 88.76,423.07 Q 87.11,423.13 85.44,422.92 Q 83.58,422.69 82.12,422.58 A 0.35,0.35 0.0 0,1 81.83,422.08 L 82.49,420.67"/>
  <path fill="none" stroke="#408479" stroke-width="2.00" stroke-linecap="butt" vector-effect="non-scaling-stroke" d="M 82.49,420.67 Q 83.34,418.58 84.3,416.44 Q 84.33,416.39 85.35,414.66 Q 86.18,413.25 85.57,411.97"/>
  <path fill="none" stroke="#a0d7ce" stroke-width="2.00" stroke-linecap="butt" vector-effect="non-scaling-stroke" d="M 127.08,414.26 Q 122.79,415.86 118.63,412.61"/>
  <path fill="none" stroke="#257369" stroke-width="2.00" stroke-linecap="butt" vector-effect="non-scaling-stroke" d="M 82.49,420.67 Q 80.76,422.55 80.64,421.34"/>
  <path fill="none" stroke="#326b64" stroke-width="2.00" stroke-linecap="butt" vector-effect="non-scaling-stroke" d="M 137.08,383.63 A 4.91,4.91 0.0 0,0 132.17,378.72 A 4.91,4.91 0.0 0,0 127.26,383.63 A 4.91,4.91 0.0 0,0 132.17,388.54 A 4.91,4.91 0.0 0,0 137.08,383.63"/>
  <path fill="#f7f7f7" d="M 153.73,370.83 A 6.01,6.01 0.0 0,0 147.72,364.82 L 72.84,364.82 A 6.01,6.01 0.0 0,0 66.83,370.83 L 66.83,426.49 A 6.01,6.01 0.0 0,0 72.84,432.5 L 147.72,432.5 A 6.01,6.01 0.0 0,0 153.73,426.49 L 153.73,370.83"/>
  <path fill="#1b1f23" d="M 153.73,426.49 A 6.01,6.01 0.0 0,1 147.72,432.5 L 72.84,432.5 A 6.01,6.01 0.0 0,1 66.83,426.49 L 66.83,370.83 A 6.01,6.01 0.0 0,1 72.84,364.82 L 147.72,364.82 A 6.01,6.01 0.0 0,1 153.73,370.83 L 153.73,426.49 M 151.57,371.11 A 3.99,3.99 0.0 0,0 147.58,367.12 L 73.1,367.12 A 3.99,3.99 0.0 0,0 69.11,371.11 L 69.11,426.25 A 3.99,3.99 0.0 0,0 73.1,430.24 L 147.58,430.24 A 3.99,3.99 0.0 0,0 151.57,426.25 L 151.57,371.11"/>
  <path fill="#f7f7f7" d="M 151.57,426.25 A 3.99,3.99 0.0 0,1 147.58,430.24 L 73.1,430.24 A 3.99,3.99 0.0 0,1 69.11,426.25 L 69.11,371.11 A 3.99,3.99 0.0 0,1 73.1,367.12 L 147.58,367.12 A 3.99,3.99 0.0 0,1 151.57,371.11 L 151.57,426.25 M 96.2648,374.6432 A 1.17,1.17 0.0 0,0 95.0726,373.4959 L 81.0752,373.7646 A 1.17,1.17 0.0 0,0 79.9279,374.9569 L 79.9352,375.3368 A 1.17,1.17 0.0 0,0 81.1274,376.4841 L 95.1248,376.2154 A 1.17,1.17 0.0 0,0 96.2721,375.0231 L 96.2648,374.6432 M 139.6,383.49 A 7.27,7.27 0.0 0,0 132.33,376.22 A 7.27,7.27 0.0 0,0 125.06,383.49 A 7.27,7.27 0.0 0,0 132.33,390.76 A 7.27,7.27 0.0 0,0 139.6,383.49 M 96.42,394.7 L 102.52,405.27 A 0.75,0.75 0.0 0,0 103.69,405.44 L 104.06,405.09 A 1.47,1.46 53.4 0,0 104.32,403.3 L 96.51,389.78 A 0.76,0.76 0.0 0,0 95.19,389.78 L 91.11,396.84 A 1.22,1.2 30.1 0,0 91.56,398.49 L 91.99,398.74 A 1.13,1.13 0.0 0,0 93.53,398.33 L 95.62,394.7 A 0.46,0.46 0.0 0,1 96.42,394.7 M 111.8,418.95 L 110.59,417.69 Q 109.94,415.49 108.72,414.41 Q 107.59,410.91 105.61,408.87 C 102.42,408.56 101.66,409.95 99.41,411.24 A 2.61,2.58 -64.8 0,1 98.51,411.57 C 94.22,412.35 90.35,414.22 85.57,411.97 L 80.64,421.34 L 79.66,423.57 A 0.7,0.7 0.0 0,0 80.31,424.55 C 84.88,424.52 89.78,424.07 93.91,424.11 Q 116.9,424.33 137.25,424.38 Q 137.82,424.38 138.26,423.86 Q 134.24,417.1 132.32,414.94 Q 132.0,414.58 129.79,412.69 A 0.57,0.21 69.7 0,1 129.73,412.62 L 124.6,405.52 A 0.83,0.83 0.0 0,0 123.29,405.47 L 111.8,418.95"/>
  <path fill="#1b1f23" d="M 139.6,383.49 A 7.27,7.27 0.0 0,1 132.33,390.76 A 7.27,7.27 0.0 0,1 125.06,383.49 A 7.27,7.27 0.0 0,1 132.33,376.22 A 7.27,7.27 0.0 0,1 139.6,383.49 M 137.08,383.63 A 4.91,4.91 0.0 0,0 132.17,378.72 A 4.91,4.91 0.0 0,0 127.26,383.63 A 4.91,4.91 0.0 0,0 132.17,388.54 A 4.91,4.91 0.0 0,0 137.08,383.63"/>
  <path fill="#1b1f23" d="M 96.42,394.7 A 0.46,0.46 0.0 0,0 95.62,394.7 L 93.53,398.33 A 1.13,1.13 0.0 0,1 91.99,398.74 L 91.56,398.49 A 1.22,1.2 30.1 0,1 91.11,396.84 L 95.19,389.78 A 0.76,0.76 0.0 0,1 96.51,389.78 L 104.32,403.3 A 1.47,1.46 53.4 0,1 104.06,405.09 L 103.69,405.44 A 0.75,0.75 0.0 0,1 102.52,405.27 L 96.42,394.7"/>
  <path fill="#1b1f23" d="M 138.26,423.86 Q 136.08,424.14 135.74,423.43 Q 135.92,423.27 135.89,422.92 A 0.62,0.57 20.8 0,0 135.7,422.54 Q 132.6,419.67 130.79,415.91 A 1.33,1.32 -3.2 0,0 130.02,415.23 L 127.08,414.26 L 128.0,413.63 A 0.63,0.63 0.0 0,0 128.13,412.73 L 124.66,408.17 A 1.12,1.12 0.0 0,0 122.96,408.08 L 118.63,412.61 Q 116.06,415.15 113.97,418.69 Q 113.22,419.96 111.78,419.97 L 111.49,419.38 A 0.28,0.27 59.3 0,1 111.57,419.05 Q 111.66,418.98 111.8,418.95 L 123.29,405.47 A 0.83,0.83 0.0 0,1 124.6,405.52 L 129.73,412.62 A 0.57,0.21 69.7 0,0 129.79,412.69 Q 132.0,414.58 132.32,414.94 Q 134.24,417.1 138.26,423.86"/>
  <path fill="#f7f7f7" d="M 127.08,414.26 Q 122.79,415.86 118.63,412.61 L 122.96,408.08 A 1.12,1.12 0.0 0,1 124.66,408.17 L 128.13,412.73 A 0.63,0.63 0.0 0,1 128.0,413.63 L 127.08,414.26"/>
  <path fill="#49b7a4" d="M 105.61,408.87 Q 104.55,408.93 104.06,409.28 A 0.34,0.34 0.0 0,0 104.24,409.9 L 104.71,409.93 A 1.03,1.03 0.0 0,1 105.61,410.56 Q 106.76,413.32 108.72,414.41 Q 109.94,415.49 110.59,417.69 Q 110.28,419.33 111.78,419.97 Q 113.22,419.96 113.97,418.69 Q 116.06,415.15 118.63,412.61 Q 122.79,415.86 127.08,414.26 L 130.02,415.23 A 1.33,1.32 -3.2 0,1 130.79,415.91 Q 132.6,419.67 135.7,422.54 A 0.62,0.57 20.8 0,1 135.89,422.92 Q 135.92,423.27 135.74,423.43 C 126.3,423.71 115.27,422.59 107.65,422.66 Q 96.8,422.76 88.76,423.07 Q 87.11,423.13 85.44,422.92 Q 83.58,422.69 82.12,422.58 A 0.35,0.35 0.0 0,1 81.83,422.08 L 82.49,420.67 Q 83.34,418.58 84.3,416.44 Q 84.33,416.39 85.35,414.66 Q 86.18,413.25 85.57,411.97 C 90.35,414.22 94.22,412.35 98.51,411.57 A 2.61,2.58 -64.8 0,0 99.41,411.24 C 101.66,409.95 102.42,408.56 105.61,408.87"/>
  <path fill="#37504e" d="M 105.61,408.87 Q 107.59,410.91 108.72,414.41 Q 106.76,413.32 105.61,410.56 A 1.03,1.03 0.0 0,0 104.71,409.93 L 104.24,409.9 A 0.34,0.34 0.0 0,1 104.06,409.28 Q 104.55,408.93 105.61,408.87"/>
  <path fill="#37504e" d="M 85.57,411.97 Q 86.18,413.25 85.35,414.66 Q 84.33,416.39 84.3,416.44 Q 83.34,418.58 82.49,420.67 Q 80.76,422.55 80.64,421.34 L 85.57,411.97"/>
  <path fill="#37504e" d="M 110.59,417.69 L 111.8,418.95 Q 111.66,418.98 111.57,419.05 A 0.28,0.27 59.3 0,0 111.49,419.38 L 111.78,419.97 Q 110.28,419.33 110.59,417.69"/>
  <path fill="#129684" d="M 82.49,420.67 L 81.83,422.08 A 0.35,0.35 0.0 0,0 82.12,422.58 Q 83.58,422.69 85.44,422.92 Q 87.11,423.13 88.76,423.07 Q 96.8,422.76 107.65,422.66 C 115.27,422.59 126.3,423.71 135.74,423.43 Q 136.08,424.14 138.26,423.86 Q 137.82,424.38 137.25,424.38 Q 116.9,424.33 93.91,424.11 C 89.78,424.07 84.88,424.52 80.31,424.55 A 0.7,0.7 0.0 0,1 79.66,423.57 L 80.64,421.34 Q 80.76,422.55 82.49,420.67"/>
</svg>
