<?xml version="1.0" encoding="UTF-8"?>
<svg xmlns="http://www.w3.org/2000/svg" version="1.1" viewBox="1273.33 368.68 60.52 59.72">
  <path fill="none" stroke="#898b8d" stroke-width="2.00" stroke-linecap="butt" vector-effect="non-scaling-stroke" d="M 1279.3309,398.3283 A 24.26,23.86 -179.5 0,0 1303.3818,422.3991 A 24.26,23.86 -179.5 0,0 1327.8491,398.7517 A 24.26,23.86 -179.5 0,0 1303.7982,374.6809 A 24.26,23.86 -179.5 0,0 1279.3309,398.3283"/>
  <path fill="none" stroke="#898b8d" stroke-width="2.00" stroke-linecap="butt" vector-effect="non-scaling-stroke" d="M 1325.7614,397.9207 A 22.18,21.82 -1.6 0,0 1302.9807,376.7285 A 22.18,21.82 -1.6 0,0 1281.4186,399.1593 A 22.18,21.82 -1.6 0,0 1304.1993,420.3515 A 22.18,21.82 -1.6 0,0 1325.7614,397.9207"/>
  <path fill="none" stroke="#898b8d" stroke-width="2.00" stroke-linecap="butt" vector-effect="non-scaling-stroke" d="M 1303.4361,386.4108 A 2.01,1.77 -88.4 0,0 1301.6107,388.3706 A 2.01,1.77 -88.4 0,0 1303.3239,390.4292 A 2.01,1.77 -88.4 0,0 1305.1493,388.4694 A 2.01,1.77 -88.4 0,0 1303.4361,386.4108"/>
  <path fill="none" stroke="#898b8d" stroke-width="2.00" stroke-linecap="butt" vector-effect="non-scaling-stroke" d="M 1301.02,395.81 L 1301.9,396.05 A 0.66,0.64 -82.5 0,1 1302.37,396.68 L 1302.37,408.0 A 1.16,1.13 67.7 0,1 1302.05,408.8 L 1301.33,409.57 A 0.83,0.83 0.0 0,0 1301.93,410.97 L 1305.3,410.97 A 0.99,0.98 60.0 0,0 1305.79,409.13 L 1305.12,408.75 A 0.87,0.86 -75.0 0,1 1304.69,408.0 L 1304.69,394.81 A 0.62,0.62 0.0 0,0 1304.19,394.2 Q 1302.43,393.85 1301.08,394.13 A 0.87,0.86 -43.1 0,0 1301.02,395.81"/>
  <path fill="#f7f7f7" d="M 1279.3309,398.3283 A 24.26,23.86 -179.5 0,0 1303.3818,422.3991 A 24.26,23.86 -179.5 0,0 1327.8491,398.7517 A 24.26,23.86 -179.5 0,0 1303.7982,374.6809 A 24.26,23.86 -179.5 0,0 1279.3309,398.3283"/>
  <path fill="#1b1f23" d="M 1279.3309,398.3283 A 24.26,23.86 -179.5 0,1 1303.7982,374.6809 A 24.26,23.86 -179.5 0,1 1327.8491,398.7517 A 24.26,23.86 -179.5 0,1 1303.3818,422.3991 A 24.26,23.86 -179.5 0,1 1279.3309,398.3283 M 1325.7614,397.9207 A 22.18,21.82 -1.6 0,0 1302.9807,376.7285 A 22.18,21.82 -1.6 0,0 1281.4186,399.1593 A 22.18,21.82 -1.6 0,0 1304.1993,420.3515 A 22.18,21.82 -1.6 0,0 1325.7614,397.9207"/>
  <path fill="#f7f7f7" d="M 1325.7614,397.9207 A 22.18,21.82 -1.6 0,1 1304.1993,420.3515 A 22.18,21.82 -1.6 0,1 1281.4186,399.1593 A 22.18,21.82 -1.6 0,1 1302.9807,376.7285 A 22.18,21.82 -1.6 0,1 1325.7614,397.9207 M 1303.4361,386.4108 A 2.01,1.77 -88.4 0,0 1301.6107,388.3706 A 2.01,1.77 -88.4 0,0 1303.3239,390.4292 A 2.01,1.77 -88.4 0,0 1305.1493,388.4694 A 2.01,1.77 -88.4 0,0 1303.4361,386.4108 M 1301.02,395.81 L 1301.9,396.05 A 0.66,0.64 -82.5 0,1 1302.37,396.68 L 1302.37,408.0 A 1.16,1.13 67.7 0,1 1302.05,408.8 L 1301.33,409.57 A 0.83,0.83 0.0 0,0 1301.93,410.97 L 1305.3,410.97 A 0.99,0.98 60.0 0,0 1305.79,409.13 L 1305.12,408.75 A 0.87,0.86 -75.0 0,1 1304.69,408.0 L 1304.69,394.81 A 0.62,0.62 0.0 0,0 1304.19,394.2 Q 1302.43,393.85 1301.08,394.13 A 0.87,0.86 -43.1 0,0 1301.02,395.81"/>
  <path fill="#1b1f23" d="M 1301.02,395.81 A 0.87,0.86 -43.1 0,1 1301.08,394.13 Q 1302.43,393.85 1304.19,394.2 A 0.62,0.62 0.0 0,1 1304.69,394.81 L 1304.69,408.0 A 0.87,0.86 -75.0 0,0 1305.12,408.75 L 1305.79,409.13 A 0.99,0.98 60.0 0,1 1305.3,410.97 L 1301.93,410.97 A 0.83,0.83 0.0 0,1 1301.33,409.57 L 1302.05,408.8 A 1.16,1.13 67.7 0,0 1302.37,408.0 L 1302.37,396.68 A 0.66,0.64 -82.5 0,0 1301.9,396.05 L 1301.02,395.81"/>
  <path fill="#1b1f23" d="M 1303.4361,386.4108 A 2.01,1.77 -88.4 0,0 1301.6107,388.3706 A 2.01,1.77 -88.4 0,0 1303.3239,390.4292 A 2.01,1.77 -88.4 0,0 1305.1493,388.4694 A 2.01,1.77 -88.4 0,0 1303.4361,386.4108"/>
</svg>
