<?xml version="1.0" encoding="UTF-8"?>
<svg xmlns="http://www.w3.org/2000/svg" version="1.1" viewBox="1253.81 924.58 54.54 54.36">
  <path fill="none" stroke="#898b8d" stroke-width="2.00" stroke-linecap="butt" vector-effect="non-scaling-stroke" d="M 1273.85,930.79 Q 1271.9,930.63 1266.28,930.58 C 1263.7,930.55 1259.95,934.17 1259.91,936.72 Q 1259.7,947.95 1259.93,968.76 C 1259.97,971.92 1262.9,972.89 1265.82,972.89 Q 1295.86,972.92 1295.91,972.92 C 1299.42,973.08 1302.36,972.3 1302.35,968.48 Q 1302.31,949.25 1302.35,937.99 Q 1302.36,933.48 1297.51,930.68 A 0.54,0.53 60.0 0,0 1297.23,930.6 L 1288.79,930.6 A 0.65,0.64 85.1 0,0 1288.16,931.36 L 1288.21,931.66 A 0.89,0.89 0.0 0,0 1289.07,932.39 L 1296.13,932.48 A 1.16,1.11 -31.0 0,1 1296.62,932.59 Q 1299.24,933.78 1300.24,936.66 A 1.33,1.19 -57.7 0,1 1300.31,937.08 L 1300.31,969.12 A 1.76,1.76 0.0 0,1 1298.55,970.88 L 1264.08,970.88 A 2.26,2.26 0.0 0,1 1261.82,968.62 L 1261.82,937.01 A 0.72,0.6 61.3 0,1 1261.87,936.75 Q 1262.94,934.29 1265.58,932.74 A 1.3,1.28 -60.4 0,1 1266.18,932.57 L 1274.17,932.27 A 0.4,0.4 0.0 0,0 1274.55,931.87 L 1274.55,931.54 A 0.75,0.75 0.0 0,0 1273.85,930.79"/>
  <path fill="none" stroke="#898b8d" stroke-width="2.00" stroke-linecap="butt" vector-effect="non-scaling-stroke" d="M 1281.28,956.68 Q 1281.41,956.68 1281.52,956.65 Q 1281.58,956.63 1281.7,956.52 Q 1286.21,952.35 1289.9,948.88 A 1.14,1.14 0.0 0,0 1290.07,947.44 L 1289.91,947.22 A 0.77,0.77 0.0 0,0 1288.73,947.12 L 1283.16,952.68 A 0.49,0.49 0.0 0,1 1282.33,952.33 L 1282.33,932.13 A 0.71,0.7 6.0 0,0 1281.77,931.44 Q 1281.62,931.41 1281.46,931.41 Q 1281.29,931.41 1281.15,931.44 A 0.71,0.7 -5.2 0,0 1280.57,932.12 L 1280.3,952.32 A 0.49,0.49 0.0 0,1 1279.46,952.65 L 1273.97,947.02 A 0.77,0.77 0.0 0,0 1272.79,947.1 L 1272.63,947.32 A 1.14,1.14 0.0 0,0 1272.78,948.76 Q 1276.42,952.28 1280.87,956.51 Q 1280.99,956.63 1281.05,956.64 Q 1281.16,956.67 1281.28,956.68"/>
  <path fill="#f7f7f7" d="M 1273.85,930.79 Q 1271.9,930.63 1266.28,930.58 C 1263.7,930.55 1259.95,934.17 1259.91,936.72 Q 1259.7,947.95 1259.93,968.76 C 1259.97,971.92 1262.9,972.89 1265.82,972.89 Q 1295.86,972.92 1295.91,972.92 C 1299.42,973.08 1302.36,972.3 1302.35,968.48 Q 1302.31,949.25 1302.35,937.99 Q 1302.36,933.48 1297.51,930.68 A 0.54,0.53 60.0 0,0 1297.23,930.6 L 1288.79,930.6 A 0.65,0.64 85.1 0,0 1288.16,931.36 L 1288.21,931.66 A 0.89,0.89 0.0 0,0 1289.07,932.39 L 1296.13,932.48 A 1.16,1.11 -31.0 0,1 1296.62,932.59 Q 1299.24,933.78 1300.24,936.66 A 1.33,1.19 -57.7 0,1 1300.31,937.08 L 1300.31,969.12 A 1.76,1.76 0.0 0,1 1298.55,970.88 L 1264.08,970.88 A 2.26,2.26 0.0 0,1 1261.82,968.62 L 1261.82,937.01 A 0.72,0.6 61.3 0,1 1261.87,936.75 Q 1262.94,934.29 1265.58,932.74 A 1.3,1.28 -60.4 0,1 1266.18,932.57 L 1274.17,932.27 A 0.4,0.4 0.0 0,0 1274.55,931.87 L 1274.55,931.54 A 0.75,0.75 0.0 0,0 1273.85,930.79 M 1281.28,956.68 Q 1281.41,956.68 1281.52,956.65 Q 1281.58,956.63 1281.7,956.52 Q 1286.21,952.35 1289.9,948.88 A 1.14,1.14 0.0 0,0 1290.07,947.44 L 1289.91,947.22 A 0.77,0.77 0.0 0,0 1288.73,947.12 L 1283.16,952.68 A 0.49,0.49 0.0 0,1 1282.33,952.33 L 1282.33,932.13 A 0.71,0.7 6.0 0,0 1281.77,931.44 Q 1281.62,931.41 1281.46,931.41 Q 1281.29,931.41 1281.15,931.44 A 0.71,0.7 -5.2 0,0 1280.57,932.12 L 1280.3,952.32 A 0.49,0.49 0.0 0,1 1279.46,952.65 L 1273.97,947.02 A 0.77,0.77 0.0 0,0 1272.79,947.1 L 1272.63,947.32 A 1.14,1.14 0.0 0,0 1272.78,948.76 Q 1276.42,952.28 1280.87,956.51 Q 1280.99,956.63 1281.05,956.64 Q 1281.16,956.67 1281.28,956.68"/>
  <path fill="#1b1f23" d="M 1273.85,930.79 A 0.75,0.75 0.0 0,1 1274.55,931.54 L 1274.55,931.87 A 0.4,0.4 0.0 0,1 1274.17,932.27 L 1266.18,932.57 A 1.3,1.28 -60.4 0,0 1265.58,932.74 Q 1262.94,934.29 1261.87,936.75 A 0.72,0.6 61.3 0,0 1261.82,937.01 L 1261.82,968.62 A 2.26,2.26 0.0 0,0 1264.08,970.88 L 1298.55,970.88 A 1.76,1.76 0.0 0,0 1300.31,969.12 L 1300.31,937.08 A 1.33,1.19 -57.7 0,0 1300.24,936.66 Q 1299.24,933.78 1296.62,932.59 A 1.16,1.11 -31.0 0,0 1296.13,932.48 L 1289.07,932.39 A 0.89,0.89 0.0 0,1 1288.21,931.66 L 1288.16,931.36 A 0.65,0.64 85.1 0,1 1288.79,930.6 L 1297.23,930.6 A 0.54,0.53 60.0 0,1 1297.51,930.68 Q 1302.36,933.48 1302.35,937.99 Q 1302.31,949.25 1302.35,968.48 C 1302.36,972.3 1299.42,973.08 1295.91,972.92 Q 1295.86,972.92 1265.82,972.89 C 1262.9,972.89 1259.97,971.92 1259.93,968.76 Q 1259.7,947.95 1259.91,936.72 C 1259.95,934.17 1263.7,930.55 1266.28,930.58 Q 1271.9,930.63 1273.85,930.79"/>
  <path fill="#1b1f23" d="M 1281.46,931.41 Q 1281.62,931.41 1281.77,931.44 A 0.71,0.7 6.0 0,1 1282.33,932.13 L 1282.33,952.33 A 0.49,0.49 0.0 0,0 1283.16,952.68 L 1288.73,947.12 A 0.77,0.77 0.0 0,1 1289.91,947.22 L 1290.07,947.44 A 1.14,1.14 0.0 0,1 1289.9,948.88 Q 1286.21,952.35 1281.7,956.52 Q 1281.58,956.63 1281.52,956.65 Q 1281.41,956.68 1281.28,956.68 Q 1281.16,956.67 1281.05,956.64 Q 1280.99,956.63 1280.87,956.51 Q 1276.42,952.28 1272.78,948.76 A 1.14,1.14 0.0 0,1 1272.63,947.32 L 1272.79,947.1 A 0.77,0.77 0.0 0,1 1273.97,947.02 L 1279.46,952.65 A 0.49,0.49 0.0 0,0 1280.3,952.32 L 1280.57,932.12 A 0.71,0.7 -5.2 0,1 1281.15,931.44 Q 1281.29,931.41 1281.46,931.41"/>
</svg>
