<?xml version="1.0" encoding="UTF-8"?>
<svg width="64" height="64" viewBox="0 0 64 64" fill="none" xmlns="http://www.w3.org/2000/svg">
  <title>Layer Hidden</title>
  <path d="M6 32C11.8 21.2 21.2 15 32 15C42.8 15 52.2 21.2 58 32C55.9 35.9 53.3 39.2 50.3 41.8"
        stroke="#1F6F78" stroke-width="4" stroke-linecap="round" stroke-linejoin="round"/>
  <path d="M42.5 47.2C39.2 48.4 35.7 49 32 49C21.2 49 11.8 42.8 6 32"
        stroke="#1F6F78" stroke-width="4" stroke-linecap="round" stroke-linejoin="round"/>
  <path d="M23.2 27.3C22.4 28.7 22 30.3 22 32C22 37.5 26.5 42 32 42C33.7 42 35.3 41.6 36.7 40.8"
        stroke="#1F6F78" stroke-width="4" stroke-linecap="round" stroke-linejoin="round"/>
  <path d="M40.8 36.7C41.6 35.3 42 33.7 42 32C42 26.5 37.5 22 32 22C30.3 22 28.7 22.4 27.3 23.2"
        stroke="#1F6F78" stroke-width="4" stroke-linecap="round" stroke-linejoin="round"/>
  <path d="M10 54L54 10"
        stroke="#1F6F78" stroke-width="5" stroke-linecap="round"/>
</svg>
