<?xml version="1.0" encoding="UTF-8"?>
<svg xmlns="http://www.w3.org/2000/svg" version="1.1" viewBox="325.50 740.10 61.81 62.92">
  <path fill="none" stroke="#898b8d" stroke-width="2.00" stroke-linecap="butt" vector-effect="non-scaling-stroke" d="M 356.57,768.23 C 357.14,768.23 357.46,767.92 357.48,767.36 Q 357.62,760.78 357.56,750.03 A 0.34,0.34 0.0 0,1 358.14,749.78 L 361.82,753.32 A 1.07,1.07 0.0 0,0 363.25,753.37 L 363.28,753.35 A 0.85,0.84 -42.4 0,0 363.34,752.09 Q 359.95,748.78 356.95,746.18 Q 356.94,746.17 356.74,746.13 Q 356.62,746.1 356.52,746.1 Q 356.41,746.1 356.3,746.13 Q 356.1,746.17 356.09,746.18 Q 353.1,748.79 349.72,752.12 A 0.85,0.84 42.2 0,0 349.79,753.38 L 349.82,753.4 A 1.07,1.07 0.0 0,0 351.25,753.34 L 354.91,749.79 A 0.34,0.34 0.0 0,1 355.49,750.03 Q 355.48,760.78 355.65,767.36 C 355.67,767.93 355.99,768.23 356.57,768.23"/>
  <path fill="none" stroke="#898b8d" stroke-width="2.00" stroke-linecap="butt" vector-effect="non-scaling-stroke" d="M 335.03,767.73 L 350.17,758.99 A 1.02,1.01 64.0 0,0 350.6,757.73 L 350.47,757.43 A 0.63,0.63 0.0 0,0 349.57,757.12 L 332.1,767.21 A 0.75,0.75 0.0 0,0 332.1,768.51 L 355.11,781.8 A 3.02,3.02 0.0 0,0 358.13,781.8 L 380.72,768.75 A 0.84,0.84 0.0 0,0 380.72,767.29 L 365.65,758.59 A 0.73,0.72 -71.4 0,0 364.57,759.13 L 364.53,759.45 A 0.9,0.9 0.0 0,0 364.97,760.35 L 377.65,767.67 A 0.24,0.24 0.0 0,1 377.65,768.09 L 357.38,779.79 A 1.67,1.67 0.0 0,1 355.7,779.79 L 335.03,767.85 A 0.07,0.07 0.0 0,1 335.03,767.73"/>
  <path fill="none" stroke="#97a4a3" stroke-width="2.00" stroke-linecap="butt" vector-effect="non-scaling-stroke" d="M 334.5,784.93 L 355.85,796.74 A 2.2,2.19 44.6 0,0 358.0,796.73 L 380.87,783.52 A 0.87,0.87 0.0 0,0 380.87,782.01 L 375.89,779.13 A 0.91,0.9 41.2 0,0 374.88,779.19 Q 374.46,779.52 374.05,780.19"/>
  <path fill="none" stroke="#d0e8e4" stroke-width="2.00" stroke-linecap="butt" vector-effect="non-scaling-stroke" d="M 374.05,780.19 Q 373.61,780.59 372.74,780.81 A 1.91,1.89 -45.3 0,1 371.82,780.82 Q 369.4,780.26 368.1,780.87 Q 360.68,784.38 359.09,785.04 Q 357.39,785.74 355.24,785.19 A 1.59,1.58 82.5 0,1 354.26,784.43 Q 351.75,779.94 346.08,778.58 C 343.69,778.01 342.32,779.75 339.96,779.3"/>
  <path fill="none" stroke="#898b8d" stroke-width="2.00" stroke-linecap="butt" vector-effect="non-scaling-stroke" d="M 339.96,779.3 C 339.44,778.55 338.64,778.42 337.83,778.85 Q 334.84,780.47 331.82,782.19 A 0.65,0.64 51.8 0,0 331.7,783.22 Q 332.78,784.26 334.5,784.93"/>
  <path fill="none" stroke="#627c7a" stroke-width="2.00" stroke-linecap="butt" vector-effect="non-scaling-stroke" d="M 339.96,779.3 Q 339.95,779.58 339.87,779.78 Q 339.8,779.99 339.52,780.1 Q 336.9,781.2 334.56,782.93"/>
  <path fill="none" stroke="#293839" stroke-width="2.00" stroke-linecap="butt" vector-effect="non-scaling-stroke" d="M 334.56,782.93 Q 335.82,784.6 334.5,784.93"/>
  <path fill="none" stroke="#70948f" stroke-width="2.00" stroke-linecap="butt" vector-effect="non-scaling-stroke" d="M 374.05,780.19 L 376.93,782.02 A 0.66,0.65 46.1 0,1 376.91,783.14 L 357.84,794.15 A 2.51,2.5 -45.6 0,1 355.41,794.18 L 334.56,782.93"/>
  <path fill="#f7f7f7" d="M 356.57,768.23 C 357.14,768.23 357.46,767.92 357.48,767.36 Q 357.62,760.78 357.56,750.03 A 0.34,0.34 0.0 0,1 358.14,749.78 L 361.82,753.32 A 1.07,1.07 0.0 0,0 363.25,753.37 L 363.28,753.35 A 0.85,0.84 -42.4 0,0 363.34,752.09 Q 359.95,748.78 356.95,746.18 Q 356.94,746.17 356.74,746.13 Q 356.62,746.1 356.52,746.1 Q 356.41,746.1 356.3,746.13 Q 356.1,746.17 356.09,746.18 Q 353.1,748.79 349.72,752.12 A 0.85,0.84 42.2 0,0 349.79,753.38 L 349.82,753.4 A 1.07,1.07 0.0 0,0 351.25,753.34 L 354.91,749.79 A 0.34,0.34 0.0 0,1 355.49,750.03 Q 355.48,760.78 355.65,767.36 C 355.67,767.93 355.99,768.23 356.57,768.23 M 335.03,767.73 L 350.17,758.99 A 1.02,1.01 64.0 0,0 350.6,757.73 L 350.47,757.43 A 0.63,0.63 0.0 0,0 349.57,757.12 L 332.1,767.21 A 0.75,0.75 0.0 0,0 332.1,768.51 L 355.11,781.8 A 3.02,3.02 0.0 0,0 358.13,781.8 L 380.72,768.75 A 0.84,0.84 0.0 0,0 380.72,767.29 L 365.65,758.59 A 0.73,0.72 -71.4 0,0 364.57,759.13 L 364.53,759.45 A 0.9,0.9 0.0 0,0 364.97,760.35 L 377.65,767.67 A 0.24,0.24 0.0 0,1 377.65,768.09 L 357.38,779.79 A 1.67,1.67 0.0 0,1 355.7,779.79 L 335.03,767.85 A 0.07,0.07 0.0 0,1 335.03,767.73 M 334.5,784.93 L 355.85,796.74 A 2.2,2.19 44.6 0,0 358.0,796.73 L 380.87,783.52 A 0.87,0.87 0.0 0,0 380.87,782.01 L 375.89,779.13 A 0.91,0.9 41.2 0,0 374.88,779.19 Q 374.46,779.52 374.05,780.19 Q 373.61,780.59 372.74,780.81 A 1.91,1.89 -45.3 0,1 371.82,780.82 Q 369.4,780.26 368.1,780.87 Q 360.68,784.38 359.09,785.04 Q 357.39,785.74 355.24,785.19 A 1.59,1.58 82.5 0,1 354.26,784.43 Q 351.75,779.94 346.08,778.58 C 343.69,778.01 342.32,779.75 339.96,779.3 C 339.44,778.55 338.64,778.42 337.83,778.85 Q 334.84,780.47 331.82,782.19 A 0.65,0.64 51.8 0,0 331.7,783.22 Q 332.78,784.26 334.5,784.93"/>
  <path fill="#1b1f23" d="M 356.57,768.23 C 355.99,768.23 355.67,767.93 355.65,767.36 Q 355.48,760.78 355.49,750.03 A 0.34,0.34 0.0 0,0 354.91,749.79 L 351.25,753.34 A 1.07,1.07 0.0 0,1 349.82,753.4 L 349.79,753.38 A 0.85,0.84 42.2 0,1 349.72,752.12 Q 353.1,748.79 356.09,746.18 Q 356.1,746.17 356.3,746.13 Q 356.41,746.1 356.52,746.1 Q 356.62,746.1 356.74,746.13 Q 356.94,746.17 356.95,746.18 Q 359.95,748.78 363.34,752.09 A 0.85,0.84 -42.4 0,1 363.28,753.35 L 363.25,753.37 A 1.07,1.07 0.0 0,1 361.82,753.32 L 358.14,749.78 A 0.34,0.34 0.0 0,0 357.56,750.03 Q 357.62,760.78 357.48,767.36 C 357.46,767.92 357.14,768.23 356.57,768.23"/>
  <path fill="#1b1f23" d="M 335.03,767.73 A 0.07,0.07 0.0 0,0 335.03,767.85 L 355.7,779.79 A 1.67,1.67 0.0 0,0 357.38,779.79 L 377.65,768.09 A 0.24,0.24 0.0 0,0 377.65,767.67 L 364.97,760.35 A 0.9,0.9 0.0 0,1 364.53,759.45 L 364.57,759.13 A 0.73,0.72 -71.4 0,1 365.65,758.59 L 380.72,767.29 A 0.84,0.84 0.0 0,1 380.72,768.75 L 358.13,781.8 A 3.02,3.02 0.0 0,1 355.11,781.8 L 332.1,768.51 A 0.75,0.75 0.0 0,1 332.1,767.21 L 349.57,757.12 A 0.63,0.63 0.0 0,1 350.47,757.43 L 350.6,757.73 A 1.02,1.01 64.0 0,1 350.17,758.99 L 335.03,767.73"/>
  <path fill="#1b1f23" d="M 339.96,779.3 Q 339.95,779.58 339.87,779.78 Q 339.8,779.99 339.52,780.1 Q 336.9,781.2 334.56,782.93 Q 335.82,784.6 334.5,784.93 Q 332.78,784.26 331.7,783.22 A 0.65,0.64 51.8 0,1 331.82,782.19 Q 334.84,780.47 337.83,778.85 C 338.64,778.42 339.44,778.55 339.96,779.3"/>
  <path fill="#a8d8d0" d="M 374.05,780.19 L 376.93,782.02 A 0.66,0.65 46.1 0,1 376.91,783.14 L 357.84,794.15 A 2.51,2.5 -45.6 0,1 355.41,794.18 L 334.56,782.93 Q 336.9,781.2 339.52,780.1 Q 339.8,779.99 339.87,779.78 Q 339.95,779.58 339.96,779.3 C 342.32,779.75 343.69,778.01 346.08,778.58 Q 351.75,779.94 354.26,784.43 A 1.59,1.58 82.5 0,0 355.24,785.19 Q 357.39,785.74 359.09,785.04 Q 360.68,784.38 368.1,780.87 Q 369.4,780.26 371.82,780.82 A 1.91,1.89 -45.3 0,0 372.74,780.81 Q 373.61,780.59 374.05,780.19"/>
  <path fill="#37504e" d="M 334.5,784.93 Q 335.82,784.6 334.56,782.93 L 355.41,794.18 A 2.51,2.5 -45.6 0,0 357.84,794.15 L 376.91,783.14 A 0.66,0.65 46.1 0,0 376.93,782.02 L 374.05,780.19 Q 374.46,779.52 374.88,779.19 A 0.91,0.9 41.2 0,1 375.89,779.13 L 380.87,782.01 A 0.87,0.87 0.0 0,1 380.87,783.52 L 358.0,796.73 A 2.2,2.19 44.6 0,1 355.85,796.74 L 334.5,784.93"/>
</svg>
