<?xml version="1.0" encoding="UTF-8"?>
<svg xmlns="http://www.w3.org/2000/svg" version="1.1" viewBox="452.38 740.75 61.27 62.18">
  <path fill="none" stroke="#898b8d" stroke-width="2.00" stroke-linecap="butt" vector-effect="non-scaling-stroke" d="M 483.43,771.39 Q 483.52,771.39 483.62,771.38 Q 483.79,771.34 483.81,771.32 Q 487.02,768.36 490.18,764.87 A 0.66,0.66 0.0 0,0 489.99,763.84 L 489.74,763.76 A 1.35,1.33 -56.4 0,0 488.35,764.05 L 485.2,767.04 A 0.44,0.44 0.0 0,1 484.46,766.73 Q 484.3,759.64 484.37,748.25 Q 484.37,746.75 483.37,746.75 Q 482.37,746.76 482.39,748.25 Q 482.5,759.64 482.37,766.73 A 0.44,0.44 0.0 0,1 481.63,767.05 L 478.47,764.07 A 1.35,1.33 56.2 0,0 477.08,763.79 L 476.83,763.87 A 0.66,0.66 0.0 0,0 476.64,764.9 Q 479.82,768.38 483.04,771.32 Q 483.06,771.34 483.23,771.38 Q 483.33,771.39 483.43,771.39"/>
  <path fill="none" stroke="#d0e8e4" stroke-width="2.00" stroke-linecap="butt" vector-effect="non-scaling-stroke" d="M 473.24,776.79 Q 471.54,778.94 469.21,779.91 Q 467.98,780.42 466.67,779.87"/>
  <path fill="none" stroke="#97a4a3" stroke-width="2.00" stroke-linecap="butt" vector-effect="non-scaling-stroke" d="M 466.67,779.87 C 466.25,778.41 465.28,778.02 463.93,778.8 Q 460.6,780.72 458.81,781.84 A 0.85,0.84 44.1 0,0 458.84,783.29 L 481.99,796.65 A 2.11,2.09 -44.8 0,0 484.08,796.65 L 507.11,783.35 A 0.84,0.84 0.0 0,0 507.17,781.93 Q 503.82,779.62 500.79,779.12"/>
  <path fill="none" stroke="#d0e8e4" stroke-width="2.00" stroke-linecap="butt" vector-effect="non-scaling-stroke" d="M 500.79,779.12 Q 499.02,780.34 497.72,779.31 Q 496.29,778.19 495.04,775.78"/>
  <path fill="none" stroke="#898b8d" stroke-width="2.00" stroke-linecap="butt" vector-effect="non-scaling-stroke" d="M 495.04,775.78 L 507.19,768.76 A 0.93,0.93 0.0 0,0 507.19,767.15 L 495.97,760.67 A 0.65,0.65 0.0 0,0 495.0,761.13 L 494.94,761.51 A 1.23,1.22 20.1 0,0 495.53,762.77 L 503.92,767.61 A 0.27,0.27 0.0 0,1 503.92,768.07 L 483.72,779.73 A 1.07,1.05 -44.5 0,1 482.67,779.73 L 461.96,767.77 A 0.29,0.29 0.0 0,1 461.98,767.25 Q 469.3,763.96 476.66,758.8 A 0.56,0.56 0.0 0,0 476.82,758.06 L 476.67,757.79 A 0.92,0.92 0.0 0,0 475.42,757.45 L 458.81,767.04 A 0.86,0.86 0.0 0,0 458.81,768.53 L 473.24,776.79"/>
  <path fill="none" stroke="#627c7a" stroke-width="2.00" stroke-linecap="butt" vector-effect="non-scaling-stroke" d="M 495.04,775.78 L 484.14,781.78 A 1.8,1.8 0.0 0,1 482.4,781.78 L 473.24,776.79"/>
  <path fill="none" stroke="#70948f" stroke-width="2.00" stroke-linecap="butt" vector-effect="non-scaling-stroke" d="M 500.79,779.12 Q 500.3,780.18 501.23,780.76 Q 502.41,781.49 503.52,781.93 A 0.57,0.57 0.0 0,1 503.6,782.96 L 484.1,794.22 A 2.05,2.04 44.8 0,1 482.07,794.22 L 462.17,782.73 A 0.24,0.24 0.0 0,1 462.18,782.31 L 466.67,779.87"/>
  <path fill="#f7f7f7" d="M 483.43,771.39 Q 483.52,771.39 483.62,771.38 Q 483.79,771.34 483.81,771.32 Q 487.02,768.36 490.18,764.87 A 0.66,0.66 0.0 0,0 489.99,763.84 L 489.74,763.76 A 1.35,1.33 -56.4 0,0 488.35,764.05 L 485.2,767.04 A 0.44,0.44 0.0 0,1 484.46,766.73 Q 484.3,759.64 484.37,748.25 Q 484.37,746.75 483.37,746.75 Q 482.37,746.76 482.39,748.25 Q 482.5,759.64 482.37,766.73 A 0.44,0.44 0.0 0,1 481.63,767.05 L 478.47,764.07 A 1.35,1.33 56.2 0,0 477.08,763.79 L 476.83,763.87 A 0.66,0.66 0.0 0,0 476.64,764.9 Q 479.82,768.38 483.04,771.32 Q 483.06,771.34 483.23,771.38 Q 483.33,771.39 483.43,771.39 M 473.24,776.79 Q 471.54,778.94 469.21,779.91 Q 467.98,780.42 466.67,779.87 C 466.25,778.41 465.28,778.02 463.93,778.8 Q 460.6,780.72 458.81,781.84 A 0.85,0.84 44.1 0,0 458.84,783.29 L 481.99,796.65 A 2.11,2.09 -44.8 0,0 484.08,796.65 L 507.11,783.35 A 0.84,0.84 0.0 0,0 507.17,781.93 Q 503.82,779.62 500.79,779.12 Q 499.02,780.34 497.72,779.31 Q 496.29,778.19 495.04,775.78 L 507.19,768.76 A 0.93,0.93 0.0 0,0 507.19,767.15 L 495.97,760.67 A 0.65,0.65 0.0 0,0 495.0,761.13 L 494.94,761.51 A 1.23,1.22 20.1 0,0 495.53,762.77 L 503.92,767.61 A 0.27,0.27 0.0 0,1 503.92,768.07 L 483.72,779.73 A 1.07,1.05 -44.5 0,1 482.67,779.73 L 461.96,767.77 A 0.29,0.29 0.0 0,1 461.98,767.25 Q 469.3,763.96 476.66,758.8 A 0.56,0.56 0.0 0,0 476.82,758.06 L 476.67,757.79 A 0.92,0.92 0.0 0,0 475.42,757.45 L 458.81,767.04 A 0.86,0.86 0.0 0,0 458.81,768.53 L 473.24,776.79"/>
  <path fill="#1b1f23" d="M 483.37,746.75 Q 484.37,746.75 484.37,748.25 Q 484.3,759.64 484.46,766.73 A 0.44,0.44 0.0 0,0 485.2,767.04 L 488.35,764.05 A 1.35,1.33 -56.4 0,1 489.74,763.76 L 489.99,763.84 A 0.66,0.66 0.0 0,1 490.18,764.87 Q 487.02,768.36 483.81,771.32 Q 483.79,771.34 483.62,771.38 Q 483.52,771.39 483.43,771.39 Q 483.33,771.39 483.23,771.38 Q 483.06,771.34 483.04,771.32 Q 479.82,768.38 476.64,764.9 A 0.66,0.66 0.0 0,1 476.83,763.87 L 477.08,763.79 A 1.35,1.33 56.2 0,1 478.47,764.07 L 481.63,767.05 A 0.44,0.44 0.0 0,0 482.37,766.73 Q 482.5,759.64 482.39,748.25 Q 482.37,746.76 483.37,746.75"/>
  <path fill="#1b1f23" d="M 495.04,775.78 L 484.14,781.78 A 1.8,1.8 0.0 0,1 482.4,781.78 L 473.24,776.79 L 458.81,768.53 A 0.86,0.86 0.0 0,1 458.81,767.04 L 475.42,757.45 A 0.92,0.92 0.0 0,1 476.67,757.79 L 476.82,758.06 A 0.56,0.56 0.0 0,1 476.66,758.8 Q 469.3,763.96 461.98,767.25 A 0.29,0.29 0.0 0,0 461.96,767.77 L 482.67,779.73 A 1.07,1.05 -44.5 0,0 483.72,779.73 L 503.92,768.07 A 0.27,0.27 0.0 0,0 503.92,767.61 L 495.53,762.77 A 1.23,1.22 20.1 0,1 494.94,761.51 L 495.0,761.13 A 0.65,0.65 0.0 0,1 495.97,760.67 L 507.19,767.15 A 0.93,0.93 0.0 0,1 507.19,768.76 L 495.04,775.78"/>
  <path fill="#a8d8d0" d="M 495.04,775.78 Q 496.29,778.19 497.72,779.31 Q 499.02,780.34 500.79,779.12 Q 500.3,780.18 501.23,780.76 Q 502.41,781.49 503.52,781.93 A 0.57,0.57 0.0 0,1 503.6,782.96 L 484.1,794.22 A 2.05,2.04 44.8 0,1 482.07,794.22 L 462.17,782.73 A 0.24,0.24 0.0 0,1 462.18,782.31 L 466.67,779.87 Q 467.98,780.42 469.21,779.91 Q 471.54,778.94 473.24,776.79 L 482.4,781.78 A 1.8,1.8 0.0 0,0 484.14,781.78 L 495.04,775.78"/>
  <path fill="#37504e" d="M 466.67,779.87 L 462.18,782.31 A 0.24,0.24 0.0 0,0 462.17,782.73 L 482.07,794.22 A 2.05,2.04 44.8 0,0 484.1,794.22 L 503.6,782.96 A 0.57,0.57 0.0 0,0 503.52,781.93 Q 502.41,781.49 501.23,780.76 Q 500.3,780.18 500.79,779.12 Q 503.82,779.62 507.17,781.93 A 0.84,0.84 0.0 0,1 507.11,783.35 L 484.08,796.65 A 2.11,2.09 -44.8 0,1 481.99,796.65 L 458.84,783.29 A 0.85,0.84 44.1 0,1 458.81,781.84 Q 460.6,780.72 463.93,778.8 C 465.28,778.02 466.25,778.41 466.67,779.87"/>
</svg>
