<?xml version="1.0" encoding="UTF-8"?>
<svg xmlns="http://www.w3.org/2000/svg" version="1.1" viewBox="578.49 924.23 58.14 56.51">
  <path fill="none" stroke="#898b8d" stroke-width="2.00" stroke-linecap="butt" vector-effect="non-scaling-stroke" d="M 607.51,930.24 A 0.67,0.67 0.0 0,0 606.74,930.82 Q 606.02,936.48 606.69,941.18 A 0.88,0.88 0.0 0,0 608.44,941.12 Q 608.63,938.47 609.0,937.6 A 0.69,0.64 55.4 0,0 609.05,937.26 L 608.2,930.72 A 0.51,0.5 0.8 0,0 607.78,930.29 L 607.51,930.24"/>
  <path fill="none" stroke="#898b8d" stroke-width="2.00" stroke-linecap="butt" vector-effect="non-scaling-stroke" d="M 595.98,940.24 C 593.87,942.22 591.87,944.95 591.84,947.95 A 0.51,0.51 0.0 0,0 592.82,948.15 Q 594.64,943.95 597.2,941.54 Q 599.77,939.12 604.07,937.56 A 0.51,0.51 0.0 0,0 603.93,936.58 C 600.93,936.42 598.09,938.26 595.98,940.24"/>
  <path fill="none" stroke="#898b8d" stroke-width="2.00" stroke-linecap="butt" vector-effect="non-scaling-stroke" d="M 623.65,948.45 Q 622.61,942.64 617.26,939.1 Q 613.92,936.89 612.13,936.82 A 0.46,0.46 0.0 0,0 611.66,937.16 L 611.58,937.45 A 0.72,0.72 0.0 0,0 612.03,938.32 C 617.65,940.34 619.75,944.05 623.21,948.64 A 0.25,0.25 0.0 0,0 623.65,948.45"/>
  <path fill="none" stroke="#898b8d" stroke-width="2.00" stroke-linecap="butt" vector-effect="non-scaling-stroke" d="M 614.17,952.71 A 6.71,6.71 0.0 0,0 607.46,946.0 A 6.71,6.71 0.0 0,0 600.75,952.71 A 6.71,6.71 0.0 0,0 607.46,959.42 A 6.71,6.71 0.0 0,0 614.17,952.71"/>
  <path fill="none" stroke="#898b8d" stroke-width="2.00" stroke-linecap="butt" vector-effect="non-scaling-stroke" d="M 622.96,954.42 C 623.17,959.24 619.49,962.38 616.05,965.09 A 0.79,0.79 0.0 0,0 616.04,966.32 L 616.07,966.34 A 1.29,1.29 0.0 0,0 617.59,966.43 C 622.19,963.44 623.24,958.68 624.13,954.28 A 0.74,0.73 -84.2 0,1 624.85,953.69 L 629.8,953.69 A 0.81,0.81 0.0 0,0 630.61,952.93 L 630.63,952.6 A 0.91,0.91 0.0 0,0 629.67,951.64 Q 626.59,951.81 623.92,951.02 A 1.44,1.41 41.8 0,0 623.02,951.06 Q 622.65,951.21 619.99,951.73 Q 619.01,951.92 619.27,953.07 A 0.74,0.74 0.0 0,0 619.95,953.65 L 622.34,953.79 A 0.67,0.65 1.0 0,1 622.96,954.42"/>
  <path fill="none" stroke="#898b8d" stroke-width="2.00" stroke-linecap="butt" vector-effect="non-scaling-stroke" d="M 595.81,952.49 A 0.95,0.95 0.0 0,0 594.86,951.54 L 585.44,951.54 A 0.95,0.95 0.0 0,0 584.49,952.49 L 584.49,952.81 A 0.95,0.95 0.0 0,0 585.44,953.76 L 594.86,953.76 A 0.95,0.95 0.0 0,0 595.81,952.81 L 595.81,952.49"/>
  <path fill="none" stroke="#898b8d" stroke-width="2.00" stroke-linecap="butt" vector-effect="non-scaling-stroke" d="M 595.46,964.87 C 597.44,966.76 599.96,968.2 602.58,968.0 A 0.24,0.24 0.0 0,0 602.68,967.54 Q 599.19,965.68 596.84,963.43 Q 594.48,961.18 592.46,957.78 A 0.24,0.24 0.0 0,0 592.01,957.9 C 591.93,960.53 593.48,962.98 595.46,964.87"/>
  <path fill="none" stroke="#898b8d" stroke-width="2.00" stroke-linecap="butt" vector-effect="non-scaling-stroke" d="M 608.652,965.3358 A 1.01,1.01 0.0 0,0 607.6473,964.3205 L 607.4673,964.3196 A 1.01,1.01 0.0 0,0 606.452,965.3243 L 606.408,973.7242 A 1.01,1.01 0.0 0,0 607.4127,974.7395 L 607.5927,974.7404 A 1.01,1.01 0.0 0,0 608.608,973.7357 L 608.652,965.3358"/>
  <path fill="none" stroke="#898b8d" stroke-width="2.00" stroke-linecap="butt" vector-effect="non-scaling-stroke" d="M 612.24,952.65 A 4.77,4.77 0.0 0,0 607.47,947.88 A 4.77,4.77 0.0 0,0 602.7,952.65 A 4.77,4.77 0.0 0,0 607.47,957.42 A 4.77,4.77 0.0 0,0 612.24,952.65"/>
  <path fill="#f7f7f7" d="M 607.51,930.24 A 0.67,0.67 0.0 0,0 606.74,930.82 Q 606.02,936.48 606.69,941.18 A 0.88,0.88 0.0 0,0 608.44,941.12 Q 608.63,938.47 609.0,937.6 A 0.69,0.64 55.4 0,0 609.05,937.26 L 608.2,930.72 A 0.51,0.5 0.8 0,0 607.78,930.29 L 607.51,930.24 M 595.98,940.24 C 593.87,942.22 591.87,944.95 591.84,947.95 A 0.51,0.51 0.0 0,0 592.82,948.15 Q 594.64,943.95 597.2,941.54 Q 599.77,939.12 604.07,937.56 A 0.51,0.51 0.0 0,0 603.93,936.58 C 600.93,936.42 598.09,938.26 595.98,940.24 M 623.65,948.45 Q 622.61,942.64 617.26,939.1 Q 613.92,936.89 612.13,936.82 A 0.46,0.46 0.0 0,0 611.66,937.16 L 611.58,937.45 A 0.72,0.72 0.0 0,0 612.03,938.32 C 617.65,940.34 619.75,944.05 623.21,948.64 A 0.25,0.25 0.0 0,0 623.65,948.45 M 614.17,952.71 A 6.71,6.71 0.0 0,0 607.46,946.0 A 6.71,6.71 0.0 0,0 600.75,952.71 A 6.71,6.71 0.0 0,0 607.46,959.42 A 6.71,6.71 0.0 0,0 614.17,952.71 M 622.96,954.42 C 623.17,959.24 619.49,962.38 616.05,965.09 A 0.79,0.79 0.0 0,0 616.04,966.32 L 616.07,966.34 A 1.29,1.29 0.0 0,0 617.59,966.43 C 622.19,963.44 623.24,958.68 624.13,954.28 A 0.74,0.73 -84.2 0,1 624.85,953.69 L 629.8,953.69 A 0.81,0.81 0.0 0,0 630.61,952.93 L 630.63,952.6 A 0.91,0.91 0.0 0,0 629.67,951.64 Q 626.59,951.81 623.92,951.02 A 1.44,1.41 41.8 0,0 623.02,951.06 Q 622.65,951.21 619.99,951.73 Q 619.01,951.92 619.27,953.07 A 0.74,0.74 0.0 0,0 619.95,953.65 L 622.34,953.79 A 0.67,0.65 1.0 0,1 622.96,954.42 M 595.81,952.49 A 0.95,0.95 0.0 0,0 594.86,951.54 L 585.44,951.54 A 0.95,0.95 0.0 0,0 584.49,952.49 L 584.49,952.81 A 0.95,0.95 0.0 0,0 585.44,953.76 L 594.86,953.76 A 0.95,0.95 0.0 0,0 595.81,952.81 L 595.81,952.49 M 595.46,964.87 C 597.44,966.76 599.96,968.2 602.58,968.0 A 0.24,0.24 0.0 0,0 602.68,967.54 Q 599.19,965.68 596.84,963.43 Q 594.48,961.18 592.46,957.78 A 0.24,0.24 0.0 0,0 592.01,957.9 C 591.93,960.53 593.48,962.98 595.46,964.87 M 608.652,965.3358 A 1.01,1.01 0.0 0,0 607.6473,964.3205 L 607.4673,964.3196 A 1.01,1.01 0.0 0,0 606.452,965.3243 L 606.408,973.7242 A 1.01,1.01 0.0 0,0 607.4127,974.7395 L 607.5927,974.7404 A 1.01,1.01 0.0 0,0 608.608,973.7357 L 608.652,965.3358"/>
  <path fill="#1b1f23" d="M 608.2,930.72 L 609.05,937.26 A 0.69,0.64 55.4 0,1 609.0,937.6 Q 608.63,938.47 608.44,941.12 A 0.88,0.88 0.0 0,1 606.69,941.18 Q 606.02,936.48 606.74,930.82 A 0.67,0.67 0.0 0,1 607.51,930.24 L 607.78,930.29 A 0.51,0.5 0.8 0,1 608.2,930.72"/>
  <path fill="#1b1f23" d="M 597.2,941.54 Q 594.64,943.95 592.82,948.15 A 0.51,0.51 0.0 0,1 591.84,947.95 C 591.87,944.95 593.87,942.22 595.98,940.24 C 598.09,938.26 600.93,936.42 603.93,936.58 A 0.51,0.51 0.0 0,1 604.07,937.56 Q 599.77,939.12 597.2,941.54"/>
  <path fill="#1b1f23" d="M 623.65,948.45 A 0.25,0.25 0.0 0,1 623.21,948.64 C 619.75,944.05 617.65,940.34 612.03,938.32 A 0.72,0.72 0.0 0,1 611.58,937.45 L 611.66,937.16 A 0.46,0.46 0.0 0,1 612.13,936.82 Q 613.92,936.89 617.26,939.1 Q 622.61,942.64 623.65,948.45"/>
  <path fill="#1b1f23" d="M 614.17,952.71 A 6.71,6.71 0.0 0,1 607.46,959.42 A 6.71,6.71 0.0 0,1 600.75,952.71 A 6.71,6.71 0.0 0,1 607.46,946.0 A 6.71,6.71 0.0 0,1 614.17,952.71 M 612.24,952.65 A 4.77,4.77 0.0 0,0 607.47,947.88 A 4.77,4.77 0.0 0,0 602.7,952.65 A 4.77,4.77 0.0 0,0 607.47,957.42 A 4.77,4.77 0.0 0,0 612.24,952.65"/>
  <path fill="#1b1f23" d="M 622.34,953.79 L 619.95,953.65 A 0.74,0.74 0.0 0,1 619.27,953.07 Q 619.01,951.92 619.99,951.73 Q 622.65,951.21 623.02,951.06 A 1.44,1.41 41.8 0,1 623.92,951.02 Q 626.59,951.81 629.67,951.64 A 0.91,0.91 0.0 0,1 630.63,952.6 L 630.61,952.93 A 0.81,0.81 0.0 0,1 629.8,953.69 L 624.85,953.69 A 0.74,0.73 -84.2 0,0 624.13,954.28 C 623.24,958.68 622.19,963.44 617.59,966.43 A 1.29,1.29 0.0 0,1 616.07,966.34 L 616.04,966.32 A 0.79,0.79 0.0 0,1 616.05,965.09 C 619.49,962.38 623.17,959.24 622.96,954.42 A 0.67,0.65 1.0 0,0 622.34,953.79"/>
  <path fill="#1b1f23" d="M 596.84,963.43 Q 599.19,965.68 602.68,967.54 A 0.24,0.24 0.0 0,1 602.58,968.0 C 599.96,968.2 597.44,966.76 595.46,964.87 C 593.48,962.98 591.93,960.53 592.01,957.9 A 0.24,0.24 0.0 0,1 592.46,957.78 Q 594.48,961.18 596.84,963.43"/>
</svg>
