<?xml version="1.0" encoding="UTF-8"?>
<svg xmlns="http://www.w3.org/2000/svg" version="1.1" viewBox="986.25 759.31 67.60 30.79">
  <path fill="none" stroke="#898b8d" stroke-width="2.00" stroke-linecap="butt" vector-effect="non-scaling-stroke" d="M 1042.44,776.54 L 1039.8,779.04 A 0.54,0.54 0.0 0,0 1039.67,779.6 L 1039.76,779.84 A 0.73,0.73 0.0 0,0 1040.78,780.25 Q 1043.14,779.04 1044.88,776.85 A 0.43,0.43 0.0 0,1 1045.64,777.1 L 1045.8,783.05 A 1.08,1.07 1.5 0,0 1046.8,784.1 L 1046.85,784.1 A 0.97,0.97 0.0 0,0 1047.85,783.13 L 1047.78,766.24 A 0.86,0.86 0.0 0,0 1046.92,765.38 L 1046.45,765.38 A 0.73,0.73 0.0 0,0 1045.72,766.11 L 1045.72,772.96 A 0.46,0.46 0.0 0,1 1044.9,773.25 Q 1043.2,771.15 1040.85,769.95 A 0.63,0.62 -67.4 0,0 1039.98,770.31 L 1039.92,770.58 A 0.39,0.38 -61.1 0,0 1040.02,770.94 L 1042.43,773.22 A 0.28,0.28 0.0 0,1 1042.24,773.7 L 997.53,773.7 A 0.39,0.38 -62.5 0,1 997.31,773.0 Q 998.03,772.5 998.94,772.11 A 1.09,1.0 -43.4 0,0 999.07,770.19 C 997.78,769.64 996.22,771.67 995.54,772.54 A 0.72,0.72 0.0 0,1 994.26,772.1 L 994.26,766.13 A 0.82,0.82 0.0 0,0 993.44,765.31 L 993.02,765.31 A 0.77,0.77 0.0 0,0 992.25,766.08 L 992.25,782.97 A 0.93,0.92 -84.3 0,0 992.99,783.88 L 993.33,783.94 A 0.81,0.8 -84.4 0,0 994.29,783.15 L 994.29,777.21 A 0.55,0.54 21.8 0,1 995.21,776.82 L 997.88,779.35 A 1.06,1.05 -39.6 0,0 999.18,779.47 L 999.49,779.27 A 0.45,0.44 50.0 0,0 999.55,778.57 L 997.47,776.59 A 0.44,0.44 0.0 0,1 997.77,775.83 L 1042.16,775.83 A 0.41,0.41 0.0 0,1 1042.44,776.54"/>
  <path fill="#f7f7f7" d="M 1042.44,776.54 L 1039.8,779.04 A 0.54,0.54 0.0 0,0 1039.67,779.6 L 1039.76,779.84 A 0.73,0.73 0.0 0,0 1040.78,780.25 Q 1043.14,779.04 1044.88,776.85 A 0.43,0.43 0.0 0,1 1045.64,777.1 L 1045.8,783.05 A 1.08,1.07 1.5 0,0 1046.8,784.1 L 1046.85,784.1 A 0.97,0.97 0.0 0,0 1047.85,783.13 L 1047.78,766.24 A 0.86,0.86 0.0 0,0 1046.92,765.38 L 1046.45,765.38 A 0.73,0.73 0.0 0,0 1045.72,766.11 L 1045.72,772.96 A 0.46,0.46 0.0 0,1 1044.9,773.25 Q 1043.2,771.15 1040.85,769.95 A 0.63,0.62 -67.4 0,0 1039.98,770.31 L 1039.92,770.58 A 0.39,0.38 -61.1 0,0 1040.02,770.94 L 1042.43,773.22 A 0.28,0.28 0.0 0,1 1042.24,773.7 L 997.53,773.7 A 0.39,0.38 -62.5 0,1 997.31,773.0 Q 998.03,772.5 998.94,772.11 A 1.09,1.0 -43.4 0,0 999.07,770.19 C 997.78,769.64 996.22,771.67 995.54,772.54 A 0.72,0.72 0.0 0,1 994.26,772.1 L 994.26,766.13 A 0.82,0.82 0.0 0,0 993.44,765.31 L 993.02,765.31 A 0.77,0.77 0.0 0,0 992.25,766.08 L 992.25,782.97 A 0.93,0.92 -84.3 0,0 992.99,783.88 L 993.33,783.94 A 0.81,0.8 -84.4 0,0 994.29,783.15 L 994.29,777.21 A 0.55,0.54 21.8 0,1 995.21,776.82 L 997.88,779.35 A 1.06,1.05 -39.6 0,0 999.18,779.47 L 999.49,779.27 A 0.45,0.44 50.0 0,0 999.55,778.57 L 997.47,776.59 A 0.44,0.44 0.0 0,1 997.77,775.83 L 1042.16,775.83 A 0.41,0.41 0.0 0,1 1042.44,776.54"/>
  <path fill="#1b1f23" d="M 1042.44,776.54 A 0.41,0.41 0.0 0,0 1042.16,775.83 L 997.77,775.83 A 0.44,0.44 0.0 0,0 997.47,776.59 L 999.55,778.57 A 0.45,0.44 50.0 0,1 999.49,779.27 L 999.18,779.47 A 1.06,1.05 -39.6 0,1 997.88,779.35 L 995.21,776.82 A 0.55,0.54 21.8 0,0 994.29,777.21 L 994.29,783.15 A 0.81,0.8 -84.4 0,1 993.33,783.94 L 992.99,783.88 A 0.93,0.92 -84.3 0,1 992.25,782.97 L 992.25,766.08 A 0.77,0.77 0.0 0,1 993.02,765.31 L 993.44,765.31 A 0.82,0.82 0.0 0,1 994.26,766.13 L 994.26,772.1 A 0.72,0.72 0.0 0,0 995.54,772.54 C 996.22,771.67 997.78,769.64 999.07,770.19 A 1.09,1.0 -43.4 0,1 998.94,772.11 Q 998.03,772.5 997.31,773.0 A 0.39,0.38 -62.5 0,0 997.53,773.7 L 1042.24,773.7 A 0.28,0.28 0.0 0,0 1042.43,773.22 L 1040.02,770.94 A 0.39,0.38 -61.1 0,1 1039.92,770.58 L 1039.98,770.31 A 0.63,0.62 -67.4 0,1 1040.85,769.95 Q 1043.2,771.15 1044.9,773.25 A 0.46,0.46 0.0 0,0 1045.72,772.96 L 1045.72,766.11 A 0.73,0.73 0.0 0,1 1046.45,765.38 L 1046.92,765.38 A 0.86,0.86 0.0 0,1 1047.78,766.24 L 1047.85,783.13 A 0.97,0.97 0.0 0,1 1046.85,784.1 L 1046.8,784.1 A 1.08,1.07 1.5 0,1 1045.8,783.05 L 1045.64,777.1 A 0.43,0.43 0.0 0,0 1044.88,776.85 Q 1043.14,779.04 1040.78,780.25 A 0.73,0.73 0.0 0,1 1039.76,779.84 L 1039.67,779.6 A 0.54,0.54 0.0 0,1 1039.8,779.04 L 1042.44,776.54"/>
</svg>
