<?xml version="1.0" encoding="UTF-8"?>
<svg xmlns="http://www.w3.org/2000/svg" version="1.1" viewBox="1126.85 740.76 62.31 54.82">
  <path fill="none" stroke="#898b8d" stroke-width="2.00" stroke-linecap="butt" vector-effect="non-scaling-stroke" d="M 1164.87,787.1 Q 1164.83,786.72 1164.71,784.55 Q 1164.12,773.86 1154.8,769.26 A 0.42,0.42 0.0 0,1 1154.68,768.59 L 1173.42,748.8 A 1.21,1.21 0.0 0,0 1173.58,747.34 L 1173.44,747.11 A 0.73,0.73 0.0 0,0 1172.29,746.99 L 1133.04,788.41 A 0.7,0.69 21.6 0,0 1133.55,789.58 L 1182.38,789.58 A 0.78,0.78 0.0 0,0 1183.15,788.7 L 1183.11,788.38 A 0.86,0.86 0.0 0,0 1182.26,787.63 L 1165.46,787.63 A 0.6,0.59 86.7 0,1 1164.87,787.1"/>
  <path fill="none" stroke="#898b8d" stroke-width="2.00" stroke-linecap="butt" vector-effect="non-scaling-stroke" d="M 1137.31,787.53 L 1161.75,787.53 A 0.66,0.66 0.0 0,0 1162.4,786.99 C 1163.74,780.04 1159.73,773.32 1153.3,770.64 A 0.69,0.68 -56.6 0,0 1152.53,770.8 L 1137.11,787.08 A 0.27,0.27 0.0 0,0 1137.31,787.53"/>
  <path fill="#f7f7f7" d="M 1164.87,787.1 Q 1164.83,786.72 1164.71,784.55 Q 1164.12,773.86 1154.8,769.26 A 0.42,0.42 0.0 0,1 1154.68,768.59 L 1173.42,748.8 A 1.21,1.21 0.0 0,0 1173.58,747.34 L 1173.44,747.11 A 0.73,0.73 0.0 0,0 1172.29,746.99 L 1133.04,788.41 A 0.7,0.69 21.6 0,0 1133.55,789.58 L 1182.38,789.58 A 0.78,0.78 0.0 0,0 1183.15,788.7 L 1183.11,788.38 A 0.86,0.86 0.0 0,0 1182.26,787.63 L 1165.46,787.63 A 0.6,0.59 86.7 0,1 1164.87,787.1"/>
  <path fill="#1b1f23" d="M 1165.46,787.63 L 1182.26,787.63 A 0.86,0.86 0.0 0,1 1183.11,788.38 L 1183.15,788.7 A 0.78,0.78 0.0 0,1 1182.38,789.58 L 1133.55,789.58 A 0.7,0.69 21.6 0,1 1133.04,788.41 L 1172.29,746.99 A 0.73,0.73 0.0 0,1 1173.44,747.11 L 1173.58,747.34 A 1.21,1.21 0.0 0,1 1173.42,748.8 L 1154.68,768.59 A 0.42,0.42 0.0 0,0 1154.8,769.26 Q 1164.12,773.86 1164.71,784.55 Q 1164.83,786.72 1164.87,787.1 A 0.6,0.59 86.7 0,0 1165.46,787.63 M 1137.31,787.53 L 1161.75,787.53 A 0.66,0.66 0.0 0,0 1162.4,786.99 C 1163.74,780.04 1159.73,773.32 1153.3,770.64 A 0.69,0.68 -56.6 0,0 1152.53,770.8 L 1137.11,787.08 A 0.27,0.27 0.0 0,0 1137.31,787.53"/>
  <path fill="#f7f7f7" d="M 1137.11,787.08 L 1152.53,770.8 A 0.69,0.68 -56.6 0,1 1153.3,770.64 C 1159.73,773.32 1163.74,780.04 1162.4,786.99 A 0.66,0.66 0.0 0,1 1161.75,787.53 L 1137.31,787.53 A 0.27,0.27 0.0 0,1 1137.11,787.08"/>
</svg>
