<?xml version="1.0" encoding="UTF-8"?>
<svg xmlns="http://www.w3.org/2000/svg" version="1.1" viewBox="854.09 740.10 64.88 64.09">
  <path fill="none" stroke="#898b8d" stroke-width="2.00" stroke-linecap="butt" vector-effect="non-scaling-stroke" d="M 894.98,752.57 L 886.97,746.43 A 1.6,1.6 0.0 0,0 885.35,746.23 L 880.68,748.26 A 0.75,0.74 -28.9 0,0 880.36,749.36 L 880.51,749.6 A 0.22,0.21 63.3 0,0 880.74,749.68 L 885.52,748.43 A 0.47,0.47 0.0 0,1 885.88,748.48 L 894.43,753.42 A 0.35,0.34 32.8 0,0 894.88,753.33 L 895.05,753.11 A 0.38,0.38 0.0 0,0 894.98,752.57"/>
  <path fill="none" stroke="#898b8d" stroke-width="2.00" stroke-linecap="butt" vector-effect="non-scaling-stroke" d="M 870.74,753.25 A 0.61,0.61 0.0 0,1 871.15,752.42 L 874.51,751.54 A 0.51,0.5 75.8 0,0 874.87,750.92 L 874.78,750.56 A 0.88,0.88 0.0 0,0 873.61,749.96 Q 870.41,751.19 868.27,749.81 A 1.14,1.13 -40.0 0,0 867.22,749.72 Q 864.59,750.86 864.44,753.95 A 1.09,1.07 23.8 0,0 864.78,754.8 L 865.93,755.89 A 1.38,1.38 0.0 0,1 866.37,756.9 L 866.37,758.63 A 0.62,0.62 0.0 0,0 867.59,758.81 L 868.32,756.42 A 0.61,0.56 69.2 0,1 868.38,756.27 Q 868.69,755.74 869.93,755.61 Q 871.07,755.49 871.04,754.72 Q 871.0,753.86 870.74,753.25"/>
  <path fill="none" stroke="#d0e8e4" stroke-width="2.00" stroke-linecap="butt" vector-effect="non-scaling-stroke" d="M 903.39,761.42 Q 892.29,762.4 881.92,756.9 A 2.47,2.45 29.5 0,0 878.66,757.79 C 876.74,760.95 874.86,764.5 873.36,768.83 Q 871.05,775.5 869.76,777.75 Q 867.51,781.67 871.23,786.38"/>
  <path fill="none" stroke="#898b8d" stroke-width="2.00" stroke-linecap="butt" vector-effect="non-scaling-stroke" d="M 871.23,786.38 Q 867.14,785.61 866.85,781.6 A 0.58,0.56 -64.8 0,0 866.75,781.31 L 864.45,777.88 A 0.61,0.61 0.0 0,0 863.41,777.91 Q 862.24,779.95 860.38,781.51 A 0.81,0.8 59.4 0,0 860.15,782.42 Q 860.95,784.49 862.7,785.31 A 1.44,1.43 50.1 0,0 863.67,785.4 Q 865.65,784.89 868.15,785.44 A 1.28,1.27 77.7 0,1 868.92,785.94 L 869.98,787.44 A 1.43,1.35 87.4 0,0 870.34,787.79 C 872.41,789.26 876.13,792.61 878.72,792.08"/>
  <path fill="none" stroke="#d0e8e4" stroke-width="2.00" stroke-linecap="butt" vector-effect="non-scaling-stroke" d="M 878.72,792.08 Q 879.76,792.23 880.65,793.54"/>
  <path fill="none" stroke="#898b8d" stroke-width="2.00" stroke-linecap="butt" vector-effect="non-scaling-stroke" d="M 880.65,793.54 Q 879.9,796.62 882.84,797.96 C 883.92,798.45 884.81,798.09 885.57,797.36 Q 886.08,796.87 887.55,796.39 Q 889.21,795.85 889.76,794.9"/>
  <path fill="none" stroke="#d0e8e4" stroke-width="2.00" stroke-linecap="butt" vector-effect="non-scaling-stroke" d="M 889.76,794.9 Q 890.55,792.98 892.25,793.87"/>
  <path fill="none" stroke="#898b8d" stroke-width="2.00" stroke-linecap="butt" vector-effect="non-scaling-stroke" d="M 892.25,793.87 Q 892.65,794.92 893.51,794.94 Q 898.09,795.04 900.43,792.82"/>
  <path fill="none" stroke="#d0e8e4" stroke-width="2.00" stroke-linecap="butt" vector-effect="non-scaling-stroke" d="M 900.43,792.82 Q 901.98,791.18 904.07,792.21"/>
  <path fill="none" stroke="#898b8d" stroke-width="2.00" stroke-linecap="butt" vector-effect="non-scaling-stroke" d="M 904.07,792.21 Q 906.7,793.72 909.91,793.51 C 911.8,793.38 913.82,792.28 912.61,790.14 Q 911.87,788.85 909.11,785.86"/>
  <path fill="none" stroke="#d0e8e4" stroke-width="2.00" stroke-linecap="butt" vector-effect="non-scaling-stroke" d="M 909.11,785.86 Q 908.82,784.79 908.94,783.42"/>
  <path fill="none" stroke="#898b8d" stroke-width="2.00" stroke-linecap="butt" vector-effect="non-scaling-stroke" d="M 908.94,783.42 Q 909.59,782.8 909.59,781.26 Q 909.6,775.88 907.94,772.62"/>
  <path fill="none" stroke="#d0e8e4" stroke-width="2.00" stroke-linecap="butt" vector-effect="non-scaling-stroke" d="M 907.94,772.62 Q 906.07,770.65 906.96,766.51"/>
  <path fill="none" stroke="#898b8d" stroke-width="2.00" stroke-linecap="butt" vector-effect="non-scaling-stroke" d="M 906.96,766.51 C 909.39,764.86 912.08,762.14 909.31,759.91 C 908.55,759.29 907.25,759.35 906.61,759.15 A 2.58,2.57 -12.3 0,1 905.47,758.42 Q 903.38,756.12 899.65,754.63 A 0.37,0.37 0.0 0,0 899.15,755.08 C 899.64,756.76 902.41,757.96 903.6,758.82 A 1.0,0.99 -67.5 0,1 904.0,759.79 Q 903.9,760.48 903.39,761.42"/>
  <path fill="none" stroke="#627c7a" stroke-width="2.00" stroke-linecap="butt" vector-effect="non-scaling-stroke" d="M 906.96,766.51 Q 903.93,764.3 903.39,761.42"/>
  <path fill="none" stroke="#627c7a" stroke-width="2.00" stroke-linecap="butt" vector-effect="non-scaling-stroke" d="M 907.94,772.62 Q 906.86,778.22 908.94,783.42"/>
  <path fill="none" stroke="#627c7a" stroke-width="2.00" stroke-linecap="butt" vector-effect="non-scaling-stroke" d="M 909.11,785.86 Q 908.63,790.58 904.07,792.21"/>
  <path fill="none" stroke="#627c7a" stroke-width="2.00" stroke-linecap="butt" vector-effect="non-scaling-stroke" d="M 900.43,792.82 Q 896.11,791.99 892.25,793.87"/>
  <path fill="none" stroke="#627c7a" stroke-width="2.00" stroke-linecap="butt" vector-effect="non-scaling-stroke" d="M 889.76,794.9 C 888.72,794.25 887.62,794.9 886.79,794.5 Q 885.9,794.07 885.68,793.2 A 1.7,1.58 -10.0 0,0 883.87,792.03 Q 881.43,792.28 880.65,793.54"/>
  <path fill="none" stroke="#627c7a" stroke-width="2.00" stroke-linecap="butt" vector-effect="non-scaling-stroke" d="M 878.72,792.08 Q 878.95,791.88 878.87,791.68 A 0.39,0.18 25.1 0,0 878.82,791.62 L 871.23,786.38"/>
  <path fill="none" stroke="#898b8d" stroke-width="2.00" stroke-linecap="butt" vector-effect="non-scaling-stroke" d="M 867.29,762.99 L 865.83,762.74 A 0.27,0.27 0.0 0,0 865.52,762.95 L 864.58,768.28 A 5.4,0.77 -80.0 0,0 864.4,773.73 L 864.87,773.82 A 5.4,0.77 -80.0 0,0 866.57,768.63 L 867.51,763.31 A 0.27,0.27 0.0 0,0 867.29,762.99"/>
  <path fill="none" stroke="#898b8d" stroke-width="2.00" stroke-linecap="butt" vector-effect="non-scaling-stroke" d="M 869.09,753.3 A 1.28,1.28 0.0 0,0 867.81,752.02 A 1.28,1.28 0.0 0,0 866.53,753.3 A 1.28,1.28 0.0 0,0 867.81,754.58 A 1.28,1.28 0.0 0,0 869.09,753.3"/>
  <path fill="none" stroke="#326b64" stroke-width="2.00" stroke-linecap="butt" vector-effect="non-scaling-stroke" d="M 905.3708,761.7814 A 1.77,1.45 -169.3 0,0 906.8408,763.5348 A 1.77,1.45 -169.3 0,0 908.8492,762.4386 A 1.77,1.45 -169.3 0,0 907.3792,760.6852 A 1.77,1.45 -169.3 0,0 905.3708,761.7814"/>
  <path fill="none" stroke="#898b8d" stroke-width="2.00" stroke-linecap="butt" vector-effect="non-scaling-stroke" d="M 863.7638,780.7879 A 1.31,0.88 -83.7 0,0 862.7453,781.9934 A 1.31,0.88 -83.7 0,0 863.4762,783.3921 A 1.31,0.88 -83.7 0,0 864.4947,782.1866 A 1.31,0.88 -83.7 0,0 863.7638,780.7879"/>
  <path fill="none" stroke="#627c7a" stroke-width="2.00" stroke-linecap="butt" vector-effect="non-scaling-stroke" d="M 908.79,791.85 L 910.59,792.12 A 0.42,0.42 0.0 0,0 911.07,791.77 L 911.1,791.57 A 2.06,1.24 -81.4 0,0 910.18,789.35 L 910.0,789.32 A 2.06,1.24 -81.4 0,0 908.47,791.17 L 908.44,791.37 A 0.42,0.42 0.0 0,0 908.79,791.85"/>
  <path fill="none" stroke="#627c7a" stroke-width="2.00" stroke-linecap="butt" vector-effect="non-scaling-stroke" d="M 882.4293,794.5098 A 1.37,1.2 -161.7 0,0 883.3532,796.0793 A 1.37,1.2 -161.7 0,0 885.0307,795.3702 A 1.37,1.2 -161.7 0,0 884.1068,793.8007 A 1.37,1.2 -161.7 0,0 882.4293,794.5098"/>
  <path fill="#f7f7f7" d="M 894.98,752.57 L 886.97,746.43 A 1.6,1.6 0.0 0,0 885.35,746.23 L 880.68,748.26 A 0.75,0.74 -28.9 0,0 880.36,749.36 L 880.51,749.6 A 0.22,0.21 63.3 0,0 880.74,749.68 L 885.52,748.43 A 0.47,0.47 0.0 0,1 885.88,748.48 L 894.43,753.42 A 0.35,0.34 32.8 0,0 894.88,753.33 L 895.05,753.11 A 0.38,0.38 0.0 0,0 894.98,752.57 M 870.74,753.25 A 0.61,0.61 0.0 0,1 871.15,752.42 L 874.51,751.54 A 0.51,0.5 75.8 0,0 874.87,750.92 L 874.78,750.56 A 0.88,0.88 0.0 0,0 873.61,749.96 Q 870.41,751.19 868.27,749.81 A 1.14,1.13 -40.0 0,0 867.22,749.72 Q 864.59,750.86 864.44,753.95 A 1.09,1.07 23.8 0,0 864.78,754.8 L 865.93,755.89 A 1.38,1.38 0.0 0,1 866.37,756.9 L 866.37,758.63 A 0.62,0.62 0.0 0,0 867.59,758.81 L 868.32,756.42 A 0.61,0.56 69.2 0,1 868.38,756.27 Q 868.69,755.74 869.93,755.61 Q 871.07,755.49 871.04,754.72 Q 871.0,753.86 870.74,753.25 M 903.39,761.42 Q 892.29,762.4 881.92,756.9 A 2.47,2.45 29.5 0,0 878.66,757.79 C 876.74,760.95 874.86,764.5 873.36,768.83 Q 871.05,775.5 869.76,777.75 Q 867.51,781.67 871.23,786.38 Q 867.14,785.61 866.85,781.6 A 0.58,0.56 -64.8 0,0 866.75,781.31 L 864.45,777.88 A 0.61,0.61 0.0 0,0 863.41,777.91 Q 862.24,779.95 860.38,781.51 A 0.81,0.8 59.4 0,0 860.15,782.42 Q 860.95,784.49 862.7,785.31 A 1.44,1.43 50.1 0,0 863.67,785.4 Q 865.65,784.89 868.15,785.44 A 1.28,1.27 77.7 0,1 868.92,785.94 L 869.98,787.44 A 1.43,1.35 87.4 0,0 870.34,787.79 C 872.41,789.26 876.13,792.61 878.72,792.08 Q 879.76,792.23 880.65,793.54 Q 879.9,796.62 882.84,797.96 C 883.92,798.45 884.81,798.09 885.57,797.36 Q 886.08,796.87 887.55,796.39 Q 889.21,795.85 889.76,794.9 Q 890.55,792.98 892.25,793.87 Q 892.65,794.92 893.51,794.94 Q 898.09,795.04 900.43,792.82 Q 901.98,791.18 904.07,792.21 Q 906.7,793.72 909.91,793.51 C 911.8,793.38 913.82,792.28 912.61,790.14 Q 911.87,788.85 909.11,785.86 Q 908.82,784.79 908.94,783.42 Q 909.59,782.8 909.59,781.26 Q 909.6,775.88 907.94,772.62 Q 906.07,770.65 906.96,766.51 C 909.39,764.86 912.08,762.14 909.31,759.91 C 908.55,759.29 907.25,759.35 906.61,759.15 A 2.58,2.57 -12.3 0,1 905.47,758.42 Q 903.38,756.12 899.65,754.63 A 0.37,0.37 0.0 0,0 899.15,755.08 C 899.64,756.76 902.41,757.96 903.6,758.82 A 1.0,0.99 -67.5 0,1 904.0,759.79 Q 903.9,760.48 903.39,761.42 M 867.29,762.99 L 865.83,762.74 A 0.27,0.27 0.0 0,0 865.52,762.95 L 864.58,768.28 A 5.4,0.77 -80.0 0,0 864.4,773.73 L 864.87,773.82 A 5.4,0.77 -80.0 0,0 866.57,768.63 L 867.51,763.31 A 0.27,0.27 0.0 0,0 867.29,762.99"/>
  <path fill="#1b1f23" d="M 894.98,752.57 A 0.38,0.38 0.0 0,1 895.05,753.11 L 894.88,753.33 A 0.35,0.34 32.8 0,1 894.43,753.42 L 885.88,748.48 A 0.47,0.47 0.0 0,0 885.52,748.43 L 880.74,749.68 A 0.22,0.21 63.3 0,1 880.51,749.6 L 880.36,749.36 A 0.75,0.74 -28.9 0,1 880.68,748.26 L 885.35,746.23 A 1.6,1.6 0.0 0,1 886.97,746.43 L 894.98,752.57"/>
  <path fill="#1b1f23" d="M 870.74,753.25 Q 871.0,753.86 871.04,754.72 Q 871.07,755.49 869.93,755.61 Q 868.69,755.74 868.38,756.27 A 0.61,0.56 69.2 0,0 868.32,756.42 L 867.59,758.81 A 0.62,0.62 0.0 0,1 866.37,758.63 L 866.37,756.9 A 1.38,1.38 0.0 0,0 865.93,755.89 L 864.78,754.8 A 1.09,1.07 23.8 0,1 864.44,753.95 Q 864.59,750.86 867.22,749.72 A 1.14,1.13 -40.0 0,1 868.27,749.81 Q 870.41,751.19 873.61,749.96 A 0.88,0.88 0.0 0,1 874.78,750.56 L 874.87,750.92 A 0.51,0.5 75.8 0,1 874.51,751.54 L 871.15,752.42 A 0.61,0.61 0.0 0,0 870.74,753.25 M 869.09,753.3 A 1.28,1.28 0.0 0,0 867.81,752.02 A 1.28,1.28 0.0 0,0 866.53,753.3 A 1.28,1.28 0.0 0,0 867.81,754.58 A 1.28,1.28 0.0 0,0 869.09,753.3"/>
  <path fill="#1b1f23" d="M 906.96,766.51 Q 903.93,764.3 903.39,761.42 Q 903.9,760.48 904.0,759.79 A 1.0,0.99 -67.5 0,0 903.6,758.82 C 902.41,757.96 899.64,756.76 899.15,755.08 A 0.37,0.37 0.0 0,1 899.65,754.63 Q 903.38,756.12 905.47,758.42 A 2.58,2.57 -12.3 0,0 906.61,759.15 C 907.25,759.35 908.55,759.29 909.31,759.91 C 912.08,762.14 909.39,764.86 906.96,766.51 M 905.3708,761.7814 A 1.77,1.45 -169.3 0,0 906.8408,763.5348 A 1.77,1.45 -169.3 0,0 908.8492,762.4386 A 1.77,1.45 -169.3 0,0 907.3792,760.6852 A 1.77,1.45 -169.3 0,0 905.3708,761.7814"/>
  <path fill="#a8d8d0" d="M 903.39,761.42 Q 903.93,764.3 906.96,766.51 Q 906.07,770.65 907.94,772.62 Q 906.86,778.22 908.94,783.42 Q 908.82,784.79 909.11,785.86 Q 908.63,790.58 904.07,792.21 Q 901.98,791.18 900.43,792.82 Q 896.11,791.99 892.25,793.87 Q 890.55,792.98 889.76,794.9 C 888.72,794.25 887.62,794.9 886.79,794.5 Q 885.9,794.07 885.68,793.2 A 1.7,1.58 -10.0 0,0 883.87,792.03 Q 881.43,792.28 880.65,793.54 Q 879.76,792.23 878.72,792.08 Q 878.95,791.88 878.87,791.68 A 0.39,0.18 25.1 0,0 878.82,791.62 L 871.23,786.38 Q 867.51,781.67 869.76,777.75 Q 871.05,775.5 873.36,768.83 C 874.86,764.5 876.74,760.95 878.66,757.79 A 2.47,2.45 29.5 0,1 881.92,756.9 Q 892.29,762.4 903.39,761.42"/>
  <path fill="#1b1f23" d="M 867.29,762.99 A 0.27,0.27 0.0 0,1 867.51,763.31 L 866.57,768.63 A 5.4,0.77 -80.0 0,1 864.87,773.82 L 864.4,773.73 A 5.4,0.77 -80.0 0,1 864.58,768.28 L 865.52,762.95 A 0.27,0.27 0.0 0,1 865.83,762.74 L 867.29,762.99"/>
  <path fill="#1b1f23" d="M 908.94,783.42 Q 906.86,778.22 907.94,772.62 Q 909.6,775.88 909.59,781.26 Q 909.59,782.8 908.94,783.42"/>
  <path fill="#1b1f23" d="M 871.23,786.38 L 878.82,791.62 A 0.39,0.18 25.1 0,1 878.87,791.68 Q 878.95,791.88 878.72,792.08 C 876.13,792.61 872.41,789.26 870.34,787.79 A 1.43,1.35 87.4 0,1 869.98,787.44 L 868.92,785.94 A 1.28,1.27 77.7 0,0 868.15,785.44 Q 865.65,784.89 863.67,785.4 A 1.44,1.43 50.1 0,1 862.7,785.31 Q 860.95,784.49 860.15,782.42 A 0.81,0.8 59.4 0,1 860.38,781.51 Q 862.24,779.95 863.41,777.91 A 0.61,0.61 0.0 0,1 864.45,777.88 L 866.75,781.31 A 0.58,0.56 -64.8 0,1 866.85,781.6 Q 867.14,785.61 871.23,786.38 M 863.7638,780.7879 A 1.31,0.88 -83.7 0,0 862.7453,781.9934 A 1.31,0.88 -83.7 0,0 863.4762,783.3921 A 1.31,0.88 -83.7 0,0 864.4947,782.1866 A 1.31,0.88 -83.7 0,0 863.7638,780.7879"/>
  <path fill="#1b1f23" d="M 909.11,785.86 Q 911.87,788.85 912.61,790.14 C 913.82,792.28 911.8,793.38 909.91,793.51 Q 906.7,793.72 904.07,792.21 Q 908.63,790.58 909.11,785.86 M 908.79,791.85 L 910.59,792.12 A 0.42,0.42 0.0 0,0 911.07,791.77 L 911.1,791.57 A 2.06,1.24 -81.4 0,0 910.18,789.35 L 910.0,789.32 A 2.06,1.24 -81.4 0,0 908.47,791.17 L 908.44,791.37 A 0.42,0.42 0.0 0,0 908.79,791.85"/>
  <path fill="#a8d8d0" d="M 908.79,791.85 A 0.42,0.42 0.0 0,1 908.44,791.37 L 908.47,791.17 A 2.06,1.24 -81.4 0,1 910.0,789.32 L 910.18,789.35 A 2.06,1.24 -81.4 0,1 911.1,791.57 L 911.07,791.77 A 0.42,0.42 0.0 0,1 910.59,792.12 L 908.79,791.85"/>
  <path fill="#1b1f23" d="M 889.76,794.9 Q 889.21,795.85 887.55,796.39 Q 886.08,796.87 885.57,797.36 C 884.81,798.09 883.92,798.45 882.84,797.96 Q 879.9,796.62 880.65,793.54 Q 881.43,792.28 883.87,792.03 A 1.7,1.58 -10.0 0,1 885.68,793.2 Q 885.9,794.07 886.79,794.5 C 887.62,794.9 888.72,794.25 889.76,794.9 M 882.4293,794.5098 A 1.37,1.2 -161.7 0,0 883.3532,796.0793 A 1.37,1.2 -161.7 0,0 885.0307,795.3702 A 1.37,1.2 -161.7 0,0 884.1068,793.8007 A 1.37,1.2 -161.7 0,0 882.4293,794.5098"/>
  <path fill="#1b1f23" d="M 900.43,792.82 Q 898.09,795.04 893.51,794.94 Q 892.65,794.92 892.25,793.87 Q 896.11,791.99 900.43,792.82"/>
</svg>
