<?xml version="1.0" encoding="UTF-8"?>
<svg xmlns="http://www.w3.org/2000/svg" version="1.1" viewBox="1258.08 741.00 58.38 57.96">
  <path fill="none" stroke="#898b8d" stroke-width="2.00" stroke-linecap="butt" vector-effect="non-scaling-stroke" d="M 1286.08,755.61 L 1286.36,758.6 A 0.87,0.87 0.0 0,0 1288.08,758.67 Q 1288.1,758.56 1288.24,755.18 A 0.49,0.49 0.0 0,1 1288.79,754.71 C 1295.15,755.59 1298.61,759.49 1301.76,764.65 A 0.56,0.56 0.0 0,0 1302.73,764.62 Q 1303.01,764.11 1302.69,763.33 Q 1299.81,756.3 1292.01,753.7 C 1291.1,753.4 1289.84,753.66 1288.76,753.48 A 0.59,0.58 -85.4 0,1 1288.27,752.9 L 1288.27,748.09 A 1.04,1.04 0.0 0,0 1287.37,747.06 L 1287.01,747.01 A 0.74,0.73 -85.9 0,0 1286.18,747.74 L 1286.18,752.99 A 1.36,1.35 0.8 0,1 1284.78,754.34 Q 1276.08,754.1 1272.23,762.34 A 0.66,0.66 0.0 0,0 1273.1,763.22 Q 1273.9,762.85 1274.3,762.27 Q 1278.17,756.72 1284.88,754.79 A 0.95,0.95 0.0 0,1 1286.08,755.61"/>
  <path fill="none" stroke="#898b8d" stroke-width="2.00" stroke-linecap="butt" vector-effect="non-scaling-stroke" d="M 1281.1777,766.5988 A 6.82,6.62 -149.6 0,0 1283.7101,775.7598 A 6.82,6.62 -149.6 0,0 1292.9423,773.5012 A 6.82,6.62 -149.6 0,0 1290.4099,764.3402 A 6.82,6.62 -149.6 0,0 1281.1777,766.5988"/>
  <path fill="none" stroke="#898b8d" stroke-width="2.00" stroke-linecap="butt" vector-effect="non-scaling-stroke" d="M 1302.82,774.11 L 1303.65,771.42 A 0.93,0.92 8.4 0,1 1304.54,770.77 L 1309.74,770.77 A 0.72,0.72 0.0 0,0 1310.46,770.05 L 1310.46,769.56 A 0.83,0.82 -0.0 0,0 1309.63,768.74 L 1304.72,768.74 A 1.16,1.15 -12.4 0,1 1303.67,768.07 Q 1303.56,767.82 1303.51,767.75 A 0.52,0.52 0.0 0,0 1302.61,767.78 Q 1302.47,768.03 1302.46,768.09 A 0.82,0.82 0.0 0,1 1301.67,768.68 L 1299.19,768.68 A 0.82,0.82 0.0 0,0 1298.37,769.5 L 1298.37,769.81 A 0.94,0.94 0.0 0,0 1299.31,770.75 L 1301.78,770.75 A 0.74,0.74 0.0 0,1 1302.51,771.59 Q 1302.16,774.01 1302.2,774.13 A 0.33,0.33 0.0 0,0 1302.82,774.11"/>
  <path fill="none" stroke="#898b8d" stroke-width="2.00" stroke-linecap="butt" vector-effect="non-scaling-stroke" d="M 1275.7395,769.6295 A 0.95,0.95 0.0 0,0 1274.7845,768.6845 L 1265.0247,768.7356 A 0.95,0.95 0.0 0,0 1264.0797,769.6905 L 1264.0805,769.8505 A 0.95,0.95 0.0 0,0 1265.0355,770.7955 L 1274.7953,770.7444 A 0.95,0.95 0.0 0,0 1275.7403,769.7895 L 1275.7395,769.6295"/>
  <path fill="none" stroke="#898b8d" stroke-width="2.00" stroke-linecap="butt" vector-effect="non-scaling-stroke" d="M 1272.05,774.32 A 0.37,0.37 0.0 0,0 1271.38,774.6 Q 1272.96,781.39 1279.0,784.58 Q 1279.95,785.07 1280.46,784.81 A 0.63,0.63 0.0 0,0 1280.66,783.84 Q 1279.99,783.06 1277.52,781.11 C 1275.03,779.16 1274.03,777.55 1272.05,774.32"/>
  <path fill="none" stroke="#898b8d" stroke-width="2.00" stroke-linecap="butt" vector-effect="non-scaling-stroke" d="M 1301.39,776.45 C 1299.52,779.03 1298.58,780.32 1296.37,781.8 Q 1294.17,783.27 1293.56,783.88 A 0.53,0.53 0.0 0,0 1293.66,784.71 Q 1294.07,784.96 1294.9,784.61 Q 1300.17,782.32 1301.94,776.73 A 0.31,0.31 0.0 0,0 1301.39,776.45"/>
  <path fill="none" stroke="#898b8d" stroke-width="2.00" stroke-linecap="butt" vector-effect="non-scaling-stroke" d="M 1288.2348,781.5112 A 0.98,0.98 0.0 0,0 1287.2651,780.521 L 1287.1451,780.5197 A 0.98,0.98 0.0 0,0 1286.1549,781.4894 L 1286.0452,791.9688 A 0.98,0.98 0.0 0,0 1287.0149,792.959 L 1287.1349,792.9603 A 0.98,0.98 0.0 0,0 1288.1251,791.9906 L 1288.2348,781.5112"/>
  <path fill="none" stroke="#898b8d" stroke-width="2.00" stroke-linecap="butt" vector-effect="non-scaling-stroke" d="M 1291.8,770.08 A 4.69,4.69 0.0 0,0 1287.11,765.39 A 4.69,4.69 0.0 0,0 1282.42,770.08 A 4.69,4.69 0.0 0,0 1287.11,774.77 A 4.69,4.69 0.0 0,0 1291.8,770.08"/>
  <path fill="#f7f7f7" d="M 1286.08,755.61 L 1286.36,758.6 A 0.87,0.87 0.0 0,0 1288.08,758.67 Q 1288.1,758.56 1288.24,755.18 A 0.49,0.49 0.0 0,1 1288.79,754.71 C 1295.15,755.59 1298.61,759.49 1301.76,764.65 A 0.56,0.56 0.0 0,0 1302.73,764.62 Q 1303.01,764.11 1302.69,763.33 Q 1299.81,756.3 1292.01,753.7 C 1291.1,753.4 1289.84,753.66 1288.76,753.48 A 0.59,0.58 -85.4 0,1 1288.27,752.9 L 1288.27,748.09 A 1.04,1.04 0.0 0,0 1287.37,747.06 L 1287.01,747.01 A 0.74,0.73 -85.9 0,0 1286.18,747.74 L 1286.18,752.99 A 1.36,1.35 0.8 0,1 1284.78,754.34 Q 1276.08,754.1 1272.23,762.34 A 0.66,0.66 0.0 0,0 1273.1,763.22 Q 1273.9,762.85 1274.3,762.27 Q 1278.17,756.72 1284.88,754.79 A 0.95,0.95 0.0 0,1 1286.08,755.61 M 1281.1777,766.5988 A 6.82,6.62 -149.6 0,0 1283.7101,775.7598 A 6.82,6.62 -149.6 0,0 1292.9423,773.5012 A 6.82,6.62 -149.6 0,0 1290.4099,764.3402 A 6.82,6.62 -149.6 0,0 1281.1777,766.5988 M 1302.82,774.11 L 1303.65,771.42 A 0.93,0.92 8.4 0,1 1304.54,770.77 L 1309.74,770.77 A 0.72,0.72 0.0 0,0 1310.46,770.05 L 1310.46,769.56 A 0.83,0.82 -0.0 0,0 1309.63,768.74 L 1304.72,768.74 A 1.16,1.15 -12.4 0,1 1303.67,768.07 Q 1303.56,767.82 1303.51,767.75 A 0.52,0.52 0.0 0,0 1302.61,767.78 Q 1302.47,768.03 1302.46,768.09 A 0.82,0.82 0.0 0,1 1301.67,768.68 L 1299.19,768.68 A 0.82,0.82 0.0 0,0 1298.37,769.5 L 1298.37,769.81 A 0.94,0.94 0.0 0,0 1299.31,770.75 L 1301.78,770.75 A 0.74,0.74 0.0 0,1 1302.51,771.59 Q 1302.16,774.01 1302.2,774.13 A 0.33,0.33 0.0 0,0 1302.82,774.11 M 1275.7395,769.6295 A 0.95,0.95 0.0 0,0 1274.7845,768.6845 L 1265.0247,768.7356 A 0.95,0.95 0.0 0,0 1264.0797,769.6905 L 1264.0805,769.8505 A 0.95,0.95 0.0 0,0 1265.0355,770.7955 L 1274.7953,770.7444 A 0.95,0.95 0.0 0,0 1275.7403,769.7895 L 1275.7395,769.6295 M 1272.05,774.32 A 0.37,0.37 0.0 0,0 1271.38,774.6 Q 1272.96,781.39 1279.0,784.58 Q 1279.95,785.07 1280.46,784.81 A 0.63,0.63 0.0 0,0 1280.66,783.84 Q 1279.99,783.06 1277.52,781.11 C 1275.03,779.16 1274.03,777.55 1272.05,774.32 M 1301.39,776.45 C 1299.52,779.03 1298.58,780.32 1296.37,781.8 Q 1294.17,783.27 1293.56,783.88 A 0.53,0.53 0.0 0,0 1293.66,784.71 Q 1294.07,784.96 1294.9,784.61 Q 1300.17,782.32 1301.94,776.73 A 0.31,0.31 0.0 0,0 1301.39,776.45 M 1288.2348,781.5112 A 0.98,0.98 0.0 0,0 1287.2651,780.521 L 1287.1451,780.5197 A 0.98,0.98 0.0 0,0 1286.1549,781.4894 L 1286.0452,791.9688 A 0.98,0.98 0.0 0,0 1287.0149,792.959 L 1287.1349,792.9603 A 0.98,0.98 0.0 0,0 1288.1251,791.9906 L 1288.2348,781.5112"/>
  <path fill="#1b1f23" d="M 1286.08,755.61 A 0.95,0.95 0.0 0,0 1284.88,754.79 Q 1278.17,756.72 1274.3,762.27 Q 1273.9,762.85 1273.1,763.22 A 0.66,0.66 0.0 0,1 1272.23,762.34 Q 1276.08,754.1 1284.78,754.34 A 1.36,1.35 0.8 0,0 1286.18,752.99 L 1286.18,747.74 A 0.74,0.73 -85.9 0,1 1287.01,747.01 L 1287.37,747.06 A 1.04,1.04 0.0 0,1 1288.27,748.09 L 1288.27,752.9 A 0.59,0.58 -85.4 0,0 1288.76,753.48 C 1289.84,753.66 1291.1,753.4 1292.01,753.7 Q 1299.81,756.3 1302.69,763.33 Q 1303.01,764.11 1302.73,764.62 A 0.56,0.56 0.0 0,1 1301.76,764.65 C 1298.61,759.49 1295.15,755.59 1288.79,754.71 A 0.49,0.49 0.0 0,0 1288.24,755.18 Q 1288.1,758.56 1288.08,758.67 A 0.87,0.87 0.0 0,1 1286.36,758.6 L 1286.08,755.61"/>
  <path fill="#1b1f23" d="M 1281.1777,766.5988 A 6.82,6.62 -149.6 0,1 1290.4099,764.3402 A 6.82,6.62 -149.6 0,1 1292.9423,773.5012 A 6.82,6.62 -149.6 0,1 1283.7101,775.7598 A 6.82,6.62 -149.6 0,1 1281.1777,766.5988 M 1291.8,770.08 A 4.69,4.69 0.0 0,0 1287.11,765.39 A 4.69,4.69 0.0 0,0 1282.42,770.08 A 4.69,4.69 0.0 0,0 1287.11,774.77 A 4.69,4.69 0.0 0,0 1291.8,770.08"/>
  <path fill="#1b1f23" d="M 1302.2,774.13 Q 1302.16,774.01 1302.51,771.59 A 0.74,0.74 0.0 0,0 1301.78,770.75 L 1299.31,770.75 A 0.94,0.94 0.0 0,1 1298.37,769.81 L 1298.37,769.5 A 0.82,0.82 0.0 0,1 1299.19,768.68 L 1301.67,768.68 A 0.82,0.82 0.0 0,0 1302.46,768.09 Q 1302.47,768.03 1302.61,767.78 A 0.52,0.52 0.0 0,1 1303.51,767.75 Q 1303.56,767.82 1303.67,768.07 A 1.16,1.15 -12.4 0,0 1304.72,768.74 L 1309.63,768.74 A 0.83,0.82 -0.0 0,1 1310.46,769.56 L 1310.46,770.05 A 0.72,0.72 0.0 0,1 1309.74,770.77 L 1304.54,770.77 A 0.93,0.92 8.4 0,0 1303.65,771.42 L 1302.82,774.11 A 0.33,0.33 0.0 0,1 1302.2,774.13"/>
  <path fill="#1b1f23" d="M 1272.05,774.32 C 1274.03,777.55 1275.03,779.16 1277.52,781.11 Q 1279.99,783.06 1280.66,783.84 A 0.63,0.63 0.0 0,1 1280.46,784.81 Q 1279.95,785.07 1279.0,784.58 Q 1272.96,781.39 1271.38,774.6 A 0.37,0.37 0.0 0,1 1272.05,774.32"/>
  <path fill="#1b1f23" d="M 1301.39,776.45 A 0.31,0.31 0.0 0,1 1301.94,776.73 Q 1300.17,782.32 1294.9,784.61 Q 1294.07,784.96 1293.66,784.71 A 0.53,0.53 0.0 0,1 1293.56,783.88 Q 1294.17,783.27 1296.37,781.8 C 1298.58,780.32 1299.52,779.03 1301.39,776.45"/>
</svg>
