<?xml version="1.0" encoding="UTF-8"?>
<svg xmlns="http://www.w3.org/2000/svg" version="1.1" viewBox="730.08 744.47 61.39 58.20">
  <path fill="none" stroke="#898b8d" stroke-width="2.00" stroke-linecap="butt" vector-effect="non-scaling-stroke" d="M 764.66,780.08 A 0.8,0.8 0.0 0,0 764.63,778.95 L 761.71,776.19 A 1.09,1.08 -43.8 0,1 761.75,774.58 L 766.83,770.15 A 1.38,1.38 0.0 0,1 768.87,770.41 Q 770.1,772.19 771.56,773.04 A 0.73,0.73 0.0 0,0 772.43,771.88 L 769.54,769.14 A 1.02,1.02 0.0 0,1 769.57,767.63 L 772.59,765.0 A 0.66,0.66 0.0 0,1 773.57,765.13 Q 775.2,767.58 776.38,768.31 A 0.55,0.55 0.0 0,0 777.09,767.48 L 774.25,764.22 A 0.48,0.48 0.0 0,1 774.27,763.57 L 776.26,761.46 A 0.75,0.74 -55.1 0,1 777.13,761.3 Q 779.51,762.46 782.24,761.13 A 0.75,0.75 0.0 0,1 783.14,761.31 L 783.94,762.23 A 0.87,0.87 0.0 0,0 785.44,761.43 L 784.99,759.71 A 3.03,3.0 42.4 0,1 784.93,758.52 C 785.73,753.56 781.9,752.65 778.12,751.77 A 1.67,1.65 -10.1 0,1 777.13,751.09 Q 777.12,751.07 777.03,750.91 A 0.88,0.88 0.0 0,0 775.96,750.53 Q 774.77,750.98 774.31,752.26 Q 774.14,752.73 774.53,753.19 Q 775.12,753.88 775.16,753.97 A 1.56,1.55 -52.4 0,1 775.28,754.91 Q 774.93,756.91 775.56,758.77 A 0.94,0.94 0.0 0,1 775.28,759.78 L 745.38,785.83 A 0.59,0.58 -50.3 0,1 744.7,785.9 L 740.29,783.36 A 0.88,0.86 -39.0 0,0 739.55,783.29 Q 737.17,784.16 736.33,785.79 A 2.23,2.18 59.6 0,0 736.09,786.75 C 735.98,791.63 737.31,793.49 742.37,793.23 A 1.26,1.25 -21.9 0,1 743.38,793.66 L 745.73,796.35 A 0.93,0.93 0.0 0,0 747.11,796.38 L 747.29,796.19 A 0.92,0.91 -55.0 0,0 747.04,794.74 Q 743.42,792.91 745.67,788.44 Q 746.01,787.76 749.69,785.62 A 2.23,2.2 0.4 0,0 750.46,784.87 Q 751.47,783.28 752.66,782.39 A 1.03,1.02 -38.3 0,1 754.06,782.55 Q 755.54,784.31 757.21,785.28 A 0.6,0.6 0.0 0,0 757.96,784.37 L 755.31,781.33 A 1.0,1.0 0.0 0,1 755.4,779.92 L 758.68,777.07 A 0.95,0.95 0.0 0,1 759.96,777.1 L 763.46,780.41 A 0.65,0.64 43.4 0,0 764.37,780.39 L 764.66,780.08"/>
  <path fill="none" stroke="#898b8d" stroke-width="2.00" stroke-linecap="butt" vector-effect="non-scaling-stroke" d="M 753.17,788.3 Q 753.63,787.76 753.12,787.32 Q 751.28,785.73 750.8,786.28 Q 750.33,786.83 752.2,788.41 Q 752.71,788.84 753.17,788.3"/>
  <path fill="none" stroke="#627c7a" stroke-width="2.00" stroke-linecap="butt" vector-effect="non-scaling-stroke" d="M 777.284,755.2449 A 3.1,2.86 -148.6 0,0 778.4399,759.3012 A 3.1,2.86 -148.6 0,0 782.576,758.4751 A 3.1,2.86 -148.6 0,0 781.4201,754.4188 A 3.1,2.86 -148.6 0,0 777.284,755.2449"/>
  <path fill="none" stroke="#898b8d" stroke-width="2.00" stroke-linecap="butt" vector-effect="non-scaling-stroke" d="M 739.5401,786.1258 A 2.81,2.61 -112.6 0,0 738.2104,789.723 A 2.81,2.61 -112.6 0,0 741.6999,791.3142 A 2.81,2.61 -112.6 0,0 743.0296,787.717 A 2.81,2.61 -112.6 0,0 739.5401,786.1258"/>
  <path fill="#f7f7f7" d="M 764.66,780.08 A 0.8,0.8 0.0 0,0 764.63,778.95 L 761.71,776.19 A 1.09,1.08 -43.8 0,1 761.75,774.58 L 766.83,770.15 A 1.38,1.38 0.0 0,1 768.87,770.41 Q 770.1,772.19 771.56,773.04 A 0.73,0.73 0.0 0,0 772.43,771.88 L 769.54,769.14 A 1.02,1.02 0.0 0,1 769.57,767.63 L 772.59,765.0 A 0.66,0.66 0.0 0,1 773.57,765.13 Q 775.2,767.58 776.38,768.31 A 0.55,0.55 0.0 0,0 777.09,767.48 L 774.25,764.22 A 0.48,0.48 0.0 0,1 774.27,763.57 L 776.26,761.46 A 0.75,0.74 -55.1 0,1 777.13,761.3 Q 779.51,762.46 782.24,761.13 A 0.75,0.75 0.0 0,1 783.14,761.31 L 783.94,762.23 A 0.87,0.87 0.0 0,0 785.44,761.43 L 784.99,759.71 A 3.03,3.0 42.4 0,1 784.93,758.52 C 785.73,753.56 781.9,752.65 778.12,751.77 A 1.67,1.65 -10.1 0,1 777.13,751.09 Q 777.12,751.07 777.03,750.91 A 0.88,0.88 0.0 0,0 775.96,750.53 Q 774.77,750.98 774.31,752.26 Q 774.14,752.73 774.53,753.19 Q 775.12,753.88 775.16,753.97 A 1.56,1.55 -52.4 0,1 775.28,754.91 Q 774.93,756.91 775.56,758.77 A 0.94,0.94 0.0 0,1 775.28,759.78 L 745.38,785.83 A 0.59,0.58 -50.3 0,1 744.7,785.9 L 740.29,783.36 A 0.88,0.86 -39.0 0,0 739.55,783.29 Q 737.17,784.16 736.33,785.79 A 2.23,2.18 59.6 0,0 736.09,786.75 C 735.98,791.63 737.31,793.49 742.37,793.23 A 1.26,1.25 -21.9 0,1 743.38,793.66 L 745.73,796.35 A 0.93,0.93 0.0 0,0 747.11,796.38 L 747.29,796.19 A 0.92,0.91 -55.0 0,0 747.04,794.74 Q 743.42,792.91 745.67,788.44 Q 746.01,787.76 749.69,785.62 A 2.23,2.2 0.4 0,0 750.46,784.87 Q 751.47,783.28 752.66,782.39 A 1.03,1.02 -38.3 0,1 754.06,782.55 Q 755.54,784.31 757.21,785.28 A 0.6,0.6 0.0 0,0 757.96,784.37 L 755.31,781.33 A 1.0,1.0 0.0 0,1 755.4,779.92 L 758.68,777.07 A 0.95,0.95 0.0 0,1 759.96,777.1 L 763.46,780.41 A 0.65,0.64 43.4 0,0 764.37,780.39 L 764.66,780.08 M 753.17,788.3 Q 753.63,787.76 753.12,787.32 Q 751.28,785.73 750.8,786.28 Q 750.33,786.83 752.2,788.41 Q 752.71,788.84 753.17,788.3"/>
  <path fill="#1b1f23" d="M 763.46,780.41 L 759.96,777.1 A 0.95,0.95 0.0 0,0 758.68,777.07 L 755.4,779.92 A 1.0,1.0 0.0 0,0 755.31,781.33 L 757.96,784.37 A 0.6,0.6 0.0 0,1 757.21,785.28 Q 755.54,784.31 754.06,782.55 A 1.03,1.02 -38.3 0,0 752.66,782.39 Q 751.47,783.28 750.46,784.87 A 2.23,2.2 0.4 0,1 749.69,785.62 Q 746.01,787.76 745.67,788.44 Q 743.42,792.91 747.04,794.74 A 0.92,0.91 -55.0 0,1 747.29,796.19 L 747.11,796.38 A 0.93,0.93 0.0 0,1 745.73,796.35 L 743.38,793.66 A 1.26,1.25 -21.9 0,0 742.37,793.23 C 737.31,793.49 735.98,791.63 736.09,786.75 A 2.23,2.18 59.6 0,1 736.33,785.79 Q 737.17,784.16 739.55,783.29 A 0.88,0.86 -39.0 0,1 740.29,783.36 L 744.7,785.9 A 0.59,0.58 -50.3 0,0 745.38,785.83 L 775.28,759.78 A 0.94,0.94 0.0 0,0 775.56,758.77 Q 774.93,756.91 775.28,754.91 A 1.56,1.55 -52.4 0,0 775.16,753.97 Q 775.12,753.88 774.53,753.19 Q 774.14,752.73 774.31,752.26 Q 774.77,750.98 775.96,750.53 A 0.88,0.88 0.0 0,1 777.03,750.91 Q 777.12,751.07 777.13,751.09 A 1.67,1.65 -10.1 0,0 778.12,751.77 C 781.9,752.65 785.73,753.56 784.93,758.52 A 3.03,3.0 42.4 0,0 784.99,759.71 L 785.44,761.43 A 0.87,0.87 0.0 0,1 783.94,762.23 L 783.14,761.31 A 0.75,0.75 0.0 0,0 782.24,761.13 Q 779.51,762.46 777.13,761.3 A 0.75,0.74 -55.1 0,0 776.26,761.46 L 774.27,763.57 A 0.48,0.48 0.0 0,0 774.25,764.22 L 777.09,767.48 A 0.55,0.55 0.0 0,1 776.38,768.31 Q 775.2,767.58 773.57,765.13 A 0.66,0.66 0.0 0,0 772.59,765.0 L 769.57,767.63 A 1.02,1.02 0.0 0,0 769.54,769.14 L 772.43,771.88 A 0.73,0.73 0.0 0,1 771.56,773.04 Q 770.1,772.19 768.87,770.41 A 1.38,1.38 0.0 0,0 766.83,770.15 L 761.75,774.58 A 1.09,1.08 -43.8 0,0 761.71,776.19 L 764.63,778.95 A 0.8,0.8 0.0 0,1 764.66,780.08 L 764.37,780.39 A 0.65,0.64 43.4 0,1 763.46,780.41 M 777.284,755.2449 A 3.1,2.86 -148.6 0,0 778.4399,759.3012 A 3.1,2.86 -148.6 0,0 782.576,758.4751 A 3.1,2.86 -148.6 0,0 781.4201,754.4188 A 3.1,2.86 -148.6 0,0 777.284,755.2449 M 739.5401,786.1258 A 2.81,2.61 -112.6 0,0 738.2104,789.723 A 2.81,2.61 -112.6 0,0 741.6999,791.3142 A 2.81,2.61 -112.6 0,0 743.0296,787.717 A 2.81,2.61 -112.6 0,0 739.5401,786.1258"/>
  <path fill="#1b1f23" d="M 753.17,788.3 Q 752.71,788.84 752.2,788.41 Q 750.33,786.83 750.8,786.28 Q 751.28,785.73 753.12,787.32 Q 753.63,787.76 753.17,788.3"/>
</svg>
