<?xml version="1.0" encoding="UTF-8"?>
<svg xmlns="http://www.w3.org/2000/svg" version="1.1" viewBox="1122.96 564.69 59.86 57.71">
  <path fill="none" stroke="#898b8d" stroke-width="2.00" stroke-linecap="butt" vector-effect="non-scaling-stroke" d="M 1128.96,593.55 Q 1128.96,593.7 1129.01,593.82 A 0.11,0.05 76.1 0,0 1129.03,593.85 L 1137.15,601.08 A 0.62,0.61 -47.4 0,0 1138.0,601.04 L 1138.21,600.81 A 0.95,0.95 0.0 0,0 1138.18,599.46 L 1133.67,595.19 A 0.33,0.32 52.2 0,1 1133.73,594.67 Q 1133.96,594.55 1134.3,594.54 Q 1138.94,594.42 1151.42,594.57 A 0.46,0.45 0.7 0,1 1151.87,595.02 L 1151.87,611.32 A 0.49,0.48 21.7 0,1 1151.05,611.67 L 1146.66,607.51 A 0.57,0.57 0.0 0,0 1145.86,607.53 L 1145.59,607.81 A 0.95,0.94 45.2 0,0 1145.59,609.1 Q 1149.05,612.83 1152.52,616.31 Q 1152.62,616.4 1152.9,616.4 Q 1153.17,616.4 1153.27,616.31 Q 1156.74,612.83 1160.2,609.1 A 0.95,0.94 -45.3 0,0 1160.2,607.81 L 1159.93,607.53 A 0.57,0.57 0.0 0,0 1159.13,607.51 L 1154.74,611.67 A 0.49,0.48 -21.7 0,1 1153.92,611.32 L 1153.91,595.02 A 0.46,0.45 -0.7 0,1 1154.36,594.57 Q 1166.84,594.41 1171.48,594.53 Q 1171.82,594.54 1172.05,594.66 A 0.33,0.32 -52.3 0,1 1172.11,595.18 L 1167.6,599.45 A 0.95,0.95 0.0 0,0 1167.57,600.8 L 1167.78,601.03 A 0.62,0.61 47.4 0,0 1168.63,601.07 L 1176.75,593.84 A 0.11,0.05 -76.1 0,0 1176.77,593.81 Q 1176.82,593.69 1176.82,593.54 Q 1176.82,593.4 1176.77,593.27 A 0.11,0.05 76.1 0,0 1176.75,593.24 L 1168.63,586.01 A 0.62,0.61 -47.4 0,0 1167.78,586.05 L 1167.57,586.28 A 0.95,0.95 0.0 0,0 1167.6,587.63 L 1172.11,591.9 A 0.33,0.32 52.2 0,1 1172.05,592.42 Q 1171.82,592.54 1171.48,592.55 Q 1166.84,592.67 1154.36,592.52 A 0.46,0.45 0.7 0,1 1153.91,592.07 L 1153.91,575.77 A 0.49,0.48 21.7 0,1 1154.73,575.42 L 1159.12,579.58 A 0.57,0.57 0.0 0,0 1159.92,579.56 L 1160.19,579.28 A 0.95,0.94 45.2 0,0 1160.19,577.99 Q 1156.73,574.26 1153.26,570.79 Q 1153.16,570.69 1152.89,570.69 Q 1152.61,570.69 1152.51,570.79 Q 1149.04,574.27 1145.58,578.0 A 0.95,0.94 -45.3 0,0 1145.58,579.29 L 1145.85,579.57 A 0.57,0.57 0.0 0,0 1146.65,579.59 L 1151.04,575.42 A 0.49,0.48 -21.7 0,1 1151.86,575.77 L 1151.87,592.07 A 0.46,0.45 -0.7 0,1 1151.42,592.52 Q 1138.94,592.68 1134.3,592.56 Q 1133.96,592.55 1133.73,592.43 A 0.33,0.32 -52.3 0,1 1133.67,591.91 L 1138.18,587.64 A 0.95,0.95 0.0 0,0 1138.21,586.29 L 1138.0,586.06 A 0.62,0.61 47.4 0,0 1137.15,586.02 L 1129.03,593.25 A 0.11,0.05 -76.1 0,0 1129.01,593.28 Q 1128.96,593.41 1128.96,593.55"/>
  <path fill="#f7f7f7" d="M 1128.96,593.55 Q 1128.96,593.7 1129.01,593.82 A 0.11,0.05 76.1 0,0 1129.03,593.85 L 1137.15,601.08 A 0.62,0.61 -47.4 0,0 1138.0,601.04 L 1138.21,600.81 A 0.95,0.95 0.0 0,0 1138.18,599.46 L 1133.67,595.19 A 0.33,0.32 52.2 0,1 1133.73,594.67 Q 1133.96,594.55 1134.3,594.54 Q 1138.94,594.42 1151.42,594.57 A 0.46,0.45 0.7 0,1 1151.87,595.02 L 1151.87,611.32 A 0.49,0.48 21.7 0,1 1151.05,611.67 L 1146.66,607.51 A 0.57,0.57 0.0 0,0 1145.86,607.53 L 1145.59,607.81 A 0.95,0.94 45.2 0,0 1145.59,609.1 Q 1149.05,612.83 1152.52,616.31 Q 1152.62,616.4 1152.9,616.4 Q 1153.17,616.4 1153.27,616.31 Q 1156.74,612.83 1160.2,609.1 A 0.95,0.94 -45.3 0,0 1160.2,607.81 L 1159.93,607.53 A 0.57,0.57 0.0 0,0 1159.13,607.51 L 1154.74,611.67 A 0.49,0.48 -21.7 0,1 1153.92,611.32 L 1153.91,595.02 A 0.46,0.45 -0.7 0,1 1154.36,594.57 Q 1166.84,594.41 1171.48,594.53 Q 1171.82,594.54 1172.05,594.66 A 0.33,0.32 -52.3 0,1 1172.11,595.18 L 1167.6,599.45 A 0.95,0.95 0.0 0,0 1167.57,600.8 L 1167.78,601.03 A 0.62,0.61 47.4 0,0 1168.63,601.07 L 1176.75,593.84 A 0.11,0.05 -76.1 0,0 1176.77,593.81 Q 1176.82,593.69 1176.82,593.54 Q 1176.82,593.4 1176.77,593.27 A 0.11,0.05 76.1 0,0 1176.75,593.24 L 1168.63,586.01 A 0.62,0.61 -47.4 0,0 1167.78,586.05 L 1167.57,586.28 A 0.95,0.95 0.0 0,0 1167.6,587.63 L 1172.11,591.9 A 0.33,0.32 52.2 0,1 1172.05,592.42 Q 1171.82,592.54 1171.48,592.55 Q 1166.84,592.67 1154.36,592.52 A 0.46,0.45 0.7 0,1 1153.91,592.07 L 1153.91,575.77 A 0.49,0.48 21.7 0,1 1154.73,575.42 L 1159.12,579.58 A 0.57,0.57 0.0 0,0 1159.92,579.56 L 1160.19,579.28 A 0.95,0.94 45.2 0,0 1160.19,577.99 Q 1156.73,574.26 1153.26,570.79 Q 1153.16,570.69 1152.89,570.69 Q 1152.61,570.69 1152.51,570.79 Q 1149.04,574.27 1145.58,578.0 A 0.95,0.94 -45.3 0,0 1145.58,579.29 L 1145.85,579.57 A 0.57,0.57 0.0 0,0 1146.65,579.59 L 1151.04,575.42 A 0.49,0.48 -21.7 0,1 1151.86,575.77 L 1151.87,592.07 A 0.46,0.45 -0.7 0,1 1151.42,592.52 Q 1138.94,592.68 1134.3,592.56 Q 1133.96,592.55 1133.73,592.43 A 0.33,0.32 -52.3 0,1 1133.67,591.91 L 1138.18,587.64 A 0.95,0.95 0.0 0,0 1138.21,586.29 L 1138.0,586.06 A 0.62,0.61 47.4 0,0 1137.15,586.02 L 1129.03,593.25 A 0.11,0.05 -76.1 0,0 1129.01,593.28 Q 1128.96,593.41 1128.96,593.55"/>
  <path fill="#1b1f23" d="M 1152.89,570.69 Q 1153.16,570.69 1153.26,570.79 Q 1156.73,574.26 1160.19,577.99 A 0.95,0.94 45.2 0,1 1160.19,579.28 L 1159.92,579.56 A 0.57,0.57 0.0 0,1 1159.12,579.58 L 1154.73,575.42 A 0.49,0.48 21.7 0,0 1153.91,575.77 L 1153.91,592.07 A 0.46,0.45 0.7 0,0 1154.36,592.52 Q 1166.84,592.67 1171.48,592.55 Q 1171.82,592.54 1172.05,592.42 A 0.33,0.32 52.2 0,0 1172.11,591.9 L 1167.6,587.63 A 0.95,0.95 0.0 0,1 1167.57,586.28 L 1167.78,586.05 A 0.62,0.61 -47.4 0,1 1168.63,586.01 L 1176.75,593.24 A 0.11,0.05 76.1 0,1 1176.77,593.27 Q 1176.82,593.4 1176.82,593.54 Q 1176.82,593.69 1176.77,593.81 A 0.11,0.05 -76.1 0,1 1176.75,593.84 L 1168.63,601.07 A 0.62,0.61 47.4 0,1 1167.78,601.03 L 1167.57,600.8 A 0.95,0.95 0.0 0,1 1167.6,599.45 L 1172.11,595.18 A 0.33,0.32 -52.3 0,0 1172.05,594.66 Q 1171.82,594.54 1171.48,594.53 Q 1166.84,594.41 1154.36,594.57 A 0.46,0.45 -0.7 0,0 1153.91,595.02 L 1153.92,611.32 A 0.49,0.48 -21.7 0,0 1154.74,611.67 L 1159.13,607.51 A 0.57,0.57 0.0 0,1 1159.93,607.53 L 1160.2,607.81 A 0.95,0.94 -45.3 0,1 1160.2,609.1 Q 1156.74,612.83 1153.27,616.31 Q 1153.17,616.4 1152.9,616.4 Q 1152.62,616.4 1152.52,616.31 Q 1149.05,612.83 1145.59,609.1 A 0.95,0.94 45.2 0,1 1145.59,607.81 L 1145.86,607.53 A 0.57,0.57 0.0 0,1 1146.66,607.51 L 1151.05,611.67 A 0.49,0.48 21.7 0,0 1151.87,611.32 L 1151.87,595.02 A 0.46,0.45 0.7 0,0 1151.42,594.57 Q 1138.94,594.42 1134.3,594.54 Q 1133.96,594.55 1133.73,594.67 A 0.33,0.32 52.2 0,0 1133.67,595.19 L 1138.18,599.46 A 0.95,0.95 0.0 0,1 1138.21,600.81 L 1138.0,601.04 A 0.62,0.61 -47.4 0,1 1137.15,601.08 L 1129.03,593.85 A 0.11,0.05 76.1 0,1 1129.01,593.82 Q 1128.96,593.7 1128.96,593.55 Q 1128.96,593.41 1129.01,593.28 A 0.11,0.05 -76.1 0,1 1129.03,593.25 L 1137.15,586.02 A 0.62,0.61 47.4 0,1 1138.0,586.06 L 1138.21,586.29 A 0.95,0.95 0.0 0,1 1138.18,587.64 L 1133.67,591.91 A 0.33,0.32 -52.3 0,0 1133.73,592.43 Q 1133.96,592.55 1134.3,592.56 Q 1138.94,592.68 1151.42,592.52 A 0.46,0.45 -0.7 0,0 1151.87,592.07 L 1151.86,575.77 A 0.49,0.48 -21.7 0,0 1151.04,575.42 L 1146.65,579.59 A 0.57,0.57 0.0 0,1 1145.85,579.57 L 1145.58,579.29 A 0.95,0.94 -45.3 0,1 1145.58,578.0 Q 1149.04,574.27 1152.51,570.79 Q 1152.61,570.69 1152.89,570.69"/>
</svg>
