<?xml version="1.0" encoding="UTF-8"?>
<svg xmlns="http://www.w3.org/2000/svg" version="1.1" viewBox="334.88 925.28 55.90 55.22">
  <path fill="none" stroke="#898b8d" stroke-width="2.00" stroke-linecap="butt" vector-effect="non-scaling-stroke" d="M 341.1712,949.2656 A 21.96,21.6 -170.5 0,0 359.265,974.1938 A 21.96,21.6 -170.5 0,0 384.4888,956.5144 A 21.96,21.6 -170.5 0,0 366.395,931.5862 A 21.96,21.6 -170.5 0,0 341.1712,949.2656"/>
  <path fill="none" stroke="#898b8d" stroke-width="2.00" stroke-linecap="butt" vector-effect="non-scaling-stroke" d="M 382.54,952.85 A 19.73,19.73 0.0 0,0 362.81,933.12 A 19.73,19.73 0.0 0,0 343.08,952.85 A 19.73,19.73 0.0 0,0 362.81,972.58 A 19.73,19.73 0.0 0,0 382.54,952.85"/>
  <path fill="none" stroke="#898b8d" stroke-width="2.00" stroke-linecap="butt" vector-effect="non-scaling-stroke" d="M 351.29,952.82 Q 351.29,953.26 351.64,953.53 Q 351.94,953.76 352.38,953.76 Q 366.67,953.73 369.47,953.85 A 0.48,0.48 0.0 0,1 369.8,954.66 L 364.27,960.5 A 0.53,0.52 -46.2 0,0 364.28,961.24 L 364.5,961.46 A 0.88,0.88 0.0 0,0 365.73,961.47 Q 369.91,957.44 374.12,953.24 Q 374.15,953.21 374.19,953.05 Q 374.21,952.95 374.21,952.84 Q 374.21,952.74 374.19,952.64 Q 374.15,952.48 374.12,952.45 Q 369.92,948.24 365.75,944.2 A 0.88,0.88 0.0 0,0 364.52,944.21 L 364.3,944.43 A 0.53,0.52 46.3 0,0 364.29,945.17 L 369.8,951.02 A 0.48,0.48 0.0 0,1 369.47,951.83 Q 366.67,951.94 352.38,951.88 Q 351.94,951.88 351.65,952.12 Q 351.29,952.39 351.29,952.82"/>
  <path fill="#f7f7f7" d="M 341.1712,949.2656 A 21.96,21.6 -170.5 0,0 359.265,974.1938 A 21.96,21.6 -170.5 0,0 384.4888,956.5144 A 21.96,21.6 -170.5 0,0 366.395,931.5862 A 21.96,21.6 -170.5 0,0 341.1712,949.2656"/>
  <path fill="#1b1f23" d="M 341.1712,949.2656 A 21.96,21.6 -170.5 0,1 366.395,931.5862 A 21.96,21.6 -170.5 0,1 384.4888,956.5144 A 21.96,21.6 -170.5 0,1 359.265,974.1938 A 21.96,21.6 -170.5 0,1 341.1712,949.2656 M 382.54,952.85 A 19.73,19.73 0.0 0,0 362.81,933.12 A 19.73,19.73 0.0 0,0 343.08,952.85 A 19.73,19.73 0.0 0,0 362.81,972.58 A 19.73,19.73 0.0 0,0 382.54,952.85"/>
  <path fill="#f7f7f7" d="M 382.54,952.85 A 19.73,19.73 0.0 0,1 362.81,972.58 A 19.73,19.73 0.0 0,1 343.08,952.85 A 19.73,19.73 0.0 0,1 362.81,933.12 A 19.73,19.73 0.0 0,1 382.54,952.85 M 351.29,952.82 Q 351.29,953.26 351.64,953.53 Q 351.94,953.76 352.38,953.76 Q 366.67,953.73 369.47,953.85 A 0.48,0.48 0.0 0,1 369.8,954.66 L 364.27,960.5 A 0.53,0.52 -46.2 0,0 364.28,961.24 L 364.5,961.46 A 0.88,0.88 0.0 0,0 365.73,961.47 Q 369.91,957.44 374.12,953.24 Q 374.15,953.21 374.19,953.05 Q 374.21,952.95 374.21,952.84 Q 374.21,952.74 374.19,952.64 Q 374.15,952.48 374.12,952.45 Q 369.92,948.24 365.75,944.2 A 0.88,0.88 0.0 0,0 364.52,944.21 L 364.3,944.43 A 0.53,0.52 46.3 0,0 364.29,945.17 L 369.8,951.02 A 0.48,0.48 0.0 0,1 369.47,951.83 Q 366.67,951.94 352.38,951.88 Q 351.94,951.88 351.65,952.12 Q 351.29,952.39 351.29,952.82"/>
  <path fill="#1b1f23" d="M 374.21,952.84 Q 374.21,952.95 374.19,953.05 Q 374.15,953.21 374.12,953.24 Q 369.91,957.44 365.73,961.47 A 0.88,0.88 0.0 0,1 364.5,961.46 L 364.28,961.24 A 0.53,0.52 -46.2 0,1 364.27,960.5 L 369.8,954.66 A 0.48,0.48 0.0 0,0 369.47,953.85 Q 366.67,953.73 352.38,953.76 Q 351.94,953.76 351.64,953.53 Q 351.29,953.26 351.29,952.82 Q 351.29,952.39 351.65,952.12 Q 351.94,951.88 352.38,951.88 Q 366.67,951.94 369.47,951.83 A 0.48,0.48 0.0 0,0 369.8,951.02 L 364.29,945.17 A 0.53,0.52 46.3 0,1 364.3,944.43 L 364.52,944.21 A 0.88,0.88 0.0 0,1 365.75,944.2 Q 369.92,948.24 374.12,952.45 Q 374.15,952.48 374.19,952.64 Q 374.21,952.74 374.21,952.84"/>
</svg>
