<?xml version="1.0" encoding="utf-8"?>
<!-- Generator: Adobe Illustrator 16.0.0, SVG Export Plug-In . SVG Version: 6.00 Build 0)  -->
<!DOCTYPE svg PUBLIC "-//W3C//DTD SVG 1.1//EN" "http://www.w3.org/Graphics/SVG/1.1/DTD/svg11.dtd">
<svg version="1.1" id="Layer_1" xmlns="http://www.w3.org/2000/svg" xmlns:xlink="http://www.w3.org/1999/xlink" x="0px" y="0px"
	 width="24px" height="24px" viewBox="0 0 24 24" enable-background="new 0 0 24 24" xml:space="preserve">
<path fill="none" stroke="#2B2B2B" stroke-width="1.5" stroke-linecap="round" stroke-linejoin="round" d="M3,7V5
	c0-0.552,0.448-1,1-1h5l2,2h9c0.553,0,1,0.448,1,1v2"/>
<path fill="none" stroke="#2B2B2B" stroke-width="1.5" stroke-linejoin="round" d="M3,10.5l1.352,7.609
	C4.464,18.742,5.014,19.2,5.654,19.2h14.587c0.692,0,1.263-0.608,1.171-1.3l-1.066-8C20.268,9.323,19.773,8.9,19.191,8.9H3V10.5z"/>
<path fill="none" stroke="#0AA68E" stroke-width="1.5" stroke-linecap="round" stroke-linejoin="round" d="M12,17v-5 M12,12
	l-2.5,2.5 M12,12l2.5,2.5"/>
</svg>
