<?xml version="1.0" encoding="UTF-8"?>
<svg xmlns="http://www.w3.org/2000/svg" version="1.1" viewBox="323.17 558.00 77.87 70.09">
  <path fill="none" stroke="#898b8d" stroke-width="2.00" stroke-linecap="butt" vector-effect="non-scaling-stroke" d="M 333.56,597.34 C 325.25,598.77 330.03,610.78 337.24,606.09 A 0.98,0.97 -46.0 0,1 338.27,606.07 L 353.99,615.59 A 0.85,0.83 13.1 0,1 354.4,616.23 C 354.46,616.77 354.32,617.46 354.38,617.83 C 355.23,623.21 362.1,623.51 364.0,618.6 A 0.53,0.53 0.0 0,1 364.47,618.25 L 384.37,617.07 A 0.84,0.83 75.8 0,1 385.17,617.55 C 387.52,622.6 394.21,621.18 395.01,615.59 A 2.65,2.6 39.4 0,0 394.87,614.28 Q 393.88,611.67 391.07,610.6 A 1.41,1.38 6.1 0,1 390.19,609.53 L 386.22,586.62 A 1.77,1.77 0.0 0,1 387.04,584.8 C 394.11,580.45 385.84,570.54 379.99,577.73 A 1.38,1.38 0.0 0,1 378.55,578.19 L 346.88,569.51 A 1.23,1.23 0.0 0,1 345.99,568.51 C 344.92,561.19 333.83,563.38 335.66,570.75 A 2.6,2.58 19.4 0,0 336.11,571.68 L 337.75,573.83 A 1.24,1.24 0.0 0,1 337.99,574.77 L 334.41,596.49 A 1.03,1.03 0.0 0,1 333.56,597.34"/>
  <path fill="none" stroke="#326b64" stroke-width="2.00" stroke-linecap="butt" vector-effect="non-scaling-stroke" d="M 344.14,569.03 A 3.39,3.39 0.0 0,0 340.75,565.64 A 3.39,3.39 0.0 0,0 337.36,569.03 A 3.39,3.39 0.0 0,0 340.75,572.42 A 3.39,3.39 0.0 0,0 344.14,569.03"/>
  <path fill="none" stroke="#627c7a" stroke-width="2.00" stroke-linecap="butt" vector-effect="non-scaling-stroke" d="M 355.85,613.95 C 359.83,612.25 361.05,611.58 363.81,615.43 A 0.86,0.83 -17.3 0,0 364.5,615.78 L 384.04,615.78 A 1.16,1.15 -83.3 0,0 385.16,614.89 Q 385.75,612.41 387.7,611.4 A 0.93,0.92 71.4 0,0 388.18,610.43 L 384.03,586.54 A 1.28,1.28 0.0 0,0 383.34,585.61 C 380.78,584.32 379.68,584.02 379.0,580.95 A 1.25,1.25 0.0 0,0 378.11,580.01 L 346.89,571.45 A 1.92,1.91 25.0 0,0 344.82,572.2 Q 343.6,573.96 340.96,574.4 A 1.03,1.02 -0.1 0,0 340.11,575.24 L 336.54,596.92 A 0.83,0.83 0.0 0,0 336.97,597.79 C 339.75,599.28 339.5,601.19 339.12,603.88 A 0.74,0.74 0.0 0,0 339.46,604.6 L 354.79,613.87 A 1.17,1.17 0.0 0,0 355.85,613.95"/>
  <path fill="none" stroke="#326b64" stroke-width="2.00" stroke-linecap="butt" vector-effect="non-scaling-stroke" d="M 387.47,580.28 A 3.15,3.15 0.0 0,0 384.32,577.13 A 3.15,3.15 0.0 0,0 381.17,580.28 A 3.15,3.15 0.0 0,0 384.32,583.43 A 3.15,3.15 0.0 0,0 387.47,580.28"/>
  <path fill="none" stroke="#627c7a" stroke-width="2.00" stroke-linecap="butt" vector-effect="non-scaling-stroke" d="M 337.42,602.31 A 3.06,3.06 0.0 0,0 334.36,599.25 A 3.06,3.06 0.0 0,0 331.3,602.31 A 3.06,3.06 0.0 0,0 334.36,605.37 A 3.06,3.06 0.0 0,0 337.42,602.31"/>
  <path fill="none" stroke="#627c7a" stroke-width="2.00" stroke-linecap="butt" vector-effect="non-scaling-stroke" d="M 391.0648,612.5568 A 3.26,3.03 -68.5 0,0 387.0508,614.4795 A 3.26,3.03 -68.5 0,0 388.6752,618.6232 A 3.26,3.03 -68.5 0,0 392.6892,616.7005 A 3.26,3.03 -68.5 0,0 391.0648,612.5568"/>
  <path fill="none" stroke="#627c7a" stroke-width="2.00" stroke-linecap="butt" vector-effect="non-scaling-stroke" d="M 362.1901,616.115 A 3.16,2.92 -23.4 0,0 358.1303,614.6902 A 3.16,2.92 -23.4 0,0 356.3899,618.625 A 3.16,2.92 -23.4 0,0 360.4497,620.0498 A 3.16,2.92 -23.4 0,0 362.1901,616.115"/>
  <path fill="#f7f7f7" d="M 333.56,597.34 C 325.25,598.77 330.03,610.78 337.24,606.09 A 0.98,0.97 -46.0 0,1 338.27,606.07 L 353.99,615.59 A 0.85,0.83 13.1 0,1 354.4,616.23 C 354.46,616.77 354.32,617.46 354.38,617.83 C 355.23,623.21 362.1,623.51 364.0,618.6 A 0.53,0.53 0.0 0,1 364.47,618.25 L 384.37,617.07 A 0.84,0.83 75.8 0,1 385.17,617.55 C 387.52,622.6 394.21,621.18 395.01,615.59 A 2.65,2.6 39.4 0,0 394.87,614.28 Q 393.88,611.67 391.07,610.6 A 1.41,1.38 6.1 0,1 390.19,609.53 L 386.22,586.62 A 1.77,1.77 0.0 0,1 387.04,584.8 C 394.11,580.45 385.84,570.54 379.99,577.73 A 1.38,1.38 0.0 0,1 378.55,578.19 L 346.88,569.51 A 1.23,1.23 0.0 0,1 345.99,568.51 C 344.92,561.19 333.83,563.38 335.66,570.75 A 2.6,2.58 19.4 0,0 336.11,571.68 L 337.75,573.83 A 1.24,1.24 0.0 0,1 337.99,574.77 L 334.41,596.49 A 1.03,1.03 0.0 0,1 333.56,597.34"/>
  <path fill="#1b1f23" d="M 334.41,596.49 L 337.99,574.77 A 1.24,1.24 0.0 0,0 337.75,573.83 L 336.11,571.68 A 2.6,2.58 19.4 0,1 335.66,570.75 C 333.83,563.38 344.92,561.19 345.99,568.51 A 1.23,1.23 0.0 0,0 346.88,569.51 L 378.55,578.19 A 1.38,1.38 0.0 0,0 379.99,577.73 C 385.84,570.54 394.11,580.45 387.04,584.8 A 1.77,1.77 0.0 0,0 386.22,586.62 L 390.19,609.53 A 1.41,1.38 6.1 0,0 391.07,610.6 Q 393.88,611.67 394.87,614.28 A 2.65,2.6 39.4 0,1 395.01,615.59 C 394.21,621.18 387.52,622.6 385.17,617.55 A 0.84,0.83 75.8 0,0 384.37,617.07 L 364.47,618.25 A 0.53,0.53 0.0 0,0 364.0,618.6 C 362.1,623.51 355.23,623.21 354.38,617.83 C 354.32,617.46 354.46,616.77 354.4,616.23 A 0.85,0.83 13.1 0,0 353.99,615.59 L 338.27,606.07 A 0.98,0.97 -46.0 0,0 337.24,606.09 C 330.03,610.78 325.25,598.77 333.56,597.34 A 1.03,1.03 0.0 0,0 334.41,596.49 M 344.14,569.03 A 3.39,3.39 0.0 0,0 340.75,565.64 A 3.39,3.39 0.0 0,0 337.36,569.03 A 3.39,3.39 0.0 0,0 340.75,572.42 A 3.39,3.39 0.0 0,0 344.14,569.03 M 355.85,613.95 C 359.83,612.25 361.05,611.58 363.81,615.43 A 0.86,0.83 -17.3 0,0 364.5,615.78 L 384.04,615.78 A 1.16,1.15 -83.3 0,0 385.16,614.89 Q 385.75,612.41 387.7,611.4 A 0.93,0.92 71.4 0,0 388.18,610.43 L 384.03,586.54 A 1.28,1.28 0.0 0,0 383.34,585.61 C 380.78,584.32 379.68,584.02 379.0,580.95 A 1.25,1.25 0.0 0,0 378.11,580.01 L 346.89,571.45 A 1.92,1.91 25.0 0,0 344.82,572.2 Q 343.6,573.96 340.96,574.4 A 1.03,1.02 -0.1 0,0 340.11,575.24 L 336.54,596.92 A 0.83,0.83 0.0 0,0 336.97,597.79 C 339.75,599.28 339.5,601.19 339.12,603.88 A 0.74,0.74 0.0 0,0 339.46,604.6 L 354.79,613.87 A 1.17,1.17 0.0 0,0 355.85,613.95 M 387.47,580.28 A 3.15,3.15 0.0 0,0 384.32,577.13 A 3.15,3.15 0.0 0,0 381.17,580.28 A 3.15,3.15 0.0 0,0 384.32,583.43 A 3.15,3.15 0.0 0,0 387.47,580.28 M 337.42,602.31 A 3.06,3.06 0.0 0,0 334.36,599.25 A 3.06,3.06 0.0 0,0 331.3,602.31 A 3.06,3.06 0.0 0,0 334.36,605.37 A 3.06,3.06 0.0 0,0 337.42,602.31 M 391.0648,612.5568 A 3.26,3.03 -68.5 0,0 387.0508,614.4795 A 3.26,3.03 -68.5 0,0 388.6752,618.6232 A 3.26,3.03 -68.5 0,0 392.6892,616.7005 A 3.26,3.03 -68.5 0,0 391.0648,612.5568 M 362.1901,616.115 A 3.16,2.92 -23.4 0,0 358.1303,614.6902 A 3.16,2.92 -23.4 0,0 356.3899,618.625 A 3.16,2.92 -23.4 0,0 360.4497,620.0498 A 3.16,2.92 -23.4 0,0 362.1901,616.115"/>
  <path fill="#a8d8d0" d="M 354.79,613.87 L 339.46,604.6 A 0.74,0.74 0.0 0,1 339.12,603.88 C 339.5,601.19 339.75,599.28 336.97,597.79 A 0.83,0.83 0.0 0,1 336.54,596.92 L 340.11,575.24 A 1.03,1.02 -0.1 0,1 340.96,574.4 Q 343.6,573.96 344.82,572.2 A 1.92,1.91 25.0 0,1 346.89,571.45 L 378.11,580.01 A 1.25,1.25 0.0 0,1 379.0,580.95 C 379.68,584.02 380.78,584.32 383.34,585.61 A 1.28,1.28 0.0 0,1 384.03,586.54 L 388.18,610.43 A 0.93,0.92 71.4 0,1 387.7,611.4 Q 385.75,612.41 385.16,614.89 A 1.16,1.15 -83.3 0,1 384.04,615.78 L 364.5,615.78 A 0.86,0.83 -17.3 0,1 363.81,615.43 C 361.05,611.58 359.83,612.25 355.85,613.95 A 1.17,1.17 0.0 0,1 354.79,613.87"/>
</svg>
