<?xml version="1.0" encoding="UTF-8"?>
<svg xmlns="http://www.w3.org/2000/svg" version="1.1" viewBox="196.74 565.63 67.40 52.95">
  <path fill="none" stroke="#898b8d" stroke-width="2.00" stroke-linecap="butt" vector-effect="non-scaling-stroke" d="M 229.75,591.05 Q 223.95,594.79 216.64,599.65 A 1.25,1.24 -41.8 0,1 215.15,599.57 C 208.38,593.92 199.43,602.15 203.97,609.18 C 208.5,616.22 219.69,611.45 217.33,602.96 A 1.25,1.24 -23.9 0,1 217.87,601.57 Q 225.32,596.91 231.12,593.17 Q 236.92,589.43 244.23,584.57 A 1.25,1.24 -41.8 0,1 245.73,584.65 C 252.49,590.3 261.44,582.07 256.91,575.04 C 252.37,568.0 241.18,572.76 243.54,581.26 A 1.25,1.24 -23.9 0,1 243.0,582.65 Q 235.56,587.31 229.75,591.05"/>
  <path fill="none" stroke="#898b8d" stroke-width="2.00" stroke-linecap="butt" vector-effect="non-scaling-stroke" d="M 255.55,579.15 A 5.03,5.03 0.0 0,0 250.52,574.12 A 5.03,5.03 0.0 0,0 245.49,579.15 A 5.03,5.03 0.0 0,0 250.52,584.18 A 5.03,5.03 0.0 0,0 255.55,579.15"/>
  <path fill="none" stroke="#898b8d" stroke-width="2.00" stroke-linecap="butt" vector-effect="non-scaling-stroke" d="M 206.0903,602.2925 A 5.06,4.86 -146.3 0,0 207.6035,609.1433 A 5.06,4.86 -146.3 0,0 214.5097,607.9075 A 5.06,4.86 -146.3 0,0 212.9965,601.0567 A 5.06,4.86 -146.3 0,0 206.0903,602.2925"/>
  <path fill="#f7f7f7" d="M 229.75,591.05 Q 223.95,594.79 216.64,599.65 A 1.25,1.24 -41.8 0,1 215.15,599.57 C 208.38,593.92 199.43,602.15 203.97,609.18 C 208.5,616.22 219.69,611.45 217.33,602.96 A 1.25,1.24 -23.9 0,1 217.87,601.57 Q 225.32,596.91 231.12,593.17 Q 236.92,589.43 244.23,584.57 A 1.25,1.24 -41.8 0,1 245.73,584.65 C 252.49,590.3 261.44,582.07 256.91,575.04 C 252.37,568.0 241.18,572.76 243.54,581.26 A 1.25,1.24 -23.9 0,1 243.0,582.65 Q 235.56,587.31 229.75,591.05"/>
  <path fill="#1b1f23" d="M 256.91,575.04 C 261.44,582.07 252.49,590.3 245.73,584.65 A 1.25,1.24 -41.8 0,0 244.23,584.57 Q 236.92,589.43 231.12,593.17 Q 225.32,596.91 217.87,601.57 A 1.25,1.24 -23.9 0,0 217.33,602.96 C 219.69,611.45 208.5,616.22 203.97,609.18 C 199.43,602.15 208.38,593.92 215.15,599.57 A 1.25,1.24 -41.8 0,0 216.64,599.65 Q 223.95,594.79 229.75,591.05 Q 235.56,587.31 243.0,582.65 A 1.25,1.24 -23.9 0,0 243.54,581.26 C 241.18,572.76 252.37,568.0 256.91,575.04 M 255.55,579.15 A 5.03,5.03 0.0 0,0 250.52,574.12 A 5.03,5.03 0.0 0,0 245.49,579.15 A 5.03,5.03 0.0 0,0 250.52,584.18 A 5.03,5.03 0.0 0,0 255.55,579.15 M 206.0903,602.2925 A 5.06,4.86 -146.3 0,0 207.6035,609.1433 A 5.06,4.86 -146.3 0,0 214.5097,607.9075 A 5.06,4.86 -146.3 0,0 212.9965,601.0567 A 5.06,4.86 -146.3 0,0 206.0903,602.2925"/>
</svg>
