<?xml version="1.0" encoding="UTF-8"?>
<svg xmlns="http://www.w3.org/2000/svg" version="1.1" viewBox="200.61 925.15 55.54 55.54">
  <path fill="none" stroke="#898b8d" stroke-width="2.00" stroke-linecap="butt" vector-effect="non-scaling-stroke" d="M 250.15,952.92 A 21.77,21.77 0.0 0,0 228.38,931.15 A 21.77,21.77 0.0 0,0 206.61,952.92 A 21.77,21.77 0.0 0,0 228.38,974.69 A 21.77,21.77 0.0 0,0 250.15,952.92"/>
  <path fill="none" stroke="#898b8d" stroke-width="2.00" stroke-linecap="butt" vector-effect="non-scaling-stroke" d="M 208.9489,948.9586 A 19.87,19.64 -168.5 0,0 224.5044,972.1657 A 19.87,19.64 -168.5 0,0 247.8911,956.8814 A 19.87,19.64 -168.5 0,0 232.3356,933.6743 A 19.87,19.64 -168.5 0,0 208.9489,948.9586"/>
  <path fill="none" stroke="#898b8d" stroke-width="2.00" stroke-linecap="butt" vector-effect="non-scaling-stroke" d="M 217.19,952.89 Q 217.19,953.18 217.27,953.25 Q 221.35,957.5 225.84,961.41 A 0.51,0.49 -46.8 0,0 226.51,961.38 L 226.72,961.17 A 0.85,0.85 0.0 0,0 226.72,959.97 L 221.39,954.65 A 0.4,0.4 0.0 0,1 221.67,953.97 Q 223.99,953.93 237.75,953.85 Q 240.14,953.83 240.14,952.81 Q 240.14,951.79 237.74,951.8 Q 223.98,951.81 221.66,951.79 A 0.4,0.4 0.0 0,1 221.38,951.11 L 226.67,945.75 A 0.85,0.85 0.0 0,0 226.66,944.55 L 226.45,944.34 A 0.51,0.49 46.3 0,0 225.78,944.32 Q 221.32,948.26 217.26,952.53 Q 217.19,952.61 217.19,952.89"/>
  <path fill="#f7f7f7" d="M 250.15,952.92 A 21.77,21.77 0.0 0,0 228.38,931.15 A 21.77,21.77 0.0 0,0 206.61,952.92 A 21.77,21.77 0.0 0,0 228.38,974.69 A 21.77,21.77 0.0 0,0 250.15,952.92"/>
  <path fill="#1b1f23" d="M 250.15,952.92 A 21.77,21.77 0.0 0,1 228.38,974.69 A 21.77,21.77 0.0 0,1 206.61,952.92 A 21.77,21.77 0.0 0,1 228.38,931.15 A 21.77,21.77 0.0 0,1 250.15,952.92 M 208.9489,948.9586 A 19.87,19.64 -168.5 0,0 224.5044,972.1657 A 19.87,19.64 -168.5 0,0 247.8911,956.8814 A 19.87,19.64 -168.5 0,0 232.3356,933.6743 A 19.87,19.64 -168.5 0,0 208.9489,948.9586"/>
  <path fill="#f7f7f7" d="M 208.9489,948.9586 A 19.87,19.64 -168.5 0,1 232.3356,933.6743 A 19.87,19.64 -168.5 0,1 247.8911,956.8814 A 19.87,19.64 -168.5 0,1 224.5044,972.1657 A 19.87,19.64 -168.5 0,1 208.9489,948.9586 M 217.19,952.89 Q 217.19,953.18 217.27,953.25 Q 221.35,957.5 225.84,961.41 A 0.51,0.49 -46.8 0,0 226.51,961.38 L 226.72,961.17 A 0.85,0.85 0.0 0,0 226.72,959.97 L 221.39,954.65 A 0.4,0.4 0.0 0,1 221.67,953.97 Q 223.99,953.93 237.75,953.85 Q 240.14,953.83 240.14,952.81 Q 240.14,951.79 237.74,951.8 Q 223.98,951.81 221.66,951.79 A 0.4,0.4 0.0 0,1 221.38,951.11 L 226.67,945.75 A 0.85,0.85 0.0 0,0 226.66,944.55 L 226.45,944.34 A 0.51,0.49 46.3 0,0 225.78,944.32 Q 221.32,948.26 217.26,952.53 Q 217.19,952.61 217.19,952.89"/>
  <path fill="#1b1f23" d="M 240.14,952.81 Q 240.14,953.83 237.75,953.85 Q 223.99,953.93 221.67,953.97 A 0.4,0.4 0.0 0,0 221.39,954.65 L 226.72,959.97 A 0.85,0.85 0.0 0,1 226.72,961.17 L 226.51,961.38 A 0.51,0.49 -46.8 0,1 225.84,961.41 Q 221.35,957.5 217.27,953.25 Q 217.19,953.18 217.19,952.89 Q 217.19,952.61 217.26,952.53 Q 221.32,948.26 225.78,944.32 A 0.51,0.49 46.3 0,1 226.45,944.34 L 226.66,944.55 A 0.85,0.85 0.0 0,1 226.67,945.75 L 221.38,951.11 A 0.4,0.4 0.0 0,0 221.66,951.79 Q 223.98,951.81 237.74,951.8 Q 240.14,951.79 240.14,952.81"/>
</svg>
