<?xml version="1.0" encoding="UTF-8"?>
<svg xmlns="http://www.w3.org/2000/svg" version="1.1" viewBox="987.15 922.31 58.72 76.35">
  <path fill="none" stroke="#898b8d" stroke-width="2.00" stroke-linecap="butt" vector-effect="non-scaling-stroke" d="M 1016.52,973.8 Q 1022.61,973.8 1028.99,973.83 A 1.67,1.66 -89.8 0,0 1030.66,972.16 L 1030.66,966.1 A 0.63,0.63 0.0 0,1 1031.32,965.47 C 1034.4,965.62 1039.91,966.76 1039.86,961.76 Q 1039.76,952.55 1039.87,945.79 C 1039.96,939.9 1035.55,940.39 1031.36,940.71 A 0.73,0.73 0.0 0,1 1030.57,939.98 L 1030.57,929.67 A 1.3,1.3 0.0 0,0 1029.28,928.37 Q 1022.46,928.31 1016.51,928.31 Q 1010.55,928.31 1003.73,928.37 A 1.3,1.3 0.0 0,0 1002.44,929.68 L 1002.45,939.99 A 0.73,0.73 0.0 0,1 1001.66,940.72 C 997.47,940.4 993.06,939.91 993.15,945.8 Q 993.26,952.56 993.17,961.77 C 993.12,966.77 998.63,965.63 1001.71,965.48 A 0.63,0.63 0.0 0,1 1002.37,966.11 L 1002.37,972.17 A 1.67,1.66 89.8 0,0 1004.05,973.84 Q 1010.42,973.81 1016.52,973.8"/>
  <path fill="none" stroke="#898b8d" stroke-width="2.00" stroke-linecap="butt" vector-effect="non-scaling-stroke" d="M 1018.11,991.89 A 0.77,0.77 0.0 0,0 1017.34,991.12 A 0.77,0.77 0.0 0,0 1016.57,991.89 A 0.77,0.77 0.0 0,0 1017.34,992.66 A 0.77,0.77 0.0 0,0 1018.11,991.89"/>
  <path fill="none" stroke="#898b8d" stroke-width="2.00" stroke-linecap="butt" vector-effect="non-scaling-stroke" d="M 1028.6219,930.8189 A 0.64,0.64 0.0 0,0 1027.9808,930.18 L 1005.1008,930.22 A 0.64,0.64 0.0 0,0 1004.462,930.8611 L 1004.4781,940.1011 A 0.64,0.64 0.0 0,0 1005.1192,940.74 L 1027.9992,940.7 A 0.64,0.64 0.0 0,0 1028.638,940.0589 L 1028.6219,930.8189"/>
  <path fill="none" stroke="#898b8d" stroke-width="2.00" stroke-linecap="butt" vector-effect="non-scaling-stroke" d="M 1016.54,955.38 Q 1021.06,955.36 1028.49,955.41 Q 1030.75,955.42 1030.69,958.02 Q 1030.58,962.21 1030.58,962.23 A 1.0,1.0 0.0 0,0 1031.57,963.43 L 1036.54,963.4 A 1.41,1.4 90.0 0,0 1037.94,961.99 L 1037.94,944.55 A 1.91,1.91 0.0 0,0 1036.11,942.64 Q 1034.39,942.57 1016.51,942.62 Q 998.62,942.68 996.9,942.76 A 1.91,1.91 0.0 0,0 995.08,944.68 L 995.19,962.12 A 1.41,1.4 89.6 0,0 996.6,963.52 L 1001.57,963.52 A 1.0,1.0 0.0 0,0 1002.55,962.32 Q 1002.55,962.3 1002.42,958.11 Q 1002.34,955.51 1004.6,955.48 Q 1012.03,955.39 1016.54,955.38"/>
  <path fill="none" stroke="#898b8d" stroke-width="2.00" stroke-linecap="butt" vector-effect="non-scaling-stroke" d="M 1028.67,957.96 A 0.63,0.63 0.0 0,0 1028.04,957.33 L 1005.06,957.33 A 0.63,0.63 0.0 0,0 1004.43,957.96 L 1004.43,971.22 A 0.63,0.63 0.0 0,0 1005.06,971.85 L 1028.04,971.85 A 0.63,0.63 0.0 0,0 1028.67,971.22 L 1028.67,957.96"/>
  <path fill="none" stroke="#898b8d" stroke-width="2.00" stroke-linecap="butt" vector-effect="non-scaling-stroke" d="M 1023.1418,961.4675 A 0.63,0.63 0.0 0,0 1022.5162,960.8331 L 1010.1765,960.7469 A 0.63,0.63 0.0 0,0 1009.5421,961.3725 L 1009.5382,961.9325 A 0.63,0.63 0.0 0,0 1010.1638,962.5669 L 1022.5035,962.6531 A 0.63,0.63 0.0 0,0 1023.1379,962.0275 L 1023.1418,961.4675"/>
  <path fill="none" stroke="#898b8d" stroke-width="2.00" stroke-linecap="butt" vector-effect="non-scaling-stroke" d="M 1023.2709,967.0304 A 0.76,0.76 0.0 0,0 1022.5175,966.2638 L 1010.198,966.1563 A 0.76,0.76 0.0 0,0 1009.4314,966.9096 L 1009.4291,967.1696 A 0.76,0.76 0.0 0,0 1010.1825,967.9362 L 1022.502,968.0437 A 0.76,0.76 0.0 0,0 1023.2686,967.2904 L 1023.2709,967.0304"/>
  <path fill="#f7f7f7" d="M 1016.52,973.8 Q 1022.61,973.8 1028.99,973.83 A 1.67,1.66 -89.8 0,0 1030.66,972.16 L 1030.66,966.1 A 0.63,0.63 0.0 0,1 1031.32,965.47 C 1034.4,965.62 1039.91,966.76 1039.86,961.76 Q 1039.76,952.55 1039.87,945.79 C 1039.96,939.9 1035.55,940.39 1031.36,940.71 A 0.73,0.73 0.0 0,1 1030.57,939.98 L 1030.57,929.67 A 1.3,1.3 0.0 0,0 1029.28,928.37 Q 1022.46,928.31 1016.51,928.31 Q 1010.55,928.31 1003.73,928.37 A 1.3,1.3 0.0 0,0 1002.44,929.68 L 1002.45,939.99 A 0.73,0.73 0.0 0,1 1001.66,940.72 C 997.47,940.4 993.06,939.91 993.15,945.8 Q 993.26,952.56 993.17,961.77 C 993.12,966.77 998.63,965.63 1001.71,965.48 A 0.63,0.63 0.0 0,1 1002.37,966.11 L 1002.37,972.17 A 1.67,1.66 89.8 0,0 1004.05,973.84 Q 1010.42,973.81 1016.52,973.8 M 1018.11,991.89 A 0.77,0.77 0.0 0,0 1017.34,991.12 A 0.77,0.77 0.0 0,0 1016.57,991.89 A 0.77,0.77 0.0 0,0 1017.34,992.66 A 0.77,0.77 0.0 0,0 1018.11,991.89"/>
  <path fill="#1b1f23" d="M 1016.51,928.31 Q 1022.46,928.31 1029.28,928.37 A 1.3,1.3 0.0 0,1 1030.57,929.67 L 1030.57,939.98 A 0.73,0.73 0.0 0,0 1031.36,940.71 C 1035.55,940.39 1039.96,939.9 1039.87,945.79 Q 1039.76,952.55 1039.86,961.76 C 1039.91,966.76 1034.4,965.62 1031.32,965.47 A 0.63,0.63 0.0 0,0 1030.66,966.1 L 1030.66,972.16 A 1.67,1.66 -89.8 0,1 1028.99,973.83 Q 1022.61,973.8 1016.52,973.8 Q 1010.42,973.81 1004.05,973.84 A 1.67,1.66 89.8 0,1 1002.37,972.17 L 1002.37,966.11 A 0.63,0.63 0.0 0,0 1001.71,965.48 C 998.63,965.63 993.12,966.77 993.17,961.77 Q 993.26,952.56 993.15,945.8 C 993.06,939.91 997.47,940.4 1001.66,940.72 A 0.73,0.73 0.0 0,0 1002.45,939.99 L 1002.44,929.68 A 1.3,1.3 0.0 0,1 1003.73,928.37 Q 1010.55,928.31 1016.51,928.31 M 1028.6219,930.8189 A 0.64,0.64 0.0 0,0 1027.9808,930.18 L 1005.1008,930.22 A 0.64,0.64 0.0 0,0 1004.462,930.8611 L 1004.4781,940.1011 A 0.64,0.64 0.0 0,0 1005.1192,940.74 L 1027.9992,940.7 A 0.64,0.64 0.0 0,0 1028.638,940.0589 L 1028.6219,930.8189 M 1016.54,955.38 Q 1021.06,955.36 1028.49,955.41 Q 1030.75,955.42 1030.69,958.02 Q 1030.58,962.21 1030.58,962.23 A 1.0,1.0 0.0 0,0 1031.57,963.43 L 1036.54,963.4 A 1.41,1.4 90.0 0,0 1037.94,961.99 L 1037.94,944.55 A 1.91,1.91 0.0 0,0 1036.11,942.64 Q 1034.39,942.57 1016.51,942.62 Q 998.62,942.68 996.9,942.76 A 1.91,1.91 0.0 0,0 995.08,944.68 L 995.19,962.12 A 1.41,1.4 89.6 0,0 996.6,963.52 L 1001.57,963.52 A 1.0,1.0 0.0 0,0 1002.55,962.32 Q 1002.55,962.3 1002.42,958.11 Q 1002.34,955.51 1004.6,955.48 Q 1012.03,955.39 1016.54,955.38 M 1028.67,957.96 A 0.63,0.63 0.0 0,0 1028.04,957.33 L 1005.06,957.33 A 0.63,0.63 0.0 0,0 1004.43,957.96 L 1004.43,971.22 A 0.63,0.63 0.0 0,0 1005.06,971.85 L 1028.04,971.85 A 0.63,0.63 0.0 0,0 1028.67,971.22 L 1028.67,957.96"/>
  <path fill="#f7f7f7" d="M 1016.51,942.62 Q 1034.39,942.57 1036.11,942.64 A 1.91,1.91 0.0 0,1 1037.94,944.55 L 1037.94,961.99 A 1.41,1.4 -90.0 0,1 1036.54,963.4 L 1031.57,963.43 A 1.0,1.0 0.0 0,1 1030.58,962.23 Q 1030.58,962.21 1030.69,958.02 Q 1030.75,955.42 1028.49,955.41 Q 1021.06,955.36 1016.54,955.38 Q 1012.03,955.39 1004.6,955.48 Q 1002.34,955.51 1002.42,958.11 Q 1002.55,962.3 1002.55,962.32 A 1.0,1.0 0.0 0,1 1001.57,963.52 L 996.6,963.52 A 1.41,1.4 89.6 0,1 995.19,962.12 L 995.08,944.68 A 1.91,1.91 0.0 0,1 996.9,942.76 Q 998.62,942.68 1016.51,942.62"/>
  <path fill="#f7f7f7" d="M 1028.67,971.22 A 0.63,0.63 0.0 0,1 1028.04,971.85 L 1005.06,971.85 A 0.63,0.63 0.0 0,1 1004.43,971.22 L 1004.43,957.96 A 0.63,0.63 0.0 0,1 1005.06,957.33 L 1028.04,957.33 A 0.63,0.63 0.0 0,1 1028.67,957.96 L 1028.67,971.22 M 1023.1418,961.4675 A 0.63,0.63 0.0 0,0 1022.5162,960.8331 L 1010.1765,960.7469 A 0.63,0.63 0.0 0,0 1009.5421,961.3725 L 1009.5382,961.9325 A 0.63,0.63 0.0 0,0 1010.1638,962.5669 L 1022.5035,962.6531 A 0.63,0.63 0.0 0,0 1023.1379,962.0275 L 1023.1418,961.4675 M 1023.2709,967.0304 A 0.76,0.76 0.0 0,0 1022.5175,966.2638 L 1010.198,966.1563 A 0.76,0.76 0.0 0,0 1009.4314,966.9096 L 1009.4291,967.1696 A 0.76,0.76 0.0 0,0 1010.1825,967.9362 L 1022.502,968.0437 A 0.76,0.76 0.0 0,0 1023.2686,967.2904 L 1023.2709,967.0304"/>
</svg>
