<?xml version="1.0" encoding="UTF-8"?>
<svg xmlns="http://www.w3.org/2000/svg" version="1.1" viewBox="584.90 740.82 59.25 58.08">
  <path fill="none" stroke="#898b8d" stroke-width="2.00" stroke-linecap="butt" vector-effect="non-scaling-stroke" d="M 590.91,769.83 Q 590.9,772.95 590.91,773.07 A 1.23,1.23 0.0 0,0 591.97,774.24 C 595.07,774.68 596.38,774.74 597.76,777.71 A 1.03,1.02 51.2 0,1 597.65,778.76 L 595.16,782.0 A 0.83,0.83 0.0 0,0 595.23,783.1 L 600.31,788.18 A 0.86,0.86 0.0 0,0 601.37,788.3 L 604.43,786.43 A 1.08,1.06 36.9 0,1 605.31,786.31 Q 607.23,786.85 608.48,787.72 A 1.29,1.28 -77.8 0,1 609.03,788.58 L 609.56,791.65 A 1.51,1.51 0.0 0,0 611.05,792.9 L 617.6,792.9 A 1.51,1.51 0.0 0,0 619.11,791.36 Q 619.02,787.03 623.58,786.37 A 1.38,1.35 -32.8 0,1 624.52,786.56 L 627.21,788.22 A 1.14,1.13 37.9 0,0 628.61,788.05 L 633.52,783.14 A 0.91,0.91 0.0 0,0 633.66,782.01 L 631.8,778.98 A 1.52,1.51 41.0 0,1 631.7,777.59 C 632.53,775.66 633.5,774.7 635.63,774.44 Q 637.09,774.26 637.49,774.02 A 1.2,1.2 0.0 0,0 638.07,773.19 Q 638.15,772.72 638.15,769.9 Q 638.16,767.08 638.08,766.6 A 1.2,1.2 0.0 0,0 637.5,765.77 Q 637.1,765.53 635.64,765.35 C 633.51,765.08 632.55,764.12 631.72,762.19 A 1.52,1.51 -40.8 0,1 631.83,760.8 L 633.69,757.77 A 0.91,0.91 0.0 0,0 633.56,756.64 L 628.66,751.72 A 1.14,1.13 -37.8 0,0 627.26,751.54 L 624.57,753.2 A 1.38,1.35 33.0 0,1 623.63,753.38 Q 619.07,752.71 619.17,748.38 A 1.51,1.51 0.0 0,0 617.67,746.84 L 611.12,746.82 A 1.51,1.51 0.0 0,0 609.62,748.06 L 609.08,751.13 A 1.29,1.28 78.0 0,1 608.53,751.99 Q 607.28,752.86 605.36,753.39 A 1.08,1.06 -36.7 0,1 604.48,753.27 L 601.42,751.39 A 0.86,0.86 0.0 0,0 600.36,751.51 L 595.27,756.57 A 0.83,0.83 0.0 0,0 595.2,757.67 L 597.68,760.92 A 1.03,1.02 -51.0 0,1 597.78,761.97 C 596.39,764.93 595.08,764.99 591.98,765.42 A 1.23,1.23 0.0 0,0 590.92,766.58 Q 590.91,766.71 590.91,769.83"/>
  <path fill="none" stroke="#898b8d" stroke-width="2.00" stroke-linecap="butt" vector-effect="non-scaling-stroke" d="M 614.49,748.93 Q 612.4,748.92 612.2,748.97 A 1.03,1.03 0.0 0,0 611.41,749.77 L 610.92,752.34 A 1.95,1.95 0.0 0,1 609.75,753.77 L 605.78,755.4 A 1.56,1.52 -40.5 0,1 604.42,755.31 L 601.77,753.78 A 0.91,0.91 0.0 0,0 600.64,753.95 L 597.94,756.8 A 0.94,0.94 0.0 0,0 598.0,758.16 C 600.53,760.4 599.91,762.03 598.26,764.84 Q 596.88,767.2 593.77,767.06 A 0.95,0.94 -88.6 0,0 592.78,768.01 L 592.78,771.51 A 0.97,0.97 0.0 0,0 593.55,772.46 L 596.11,773.0 A 2.23,2.22 -20.8 0,1 597.0,773.4 Q 597.79,773.95 598.51,775.32 C 599.87,777.93 600.08,779.09 597.76,781.18 A 1.15,1.14 45.7 0,0 597.75,782.85 L 600.81,785.75 A 0.92,0.92 0.0 0,0 601.91,785.88 L 604.36,784.46 A 1.23,1.21 -49.0 0,1 605.39,784.38 L 609.81,786.04 A 0.76,0.7 -13.7 0,1 610.01,786.15 Q 610.91,786.89 611.34,790.23 A 0.85,0.85 0.0 0,0 612.22,790.97 Q 613.92,790.9 614.42,790.9 Q 614.93,790.9 616.62,790.98 A 0.85,0.85 0.0 0,0 617.51,790.24 Q 617.95,786.9 618.85,786.17 A 0.76,0.7 13.9 0,1 619.05,786.06 L 623.48,784.41 A 1.23,1.21 49.2 0,1 624.51,784.5 L 626.95,785.92 A 0.92,0.92 0.0 0,0 628.05,785.8 L 631.12,782.91 A 1.15,1.14 -45.5 0,0 631.12,781.24 C 628.8,779.14 629.02,777.98 630.39,775.38 Q 631.11,774.01 631.9,773.46 A 2.23,2.22 21.0 0,1 632.8,773.06 L 635.36,772.53 A 0.97,0.97 0.0 0,0 636.13,771.59 L 636.14,768.09 A 0.95,0.94 88.8 0,0 635.16,767.13 Q 632.05,767.26 630.67,764.9 C 629.03,762.08 628.42,760.45 630.96,758.22 A 0.94,0.94 0.0 0,0 631.02,756.86 L 628.33,754.0 A 0.91,0.91 0.0 0,0 627.2,753.82 L 624.55,755.35 A 1.56,1.52 40.7 0,1 623.19,755.43 L 619.22,753.79 A 1.95,1.95 0.0 0,1 618.06,752.35 L 617.58,749.78 A 1.03,1.03 0.0 0,0 616.79,748.97 Q 616.59,748.93 614.49,748.93"/>
  <path fill="none" stroke="#898b8d" stroke-width="2.00" stroke-linecap="butt" vector-effect="non-scaling-stroke" d="M 605.7638,769.4531 A 8.66,8.46 -178.3 0,0 614.169,778.1663 A 8.66,8.46 -178.3 0,0 623.0762,769.9669 A 8.66,8.46 -178.3 0,0 614.671,761.2537 A 8.66,8.46 -178.3 0,0 605.7638,769.4531"/>
  <path fill="none" stroke="#898b8d" stroke-width="2.00" stroke-linecap="butt" vector-effect="non-scaling-stroke" d="M 621.04,769.75 A 6.56,6.56 0.0 0,0 614.48,763.19 A 6.56,6.56 0.0 0,0 607.92,769.75 A 6.56,6.56 0.0 0,0 614.48,776.31 A 6.56,6.56 0.0 0,0 621.04,769.75"/>
  <path fill="#f7f7f7" d="M 590.91,769.83 Q 590.9,772.95 590.91,773.07 A 1.23,1.23 0.0 0,0 591.97,774.24 C 595.07,774.68 596.38,774.74 597.76,777.71 A 1.03,1.02 51.2 0,1 597.65,778.76 L 595.16,782.0 A 0.83,0.83 0.0 0,0 595.23,783.1 L 600.31,788.18 A 0.86,0.86 0.0 0,0 601.37,788.3 L 604.43,786.43 A 1.08,1.06 36.9 0,1 605.31,786.31 Q 607.23,786.85 608.48,787.72 A 1.29,1.28 -77.8 0,1 609.03,788.58 L 609.56,791.65 A 1.51,1.51 0.0 0,0 611.05,792.9 L 617.6,792.9 A 1.51,1.51 0.0 0,0 619.11,791.36 Q 619.02,787.03 623.58,786.37 A 1.38,1.35 -32.8 0,1 624.52,786.56 L 627.21,788.22 A 1.14,1.13 37.9 0,0 628.61,788.05 L 633.52,783.14 A 0.91,0.91 0.0 0,0 633.66,782.01 L 631.8,778.98 A 1.52,1.51 41.0 0,1 631.7,777.59 C 632.53,775.66 633.5,774.7 635.63,774.44 Q 637.09,774.26 637.49,774.02 A 1.2,1.2 0.0 0,0 638.07,773.19 Q 638.15,772.72 638.15,769.9 Q 638.16,767.08 638.08,766.6 A 1.2,1.2 0.0 0,0 637.5,765.77 Q 637.1,765.53 635.64,765.35 C 633.51,765.08 632.55,764.12 631.72,762.19 A 1.52,1.51 -40.8 0,1 631.83,760.8 L 633.69,757.77 A 0.91,0.91 0.0 0,0 633.56,756.64 L 628.66,751.72 A 1.14,1.13 -37.8 0,0 627.26,751.54 L 624.57,753.2 A 1.38,1.35 33.0 0,1 623.63,753.38 Q 619.07,752.71 619.17,748.38 A 1.51,1.51 0.0 0,0 617.67,746.84 L 611.12,746.82 A 1.51,1.51 0.0 0,0 609.62,748.06 L 609.08,751.13 A 1.29,1.28 78.0 0,1 608.53,751.99 Q 607.28,752.86 605.36,753.39 A 1.08,1.06 -36.7 0,1 604.48,753.27 L 601.42,751.39 A 0.86,0.86 0.0 0,0 600.36,751.51 L 595.27,756.57 A 0.83,0.83 0.0 0,0 595.2,757.67 L 597.68,760.92 A 1.03,1.02 -51.0 0,1 597.78,761.97 C 596.39,764.93 595.08,764.99 591.98,765.42 A 1.23,1.23 0.0 0,0 590.92,766.58 Q 590.91,766.71 590.91,769.83"/>
  <path fill="#1b1f23" d="M 638.15,769.9 Q 638.15,772.72 638.07,773.19 A 1.2,1.2 0.0 0,1 637.49,774.02 Q 637.09,774.26 635.63,774.44 C 633.5,774.7 632.53,775.66 631.7,777.59 A 1.52,1.51 41.0 0,0 631.8,778.98 L 633.66,782.01 A 0.91,0.91 0.0 0,1 633.52,783.14 L 628.61,788.05 A 1.14,1.13 37.9 0,1 627.21,788.22 L 624.52,786.56 A 1.38,1.35 -32.8 0,0 623.58,786.37 Q 619.02,787.03 619.11,791.36 A 1.51,1.51 0.0 0,1 617.6,792.9 L 611.05,792.9 A 1.51,1.51 0.0 0,1 609.56,791.65 L 609.03,788.58 A 1.29,1.28 -77.8 0,0 608.48,787.72 Q 607.23,786.85 605.31,786.31 A 1.08,1.06 36.9 0,0 604.43,786.43 L 601.37,788.3 A 0.86,0.86 0.0 0,1 600.31,788.18 L 595.23,783.1 A 0.83,0.83 0.0 0,1 595.16,782.0 L 597.65,778.76 A 1.03,1.02 51.2 0,0 597.76,777.71 C 596.38,774.74 595.07,774.68 591.97,774.24 A 1.23,1.23 0.0 0,1 590.91,773.07 Q 590.9,772.95 590.91,769.83 Q 590.91,766.71 590.92,766.58 A 1.23,1.23 0.0 0,1 591.98,765.42 C 595.08,764.99 596.39,764.93 597.78,761.97 A 1.03,1.02 -51.0 0,0 597.68,760.92 L 595.2,757.67 A 0.83,0.83 0.0 0,1 595.27,756.57 L 600.36,751.51 A 0.86,0.86 0.0 0,1 601.42,751.39 L 604.48,753.27 A 1.08,1.06 -36.7 0,0 605.36,753.39 Q 607.28,752.86 608.53,751.99 A 1.29,1.28 78.0 0,0 609.08,751.13 L 609.62,748.06 A 1.51,1.51 0.0 0,1 611.12,746.82 L 617.67,746.84 A 1.51,1.51 0.0 0,1 619.17,748.38 Q 619.07,752.71 623.63,753.38 A 1.38,1.35 33.0 0,0 624.57,753.2 L 627.26,751.54 A 1.14,1.13 -37.8 0,1 628.66,751.72 L 633.56,756.64 A 0.91,0.91 0.0 0,1 633.69,757.77 L 631.83,760.8 A 1.52,1.51 -40.8 0,0 631.72,762.19 C 632.55,764.12 633.51,765.08 635.64,765.35 Q 637.1,765.53 637.5,765.77 A 1.2,1.2 0.0 0,1 638.08,766.6 Q 638.16,767.08 638.15,769.9 M 614.49,748.93 Q 612.4,748.92 612.2,748.97 A 1.03,1.03 0.0 0,0 611.41,749.77 L 610.92,752.34 A 1.95,1.95 0.0 0,1 609.75,753.77 L 605.78,755.4 A 1.56,1.52 -40.5 0,1 604.42,755.31 L 601.77,753.78 A 0.91,0.91 0.0 0,0 600.64,753.95 L 597.94,756.8 A 0.94,0.94 0.0 0,0 598.0,758.16 C 600.53,760.4 599.91,762.03 598.26,764.84 Q 596.88,767.2 593.77,767.06 A 0.95,0.94 -88.6 0,0 592.78,768.01 L 592.78,771.51 A 0.97,0.97 0.0 0,0 593.55,772.46 L 596.11,773.0 A 2.23,2.22 -20.8 0,1 597.0,773.4 Q 597.79,773.95 598.51,775.32 C 599.87,777.93 600.08,779.09 597.76,781.18 A 1.15,1.14 45.7 0,0 597.75,782.85 L 600.81,785.75 A 0.92,0.92 0.0 0,0 601.91,785.88 L 604.36,784.46 A 1.23,1.21 -49.0 0,1 605.39,784.38 L 609.81,786.04 A 0.76,0.7 -13.7 0,1 610.01,786.15 Q 610.91,786.89 611.34,790.23 A 0.85,0.85 0.0 0,0 612.22,790.97 Q 613.92,790.9 614.42,790.9 Q 614.93,790.9 616.62,790.98 A 0.85,0.85 0.0 0,0 617.51,790.24 Q 617.95,786.9 618.85,786.17 A 0.76,0.7 13.9 0,1 619.05,786.06 L 623.48,784.41 A 1.23,1.21 49.2 0,1 624.51,784.5 L 626.95,785.92 A 0.92,0.92 0.0 0,0 628.05,785.8 L 631.12,782.91 A 1.15,1.14 -45.5 0,0 631.12,781.24 C 628.8,779.14 629.02,777.98 630.39,775.38 Q 631.11,774.01 631.9,773.46 A 2.23,2.22 21.0 0,1 632.8,773.06 L 635.36,772.53 A 0.97,0.97 0.0 0,0 636.13,771.59 L 636.14,768.09 A 0.95,0.94 88.8 0,0 635.16,767.13 Q 632.05,767.26 630.67,764.9 C 629.03,762.08 628.42,760.45 630.96,758.22 A 0.94,0.94 0.0 0,0 631.02,756.86 L 628.33,754.0 A 0.91,0.91 0.0 0,0 627.2,753.82 L 624.55,755.35 A 1.56,1.52 40.7 0,1 623.19,755.43 L 619.22,753.79 A 1.95,1.95 0.0 0,1 618.06,752.35 L 617.58,749.78 A 1.03,1.03 0.0 0,0 616.79,748.97 Q 616.59,748.93 614.49,748.93"/>
  <path fill="#f7f7f7" d="M 614.42,790.9 Q 613.92,790.9 612.22,790.97 A 0.85,0.85 0.0 0,1 611.34,790.23 Q 610.91,786.89 610.01,786.15 A 0.76,0.7 -13.7 0,0 609.81,786.04 L 605.39,784.38 A 1.23,1.21 -49.0 0,0 604.36,784.46 L 601.91,785.88 A 0.92,0.92 0.0 0,1 600.81,785.75 L 597.75,782.85 A 1.15,1.14 45.7 0,1 597.76,781.18 C 600.08,779.09 599.87,777.93 598.51,775.32 Q 597.79,773.95 597.0,773.4 A 2.23,2.22 -20.8 0,0 596.11,773.0 L 593.55,772.46 A 0.97,0.97 0.0 0,1 592.78,771.51 L 592.78,768.01 A 0.95,0.94 -88.6 0,1 593.77,767.06 Q 596.88,767.2 598.26,764.84 C 599.91,762.03 600.53,760.4 598.0,758.16 A 0.94,0.94 0.0 0,1 597.94,756.8 L 600.64,753.95 A 0.91,0.91 0.0 0,1 601.77,753.78 L 604.42,755.31 A 1.56,1.52 -40.5 0,0 605.78,755.4 L 609.75,753.77 A 1.95,1.95 0.0 0,0 610.92,752.34 L 611.41,749.77 A 1.03,1.03 0.0 0,1 612.2,748.97 Q 612.4,748.92 614.49,748.93 Q 616.59,748.93 616.79,748.97 A 1.03,1.03 0.0 0,1 617.58,749.78 L 618.06,752.35 A 1.95,1.95 0.0 0,0 619.22,753.79 L 623.19,755.43 A 1.56,1.52 40.7 0,0 624.55,755.35 L 627.2,753.82 A 0.91,0.91 0.0 0,1 628.33,754.0 L 631.02,756.86 A 0.94,0.94 0.0 0,1 630.96,758.22 C 628.42,760.45 629.03,762.08 630.67,764.9 Q 632.05,767.26 635.16,767.13 A 0.95,0.94 88.8 0,1 636.14,768.09 L 636.13,771.59 A 0.97,0.97 0.0 0,1 635.36,772.53 L 632.8,773.06 A 2.23,2.22 21.0 0,0 631.9,773.46 Q 631.11,774.01 630.39,775.38 C 629.02,777.98 628.8,779.14 631.12,781.24 A 1.15,1.14 -45.5 0,1 631.12,782.91 L 628.05,785.8 A 0.92,0.92 0.0 0,1 626.95,785.92 L 624.51,784.5 A 1.23,1.21 49.2 0,0 623.48,784.41 L 619.05,786.06 A 0.76,0.7 13.9 0,0 618.85,786.17 Q 617.95,786.9 617.51,790.24 A 0.85,0.85 0.0 0,1 616.62,790.98 Q 614.93,790.9 614.42,790.9 M 605.7638,769.4531 A 8.66,8.46 -178.3 0,0 614.169,778.1663 A 8.66,8.46 -178.3 0,0 623.0762,769.9669 A 8.66,8.46 -178.3 0,0 614.671,761.2537 A 8.66,8.46 -178.3 0,0 605.7638,769.4531"/>
  <path fill="#1b1f23" d="M 605.7638,769.4531 A 8.66,8.46 -178.3 0,1 614.671,761.2537 A 8.66,8.46 -178.3 0,1 623.0762,769.9669 A 8.66,8.46 -178.3 0,1 614.169,778.1663 A 8.66,8.46 -178.3 0,1 605.7638,769.4531 M 621.04,769.75 A 6.56,6.56 0.0 0,0 614.48,763.19 A 6.56,6.56 0.0 0,0 607.92,769.75 A 6.56,6.56 0.0 0,0 614.48,776.31 A 6.56,6.56 0.0 0,0 621.04,769.75"/>
</svg>
