<?xml version="1.0" encoding="UTF-8"?>
<svg xmlns="http://www.w3.org/2000/svg" version="1.1" viewBox="461.89 565.71 58.64 55.18">
  <path fill="none" stroke="#d0e8e4" stroke-width="2.00" stroke-linecap="butt" vector-effect="non-scaling-stroke" d="M 500.85,572.53 L 498.99,572.75"/>
  <path fill="none" stroke="#898b8d" stroke-width="2.00" stroke-linecap="butt" vector-effect="non-scaling-stroke" d="M 498.99,572.75 Q 488.33,571.92 477.66,572.8"/>
  <path fill="none" stroke="#d0e8e4" stroke-width="2.00" stroke-linecap="butt" vector-effect="non-scaling-stroke" d="M 477.66,572.8 Q 477.67,572.88 477.68,572.96"/>
  <path fill="none" stroke="#898b8d" stroke-width="2.00" stroke-linecap="butt" vector-effect="non-scaling-stroke" d="M 477.68,572.96 L 468.74,571.98 A 0.77,0.76 3.0 0,0 467.89,572.74 L 467.89,613.82 A 1.02,1.01 -0.6 0,0 468.93,614.83 Q 473.77,614.75 477.81,614.44 C 484.9,613.91 492.94,615.4 499.51,613.93 A 3.31,3.24 -41.7 0,1 501.18,614.01 Q 501.87,614.24 504.18,613.92 A 4.55,4.51 -40.6 0,1 505.99,614.05 Q 509.33,614.98 514.04,614.88 A 0.5,0.5 0.0 0,0 514.53,614.38 Q 514.5,609.55 513.97,606.9 A 1.92,1.77 -52.2 0,1 513.93,606.43 L 514.44,572.41 A 0.7,0.69 -1.2 0,0 513.7,571.71 L 500.85,572.53"/>
  <path fill="none" stroke="#627c7a" stroke-width="2.00" stroke-linecap="butt" vector-effect="non-scaling-stroke" d="M 477.68,572.96 L 469.74,573.15 A 0.68,0.67 -89.5 0,0 469.08,573.81 L 468.37,604.74 A 2.06,1.35 51.6 0,0 468.4,605.07 Q 469.06,608.28 468.88,612.34 A 1.28,1.27 1.3 0,0 470.16,613.67 L 512.3,613.67 A 0.87,0.87 0.0 0,0 513.17,612.82 Q 513.49,600.73 513.43,582.22 Q 513.42,578.18 513.05,573.72 A 0.62,0.61 1.2 0,0 512.51,573.16 Q 509.21,572.75 505.0,573.19 Q 503.09,573.39 500.85,572.53"/>
  <path fill="none" stroke="#627c7a" stroke-width="2.00" stroke-linecap="butt" vector-effect="non-scaling-stroke" d="M 498.99,572.75 Q 488.35,573.64 477.66,572.8"/>
  <path fill="#f7f7f7" d="M 500.85,572.53 L 498.99,572.75 Q 488.33,571.92 477.66,572.8 Q 477.67,572.88 477.68,572.96 L 468.74,571.98 A 0.77,0.76 3.0 0,0 467.89,572.74 L 467.89,613.82 A 1.02,1.01 -0.6 0,0 468.93,614.83 Q 473.77,614.75 477.81,614.44 C 484.9,613.91 492.94,615.4 499.51,613.93 A 3.31,3.24 -41.7 0,1 501.18,614.01 Q 501.87,614.24 504.18,613.92 A 4.55,4.51 -40.6 0,1 505.99,614.05 Q 509.33,614.98 514.04,614.88 A 0.5,0.5 0.0 0,0 514.53,614.38 Q 514.5,609.55 513.97,606.9 A 1.92,1.77 -52.2 0,1 513.93,606.43 L 514.44,572.41 A 0.7,0.69 -1.2 0,0 513.7,571.71 L 500.85,572.53"/>
  <path fill="#1b1f23" d="M 477.68,572.96 L 469.74,573.15 A 0.68,0.67 -89.5 0,0 469.08,573.81 L 468.37,604.74 A 2.06,1.35 51.6 0,0 468.4,605.07 Q 469.06,608.28 468.88,612.34 A 1.28,1.27 1.3 0,0 470.16,613.67 L 512.3,613.67 A 0.87,0.87 0.0 0,0 513.17,612.82 Q 513.49,600.73 513.43,582.22 Q 513.42,578.18 513.05,573.72 A 0.62,0.61 1.2 0,0 512.51,573.16 Q 509.21,572.75 505.0,573.19 Q 503.09,573.39 500.85,572.53 L 513.7,571.71 A 0.7,0.69 -1.2 0,1 514.44,572.41 L 513.93,606.43 A 1.92,1.77 -52.2 0,0 513.97,606.9 Q 514.5,609.55 514.53,614.38 A 0.5,0.5 0.0 0,1 514.04,614.88 Q 509.33,614.98 505.99,614.05 A 4.55,4.51 -40.6 0,0 504.18,613.92 Q 501.87,614.24 501.18,614.01 A 3.31,3.24 -41.7 0,0 499.51,613.93 C 492.94,615.4 484.9,613.91 477.81,614.44 Q 473.77,614.75 468.93,614.83 A 1.02,1.01 -0.6 0,1 467.89,613.82 L 467.89,572.74 A 0.77,0.76 3.0 0,1 468.74,571.98 L 477.68,572.96"/>
  <path fill="#1b1f23" d="M 498.99,572.75 Q 488.35,573.64 477.66,572.8 Q 488.33,571.92 498.99,572.75"/>
  <path fill="#a8d8d0" d="M 500.85,572.53 Q 503.09,573.39 505.0,573.19 Q 509.21,572.75 512.51,573.16 A 0.62,0.61 1.2 0,1 513.05,573.72 Q 513.42,578.18 513.43,582.22 Q 513.49,600.73 513.17,612.82 A 0.87,0.87 0.0 0,1 512.3,613.67 L 470.16,613.67 A 1.28,1.27 1.3 0,1 468.88,612.34 Q 469.06,608.28 468.4,605.07 A 2.06,1.35 51.6 0,1 468.37,604.74 L 469.08,573.81 A 0.68,0.67 -89.5 0,1 469.74,573.15 L 477.68,572.96 Q 477.67,572.88 477.66,572.8 Q 488.35,573.64 498.99,572.75 L 500.85,572.53"/>
</svg>
