<?xml version="1.0" encoding="UTF-8"?>
<svg xmlns="http://www.w3.org/2000/svg" version="1.1" viewBox="730.93 923.75 56.82 56.08">
  <path fill="none" stroke="#898b8d" stroke-width="2.00" stroke-linecap="butt" vector-effect="non-scaling-stroke" d="M 779.05,940.52 C 766.98,923.66 742.47,927.09 737.13,947.37 A 0.87,0.87 0.0 0,0 737.87,948.46 L 738.0,948.47 A 1.13,1.12 10.3 0,0 739.22,947.63 C 742.67,933.66 757.47,927.82 769.88,934.52 C 772.88,936.14 776.94,940.71 778.29,942.55 A 0.42,0.42 0.0 0,1 777.94,943.22 L 770.75,943.08 A 1.03,1.02 1.4 0,0 769.7,944.07 L 769.7,944.11 A 1.04,1.04 0.0 0,0 770.73,945.13 L 781.14,945.26 A 0.61,0.6 -89.5 0,0 781.75,944.65 L 781.75,934.09 A 0.82,0.82 0.0 0,0 780.93,933.27 L 780.43,933.27 A 0.73,0.73 0.0 0,0 779.7,934.0 L 779.7,940.31 A 0.36,0.36 0.0 0,1 779.05,940.52"/>
  <path fill="none" stroke="#898b8d" stroke-width="2.00" stroke-linecap="butt" vector-effect="non-scaling-stroke" d="M 739.63,963.4 Q 745.47,971.28 754.03,973.22 C 766.52,976.05 778.19,968.88 781.3,956.45 A 1.16,1.16 0.0 0,0 780.62,955.1 L 780.59,955.09 A 0.94,0.94 0.0 0,0 779.34,955.65 C 778.88,956.94 778.28,959.59 777.3,961.25 Q 771.13,971.71 759.33,971.9 C 751.09,972.04 745.04,967.44 740.51,960.99 A 0.46,0.45 72.3 0,1 740.88,960.27 L 747.67,960.25 A 1.08,1.08 0.0 0,0 748.74,959.32 L 748.74,959.28 A 0.92,0.92 0.0 0,0 747.82,958.31 L 737.69,958.32 A 0.76,0.76 0.0 0,0 736.93,959.08 L 736.93,969.13 A 0.93,0.93 0.0 0,0 737.71,970.05 L 738.0,970.1 A 0.82,0.81 -85.3 0,0 738.95,969.29 L 738.95,963.63 A 0.38,0.38 0.0 0,1 739.63,963.4"/>
  <path fill="#f7f7f7" d="M 779.05,940.52 C 766.98,923.66 742.47,927.09 737.13,947.37 A 0.87,0.87 0.0 0,0 737.87,948.46 L 738.0,948.47 A 1.13,1.12 10.3 0,0 739.22,947.63 C 742.67,933.66 757.47,927.82 769.88,934.52 C 772.88,936.14 776.94,940.71 778.29,942.55 A 0.42,0.42 0.0 0,1 777.94,943.22 L 770.75,943.08 A 1.03,1.02 1.4 0,0 769.7,944.07 L 769.7,944.11 A 1.04,1.04 0.0 0,0 770.73,945.13 L 781.14,945.26 A 0.61,0.6 -89.5 0,0 781.75,944.65 L 781.75,934.09 A 0.82,0.82 0.0 0,0 780.93,933.27 L 780.43,933.27 A 0.73,0.73 0.0 0,0 779.7,934.0 L 779.7,940.31 A 0.36,0.36 0.0 0,1 779.05,940.52 M 739.63,963.4 Q 745.47,971.28 754.03,973.22 C 766.52,976.05 778.19,968.88 781.3,956.45 A 1.16,1.16 0.0 0,0 780.62,955.1 L 780.59,955.09 A 0.94,0.94 0.0 0,0 779.34,955.65 C 778.88,956.94 778.28,959.59 777.3,961.25 Q 771.13,971.71 759.33,971.9 C 751.09,972.04 745.04,967.44 740.51,960.99 A 0.46,0.45 72.3 0,1 740.88,960.27 L 747.67,960.25 A 1.08,1.08 0.0 0,0 748.74,959.32 L 748.74,959.28 A 0.92,0.92 0.0 0,0 747.82,958.31 L 737.69,958.32 A 0.76,0.76 0.0 0,0 736.93,959.08 L 736.93,969.13 A 0.93,0.93 0.0 0,0 737.71,970.05 L 738.0,970.1 A 0.82,0.81 -85.3 0,0 738.95,969.29 L 738.95,963.63 A 0.38,0.38 0.0 0,1 739.63,963.4"/>
  <path fill="#1b1f23" d="M 779.05,940.52 A 0.36,0.36 0.0 0,0 779.7,940.31 L 779.7,934.0 A 0.73,0.73 0.0 0,1 780.43,933.27 L 780.93,933.27 A 0.82,0.82 0.0 0,1 781.75,934.09 L 781.75,944.65 A 0.61,0.6 -89.5 0,1 781.14,945.26 L 770.73,945.13 A 1.04,1.04 0.0 0,1 769.7,944.11 L 769.7,944.07 A 1.03,1.02 1.4 0,1 770.75,943.08 L 777.94,943.22 A 0.42,0.42 0.0 0,0 778.29,942.55 C 776.94,940.71 772.88,936.14 769.88,934.52 C 757.47,927.82 742.67,933.66 739.22,947.63 A 1.13,1.12 10.3 0,1 738.0,948.47 L 737.87,948.46 A 0.87,0.87 0.0 0,1 737.13,947.37 C 742.47,927.09 766.98,923.66 779.05,940.52"/>
  <path fill="#1b1f23" d="M 739.63,963.4 A 0.38,0.38 0.0 0,0 738.95,963.63 L 738.95,969.29 A 0.82,0.81 -85.3 0,1 738.0,970.1 L 737.71,970.05 A 0.93,0.93 0.0 0,1 736.93,969.13 L 736.93,959.08 A 0.76,0.76 0.0 0,1 737.69,958.32 L 747.82,958.31 A 0.92,0.92 0.0 0,1 748.74,959.28 L 748.74,959.32 A 1.08,1.08 0.0 0,1 747.67,960.25 L 740.88,960.27 A 0.46,0.45 72.3 0,0 740.51,960.99 C 745.04,967.44 751.09,972.04 759.33,971.9 Q 771.13,971.71 777.3,961.25 C 778.28,959.59 778.88,956.94 779.34,955.65 A 0.94,0.94 0.0 0,1 780.59,955.09 L 780.62,955.1 A 1.16,1.16 0.0 0,1 781.3,956.45 C 778.19,968.88 766.52,976.05 754.03,973.22 Q 745.47,971.28 739.63,963.4"/>
</svg>
