<?xml version="1.0" encoding="UTF-8"?>
<svg xmlns="http://www.w3.org/2000/svg" version="1.1" viewBox="194.43 743.84 67.60 59.86">
  <path fill="none" stroke="#898b8d" stroke-width="2.00" stroke-linecap="butt" vector-effect="non-scaling-stroke" d="M 225.24,749.95 A 0.83,0.83 0.0 0,0 224.42,749.95 L 201.43,763.22 A 0.83,0.83 0.0 0,0 201.43,764.66 L 224.35,777.89 A 0.83,0.83 0.0 0,0 225.17,777.89 L 248.16,764.62 A 0.83,0.83 0.0 0,0 248.16,763.18 L 225.24,749.95"/>
  <path fill="none" stroke="#898b8d" stroke-width="2.00" stroke-linecap="butt" vector-effect="non-scaling-stroke" d="M 228.34,782.42 Q 227.35,782.59 226.13,783.56 A 1.71,1.71 0.0 0,1 224.26,783.73 L 202.92,772.42 A 1.38,1.37 40.8 0,0 201.47,772.52 L 201.16,772.74 A 0.72,0.72 0.0 0,0 201.26,773.97 Q 212.02,779.21 222.1,785.37 Q 224.68,786.95 225.94,786.42 Q 228.03,785.55 229.09,783.42 A 0.7,0.7 0.0 0,0 228.34,782.42"/>
  <path fill="none" stroke="#898b8d" stroke-width="2.00" stroke-linecap="butt" vector-effect="non-scaling-stroke" d="M 255.9778,785.6041 A 11.33,11.01 -5.5 0,0 243.6447,775.7307 A 11.33,11.01 -5.5 0,0 233.4222,787.7759 A 11.33,11.01 -5.5 0,0 245.7553,797.6493 A 11.33,11.01 -5.5 0,0 255.9778,785.6041"/>
  <path fill="none" stroke="#898b8d" stroke-width="2.00" stroke-linecap="butt" vector-effect="non-scaling-stroke" d="M 228.89,791.58 A 0.34,0.34 0.0 0,0 228.43,791.47 L 224.7,793.62 A 0.34,0.34 0.0 0,1 224.36,793.62 L 204.54,782.19 A 0.34,0.34 0.0 0,1 204.54,781.6 L 208.19,779.36 A 0.34,0.34 0.0 0,0 208.3,778.89 L 207.74,777.97 A 0.34,0.34 0.0 0,0 207.28,777.86 L 200.59,781.72 A 0.34,0.34 0.0 0,0 200.59,782.3 L 224.43,796.07 A 0.34,0.34 0.0 0,0 224.77,796.07 L 229.55,793.31 A 0.34,0.34 0.0 0,0 229.67,792.84 L 228.89,791.58"/>
  <path fill="none" stroke="#898b8d" stroke-width="2.00" stroke-linecap="butt" vector-effect="non-scaling-stroke" d="M 244.86,764.2 A 0.33,0.33 0.0 0,0 244.85,763.62 L 224.92,752.12 A 0.33,0.33 0.0 0,0 224.58,752.12 L 204.66,763.62 A 0.33,0.33 0.0 0,0 204.66,764.2 L 224.59,775.7 A 0.33,0.33 0.0 0,0 224.93,775.7 L 244.86,764.2"/>
  <path fill="none" stroke="#326b64" stroke-width="2.00" stroke-linecap="butt" vector-effect="non-scaling-stroke" d="M 235.2768,785.1854 A 9.49,9.2 -171.0 0,0 243.2108,795.7567 A 9.49,9.2 -171.0 0,0 254.0232,788.1546 A 9.49,9.2 -171.0 0,0 246.0892,777.5833 A 9.49,9.2 -171.0 0,0 235.2768,785.1854"/>
  <path fill="none" stroke="#326b64" stroke-width="2.00" stroke-linecap="butt" vector-effect="non-scaling-stroke" d="M 250.1391,786.5122 A 0.87,0.87 0.0 0,0 249.2585,785.6529 L 239.8992,785.7672 A 0.87,0.87 0.0 0,0 239.0399,786.6478 L 239.0409,786.7278 A 0.87,0.87 0.0 0,0 239.9215,787.5871 L 249.2808,787.4728 A 0.87,0.87 0.0 0,0 250.1401,786.5922 L 250.1391,786.5122"/>
  <path fill="#f7f7f7" d="M 225.24,749.95 A 0.83,0.83 0.0 0,0 224.42,749.95 L 201.43,763.22 A 0.83,0.83 0.0 0,0 201.43,764.66 L 224.35,777.89 A 0.83,0.83 0.0 0,0 225.17,777.89 L 248.16,764.62 A 0.83,0.83 0.0 0,0 248.16,763.18 L 225.24,749.95 M 228.34,782.42 Q 227.35,782.59 226.13,783.56 A 1.71,1.71 0.0 0,1 224.26,783.73 L 202.92,772.42 A 1.38,1.37 40.8 0,0 201.47,772.52 L 201.16,772.74 A 0.72,0.72 0.0 0,0 201.26,773.97 Q 212.02,779.21 222.1,785.37 Q 224.68,786.95 225.94,786.42 Q 228.03,785.55 229.09,783.42 A 0.7,0.7 0.0 0,0 228.34,782.42 M 255.9778,785.6041 A 11.33,11.01 -5.5 0,0 243.6447,775.7307 A 11.33,11.01 -5.5 0,0 233.4222,787.7759 A 11.33,11.01 -5.5 0,0 245.7553,797.6493 A 11.33,11.01 -5.5 0,0 255.9778,785.6041 M 228.89,791.58 A 0.34,0.34 0.0 0,0 228.43,791.47 L 224.7,793.62 A 0.34,0.34 0.0 0,1 224.36,793.62 L 204.54,782.19 A 0.34,0.34 0.0 0,1 204.54,781.6 L 208.19,779.36 A 0.34,0.34 0.0 0,0 208.3,778.89 L 207.74,777.97 A 0.34,0.34 0.0 0,0 207.28,777.86 L 200.59,781.72 A 0.34,0.34 0.0 0,0 200.59,782.3 L 224.43,796.07 A 0.34,0.34 0.0 0,0 224.77,796.07 L 229.55,793.31 A 0.34,0.34 0.0 0,0 229.67,792.84 L 228.89,791.58"/>
  <path fill="#1b1f23" d="M 225.24,749.95 L 248.16,763.18 A 0.83,0.83 0.0 0,1 248.16,764.62 L 225.17,777.89 A 0.83,0.83 0.0 0,1 224.35,777.89 L 201.43,764.66 A 0.83,0.83 0.0 0,1 201.43,763.22 L 224.42,749.95 A 0.83,0.83 0.0 0,1 225.24,749.95 M 244.86,764.2 A 0.33,0.33 0.0 0,0 244.85,763.62 L 224.92,752.12 A 0.33,0.33 0.0 0,0 224.58,752.12 L 204.66,763.62 A 0.33,0.33 0.0 0,0 204.66,764.2 L 224.59,775.7 A 0.33,0.33 0.0 0,0 224.93,775.7 L 244.86,764.2"/>
  <path fill="#f7f7f7" d="M 244.86,764.2 L 224.93,775.7 A 0.33,0.33 0.0 0,1 224.59,775.7 L 204.66,764.2 A 0.33,0.33 0.0 0,1 204.66,763.62 L 224.58,752.12 A 0.33,0.33 0.0 0,1 224.92,752.12 L 244.85,763.62 A 0.33,0.33 0.0 0,1 244.86,764.2"/>
  <path fill="#1b1f23" d="M 228.34,782.42 A 0.7,0.7 0.0 0,1 229.09,783.42 Q 228.03,785.55 225.94,786.42 Q 224.68,786.95 222.1,785.37 Q 212.02,779.21 201.26,773.97 A 0.72,0.72 0.0 0,1 201.16,772.74 L 201.47,772.52 A 1.38,1.37 40.8 0,1 202.92,772.42 L 224.26,783.73 A 1.71,1.71 0.0 0,0 226.13,783.56 Q 227.35,782.59 228.34,782.42"/>
  <path fill="#1b1f23" d="M 255.9778,785.6041 A 11.33,11.01 -5.5 0,1 245.7553,797.6493 A 11.33,11.01 -5.5 0,1 233.4222,787.7759 A 11.33,11.01 -5.5 0,1 243.6447,775.7307 A 11.33,11.01 -5.5 0,1 255.9778,785.6041 M 235.2768,785.1854 A 9.49,9.2 -171.0 0,0 243.2108,795.7567 A 9.49,9.2 -171.0 0,0 254.0232,788.1546 A 9.49,9.2 -171.0 0,0 246.0892,777.5833 A 9.49,9.2 -171.0 0,0 235.2768,785.1854"/>
  <path fill="#49b7a4" d="M 235.2768,785.1854 A 9.49,9.2 -171.0 0,1 246.0892,777.5833 A 9.49,9.2 -171.0 0,1 254.0232,788.1546 A 9.49,9.2 -171.0 0,1 243.2108,795.7567 A 9.49,9.2 -171.0 0,1 235.2768,785.1854 M 250.1391,786.5122 A 0.87,0.87 0.0 0,0 249.2585,785.6529 L 239.8992,785.7672 A 0.87,0.87 0.0 0,0 239.0399,786.6478 L 239.0409,786.7278 A 0.87,0.87 0.0 0,0 239.9215,787.5871 L 249.2808,787.4728 A 0.87,0.87 0.0 0,0 250.1401,786.5922 L 250.1391,786.5122"/>
  <path fill="#1b1f23" d="M 228.89,791.58 L 229.67,792.84 A 0.34,0.34 0.0 0,1 229.55,793.31 L 224.77,796.07 A 0.34,0.34 0.0 0,1 224.43,796.07 L 200.59,782.3 A 0.34,0.34 0.0 0,1 200.59,781.72 L 207.28,777.86 A 0.34,0.34 0.0 0,1 207.74,777.97 L 208.3,778.89 A 0.34,0.34 0.0 0,1 208.19,779.36 L 204.54,781.6 A 0.34,0.34 0.0 0,0 204.54,782.19 L 224.36,793.62 A 0.34,0.34 0.0 0,0 224.7,793.62 L 228.43,791.47 A 0.34,0.34 0.0 0,1 228.89,791.58"/>
  <path fill="#1b1f23" d="M 250.1391,786.5122 A 0.87,0.87 0.0 0,0 249.2585,785.6529 L 239.8992,785.7672 A 0.87,0.87 0.0 0,0 239.0399,786.6478 L 239.0409,786.7278 A 0.87,0.87 0.0 0,0 239.9215,787.5871 L 249.2808,787.4728 A 0.87,0.87 0.0 0,0 250.1401,786.5922 L 250.1391,786.5122"/>
</svg>
