<?xml version="1.0" encoding="UTF-8"?>
<svg xmlns="http://www.w3.org/2000/svg" version="1.1" viewBox="1163.21 368.72 63.81 67.92">
  <path fill="none" stroke="#898b8d" stroke-width="2.00" stroke-linecap="butt" vector-effect="non-scaling-stroke" d="M 1213.67,376.89 L 1213.67,381.42 A 1.01,1.01 0.0 0,0 1214.18,382.3 L 1214.42,382.44 A 0.58,0.57 15.2 0,0 1215.29,381.95 L 1215.29,375.17 A 0.46,0.45 -0.0 0,0 1214.83,374.72 L 1207.65,374.72 A 0.61,0.61 0.0 0,0 1207.06,375.49 L 1207.13,375.79 A 0.64,0.63 82.1 0,0 1207.74,376.26 L 1213.04,376.26 A 0.63,0.63 0.0 0,1 1213.67,376.89"/>
  <path fill="none" stroke="#898b8d" stroke-width="2.00" stroke-linecap="butt" vector-effect="non-scaling-stroke" d="M 1170.87,376.87 A 0.61,0.61 0.0 0,1 1171.49,376.27 L 1176.63,376.31 A 0.62,0.61 -81.7 0,0 1177.23,375.86 L 1177.3,375.57 A 0.59,0.59 0.0 0,0 1176.73,374.82 L 1169.77,374.76 A 0.45,0.44 0.5 0,0 1169.32,375.19 L 1169.26,381.77 A 0.56,0.56 0.0 0,0 1170.1,382.25 L 1170.33,382.12 A 0.98,0.98 0.0 0,0 1170.84,381.27 L 1170.87,376.87"/>
  <path fill="none" stroke="#898b8d" stroke-width="2.00" stroke-linecap="butt" vector-effect="non-scaling-stroke" d="M 1199.8598,375.4748 A 0.59,0.59 0.0 0,0 1199.2677,374.8869 L 1186.0078,374.9331 A 0.59,0.59 0.0 0,0 1185.4199,375.5252 L 1185.4202,375.6252 A 0.59,0.59 0.0 0,0 1186.0123,376.2131 L 1199.2722,376.1669 A 0.59,0.59 0.0 0,0 1199.8601,375.5748 L 1199.8598,375.4748"/>
  <path fill="none" stroke="#898b8d" stroke-width="2.00" stroke-linecap="butt" vector-effect="non-scaling-stroke" d="M 1170.6488,389.6963 A 0.71,0.71 0.0 0,0 1169.9351,388.99 L 1169.9151,388.9901 A 0.71,0.71 0.0 0,0 1169.2088,389.7039 L 1169.2712,401.6237 A 0.71,0.71 0.0 0,0 1169.9849,402.33 L 1170.0049,402.3299 A 0.71,0.71 0.0 0,0 1170.7112,401.6161 L 1170.6488,389.6963"/>
  <path fill="none" stroke="#898b8d" stroke-width="2.00" stroke-linecap="butt" vector-effect="non-scaling-stroke" d="M 1215.5089,389.9019 A 0.99,0.99 0.0 0,0 1214.5206,388.9101 L 1214.3806,388.9099 A 0.99,0.99 0.0 0,0 1213.3889,389.8982 L 1213.3711,400.0581 A 0.99,0.99 0.0 0,0 1214.3594,401.0499 L 1214.4994,401.0501 A 0.99,0.99 0.0 0,0 1215.4911,400.0618 L 1215.5089,389.9019"/>
  <path fill="none" stroke="#898b8d" stroke-width="2.00" stroke-linecap="butt" vector-effect="non-scaling-stroke" d="M 1220.98,417.63 Q 1220.98,417.62 1220.9,417.3 A 0.13,0.07 90.0 0,0 1220.87,417.24 L 1199.27,399.61 A 0.77,0.77 0.0 0,0 1198.03,400.34 L 1202.77,427.68 A 0.56,0.56 0.0 0,0 1203.75,427.94 L 1207.6,423.23 A 0.65,0.64 -40.6 0,1 1208.66,423.31 L 1212.68,430.27 A 0.74,0.74 0.0 0,0 1213.7,430.54 L 1217.65,428.27 A 1.05,1.04 60.1 0,0 1218.03,426.84 L 1214.25,420.3 A 0.77,0.76 71.8 0,1 1214.82,419.16 L 1220.39,418.55 A 0.7,0.69 -12.5 0,0 1220.98,417.63"/>
  <path fill="none" stroke="#898b8d" stroke-width="2.00" stroke-linecap="butt" vector-effect="non-scaling-stroke" d="M 1171.44,414.91 A 0.61,0.61 0.0 0,1 1170.82,414.31 L 1170.72,409.18 A 0.62,0.61 6.8 0,0 1170.25,408.6 L 1169.96,408.54 A 0.59,0.59 0.0 0,0 1169.22,409.12 L 1169.36,416.08 A 0.45,0.44 88.9 0,0 1169.8,416.51 L 1176.37,416.39 A 0.56,0.55 73.7 0,0 1176.83,415.54 L 1176.69,415.31 A 0.98,0.98 0.0 0,0 1175.83,414.83 L 1171.44,414.91"/>
  <path fill="none" stroke="#898b8d" stroke-width="2.00" stroke-linecap="butt" vector-effect="non-scaling-stroke" d="M 1193.7605,415.5337 A 0.93,0.93 0.0 0,0 1192.8353,414.5988 L 1185.6554,414.5612 A 0.93,0.93 0.0 0,0 1184.7206,415.4863 L 1184.7195,415.6863 A 0.93,0.93 0.0 0,0 1185.6447,416.6212 L 1192.8246,416.6588 A 0.93,0.93 0.0 0,0 1193.7594,415.7337 L 1193.7605,415.5337"/>
  <path fill="none" stroke="#293839" stroke-width="2.00" stroke-linecap="butt" vector-effect="non-scaling-stroke" d="M 1213.0,416.0 Q 1208.72,409.09 1202.18,404.91 A 0.49,0.49 0.0 0,0 1201.43,405.41 L 1204.1,420.81 A 1.08,1.08 0.0 0,0 1206.11,421.14 Q 1206.67,420.11 1207.81,419.66 A 0.86,0.86 0.0 0,1 1208.83,419.96 L 1212.91,425.7 A 0.33,0.33 0.0 0,0 1213.5,425.42 L 1211.67,418.42 A 0.87,0.84 -25.8 0,1 1212.0,417.51 L 1213.3,416.59 A 0.24,0.23 70.0 0,0 1213.4,416.36 Q 1213.37,416.03 1213.0,416.0"/>
  <path fill="#f7f7f7" d="M 1213.67,376.89 L 1213.67,381.42 A 1.01,1.01 0.0 0,0 1214.18,382.3 L 1214.42,382.44 A 0.58,0.57 15.2 0,0 1215.29,381.95 L 1215.29,375.17 A 0.46,0.45 -0.0 0,0 1214.83,374.72 L 1207.65,374.72 A 0.61,0.61 0.0 0,0 1207.06,375.49 L 1207.13,375.79 A 0.64,0.63 82.1 0,0 1207.74,376.26 L 1213.04,376.26 A 0.63,0.63 0.0 0,1 1213.67,376.89 M 1170.87,376.87 A 0.61,0.61 0.0 0,1 1171.49,376.27 L 1176.63,376.31 A 0.62,0.61 -81.7 0,0 1177.23,375.86 L 1177.3,375.57 A 0.59,0.59 0.0 0,0 1176.73,374.82 L 1169.77,374.76 A 0.45,0.44 0.5 0,0 1169.32,375.19 L 1169.26,381.77 A 0.56,0.56 0.0 0,0 1170.1,382.25 L 1170.33,382.12 A 0.98,0.98 0.0 0,0 1170.84,381.27 L 1170.87,376.87 M 1199.8598,375.4748 A 0.59,0.59 0.0 0,0 1199.2677,374.8869 L 1186.0078,374.9331 A 0.59,0.59 0.0 0,0 1185.4199,375.5252 L 1185.4202,375.6252 A 0.59,0.59 0.0 0,0 1186.0123,376.2131 L 1199.2722,376.1669 A 0.59,0.59 0.0 0,0 1199.8601,375.5748 L 1199.8598,375.4748 M 1170.6488,389.6963 A 0.71,0.71 0.0 0,0 1169.9351,388.99 L 1169.9151,388.9901 A 0.71,0.71 0.0 0,0 1169.2088,389.7039 L 1169.2712,401.6237 A 0.71,0.71 0.0 0,0 1169.9849,402.33 L 1170.0049,402.3299 A 0.71,0.71 0.0 0,0 1170.7112,401.6161 L 1170.6488,389.6963 M 1215.5089,389.9019 A 0.99,0.99 0.0 0,0 1214.5206,388.9101 L 1214.3806,388.9099 A 0.99,0.99 0.0 0,0 1213.3889,389.8982 L 1213.3711,400.0581 A 0.99,0.99 0.0 0,0 1214.3594,401.0499 L 1214.4994,401.0501 A 0.99,0.99 0.0 0,0 1215.4911,400.0618 L 1215.5089,389.9019 M 1220.98,417.63 Q 1220.98,417.62 1220.9,417.3 A 0.13,0.07 90.0 0,0 1220.87,417.24 L 1199.27,399.61 A 0.77,0.77 0.0 0,0 1198.03,400.34 L 1202.77,427.68 A 0.56,0.56 0.0 0,0 1203.75,427.94 L 1207.6,423.23 A 0.65,0.64 -40.6 0,1 1208.66,423.31 L 1212.68,430.27 A 0.74,0.74 0.0 0,0 1213.7,430.54 L 1217.65,428.27 A 1.05,1.04 60.1 0,0 1218.03,426.84 L 1214.25,420.3 A 0.77,0.76 71.8 0,1 1214.82,419.16 L 1220.39,418.55 A 0.7,0.69 -12.5 0,0 1220.98,417.63 M 1171.44,414.91 A 0.61,0.61 0.0 0,1 1170.82,414.31 L 1170.72,409.18 A 0.62,0.61 6.8 0,0 1170.25,408.6 L 1169.96,408.54 A 0.59,0.59 0.0 0,0 1169.22,409.12 L 1169.36,416.08 A 0.45,0.44 88.9 0,0 1169.8,416.51 L 1176.37,416.39 A 0.56,0.55 73.7 0,0 1176.83,415.54 L 1176.69,415.31 A 0.98,0.98 0.0 0,0 1175.83,414.83 L 1171.44,414.91 M 1193.7605,415.5337 A 0.93,0.93 0.0 0,0 1192.8353,414.5988 L 1185.6554,414.5612 A 0.93,0.93 0.0 0,0 1184.7206,415.4863 L 1184.7195,415.6863 A 0.93,0.93 0.0 0,0 1185.6447,416.6212 L 1192.8246,416.6588 A 0.93,0.93 0.0 0,0 1193.7594,415.7337 L 1193.7605,415.5337"/>
  <path fill="#1b1f23" d="M 1213.04,376.26 L 1207.74,376.26 A 0.64,0.63 82.1 0,1 1207.13,375.79 L 1207.06,375.49 A 0.61,0.61 0.0 0,1 1207.65,374.72 L 1214.83,374.72 A 0.46,0.45 -0.0 0,1 1215.29,375.17 L 1215.29,381.95 A 0.58,0.57 15.2 0,1 1214.42,382.44 L 1214.18,382.3 A 1.01,1.01 0.0 0,1 1213.67,381.42 L 1213.67,376.89 A 0.63,0.63 0.0 0,0 1213.04,376.26"/>
  <path fill="#1b1f23" d="M 1170.87,376.87 L 1170.84,381.27 A 0.98,0.98 0.0 0,1 1170.33,382.12 L 1170.1,382.25 A 0.56,0.56 0.0 0,1 1169.26,381.77 L 1169.32,375.19 A 0.45,0.44 0.5 0,1 1169.77,374.76 L 1176.73,374.82 A 0.59,0.59 0.0 0,1 1177.3,375.57 L 1177.23,375.86 A 0.62,0.61 -81.7 0,1 1176.63,376.31 L 1171.49,376.27 A 0.61,0.61 0.0 0,0 1170.87,376.87"/>
  <path fill="#1b1f23" d="M 1220.98,417.63 A 0.7,0.69 -12.5 0,1 1220.39,418.55 L 1214.82,419.16 A 0.77,0.76 71.8 0,0 1214.25,420.3 L 1218.03,426.84 A 1.05,1.04 60.1 0,1 1217.65,428.27 L 1213.7,430.54 A 0.74,0.74 0.0 0,1 1212.68,430.27 L 1208.66,423.31 A 0.65,0.64 -40.6 0,0 1207.6,423.23 L 1203.75,427.94 A 0.56,0.56 0.0 0,1 1202.77,427.68 L 1198.03,400.34 A 0.77,0.77 0.0 0,1 1199.27,399.61 L 1220.87,417.24 A 0.13,0.07 -90.0 0,1 1220.9,417.3 Q 1220.98,417.62 1220.98,417.63 M 1213.0,416.0 Q 1208.72,409.09 1202.18,404.91 A 0.49,0.49 0.0 0,0 1201.43,405.41 L 1204.1,420.81 A 1.08,1.08 0.0 0,0 1206.11,421.14 Q 1206.67,420.11 1207.81,419.66 A 0.86,0.86 0.0 0,1 1208.83,419.96 L 1212.91,425.7 A 0.33,0.33 0.0 0,0 1213.5,425.42 L 1211.67,418.42 A 0.87,0.84 -25.8 0,1 1212.0,417.51 L 1213.3,416.59 A 0.24,0.23 70.0 0,0 1213.4,416.36 Q 1213.37,416.03 1213.0,416.0"/>
  <path fill="#37504e" d="M 1213.0,416.0 Q 1213.37,416.03 1213.4,416.36 A 0.24,0.23 70.0 0,1 1213.3,416.59 L 1212.0,417.51 A 0.87,0.84 -25.8 0,0 1211.67,418.42 L 1213.5,425.42 A 0.33,0.33 0.0 0,1 1212.91,425.7 L 1208.83,419.96 A 0.86,0.86 0.0 0,0 1207.81,419.66 Q 1206.67,420.11 1206.11,421.14 A 1.08,1.08 0.0 0,1 1204.1,420.81 L 1201.43,405.41 A 0.49,0.49 0.0 0,1 1202.18,404.91 Q 1208.72,409.09 1213.0,416.0"/>
  <path fill="#1b1f23" d="M 1171.44,414.91 L 1175.83,414.83 A 0.98,0.98 0.0 0,1 1176.69,415.31 L 1176.83,415.54 A 0.56,0.55 73.7 0,1 1176.37,416.39 L 1169.8,416.51 A 0.45,0.44 88.9 0,1 1169.36,416.08 L 1169.22,409.12 A 0.59,0.59 0.0 0,1 1169.96,408.54 L 1170.25,408.6 A 0.62,0.61 6.8 0,1 1170.72,409.18 L 1170.82,414.31 A 0.61,0.61 0.0 0,0 1171.44,414.91"/>
</svg>
