<?xml version="1.0" encoding="UTF-8"?>
<svg xmlns="http://www.w3.org/2000/svg" version="1.1" viewBox="857.41 922.67 58.25 75.83">
  <path fill="none" stroke="#898b8d" stroke-width="2.00" stroke-linecap="butt" vector-effect="non-scaling-stroke" d="M 863.41,951.3 Q 863.41,954.3 863.47,954.54 A 1.22,1.21 -1.5 0,0 864.44,955.46 L 867.28,955.97 A 1.78,1.74 -15.1 0,1 868.28,956.53 Q 869.15,957.51 869.7,959.18 A 1.09,1.08 54.2 0,1 869.54,960.19 L 867.45,962.9 A 0.93,0.92 41.9 0,0 867.52,964.09 L 872.16,968.97 A 1.36,1.35 -37.2 0,0 873.85,969.2 L 876.35,967.66 A 1.14,1.13 38.8 0,1 877.3,967.56 L 880.63,968.74 A 1.02,1.01 5.1 0,1 881.29,969.52 L 881.83,972.52 A 1.65,1.65 0.0 0,0 883.45,973.89 Q 883.6,973.89 886.55,973.89 Q 889.5,973.89 889.65,973.88 A 1.65,1.65 0.0 0,0 891.27,972.51 L 891.81,969.51 A 1.02,1.01 -5.2 0,1 892.47,968.73 L 895.79,967.54 A 1.14,1.13 -38.9 0,1 896.74,967.64 L 899.25,969.18 A 1.36,1.35 37.1 0,0 900.94,968.95 L 905.57,964.06 A 0.93,0.92 -42.0 0,0 905.64,962.87 L 903.54,960.16 A 1.09,1.08 -54.3 0,1 903.38,959.15 Q 903.93,957.48 904.79,956.5 A 1.78,1.74 15.0 0,1 905.79,955.94 L 908.63,955.42 A 1.22,1.21 1.4 0,0 909.6,954.5 Q 909.66,954.26 909.66,951.26 Q 909.65,948.26 909.6,948.02 A 1.22,1.21 -1.5 0,0 908.63,947.1 L 905.79,946.59 A 1.78,1.74 -15.1 0,1 904.79,946.03 Q 903.92,945.05 903.37,943.38 A 1.09,1.08 54.2 0,1 903.53,942.37 L 905.62,939.66 A 0.93,0.92 41.9 0,0 905.55,938.47 L 900.91,933.59 A 1.36,1.35 -37.2 0,0 899.22,933.36 L 896.72,934.9 A 1.14,1.13 38.8 0,1 895.77,935.0 L 892.44,933.82 A 1.02,1.01 5.1 0,1 891.78,933.04 L 891.24,930.04 A 1.65,1.65 0.0 0,0 889.62,928.67 Q 889.46,928.67 886.51,928.67 Q 883.57,928.67 883.41,928.68 A 1.65,1.65 0.0 0,0 881.79,930.05 L 881.26,933.05 A 1.02,1.01 -5.2 0,1 880.6,933.83 L 877.27,935.01 A 1.14,1.13 -38.9 0,1 876.32,934.92 L 873.82,933.38 A 1.36,1.35 37.1 0,0 872.13,933.61 L 867.5,938.5 A 0.93,0.92 -42.0 0,0 867.43,939.69 L 869.52,942.4 A 1.09,1.08 -54.3 0,1 869.69,943.41 Q 869.14,945.08 868.27,946.06 A 1.78,1.74 15.0 0,1 867.27,946.62 L 864.43,947.14 A 1.22,1.21 1.4 0,0 863.46,948.06 Q 863.41,948.3 863.41,951.3"/>
  <path fill="none" stroke="#97a4a3" stroke-width="2.00" stroke-linecap="butt" vector-effect="non-scaling-stroke" d="M 888.94,991.79 A 0.71,0.71 0.0 0,0 888.23,991.08 A 0.71,0.71 0.0 0,0 887.52,991.79 A 0.71,0.71 0.0 0,0 888.23,992.5 A 0.71,0.71 0.0 0,0 888.94,991.79"/>
  <path fill="none" stroke="#898b8d" stroke-width="2.00" stroke-linecap="butt" vector-effect="non-scaling-stroke" d="M 886.6,971.79 Q 888.4,971.79 888.83,971.78 A 0.93,0.92 -85.7 0,0 889.72,971.0 L 890.14,968.44 A 1.18,1.16 -7.7 0,1 890.82,967.56 L 895.68,965.37 A 1.3,1.29 51.1 0,1 897.0,965.52 L 898.8,966.91 A 0.91,0.91 0.0 0,0 900.01,966.81 L 902.94,963.72 A 1.19,1.18 -49.1 0,0 902.82,961.98 Q 900.93,960.5 901.48,958.75 Q 903.05,953.79 906.64,953.79 A 1.13,1.12 -0.0 0,0 907.77,952.67 L 907.77,949.59 A 1.09,1.09 0.0 0,0 906.62,948.5 Q 902.44,948.72 901.3,942.94 A 1.2,1.15 58.9 0,1 901.51,942.01 L 903.28,939.7 A 0.76,0.76 0.0 0,0 903.23,938.7 L 900.31,935.63 A 0.64,0.64 0.0 0,0 899.52,935.52 L 896.78,937.21 A 1.2,1.18 -48.7 0,1 895.71,937.29 L 890.95,935.34 A 1.64,1.63 -2.1 0,1 890.14,934.59 Q 889.49,933.31 889.55,931.4 A 0.9,0.9 0.0 0,0 888.62,930.47 Q 887.0,930.53 886.47,930.53 Q 885.94,930.53 884.32,930.48 A 0.9,0.9 0.0 0,0 883.39,931.42 Q 883.47,933.33 882.82,934.61 A 1.64,1.63 1.8 0,1 882.02,935.37 L 877.27,937.35 A 1.2,1.18 48.4 0,1 876.2,937.27 L 873.45,935.6 A 0.64,0.64 0.0 0,0 872.66,935.72 L 869.76,938.81 A 0.76,0.76 0.0 0,0 869.72,939.81 L 871.5,942.1 A 1.2,1.15 -59.2 0,1 871.72,943.03 Q 870.61,948.82 866.43,948.63 A 1.09,1.09 0.0 0,0 865.29,949.72 L 865.31,952.8 A 1.13,1.12 -0.4 0,0 866.45,953.92 Q 870.04,953.89 871.64,958.84 Q 872.2,960.59 870.32,962.08 A 1.19,1.18 48.7 0,0 870.21,963.82 L 873.16,966.89 A 0.91,0.91 0.0 0,0 874.37,966.99 L 876.16,965.59 A 1.3,1.29 -51.5 0,1 877.48,965.43 L 882.35,967.59 A 1.18,1.16 7.4 0,1 883.04,968.46 L 883.47,971.02 A 0.93,0.92 85.3 0,0 884.37,971.79 Q 884.79,971.8 886.6,971.79"/>
  <path fill="none" stroke="#898b8d" stroke-width="2.00" stroke-linecap="butt" vector-effect="non-scaling-stroke" d="M 878.3288,949.1568 A 8.44,8.27 -165.5 0,0 884.4294,959.2766 A 8.44,8.27 -165.5 0,0 894.6712,953.3832 A 8.44,8.27 -165.5 0,0 888.5706,943.2634 A 8.44,8.27 -165.5 0,0 878.3288,949.1568"/>
  <path fill="none" stroke="#898b8d" stroke-width="2.00" stroke-linecap="butt" vector-effect="non-scaling-stroke" d="M 892.6832,949.0653 A 6.5,6.27 -18.8 0,0 884.5094,945.2245 A 6.5,6.27 -18.8 0,0 880.3768,953.2547 A 6.5,6.27 -18.8 0,0 888.5506,957.0955 A 6.5,6.27 -18.8 0,0 892.6832,949.0653"/>
  <path fill="#f7f7f7" d="M 863.41,951.3 Q 863.41,954.3 863.47,954.54 A 1.22,1.21 -1.5 0,0 864.44,955.46 L 867.28,955.97 A 1.78,1.74 -15.1 0,1 868.28,956.53 Q 869.15,957.51 869.7,959.18 A 1.09,1.08 54.2 0,1 869.54,960.19 L 867.45,962.9 A 0.93,0.92 41.9 0,0 867.52,964.09 L 872.16,968.97 A 1.36,1.35 -37.2 0,0 873.85,969.2 L 876.35,967.66 A 1.14,1.13 38.8 0,1 877.3,967.56 L 880.63,968.74 A 1.02,1.01 5.1 0,1 881.29,969.52 L 881.83,972.52 A 1.65,1.65 0.0 0,0 883.45,973.89 Q 883.6,973.89 886.55,973.89 Q 889.5,973.89 889.65,973.88 A 1.65,1.65 0.0 0,0 891.27,972.51 L 891.81,969.51 A 1.02,1.01 -5.2 0,1 892.47,968.73 L 895.79,967.54 A 1.14,1.13 -38.9 0,1 896.74,967.64 L 899.25,969.18 A 1.36,1.35 37.1 0,0 900.94,968.95 L 905.57,964.06 A 0.93,0.92 -42.0 0,0 905.64,962.87 L 903.54,960.16 A 1.09,1.08 -54.3 0,1 903.38,959.15 Q 903.93,957.48 904.79,956.5 A 1.78,1.74 15.0 0,1 905.79,955.94 L 908.63,955.42 A 1.22,1.21 1.4 0,0 909.6,954.5 Q 909.66,954.26 909.66,951.26 Q 909.65,948.26 909.6,948.02 A 1.22,1.21 -1.5 0,0 908.63,947.1 L 905.79,946.59 A 1.78,1.74 -15.1 0,1 904.79,946.03 Q 903.92,945.05 903.37,943.38 A 1.09,1.08 54.2 0,1 903.53,942.37 L 905.62,939.66 A 0.93,0.92 41.9 0,0 905.55,938.47 L 900.91,933.59 A 1.36,1.35 -37.2 0,0 899.22,933.36 L 896.72,934.9 A 1.14,1.13 38.8 0,1 895.77,935.0 L 892.44,933.82 A 1.02,1.01 5.1 0,1 891.78,933.04 L 891.24,930.04 A 1.65,1.65 0.0 0,0 889.62,928.67 Q 889.46,928.67 886.51,928.67 Q 883.57,928.67 883.41,928.68 A 1.65,1.65 0.0 0,0 881.79,930.05 L 881.26,933.05 A 1.02,1.01 -5.2 0,1 880.6,933.83 L 877.27,935.01 A 1.14,1.13 -38.9 0,1 876.32,934.92 L 873.82,933.38 A 1.36,1.35 37.1 0,0 872.13,933.61 L 867.5,938.5 A 0.93,0.92 -42.0 0,0 867.43,939.69 L 869.52,942.4 A 1.09,1.08 -54.3 0,1 869.69,943.41 Q 869.14,945.08 868.27,946.06 A 1.78,1.74 15.0 0,1 867.27,946.62 L 864.43,947.14 A 1.22,1.21 1.4 0,0 863.46,948.06 Q 863.41,948.3 863.41,951.3 M 888.94,991.79 A 0.71,0.71 0.0 0,0 888.23,991.08 A 0.71,0.71 0.0 0,0 887.52,991.79 A 0.71,0.71 0.0 0,0 888.23,992.5 A 0.71,0.71 0.0 0,0 888.94,991.79"/>
  <path fill="#1b1f23" d="M 886.51,928.67 Q 889.46,928.67 889.62,928.67 A 1.65,1.65 0.0 0,1 891.24,930.04 L 891.78,933.04 A 1.02,1.01 5.1 0,0 892.44,933.82 L 895.77,935.0 A 1.14,1.13 38.8 0,0 896.72,934.9 L 899.22,933.36 A 1.36,1.35 -37.2 0,1 900.91,933.59 L 905.55,938.47 A 0.93,0.92 41.9 0,1 905.62,939.66 L 903.53,942.37 A 1.09,1.08 54.2 0,0 903.37,943.38 Q 903.92,945.05 904.79,946.03 A 1.78,1.74 -15.1 0,0 905.79,946.59 L 908.63,947.1 A 1.22,1.21 -1.5 0,1 909.6,948.02 Q 909.65,948.26 909.66,951.26 Q 909.66,954.26 909.6,954.5 A 1.22,1.21 1.4 0,1 908.63,955.42 L 905.79,955.94 A 1.78,1.74 15.0 0,0 904.79,956.5 Q 903.93,957.48 903.38,959.15 A 1.09,1.08 -54.3 0,0 903.54,960.16 L 905.64,962.87 A 0.93,0.92 -42.0 0,1 905.57,964.06 L 900.94,968.95 A 1.36,1.35 37.1 0,1 899.25,969.18 L 896.74,967.64 A 1.14,1.13 -38.9 0,0 895.79,967.54 L 892.47,968.73 A 1.02,1.01 -5.2 0,0 891.81,969.51 L 891.27,972.51 A 1.65,1.65 0.0 0,1 889.65,973.88 Q 889.5,973.89 886.55,973.89 Q 883.6,973.89 883.45,973.89 A 1.65,1.65 0.0 0,1 881.83,972.52 L 881.29,969.52 A 1.02,1.01 5.1 0,0 880.63,968.74 L 877.3,967.56 A 1.14,1.13 38.8 0,0 876.35,967.66 L 873.85,969.2 A 1.36,1.35 -37.2 0,1 872.16,968.97 L 867.52,964.09 A 0.93,0.92 41.9 0,1 867.45,962.9 L 869.54,960.19 A 1.09,1.08 54.2 0,0 869.7,959.18 Q 869.15,957.51 868.28,956.53 A 1.78,1.74 -15.1 0,0 867.28,955.97 L 864.44,955.46 A 1.22,1.21 -1.5 0,1 863.47,954.54 Q 863.41,954.3 863.41,951.3 Q 863.41,948.3 863.46,948.06 A 1.22,1.21 1.4 0,1 864.43,947.14 L 867.27,946.62 A 1.78,1.74 15.0 0,0 868.27,946.06 Q 869.14,945.08 869.69,943.41 A 1.09,1.08 -54.3 0,0 869.52,942.4 L 867.43,939.69 A 0.93,0.92 -42.0 0,1 867.5,938.5 L 872.13,933.61 A 1.36,1.35 37.1 0,1 873.82,933.38 L 876.32,934.92 A 1.14,1.13 -38.9 0,0 877.27,935.01 L 880.6,933.83 A 1.02,1.01 -5.2 0,0 881.26,933.05 L 881.79,930.05 A 1.65,1.65 0.0 0,1 883.41,928.68 Q 883.57,928.67 886.51,928.67 M 886.6,971.79 Q 888.4,971.79 888.83,971.78 A 0.93,0.92 -85.7 0,0 889.72,971.0 L 890.14,968.44 A 1.18,1.16 -7.7 0,1 890.82,967.56 L 895.68,965.37 A 1.3,1.29 51.1 0,1 897.0,965.52 L 898.8,966.91 A 0.91,0.91 0.0 0,0 900.01,966.81 L 902.94,963.72 A 1.19,1.18 -49.1 0,0 902.82,961.98 Q 900.93,960.5 901.48,958.75 Q 903.05,953.79 906.64,953.79 A 1.13,1.12 -0.0 0,0 907.77,952.67 L 907.77,949.59 A 1.09,1.09 0.0 0,0 906.62,948.5 Q 902.44,948.72 901.3,942.94 A 1.2,1.15 58.9 0,1 901.51,942.01 L 903.28,939.7 A 0.76,0.76 0.0 0,0 903.23,938.7 L 900.31,935.63 A 0.64,0.64 0.0 0,0 899.52,935.52 L 896.78,937.21 A 1.2,1.18 -48.7 0,1 895.71,937.29 L 890.95,935.34 A 1.64,1.63 -2.1 0,1 890.14,934.59 Q 889.49,933.31 889.55,931.4 A 0.9,0.9 0.0 0,0 888.62,930.47 Q 887.0,930.53 886.47,930.53 Q 885.94,930.53 884.32,930.48 A 0.9,0.9 0.0 0,0 883.39,931.42 Q 883.47,933.33 882.82,934.61 A 1.64,1.63 1.8 0,1 882.02,935.37 L 877.27,937.35 A 1.2,1.18 48.4 0,1 876.2,937.27 L 873.45,935.6 A 0.64,0.64 0.0 0,0 872.66,935.72 L 869.76,938.81 A 0.76,0.76 0.0 0,0 869.72,939.81 L 871.5,942.1 A 1.2,1.15 -59.2 0,1 871.72,943.03 Q 870.61,948.82 866.43,948.63 A 1.09,1.09 0.0 0,0 865.29,949.72 L 865.31,952.8 A 1.13,1.12 -0.4 0,0 866.45,953.92 Q 870.04,953.89 871.64,958.84 Q 872.2,960.59 870.32,962.08 A 1.19,1.18 48.7 0,0 870.21,963.82 L 873.16,966.89 A 0.91,0.91 0.0 0,0 874.37,966.99 L 876.16,965.59 A 1.3,1.29 -51.5 0,1 877.48,965.43 L 882.35,967.59 A 1.18,1.16 7.4 0,1 883.04,968.46 L 883.47,971.02 A 0.93,0.92 85.3 0,0 884.37,971.79 Q 884.79,971.8 886.6,971.79"/>
  <path fill="#f7f7f7" d="M 886.47,930.53 Q 887.0,930.53 888.62,930.47 A 0.9,0.9 0.0 0,1 889.55,931.4 Q 889.49,933.31 890.14,934.59 A 1.64,1.63 -2.1 0,0 890.95,935.34 L 895.71,937.29 A 1.2,1.18 -48.7 0,0 896.78,937.21 L 899.52,935.52 A 0.64,0.64 0.0 0,1 900.31,935.63 L 903.23,938.7 A 0.76,0.76 0.0 0,1 903.28,939.7 L 901.51,942.01 A 1.2,1.15 58.9 0,0 901.3,942.94 Q 902.44,948.72 906.62,948.5 A 1.09,1.09 0.0 0,1 907.77,949.59 L 907.77,952.67 A 1.13,1.12 0.0 0,1 906.64,953.79 Q 903.05,953.79 901.48,958.75 Q 900.93,960.5 902.82,961.98 A 1.19,1.18 -49.1 0,1 902.94,963.72 L 900.01,966.81 A 0.91,0.91 0.0 0,1 898.8,966.91 L 897.0,965.52 A 1.3,1.29 51.1 0,0 895.68,965.37 L 890.82,967.56 A 1.18,1.16 -7.7 0,0 890.14,968.44 L 889.72,971.0 A 0.93,0.92 -85.7 0,1 888.83,971.78 Q 888.4,971.79 886.6,971.79 Q 884.79,971.8 884.37,971.79 A 0.93,0.92 85.3 0,1 883.47,971.02 L 883.04,968.46 A 1.18,1.16 7.4 0,0 882.35,967.59 L 877.48,965.43 A 1.3,1.29 -51.5 0,0 876.16,965.59 L 874.37,966.99 A 0.91,0.91 0.0 0,1 873.16,966.89 L 870.21,963.82 A 1.19,1.18 48.7 0,1 870.32,962.08 Q 872.2,960.59 871.64,958.84 Q 870.04,953.89 866.45,953.92 A 1.13,1.12 -0.4 0,1 865.31,952.8 L 865.29,949.72 A 1.09,1.09 0.0 0,1 866.43,948.63 Q 870.61,948.82 871.72,943.03 A 1.2,1.15 -59.2 0,0 871.5,942.1 L 869.72,939.81 A 0.76,0.76 0.0 0,1 869.76,938.81 L 872.66,935.72 A 0.64,0.64 0.0 0,1 873.45,935.6 L 876.2,937.27 A 1.2,1.18 48.4 0,0 877.27,937.35 L 882.02,935.37 A 1.64,1.63 1.8 0,0 882.82,934.61 Q 883.47,933.33 883.39,931.42 A 0.9,0.9 0.0 0,1 884.32,930.48 Q 885.94,930.53 886.47,930.53 M 878.3288,949.1568 A 8.44,8.27 -165.5 0,0 884.4294,959.2766 A 8.44,8.27 -165.5 0,0 894.6712,953.3832 A 8.44,8.27 -165.5 0,0 888.5706,943.2634 A 8.44,8.27 -165.5 0,0 878.3288,949.1568"/>
  <path fill="#1b1f23" d="M 878.3288,949.1568 A 8.44,8.27 -165.5 0,1 888.5706,943.2634 A 8.44,8.27 -165.5 0,1 894.6712,953.3832 A 8.44,8.27 -165.5 0,1 884.4294,959.2766 A 8.44,8.27 -165.5 0,1 878.3288,949.1568 M 892.6832,949.0653 A 6.5,6.27 -18.8 0,0 884.5094,945.2245 A 6.5,6.27 -18.8 0,0 880.3768,953.2547 A 6.5,6.27 -18.8 0,0 888.5506,957.0955 A 6.5,6.27 -18.8 0,0 892.6832,949.0653"/>
</svg>
