<?xml version="1.0" encoding="UTF-8" standalone="no"?>
<!DOCTYPE svg PUBLIC "-//W3C//DTD SVG 1.1//EN" "http://www.w3.org/Graphics/SVG/1.1/DTD/svg11.dtd">
<svg xmlns="http://www.w3.org/2000/svg" version="1.1" viewBox="0.00 0.00 223.00 208.00">
<g stroke-width="2.00" fill="none" stroke-linecap="butt">
<path stroke="#ececec" vector-effect="non-scaling-stroke" d="
  M 123.01 26.13
  A 6.25 6.25 0.0 0 0 116.76 19.88
  A 6.25 6.25 0.0 0 0 110.51 26.13
  A 6.25 6.25 0.0 0 0 116.76 32.38
  A 6.25 6.25 0.0 0 0 123.01 26.13"
/>
<path stroke="#ececec" vector-effect="non-scaling-stroke" d="
  M 36.01 26.13
  A 6.14 6.14 0.0 0 0 29.87 19.99
  A 6.14 6.14 0.0 0 0 23.73 26.13
  A 6.14 6.14 0.0 0 0 29.87 32.27
  A 6.14 6.14 0.0 0 0 36.01 26.13"
/>
<path stroke="#ececec" vector-effect="non-scaling-stroke" d="
  M 79.58 26.13
  A 6.15 6.15 0.0 0 0 73.43 19.98
  A 6.15 6.15 0.0 0 0 67.28 26.13
  A 6.15 6.15 0.0 0 0 73.43 32.28
  A 6.15 6.15 0.0 0 0 79.58 26.13"
/>
<path stroke="#ececec" vector-effect="non-scaling-stroke" d="
  M 166.49 26.12
  A 6.16 6.16 0.0 0 0 160.33 19.96
  A 6.16 6.16 0.0 0 0 154.17 26.12
  A 6.16 6.16 0.0 0 0 160.33 32.28
  A 6.16 6.16 0.0 0 0 166.49 26.12"
/>
<path stroke="#ececec" vector-effect="non-scaling-stroke" d="
  M 200.22 26.14
  A 6.22 6.22 0.0 0 0 194.00 19.92
  A 6.22 6.22 0.0 0 0 187.78 26.14
  A 6.22 6.22 0.0 0 0 194.00 32.36
  A 6.22 6.22 0.0 0 0 200.22 26.14"
/>
<path stroke="#ececec" vector-effect="non-scaling-stroke" d="
  M 120.71 99.73
  Q 118.00 99.20 115.36 99.58
  A 1.58 1.55 -65.3 0 0 114.73 99.82
  Q 112.95 101.00 112.21 102.22
  A 2.22 2.16 61.6 0 0 111.90 103.31
  L 111.82 107.27"
/>
<path stroke="#86cdc2" vector-effect="non-scaling-stroke" d="
  M 111.82 107.27
  L 80.93 133.78
  A 1.37 1.35 36.9 0 1 79.47 133.98
  C 71.89 130.51 62.40 134.94 61.90 143.73
  C 61.49 150.98 65.73 156.13 72.74 156.88
  Q 77.04 157.34 80.56 155.01
  Q 87.51 150.40 85.55 140.73
  A 1.67 1.66 64.3 0 1 86.10 139.14
  L 159.20 76.61
  A 2.29 2.28 -55.3 0 1 161.48 76.19
  C 170.17 79.32 179.57 74.12 178.84 64.21
  Q 178.17 55.15 169.26 53.09
  C 159.54 50.84 153.01 59.60 154.88 68.58
  A 2.32 2.30 64.0 0 1 154.13 70.79
  L 120.71 99.73"
/>
<path stroke="#73b9af" vector-effect="non-scaling-stroke" d="
  M 111.82 107.27
  L 120.71 99.73"
/>
<path stroke="#ececec" vector-effect="non-scaling-stroke" d="
  M 35.96 65.61
  A 6.11 6.11 0.0 0 0 29.85 59.50
  A 6.11 6.11 0.0 0 0 23.74 65.61
  A 6.11 6.11 0.0 0 0 29.85 71.72
  A 6.11 6.11 0.0 0 0 35.96 65.61"
/>
<path stroke="#ececec" vector-effect="non-scaling-stroke" d="
  M 79.51 65.58
  A 6.06 6.06 0.0 0 0 73.45 59.52
  A 6.06 6.06 0.0 0 0 67.39 65.58
  A 6.06 6.06 0.0 0 0 73.45 71.64
  A 6.06 6.06 0.0 0 0 79.51 65.58"
/>
<path stroke="#ececec" vector-effect="non-scaling-stroke" d="
  M 122.91 65.64
  A 6.16 6.16 0.0 0 0 116.75 59.48
  A 6.16 6.16 0.0 0 0 110.59 65.64
  A 6.16 6.16 0.0 0 0 116.75 71.80
  A 6.16 6.16 0.0 0 0 122.91 65.64"
/>
<path stroke="#ececec" vector-effect="non-scaling-stroke" d="
  M 200.05 65.62
  A 6.11 6.11 0.0 0 0 193.94 59.51
  A 6.11 6.11 0.0 0 0 187.83 65.62
  A 6.11 6.11 0.0 0 0 193.94 71.73
  A 6.11 6.11 0.0 0 0 200.05 65.62"
/>
<path stroke="#ececec" vector-effect="non-scaling-stroke" d="
  M 36.00 104.96
  A 6.17 6.17 0.0 0 0 29.83 98.79
  A 6.17 6.17 0.0 0 0 23.66 104.96
  A 6.17 6.17 0.0 0 0 29.83 111.13
  A 6.17 6.17 0.0 0 0 36.00 104.96"
/>
<path stroke="#ececec" vector-effect="non-scaling-stroke" d="
  M 166.55 104.97
  A 6.18 6.18 0.0 0 0 160.37 98.79
  A 6.18 6.18 0.0 0 0 154.19 104.97
  A 6.18 6.18 0.0 0 0 160.37 111.15
  A 6.18 6.18 0.0 0 0 166.55 104.97"
/>
<path stroke="#ececec" vector-effect="non-scaling-stroke" d="
  M 200.22 104.97
  A 6.22 6.22 0.0 0 0 194.00 98.75
  A 6.22 6.22 0.0 0 0 187.78 104.97
  A 6.22 6.22 0.0 0 0 194.00 111.19
  A 6.22 6.22 0.0 0 0 200.22 104.97"
/>
<path stroke="#ececec" vector-effect="non-scaling-stroke" d="
  M 79.35 105.02
  A 6.01 6.01 0.0 0 0 73.34 99.01
  A 6.01 6.01 0.0 0 0 67.33 105.02
  A 6.01 6.01 0.0 0 0 73.34 111.03
  A 6.01 6.01 0.0 0 0 79.35 105.02"
/>
<path stroke="#ececec" vector-effect="non-scaling-stroke" d="
  M 35.94 144.49
  A 6.09 6.09 0.0 0 0 29.85 138.40
  A 6.09 6.09 0.0 0 0 23.76 144.49
  A 6.09 6.09 0.0 0 0 29.85 150.58
  A 6.09 6.09 0.0 0 0 35.94 144.49"
/>
<path stroke="#ececec" vector-effect="non-scaling-stroke" d="
  M 166.55 144.46
  A 6.19 6.19 0.0 0 0 160.36 138.27
  A 6.19 6.19 0.0 0 0 154.17 144.46
  A 6.19 6.19 0.0 0 0 160.36 150.65
  A 6.19 6.19 0.0 0 0 166.55 144.46"
/>
<path stroke="#ececec" vector-effect="non-scaling-stroke" d="
  M 200.13 144.50
  A 6.18 6.18 0.0 0 0 193.95 138.32
  A 6.18 6.18 0.0 0 0 187.77 144.50
  A 6.18 6.18 0.0 0 0 193.95 150.68
  A 6.18 6.18 0.0 0 0 200.13 144.50"
/>
<path stroke="#ececec" vector-effect="non-scaling-stroke" d="
  M 122.86 144.52
  A 6.10 6.10 0.0 0 0 116.76 138.42
  A 6.10 6.10 0.0 0 0 110.66 144.52
  A 6.10 6.10 0.0 0 0 116.76 150.62
  A 6.10 6.10 0.0 0 0 122.86 144.52"
/>
<path stroke="#ececec" vector-effect="non-scaling-stroke" d="
  M 122.93 183.80
  A 6.19 6.19 0.0 0 0 116.74 177.61
  A 6.19 6.19 0.0 0 0 110.55 183.80
  A 6.19 6.19 0.0 0 0 116.74 189.99
  A 6.19 6.19 0.0 0 0 122.93 183.80"
/>
<path stroke="#ececec" vector-effect="non-scaling-stroke" d="
  M 200.21 183.78
  A 6.26 6.26 0.0 0 0 193.95 177.52
  A 6.26 6.26 0.0 0 0 187.69 183.78
  A 6.26 6.26 0.0 0 0 193.95 190.04
  A 6.26 6.26 0.0 0 0 200.21 183.78"
/>
<path stroke="#ececec" vector-effect="non-scaling-stroke" d="
  M 35.96 183.81
  A 6.11 6.11 0.0 0 0 29.85 177.70
  A 6.11 6.11 0.0 0 0 23.74 183.81
  A 6.11 6.11 0.0 0 0 29.85 189.92
  A 6.11 6.11 0.0 0 0 35.96 183.81"
/>
<path stroke="#ececec" vector-effect="non-scaling-stroke" d="
  M 166.48 183.79
  A 6.14 6.14 0.0 0 0 160.34 177.65
  A 6.14 6.14 0.0 0 0 154.20 183.79
  A 6.14 6.14 0.0 0 0 160.34 189.93
  A 6.14 6.14 0.0 0 0 166.48 183.79"
/>
<path stroke="#ececec" vector-effect="non-scaling-stroke" d="
  M 79.09 184.08
  A 5.76 5.76 0.0 0 0 73.33 178.32
  A 5.76 5.76 0.0 0 0 67.57 184.08
  A 5.76 5.76 0.0 0 0 73.33 189.84
  A 5.76 5.76 0.0 0 0 79.09 184.08"
/>
</g>
<path fill="#ffffff" d="
  M 223.00 0.00
  L 223.00 208.00
  L 0.00 208.00
  L 0.00 0.00
  L 223.00 0.00
  Z
  M 123.01 26.13
  A 6.25 6.25 0.0 0 0 116.76 19.88
  A 6.25 6.25 0.0 0 0 110.51 26.13
  A 6.25 6.25 0.0 0 0 116.76 32.38
  A 6.25 6.25 0.0 0 0 123.01 26.13
  Z
  M 36.01 26.13
  A 6.14 6.14 0.0 0 0 29.87 19.99
  A 6.14 6.14 0.0 0 0 23.73 26.13
  A 6.14 6.14 0.0 0 0 29.87 32.27
  A 6.14 6.14 0.0 0 0 36.01 26.13
  Z
  M 79.58 26.13
  A 6.15 6.15 0.0 0 0 73.43 19.98
  A 6.15 6.15 0.0 0 0 67.28 26.13
  A 6.15 6.15 0.0 0 0 73.43 32.28
  A 6.15 6.15 0.0 0 0 79.58 26.13
  Z
  M 166.49 26.12
  A 6.16 6.16 0.0 0 0 160.33 19.96
  A 6.16 6.16 0.0 0 0 154.17 26.12
  A 6.16 6.16 0.0 0 0 160.33 32.28
  A 6.16 6.16 0.0 0 0 166.49 26.12
  Z
  M 200.22 26.14
  A 6.22 6.22 0.0 0 0 194.00 19.92
  A 6.22 6.22 0.0 0 0 187.78 26.14
  A 6.22 6.22 0.0 0 0 194.00 32.36
  A 6.22 6.22 0.0 0 0 200.22 26.14
  Z
  M 120.71 99.73
  Q 118.00 99.20 115.36 99.58
  A 1.58 1.55 -65.3 0 0 114.73 99.82
  Q 112.95 101.00 112.21 102.22
  A 2.22 2.16 61.6 0 0 111.90 103.31
  L 111.82 107.27
  L 80.93 133.78
  A 1.37 1.35 36.9 0 1 79.47 133.98
  C 71.89 130.51 62.40 134.94 61.90 143.73
  C 61.49 150.98 65.73 156.13 72.74 156.88
  Q 77.04 157.34 80.56 155.01
  Q 87.51 150.40 85.55 140.73
  A 1.67 1.66 64.3 0 1 86.10 139.14
  L 159.20 76.61
  A 2.29 2.28 -55.3 0 1 161.48 76.19
  C 170.17 79.32 179.57 74.12 178.84 64.21
  Q 178.17 55.15 169.26 53.09
  C 159.54 50.84 153.01 59.60 154.88 68.58
  A 2.32 2.30 64.0 0 1 154.13 70.79
  L 120.71 99.73
  Z
  M 35.96 65.61
  A 6.11 6.11 0.0 0 0 29.85 59.50
  A 6.11 6.11 0.0 0 0 23.74 65.61
  A 6.11 6.11 0.0 0 0 29.85 71.72
  A 6.11 6.11 0.0 0 0 35.96 65.61
  Z
  M 79.51 65.58
  A 6.06 6.06 0.0 0 0 73.45 59.52
  A 6.06 6.06 0.0 0 0 67.39 65.58
  A 6.06 6.06 0.0 0 0 73.45 71.64
  A 6.06 6.06 0.0 0 0 79.51 65.58
  Z
  M 122.91 65.64
  A 6.16 6.16 0.0 0 0 116.75 59.48
  A 6.16 6.16 0.0 0 0 110.59 65.64
  A 6.16 6.16 0.0 0 0 116.75 71.80
  A 6.16 6.16 0.0 0 0 122.91 65.64
  Z
  M 200.05 65.62
  A 6.11 6.11 0.0 0 0 193.94 59.51
  A 6.11 6.11 0.0 0 0 187.83 65.62
  A 6.11 6.11 0.0 0 0 193.94 71.73
  A 6.11 6.11 0.0 0 0 200.05 65.62
  Z
  M 36.00 104.96
  A 6.17 6.17 0.0 0 0 29.83 98.79
  A 6.17 6.17 0.0 0 0 23.66 104.96
  A 6.17 6.17 0.0 0 0 29.83 111.13
  A 6.17 6.17 0.0 0 0 36.00 104.96
  Z
  M 166.55 104.97
  A 6.18 6.18 0.0 0 0 160.37 98.79
  A 6.18 6.18 0.0 0 0 154.19 104.97
  A 6.18 6.18 0.0 0 0 160.37 111.15
  A 6.18 6.18 0.0 0 0 166.55 104.97
  Z
  M 200.22 104.97
  A 6.22 6.22 0.0 0 0 194.00 98.75
  A 6.22 6.22 0.0 0 0 187.78 104.97
  A 6.22 6.22 0.0 0 0 194.00 111.19
  A 6.22 6.22 0.0 0 0 200.22 104.97
  Z
  M 79.35 105.02
  A 6.01 6.01 0.0 0 0 73.34 99.01
  A 6.01 6.01 0.0 0 0 67.33 105.02
  A 6.01 6.01 0.0 0 0 73.34 111.03
  A 6.01 6.01 0.0 0 0 79.35 105.02
  Z
  M 35.94 144.49
  A 6.09 6.09 0.0 0 0 29.85 138.40
  A 6.09 6.09 0.0 0 0 23.76 144.49
  A 6.09 6.09 0.0 0 0 29.85 150.58
  A 6.09 6.09 0.0 0 0 35.94 144.49
  Z
  M 166.55 144.46
  A 6.19 6.19 0.0 0 0 160.36 138.27
  A 6.19 6.19 0.0 0 0 154.17 144.46
  A 6.19 6.19 0.0 0 0 160.36 150.65
  A 6.19 6.19 0.0 0 0 166.55 144.46
  Z
  M 200.13 144.50
  A 6.18 6.18 0.0 0 0 193.95 138.32
  A 6.18 6.18 0.0 0 0 187.77 144.50
  A 6.18 6.18 0.0 0 0 193.95 150.68
  A 6.18 6.18 0.0 0 0 200.13 144.50
  Z
  M 122.86 144.52
  A 6.10 6.10 0.0 0 0 116.76 138.42
  A 6.10 6.10 0.0 0 0 110.66 144.52
  A 6.10 6.10 0.0 0 0 116.76 150.62
  A 6.10 6.10 0.0 0 0 122.86 144.52
  Z
  M 122.93 183.80
  A 6.19 6.19 0.0 0 0 116.74 177.61
  A 6.19 6.19 0.0 0 0 110.55 183.80
  A 6.19 6.19 0.0 0 0 116.74 189.99
  A 6.19 6.19 0.0 0 0 122.93 183.80
  Z
  M 200.21 183.78
  A 6.26 6.26 0.0 0 0 193.95 177.52
  A 6.26 6.26 0.0 0 0 187.69 183.78
  A 6.26 6.26 0.0 0 0 193.95 190.04
  A 6.26 6.26 0.0 0 0 200.21 183.78
  Z
  M 35.96 183.81
  A 6.11 6.11 0.0 0 0 29.85 177.70
  A 6.11 6.11 0.0 0 0 23.74 183.81
  A 6.11 6.11 0.0 0 0 29.85 189.92
  A 6.11 6.11 0.0 0 0 35.96 183.81
  Z
  M 166.48 183.79
  A 6.14 6.14 0.0 0 0 160.34 177.65
  A 6.14 6.14 0.0 0 0 154.20 183.79
  A 6.14 6.14 0.0 0 0 160.34 189.93
  A 6.14 6.14 0.0 0 0 166.48 183.79
  Z
  M 79.09 184.08
  A 5.76 5.76 0.0 0 0 73.33 178.32
  A 5.76 5.76 0.0 0 0 67.57 184.08
  A 5.76 5.76 0.0 0 0 73.33 189.84
  A 5.76 5.76 0.0 0 0 79.09 184.08
  Z"
/>
<circle fill="#d8d8d8" cx="116.76" cy="26.13" r="6.25"/>
<circle fill="#d8d8d8" cx="29.87" cy="26.13" r="6.14"/>
<circle fill="#d8d8d8" cx="73.43" cy="26.13" r="6.15"/>
<circle fill="#d8d8d8" cx="160.33" cy="26.12" r="6.16"/>
<circle fill="#d8d8d8" cx="194.00" cy="26.14" r="6.22"/>
<path fill="#0d9a85" d="
  M 111.82 107.27
  L 120.71 99.73
  L 154.13 70.79
  A 2.32 2.30 64.0 0 0 154.88 68.58
  C 153.01 59.60 159.54 50.84 169.26 53.09
  Q 178.17 55.15 178.84 64.21
  C 179.57 74.12 170.17 79.32 161.48 76.19
  A 2.29 2.28 -55.3 0 0 159.20 76.61
  L 86.10 139.14
  A 1.67 1.66 64.3 0 0 85.55 140.73
  Q 87.51 150.40 80.56 155.01
  Q 77.04 157.34 72.74 156.88
  C 65.73 156.13 61.49 150.98 61.90 143.73
  C 62.40 134.94 71.89 130.51 79.47 133.98
  A 1.37 1.35 36.9 0 0 80.93 133.78
  L 111.82 107.27
  Z"
/>
<circle fill="#d8d8d8" cx="29.85" cy="65.61" r="6.11"/>
<circle fill="#d8d8d8" cx="73.45" cy="65.58" r="6.06"/>
<circle fill="#d8d8d8" cx="116.75" cy="65.64" r="6.16"/>
<circle fill="#d8d8d8" cx="193.94" cy="65.62" r="6.11"/>
<circle fill="#d8d8d8" cx="29.83" cy="104.96" r="6.17"/>
<circle fill="#d8d8d8" cx="160.37" cy="104.97" r="6.18"/>
<circle fill="#d8d8d8" cx="194.00" cy="104.97" r="6.22"/>
<circle fill="#d8d8d8" cx="73.34" cy="105.02" r="6.01"/>
<path fill="#d8d8d8" d="
  M 120.71 99.73
  L 111.82 107.27
  L 111.90 103.31
  A 2.22 2.16 61.6 0 1 112.21 102.22
  Q 112.95 101.00 114.73 99.82
  A 1.58 1.55 -65.3 0 1 115.36 99.58
  Q 118.00 99.20 120.71 99.73
  Z"
/>
<circle fill="#d8d8d8" cx="29.85" cy="144.49" r="6.09"/>
<circle fill="#d8d8d8" cx="160.36" cy="144.46" r="6.19"/>
<circle fill="#d8d8d8" cx="193.95" cy="144.50" r="6.18"/>
<circle fill="#d8d8d8" cx="116.76" cy="144.52" r="6.10"/>
<circle fill="#d8d8d8" cx="116.74" cy="183.80" r="6.19"/>
<circle fill="#d8d8d8" cx="193.95" cy="183.78" r="6.26"/>
<circle fill="#d8d8d8" cx="29.85" cy="183.81" r="6.11"/>
<circle fill="#d8d8d8" cx="160.34" cy="183.79" r="6.14"/>
<circle fill="#d8d8d8" cx="73.33" cy="184.08" r="5.76"/>
</svg>
