<?xml version="1.0" encoding="UTF-8" standalone="no"?>
<!DOCTYPE svg PUBLIC "-//W3C//DTD SVG 1.1//EN" "http://www.w3.org/Graphics/SVG/1.1/DTD/svg11.dtd">
<svg xmlns="http://www.w3.org/2000/svg" version="1.1" viewBox="0.00 0.00 306.00 176.00">
<g stroke-width="2.00" fill="none" stroke-linecap="butt">
<path stroke="#969696" vector-effect="non-scaling-stroke" d="
  M 149.87 69.53
  C 158.84 77.16 169.75 77.66 179.25 70.83
  A 1.01 1.00 48.5 0 1 180.51 70.91
  L 235.13 122.25
  A 0.42 0.41 -50.5 0 1 235.18 122.80
  C 224.75 136.66 234.15 157.71 252.10 157.72
  C 261.50 157.72 270.16 152.62 273.31 143.95
  C 280.65 123.77 259.36 105.96 241.03 117.30
  A 0.60 0.59 -39.1 0 1 240.31 117.23
  L 185.06 65.30
  A 1.02 1.01 -55.7 0 1 184.84 64.11
  Q 190.36 52.89 184.46 42.40
  C 180.72 35.74 172.57 31.28 165.00 31.56
  C 152.45 32.03 143.46 41.35 143.27 54.01
  C 143.22 56.78 144.22 59.94 145.10 62.74
  A 0.95 0.93 -26.8 0 1 144.75 63.78
  L 65.62 120.09
  A 0.55 0.55 0.0 0 1 64.92 120.05
  C 59.38 114.82 51.73 112.58 44.24 114.39
  C 20.66 120.09 22.61 154.20 46.28 157.49
  C 53.84 158.54 61.83 155.72 66.47 149.94
  Q 74.92 139.42 69.64 126.59
  A 0.65 0.65 0.0 0 1 69.86 125.81
  L 149.00 69.49
  A 0.71 0.71 0.0 0 1 149.87 69.53"
/>
<path stroke="#21635a" vector-effect="non-scaling-stroke" d="
  M 180.14 53.67
  A 14.79 14.79 0.0 0 0 165.35 38.88
  A 14.79 14.79 0.0 0 0 150.56 53.67
  A 14.79 14.79 0.0 0 0 165.35 68.46
  A 14.79 14.79 0.0 0 0 180.14 53.67"
/>
<path stroke="#8b8b8b" vector-effect="non-scaling-stroke" d="
  M 64.29 135.83
  A 14.87 14.87 0.0 0 0 49.42 120.96
  A 14.87 14.87 0.0 0 0 34.55 135.83
  A 14.87 14.87 0.0 0 0 49.42 150.70
  A 14.87 14.87 0.0 0 0 64.29 135.83"
/>
<path stroke="#8b8b8b" vector-effect="non-scaling-stroke" d="
  M 267.54 135.88
  A 14.82 14.82 0.0 0 0 252.72 121.06
  A 14.82 14.82 0.0 0 0 237.90 135.88
  A 14.82 14.82 0.0 0 0 252.72 150.70
  A 14.82 14.82 0.0 0 0 267.54 135.88"
/>
</g>
<path fill="#ffffff" d="
  M 306.00 0.00
  L 306.00 176.00
  L 0.00 176.00
  L 0.00 0.00
  L 306.00 0.00
  Z
  M 149.87 69.53
  C 158.84 77.16 169.75 77.66 179.25 70.83
  A 1.01 1.00 48.5 0 1 180.51 70.91
  L 235.13 122.25
  A 0.42 0.41 -50.5 0 1 235.18 122.80
  C 224.75 136.66 234.15 157.71 252.10 157.72
  C 261.50 157.72 270.16 152.62 273.31 143.95
  C 280.65 123.77 259.36 105.96 241.03 117.30
  A 0.60 0.59 -39.1 0 1 240.31 117.23
  L 185.06 65.30
  A 1.02 1.01 -55.7 0 1 184.84 64.11
  Q 190.36 52.89 184.46 42.40
  C 180.72 35.74 172.57 31.28 165.00 31.56
  C 152.45 32.03 143.46 41.35 143.27 54.01
  C 143.22 56.78 144.22 59.94 145.10 62.74
  A 0.95 0.93 -26.8 0 1 144.75 63.78
  L 65.62 120.09
  A 0.55 0.55 0.0 0 1 64.92 120.05
  C 59.38 114.82 51.73 112.58 44.24 114.39
  C 20.66 120.09 22.61 154.20 46.28 157.49
  C 53.84 158.54 61.83 155.72 66.47 149.94
  Q 74.92 139.42 69.64 126.59
  A 0.65 0.65 0.0 0 1 69.86 125.81
  L 149.00 69.49
  A 0.71 0.71 0.0 0 1 149.87 69.53
  Z"
/>
<path fill="#2c2d2c" d="
  M 149.00 69.49
  L 69.86 125.81
  A 0.65 0.65 0.0 0 0 69.64 126.59
  Q 74.92 139.42 66.47 149.94
  C 61.83 155.72 53.84 158.54 46.28 157.49
  C 22.61 154.20 20.66 120.09 44.24 114.39
  C 51.73 112.58 59.38 114.82 64.92 120.05
  A 0.55 0.55 0.0 0 0 65.62 120.09
  L 144.75 63.78
  A 0.95 0.93 -26.8 0 0 145.10 62.74
  C 144.22 59.94 143.22 56.78 143.27 54.01
  C 143.46 41.35 152.45 32.03 165.00 31.56
  C 172.57 31.28 180.72 35.74 184.46 42.40
  Q 190.36 52.89 184.84 64.11
  A 1.02 1.01 -55.7 0 0 185.06 65.30
  L 240.31 117.23
  A 0.60 0.59 -39.1 0 0 241.03 117.30
  C 259.36 105.96 280.65 123.77 273.31 143.95
  C 270.16 152.62 261.50 157.72 252.10 157.72
  C 234.15 157.71 224.75 136.66 235.18 122.80
  A 0.42 0.41 -50.5 0 0 235.13 122.25
  L 180.51 70.91
  A 1.01 1.00 48.5 0 0 179.25 70.83
  C 169.75 77.66 158.84 77.16 149.87 69.53
  A 0.71 0.71 0.0 0 0 149.00 69.49
  Z
  M 180.14 53.67
  A 14.79 14.79 0.0 0 0 165.35 38.88
  A 14.79 14.79 0.0 0 0 150.56 53.67
  A 14.79 14.79 0.0 0 0 165.35 68.46
  A 14.79 14.79 0.0 0 0 180.14 53.67
  Z
  M 64.29 135.83
  A 14.87 14.87 0.0 0 0 49.42 120.96
  A 14.87 14.87 0.0 0 0 34.55 135.83
  A 14.87 14.87 0.0 0 0 49.42 150.70
  A 14.87 14.87 0.0 0 0 64.29 135.83
  Z
  M 267.54 135.88
  A 14.82 14.82 0.0 0 0 252.72 121.06
  A 14.82 14.82 0.0 0 0 237.90 135.88
  A 14.82 14.82 0.0 0 0 252.72 150.70
  A 14.82 14.82 0.0 0 0 267.54 135.88
  Z"
/>
<circle fill="#159987" cx="165.35" cy="53.67" r="14.79"/>
<circle fill="#e9e9ea" cx="49.42" cy="135.83" r="14.87"/>
<circle fill="#e9e9ea" cx="252.72" cy="135.88" r="14.82"/>
</svg>
