<?xml version="1.0" encoding="UTF-8" standalone="no"?>
<!DOCTYPE svg PUBLIC "-//W3C//DTD SVG 1.1//EN" "http://www.w3.org/Graphics/SVG/1.1/DTD/svg11.dtd">
<svg xmlns="http://www.w3.org/2000/svg" version="1.1" viewBox="0.00 0.00 278.00 155.00">
<rect fill="#2a2a2a" x="-3.54" y="-78.84" transform="translate(77.78,80.62) rotate(44.6)" width="7.08" height="157.68" rx="0.63"/>
<path fill="#0e9a85" d="
  M 152.26 75.15
  Q 172.57 75.16 174.43 75.12
  A 0.39 0.39 0.0 0 0 174.70 74.45
  L 162.65 62.40
  A 0.64 0.64 0.0 0 1 162.65 61.48
  L 169.41 54.71
  A 0.68 0.67 -44.7 0 1 170.36 54.71
  Q 188.51 72.86 195.58 80.31
  C 195.69 80.43 195.69 80.40 195.69 80.62
  C 195.69 80.84 195.69 80.82 195.58 80.93
  Q 188.50 88.36 170.32 106.48
  A 0.68 0.67 44.8 0 1 169.37 106.48
  L 162.62 99.70
  A 0.64 0.64 0.0 0 1 162.62 98.78
  L 174.69 86.75
  A 0.39 0.39 0.0 0 0 174.42 86.08
  Q 172.56 86.04 152.25 86.02
  Q 131.94 86.00 130.08 86.05
  A 0.39 0.39 0.0 0 0 129.81 86.71
  L 141.86 98.76
  A 0.64 0.64 0.0 0 1 141.86 99.68
  L 135.10 106.45
  A 0.68 0.67 -44.7 0 1 134.15 106.45
  Q 116.00 88.30 108.93 80.85
  C 108.82 80.74 108.82 80.76 108.82 80.54
  C 108.82 80.33 108.82 80.35 108.93 80.23
  Q 116.01 72.80 134.20 54.68
  A 0.68 0.67 44.8 0 1 135.15 54.68
  L 141.89 61.47
  A 0.64 0.64 0.0 0 1 141.89 62.39
  L 129.82 74.42
  A 0.39 0.39 0.0 0 0 130.09 75.08
  Q 131.95 75.13 152.26 75.15
  Z"
/>
<path fill="#2a2a2a" d="
  M 255.45 80.75
  A 22.00 22.00 0.0 0 1 233.45 102.75
  A 22.00 22.00 0.0 0 1 211.45 80.75
  A 22.00 22.00 0.0 0 1 233.45 58.75
  A 22.00 22.00 0.0 0 1 255.45 80.75
  Z
  M 248.42 80.77
  A 14.93 14.93 0.0 0 0 233.49 65.84
  A 14.93 14.93 0.0 0 0 218.56 80.77
  A 14.93 14.93 0.0 0 0 233.49 95.70
  A 14.93 14.93 0.0 0 0 248.42 80.77
  Z"
/>
</svg>
