<?xml version="1.0" encoding="UTF-8" standalone="no"?>
<!DOCTYPE svg PUBLIC "-//W3C//DTD SVG 1.1//EN" "http://www.w3.org/Graphics/SVG/1.1/DTD/svg11.dtd">
<svg xmlns="http://www.w3.org/2000/svg" version="1.1" viewBox="0.00 0.00 256.00 212.00">
<g stroke-width="2.00" fill="none" stroke-linecap="butt">
<path stroke="#969796" vector-effect="non-scaling-stroke" d="
  M 204.95 190.52
  L 208.66 186.61
  A 0.87 0.87 0.0 0 0 208.63 185.38
  L 142.31 122.50
  A 0.37 0.37 0.0 0 1 142.28 121.99
  C 158.60 102.20 160.90 73.33 147.87 51.30
  C 137.66 34.02 119.90 22.56 100.01 20.82
  C 77.73 18.87 55.84 28.29 42.92 46.94
  Q 28.63 67.57 32.30 92.24
  C 34.91 109.77 46.00 126.23 60.79 135.35
  C 84.64 150.06 116.41 147.44 136.81 127.79
  A 0.38 0.38 0.0 0 1 137.33 127.79
  L 203.54 190.56
  A 1.00 0.99 -46.4 0 0 204.95 190.52"
/>
<path stroke="#87cdc2" vector-effect="non-scaling-stroke" d="
  M 126.36 164.71
  C 126.35 164.72 126.13 164.87 126.09 164.87
  Q 113.56 164.81 111.76 164.91
  A 2.33 2.32 8.2 0 0 109.71 166.44
  Q 109.40 167.29 109.40 169.24
  Q 109.40 171.19 109.71 172.04
  A 2.33 2.32 -8.1 0 0 111.76 173.57
  Q 113.56 173.67 126.09 173.62
  C 126.13 173.62 126.34 173.77 126.36 173.78
  C 126.37 173.79 126.52 174.01 126.51 174.05
  Q 126.46 186.58 126.56 188.38
  A 2.33 2.32 -81.8 0 0 128.08 190.43
  Q 128.93 190.74 130.88 190.74
  Q 132.84 190.74 133.69 190.43
  A 2.33 2.32 81.9 0 0 135.21 188.38
  Q 135.32 186.58 135.27 174.05
  C 135.27 174.01 135.41 173.80 135.43 173.78
  C 135.44 173.77 135.65 173.62 135.69 173.62
  Q 148.23 173.68 150.03 173.58
  A 2.33 2.32 8.2 0 0 152.07 172.06
  Q 152.38 171.21 152.38 169.26
  Q 152.38 167.30 152.08 166.45
  A 2.33 2.32 -8.1 0 0 150.03 164.93
  Q 148.23 164.82 135.70 164.87
  C 135.65 164.87 135.44 164.73 135.43 164.71
  C 135.42 164.70 135.27 164.49 135.27 164.45
  Q 135.33 151.91 135.23 150.11
  A 2.33 2.32 -81.8 0 0 133.70 148.07
  Q 132.85 147.76 130.90 147.76
  Q 128.95 147.76 128.10 148.06
  A 2.33 2.32 81.9 0 0 126.57 150.11
  Q 126.47 151.91 126.52 164.44
  C 126.52 164.48 126.37 164.70 126.36 164.71"
/>
<path stroke="#8b8c8b" vector-effect="non-scaling-stroke" d="
  M 148.93 82.65
  A 55.02 55.02 0.0 0 0 93.91 27.63
  A 55.02 55.02 0.0 0 0 38.89 82.65
  A 55.02 55.02 0.0 0 0 93.91 137.67
  A 55.02 55.02 0.0 0 0 148.93 82.65"
/>
<path stroke="#7cc2b7" vector-effect="non-scaling-stroke" d="
  M 65.78 97.31
  A 0.71 0.71 0.0 0 0 65.08 98.15
  Q 67.77 114.06 83.37 118.35
  C 98.24 122.43 121.18 119.22 122.18 99.25
  C 123.17 79.54 104.31 78.01 90.51 73.49
  C 85.48 71.85 81.29 69.69 81.60 64.08
  C 82.10 55.20 93.72 54.43 99.75 56.69
  C 103.73 58.18 105.79 60.97 106.77 65.02
  A 1.07 1.06 83.0 0 0 107.80 65.83
  L 119.80 65.83
  A 0.70 0.69 85.4 0 0 120.48 65.02
  Q 118.18 50.70 104.29 46.69
  Q 95.44 44.13 86.19 45.92
  C 76.55 47.79 69.23 53.40 68.11 63.75
  C 66.14 81.89 83.87 84.97 96.71 88.55
  C 103.06 90.32 108.07 92.29 108.02 99.58
  C 107.97 109.03 97.48 110.19 90.37 108.86
  Q 81.24 107.17 79.21 97.94
  A 0.79 0.79 0.0 0 0 78.44 97.31
  L 65.78 97.31"
/>
</g>
<path fill="#ffffff" d="
  M 256.00 0.00
  L 256.00 212.00
  L 0.00 212.00
  L 0.00 0.00
  L 256.00 0.00
  Z
  M 204.95 190.52
  L 208.66 186.61
  A 0.87 0.87 0.0 0 0 208.63 185.38
  L 142.31 122.50
  A 0.37 0.37 0.0 0 1 142.28 121.99
  C 158.60 102.20 160.90 73.33 147.87 51.30
  C 137.66 34.02 119.90 22.56 100.01 20.82
  C 77.73 18.87 55.84 28.29 42.92 46.94
  Q 28.63 67.57 32.30 92.24
  C 34.91 109.77 46.00 126.23 60.79 135.35
  C 84.64 150.06 116.41 147.44 136.81 127.79
  A 0.38 0.38 0.0 0 1 137.33 127.79
  L 203.54 190.56
  A 1.00 0.99 -46.4 0 0 204.95 190.52
  Z
  M 126.36 164.71
  C 126.35 164.72 126.13 164.87 126.09 164.87
  Q 113.56 164.81 111.76 164.91
  A 2.33 2.32 8.2 0 0 109.71 166.44
  Q 109.40 167.29 109.40 169.24
  Q 109.40 171.19 109.71 172.04
  A 2.33 2.32 -8.1 0 0 111.76 173.57
  Q 113.56 173.67 126.09 173.62
  C 126.13 173.62 126.34 173.77 126.36 173.78
  C 126.37 173.79 126.52 174.01 126.51 174.05
  Q 126.46 186.58 126.56 188.38
  A 2.33 2.32 -81.8 0 0 128.08 190.43
  Q 128.93 190.74 130.88 190.74
  Q 132.84 190.74 133.69 190.43
  A 2.33 2.32 81.9 0 0 135.21 188.38
  Q 135.32 186.58 135.27 174.05
  C 135.27 174.01 135.41 173.80 135.43 173.78
  C 135.44 173.77 135.65 173.62 135.69 173.62
  Q 148.23 173.68 150.03 173.58
  A 2.33 2.32 8.2 0 0 152.07 172.06
  Q 152.38 171.21 152.38 169.26
  Q 152.38 167.30 152.08 166.45
  A 2.33 2.32 -8.1 0 0 150.03 164.93
  Q 148.23 164.82 135.70 164.87
  C 135.65 164.87 135.44 164.73 135.43 164.71
  C 135.42 164.70 135.27 164.49 135.27 164.45
  Q 135.33 151.91 135.23 150.11
  A 2.33 2.32 -81.8 0 0 133.70 148.07
  Q 132.85 147.76 130.90 147.76
  Q 128.95 147.76 128.10 148.06
  A 2.33 2.32 81.9 0 0 126.57 150.11
  Q 126.47 151.91 126.52 164.44
  C 126.52 164.48 126.37 164.70 126.36 164.71
  Z"
/>
<path fill="#2d2e2d" d="
  M 203.54 190.56
  L 137.33 127.79
  A 0.38 0.38 0.0 0 0 136.81 127.79
  C 116.41 147.44 84.64 150.06 60.79 135.35
  C 46.00 126.23 34.91 109.77 32.30 92.24
  Q 28.63 67.57 42.92 46.94
  C 55.84 28.29 77.73 18.87 100.01 20.82
  C 119.90 22.56 137.66 34.02 147.87 51.30
  C 160.90 73.33 158.60 102.20 142.28 121.99
  A 0.37 0.37 0.0 0 0 142.31 122.50
  L 208.63 185.38
  A 0.87 0.87 0.0 0 1 208.66 186.61
  L 204.95 190.52
  A 1.00 0.99 -46.4 0 1 203.54 190.56
  Z
  M 148.93 82.65
  A 55.02 55.02 0.0 0 0 93.91 27.63
  A 55.02 55.02 0.0 0 0 38.89 82.65
  A 55.02 55.02 0.0 0 0 93.91 137.67
  A 55.02 55.02 0.0 0 0 148.93 82.65
  Z"
/>
<path fill="#e9e9e9" d="
  M 148.93 82.65
  A 55.02 55.02 0.0 0 1 93.91 137.67
  A 55.02 55.02 0.0 0 1 38.89 82.65
  A 55.02 55.02 0.0 0 1 93.91 27.63
  A 55.02 55.02 0.0 0 1 148.93 82.65
  Z
  M 65.78 97.31
  A 0.71 0.71 0.0 0 0 65.08 98.15
  Q 67.77 114.06 83.37 118.35
  C 98.24 122.43 121.18 119.22 122.18 99.25
  C 123.17 79.54 104.31 78.01 90.51 73.49
  C 85.48 71.85 81.29 69.69 81.60 64.08
  C 82.10 55.20 93.72 54.43 99.75 56.69
  C 103.73 58.18 105.79 60.97 106.77 65.02
  A 1.07 1.06 83.0 0 0 107.80 65.83
  L 119.80 65.83
  A 0.70 0.69 85.4 0 0 120.48 65.02
  Q 118.18 50.70 104.29 46.69
  Q 95.44 44.13 86.19 45.92
  C 76.55 47.79 69.23 53.40 68.11 63.75
  C 66.14 81.89 83.87 84.97 96.71 88.55
  C 103.06 90.32 108.07 92.29 108.02 99.58
  C 107.97 109.03 97.48 110.19 90.37 108.86
  Q 81.24 107.17 79.21 97.94
  A 0.79 0.79 0.0 0 0 78.44 97.31
  L 65.78 97.31
  Z"
/>
<path fill="#0e9a85" d="
  M 65.78 97.31
  L 78.44 97.31
  A 0.79 0.79 0.0 0 1 79.21 97.94
  Q 81.24 107.17 90.37 108.86
  C 97.48 110.19 107.97 109.03 108.02 99.58
  C 108.07 92.29 103.06 90.32 96.71 88.55
  C 83.87 84.97 66.14 81.89 68.11 63.75
  C 69.23 53.40 76.55 47.79 86.19 45.92
  Q 95.44 44.13 104.29 46.69
  Q 118.18 50.70 120.48 65.02
  A 0.70 0.69 85.4 0 1 119.80 65.83
  L 107.80 65.83
  A 1.07 1.06 83.0 0 1 106.77 65.02
  C 105.79 60.97 103.73 58.18 99.75 56.69
  C 93.72 54.43 82.10 55.20 81.60 64.08
  C 81.29 69.69 85.48 71.85 90.51 73.49
  C 104.31 78.01 123.17 79.54 122.18 99.25
  C 121.18 119.22 98.24 122.43 83.37 118.35
  Q 67.77 114.06 65.08 98.15
  A 0.71 0.71 0.0 0 1 65.78 97.31
  Z"
/>
<path fill="#0e9a85" d="
  M 130.90 147.76
  Q 132.85 147.76 133.70 148.07
  A 2.33 2.32 -81.8 0 1 135.23 150.11
  Q 135.33 151.91 135.27 164.45
  C 135.27 164.49 135.42 164.70 135.43 164.71
  C 135.44 164.73 135.65 164.87 135.70 164.87
  Q 148.23 164.82 150.03 164.93
  A 2.33 2.32 -8.1 0 1 152.08 166.45
  Q 152.38 167.30 152.38 169.26
  Q 152.38 171.21 152.07 172.06
  A 2.33 2.32 8.2 0 1 150.03 173.58
  Q 148.23 173.68 135.69 173.62
  C 135.65 173.62 135.44 173.77 135.43 173.78
  C 135.41 173.80 135.27 174.01 135.27 174.05
  Q 135.32 186.58 135.21 188.38
  A 2.33 2.32 81.9 0 1 133.69 190.43
  Q 132.84 190.74 130.88 190.74
  Q 128.93 190.74 128.08 190.43
  A 2.33 2.32 -81.8 0 1 126.56 188.38
  Q 126.46 186.58 126.51 174.05
  C 126.52 174.01 126.37 173.79 126.36 173.78
  C 126.34 173.77 126.13 173.62 126.09 173.62
  Q 113.56 173.67 111.76 173.57
  A 2.33 2.32 -8.1 0 1 109.71 172.04
  Q 109.40 171.19 109.40 169.24
  Q 109.40 167.29 109.71 166.44
  A 2.33 2.32 8.2 0 1 111.76 164.91
  Q 113.56 164.81 126.09 164.87
  C 126.13 164.87 126.35 164.72 126.36 164.71
  C 126.37 164.70 126.52 164.48 126.52 164.44
  Q 126.47 151.91 126.57 150.11
  A 2.33 2.32 81.9 0 1 128.10 148.06
  Q 128.95 147.76 130.90 147.76
  Z"
/>
</svg>
