<?xml version="1.0" encoding="UTF-8"?>
<svg xmlns="http://www.w3.org/2000/svg" version="1.1" viewBox="1249.63 565.59 80.18 47.80">
  <path fill="none" stroke="#898b8d" stroke-width="2.00" stroke-linecap="butt" vector-effect="non-scaling-stroke" d="M 1299.16,583.54 L 1313.54,597.17 A 1.11,1.09 -57.0 0,1 1313.79,598.4 Q 1312.0,602.54 1314.42,605.05 C 1320.74,611.58 1328.13,600.13 1320.68,596.28 Q 1318.66,595.24 1316.49,596.44 A 0.71,0.71 0.0 0,1 1315.67,596.33 L 1301.01,582.44 A 1.78,1.78 0.0 0,1 1300.54,580.58 C 1303.7,571.12 1289.43,567.66 1287.54,577.46 A 1.02,1.02 0.0 0,0 1287.54,577.86 L 1288.09,580.51 A 0.77,0.77 0.0 0,1 1287.78,581.29 L 1266.62,596.34 A 1.16,1.15 44.7 0,1 1265.29,596.34 C 1260.31,592.83 1253.9,597.51 1256.06,603.61 C 1258.51,610.49 1270.14,607.35 1267.77,599.29 A 1.18,1.18 0.0 0,1 1268.22,597.99 L 1289.08,583.15 A 0.85,0.84 44.6 0,1 1290.05,583.15 Q 1294.26,586.05 1297.9,583.45 A 1.0,0.99 -40.7 0,1 1299.16,583.54"/>
  <path fill="none" stroke="#627c7a" stroke-width="2.00" stroke-linecap="butt" vector-effect="non-scaling-stroke" d="M 1295.7932,573.7094 A 4.55,4.32 -69.1 0,0 1290.1342,576.4189 A 4.55,4.32 -69.1 0,0 1292.5468,582.2106 A 4.55,4.32 -69.1 0,0 1298.2058,579.5011 A 4.55,4.32 -69.1 0,0 1295.7932,573.7094"/>
  <path fill="none" stroke="#898b8d" stroke-width="2.00" stroke-linecap="butt" vector-effect="non-scaling-stroke" d="M 1265.8811,600.4525 A 4.07,3.84 -11.3 0,0 1261.1376,597.4844 A 4.07,3.84 -11.3 0,0 1257.8989,602.0475 A 4.07,3.84 -11.3 0,0 1262.6424,605.0156 A 4.07,3.84 -11.3 0,0 1265.8811,600.4525"/>
  <path fill="none" stroke="#898b8d" stroke-width="2.00" stroke-linecap="butt" vector-effect="non-scaling-stroke" d="M 1318.536,597.8619 A 3.5,3.34 -88.1 0,0 1315.0818,601.2493 A 3.5,3.34 -88.1 0,0 1318.304,604.8581 A 3.5,3.34 -88.1 0,0 1321.7582,601.4707 A 3.5,3.34 -88.1 0,0 1318.536,597.8619"/>
  <path fill="#f7f7f7" d="M 1299.16,583.54 L 1313.54,597.17 A 1.11,1.09 -57.0 0,1 1313.79,598.4 Q 1312.0,602.54 1314.42,605.05 C 1320.74,611.58 1328.13,600.13 1320.68,596.28 Q 1318.66,595.24 1316.49,596.44 A 0.71,0.71 0.0 0,1 1315.67,596.33 L 1301.01,582.44 A 1.78,1.78 0.0 0,1 1300.54,580.58 C 1303.7,571.12 1289.43,567.66 1287.54,577.46 A 1.02,1.02 0.0 0,0 1287.54,577.86 L 1288.09,580.51 A 0.77,0.77 0.0 0,1 1287.78,581.29 L 1266.62,596.34 A 1.16,1.15 44.7 0,1 1265.29,596.34 C 1260.31,592.83 1253.9,597.51 1256.06,603.61 C 1258.51,610.49 1270.14,607.35 1267.77,599.29 A 1.18,1.18 0.0 0,1 1268.22,597.99 L 1289.08,583.15 A 0.85,0.84 44.6 0,1 1290.05,583.15 Q 1294.26,586.05 1297.9,583.45 A 1.0,0.99 -40.7 0,1 1299.16,583.54"/>
  <path fill="#1b1f23" d="M 1297.9,583.45 Q 1294.26,586.05 1290.05,583.15 A 0.85,0.84 44.6 0,0 1289.08,583.15 L 1268.22,597.99 A 1.18,1.18 0.0 0,0 1267.77,599.29 C 1270.14,607.35 1258.51,610.49 1256.06,603.61 C 1253.9,597.51 1260.31,592.83 1265.29,596.34 A 1.16,1.15 44.7 0,0 1266.62,596.34 L 1287.78,581.29 A 0.77,0.77 0.0 0,0 1288.09,580.51 L 1287.54,577.86 A 1.02,1.02 0.0 0,1 1287.54,577.46 C 1289.43,567.66 1303.7,571.12 1300.54,580.58 A 1.78,1.78 0.0 0,0 1301.01,582.44 L 1315.67,596.33 A 0.71,0.71 0.0 0,0 1316.49,596.44 Q 1318.66,595.24 1320.68,596.28 C 1328.13,600.13 1320.74,611.58 1314.42,605.05 Q 1312.0,602.54 1313.79,598.4 A 1.11,1.09 -57.0 0,0 1313.54,597.17 L 1299.16,583.54 A 1.0,0.99 -40.7 0,0 1297.9,583.45 M 1295.7932,573.7094 A 4.55,4.32 -69.1 0,0 1290.1342,576.4189 A 4.55,4.32 -69.1 0,0 1292.5468,582.2106 A 4.55,4.32 -69.1 0,0 1298.2058,579.5011 A 4.55,4.32 -69.1 0,0 1295.7932,573.7094 M 1265.8811,600.4525 A 4.07,3.84 -11.3 0,0 1261.1376,597.4844 A 4.07,3.84 -11.3 0,0 1257.8989,602.0475 A 4.07,3.84 -11.3 0,0 1262.6424,605.0156 A 4.07,3.84 -11.3 0,0 1265.8811,600.4525 M 1318.536,597.8619 A 3.5,3.34 -88.1 0,0 1315.0818,601.2493 A 3.5,3.34 -88.1 0,0 1318.304,604.8581 A 3.5,3.34 -88.1 0,0 1321.7582,601.4707 A 3.5,3.34 -88.1 0,0 1318.536,597.8619"/>
</svg>
